<?xml version="1.0" standalone="no"?>
<!DOCTYPE svg PUBLIC "-//W3C//DTD SVG 1.1//EN" "http://www.w3.org/Graphics/SVG/1.1/DTD/svg11.dtd" >
<svg xmlns="http://www.w3.org/2000/svg" xmlns:xlink="http://www.w3.org/1999/xlink" version="1.1">
<metadata>
Created by FontForge 20150102 at Thu Jan 29 16:19:51 2015
 By uniteet7
Copyright (c) 2008 by G-Type Designed and digitized by Nick Cooke. All rights reserved.
</metadata>
<defs>
<font id="HouschkaProMedium" horiz-adv-x="600" >
  <font-face 
    font-family="HouschkaProMedium"
    font-weight="500"
    font-stretch="normal"
    units-per-em="1000"
    panose-1="2 0 6 3 0 0 0 2 0 3"
    ascent="760"
    descent="-240"
    x-height="452"
    cap-height="681"
    bbox="-156 -251 1307.5 978"
    underline-thickness="50"
    underline-position="-50"
    unicode-range="U+0020-FB06"
  />
<missing-glyph horiz-adv-x="500" 
d="M0 690h500v-690h-500v690zM250 301l-181 -249h361zM69 638l181 -249l180 249h-361zM218 345l-166 229v-458zM282 345l166 -229v458z" />
    <glyph glyph-name="ffj" unicode="ffj" horiz-adv-x="761" 
d="M616 394h-181v-385q0 -9 -10 -9h-54q-9 0 -9 9v385h-194v-385q0 -9 -10 -9h-54q-9 0 -9 9v385h-58q-10 0 -10 9v39q0 10 10 10h58v61q0 90 37 130q34 36 95 36q69 0 126 -41q8 -6 4 -13l-16 -35q-5 -10 -15 -2q-40 29 -82 29q-39 0 -58 -24q-18 -24 -18 -87v-54h194v67
q0 78 32 119q38 51 118 51q78 0 134 -42q7 -7 4 -13l-18 -37q-6 -9 -16 -3q-44 33 -89 33q-49 0 -72 -31q-20 -27 -20 -84v-60h244q10 0 10 -10v-459q0 -162 -92 -214q-9 -6 -18 3l-33 34q-9 8 1 15q39 24 54 66t15 111v396z" />
    <glyph glyph-name="fj" unicode="fj" horiz-adv-x="494" 
d="M168 394v-385q0 -9 -10 -9h-54q-9 0 -9 9v385h-58q-10 0 -10 9v39q0 10 10 10h58v67q0 76 32 119q39 51 119 51q77 0 133 -42q8 -6 4 -13l-18 -37q-5 -11 -15 -3q-44 33 -90 33q-49 0 -71 -31q-21 -28 -21 -84v-60h244q10 0 10 -10v-459q0 -162 -92 -214q-8 -5 -18 3
l-33 34q-9 8 1 15q39 24 54 66t15 111v396h-181z" />
    <glyph glyph-name="ff" unicode="ff" horiz-adv-x="606" 
d="M362 394h-194v-385q0 -9 -10 -9h-54q-9 0 -9 9v385h-58q-10 0 -10 9v39q0 10 10 10h58v61q0 92 37 130q33 36 95 36q75 0 126 -41q9 -5 4 -13l-16 -35q-5 -10 -15 -2q-40 29 -82 29q-37 0 -58 -24q-18 -24 -18 -87v-54h194v71q0 90 40 131q35 35 98 35q80 0 134 -42
q8 -5 4 -13l-19 -37q-4 -11 -15 -3q-42 33 -89 33q-39 0 -59 -24q-21 -25 -21 -87v-64h134q10 0 10 -10v-39q0 -9 -10 -9h-134v-385q0 -9 -10 -9h-54q-9 0 -9 9v385z" />
    <glyph glyph-name="fi" unicode="fi" horiz-adv-x="494" 
d="M260 627q-49 0 -71 -31q-21 -28 -21 -84v-60h244q10 0 10 -10v-433q0 -9 -10 -9h-54q-9 0 -9 9v385h-181v-385q0 -9 -10 -9h-54q-9 0 -9 9v385h-58q-10 0 -10 9v39q0 10 10 10h58v67q0 76 32 119q39 51 119 51q77 0 133 -42q8 -6 4 -13l-18 -37q-5 -11 -15 -3
q-44 33 -90 33z" />
    <glyph glyph-name="fl" unicode="fl" horiz-adv-x="495" 
d="M414 656q9 -4 9 -14v-633q0 -9 -9 -9h-54q-10 0 -10 9v584q0 8 -7 14q-33 22 -82 22q-93 0 -93 -117v-60h127q9 0 9 -10v-39q0 -9 -9 -9h-127v-385q0 -9 -10 -9h-54q-9 0 -9 9v385h-58q-10 0 -10 9v39q0 10 10 10h58v72q0 166 167 166q92 0 152 -34z" />
    <glyph glyph-name="ffi" unicode="ffi" horiz-adv-x="761" 
d="M362 394h-194v-385q0 -9 -10 -9h-54q-9 0 -9 9v385h-58q-10 0 -10 9v39q0 10 10 10h58v61q0 92 37 130q33 36 95 36q75 0 126 -41q9 -5 4 -13l-16 -35q-5 -10 -15 -2q-40 29 -82 29q-37 0 -58 -24q-18 -24 -18 -87v-54h194v67q0 78 32 119q38 51 118 51q78 0 134 -42
q8 -6 4 -13l-18 -37q-6 -9 -16 -3q-44 33 -89 33q-49 0 -72 -31q-20 -27 -20 -84v-60h244q10 0 10 -10v-433q0 -9 -10 -9h-54q-9 0 -9 9v385h-181v-385q0 -9 -10 -9h-54q-9 0 -9 9v385z" />
    <glyph glyph-name="ffl" unicode="ffl" horiz-adv-x="762" 
d="M244 617q-37 0 -58 -24q-18 -24 -18 -87v-54h194v72q0 166 167 166q92 0 151 -34q10 -4 10 -14v-633q0 -9 -10 -9h-54q-9 0 -9 9v584q0 8 -7 14q-33 22 -82 22q-93 0 -93 -117v-60h126q10 0 10 -10v-39q0 -9 -10 -9h-126v-385q0 -9 -10 -9h-54q-9 0 -9 9v385h-194v-385
q0 -9 -10 -9h-54q-9 0 -9 9v385h-58q-10 0 -10 9v39q0 10 10 10h58v61q0 92 37 130q33 36 95 36q75 0 126 -41q9 -5 4 -13l-16 -35q-5 -10 -15 -2q-40 29 -82 29z" />
    <glyph glyph-name=".notdef" horiz-adv-x="500" 
d="M0 690h500v-690h-500v690zM250 301l-181 -249h361zM69 638l181 -249l180 249h-361zM218 345l-166 229v-458zM282 345l166 -229v458z" />
    <glyph glyph-name=".null" horiz-adv-x="0" 
 />
    <glyph glyph-name="nonmarkingreturn" horiz-adv-x="333" 
 />
    <glyph glyph-name="space" unicode=" " horiz-adv-x="254" 
 />
    <glyph glyph-name="exclam" unicode="!" horiz-adv-x="260" 
d="M184 37q0 -19 -13 -32.5t-33 -13.5t-33 13.5t-13 32.5t13 32.5t33 13.5t33 -13.5t13 -32.5zM102 681h73q10 0 8 -10l-19 -470q0 -10 -9 -10h-33q-9 0 -9 10l-20 470q0 10 9 10z" />
    <glyph glyph-name="quotedbl" unicode="&#x22;" horiz-adv-x="284" 
d="M49 681h51q14 0 12 -17l-12 -173q-1 -15 -14 -15h-24q-13 0 -14 15l-11 173q-2 17 12 17zM184 681h51q14 0 12 -17l-12 -173q-1 -15 -13 -15h-25q-13 0 -13 15l-12 173q-2 17 12 17z" />
    <glyph glyph-name="numbersign" unicode="#" horiz-adv-x="680" 
d="M622 121h-161l-40 -190q-3 -10 -13 -10h-37q-13 0 -9 13l39 187h-187l-40 -190q-1 -10 -13 -10h-37q-11 0 -8 13l39 187h-146q-9 0 -9 9v40q0 9 9 9h158l39 182h-148q-9 0 -9 9v40q0 9 9 9h160l40 190q2 10 14 10h36q11 0 9 -15l-40 -185h187l41 190q3 10 14 10h35
q12 0 9 -15l-40 -185h147q10 0 10 -9v-40q0 -9 -10 -9h-159l-38 -182h149q9 0 9 -9v-40q0 -9 -9 -9zM265 361l-38 -182h187l38 182h-187z" />
    <glyph glyph-name="dollar" unicode="$" 
d="M521 179q0 -91 -67 -142q-50 -40 -132 -46v-65q0 -9 -10 -9h-22q-10 0 -10 9v64q-112 4 -200 61q-9 5 -5 13l23 48q3 8 13 3q29 -18 47.5 -28t57 -21.5t77.5 -11.5q66 0 105 28q42 33 42 91q0 62 -81 97q-23 10 -85.5 28.5t-99.5 36.5q-94 47 -94 139q0 79 55 122
q52 44 145 47v67q0 10 10 10h22q10 0 10 -10v-66q100 -3 168 -44q8 -4 4 -13l-22 -47q-5 -8 -14 -3q-73 43 -157 43q-78 0 -114 -33q-29 -25 -29 -71q0 -33 23.5 -55t68.5 -38q16 -6 84.5 -26t103.5 -40q83 -49 83 -138z" />
    <glyph glyph-name="percent" unicode="%" horiz-adv-x="650" 
d="M288 536q0 46 -32.5 78.5t-78.5 32.5t-78.5 -32.5t-32.5 -78.5t32.5 -78.5t78.5 -32.5q47 0 79 32.5t32 78.5zM331 536q0 -63 -45.5 -108t-107.5 -45q-63 0 -108 44.5t-45 108.5q0 63 45 108t108 45q62 0 107.5 -45t45.5 -108zM361 143q0 -47 32.5 -79.5t79.5 -32.5
q46 0 78 32.5t32 79.5q0 46 -32 78.5t-78 32.5t-79 -32.5t-33 -78.5zM319 143q0 63 45.5 108t107.5 45q63 0 108 -45t45 -108t-45 -108t-108 -45t-108 45t-45 108zM89 11l424 662q5 8 13 8h30q6 0 7.5 -3.5t-1.5 -8.5l-424 -662q-4 -7 -13 -7h-30q-13 0 -6 11z" />
    <glyph glyph-name="ampersand" unicode="&#x26;" horiz-adv-x="655" 
d="M624 63q10 0 10 -12v-52q0 -9 -11 -9q-67 0 -161 66q-74 -66 -187 -66q-102 0 -167 48.5t-65 146.5q0 114 149 190q-43 83 -43 146q0 73 43 114.5t117 41.5q70 0 109.5 -38t39.5 -101q0 -34 -13 -62t-42.5 -51.5t-51 -37t-63.5 -35.5q64 -112 165 -200q41 60 41 162
q0 10 9 10h51q10 0 10 -10q0 -123 -53 -201q66 -50 113 -50zM388 537q0 38 -21.5 59.5t-58.5 21.5q-39 0 -62.5 -26t-23.5 -73q0 -49 35 -111q31 16 45 23.5t39 25t36 37.5t11 43zM281 48q79 0 128 49q-112 96 -187 221q-105 -56 -105 -134q0 -68 44 -102t120 -34z" />
    <glyph glyph-name="quotesingle" unicode="'" horiz-adv-x="149" 
d="M49 681h51q14 0 12 -17l-12 -173q-1 -15 -14 -15h-24q-13 0 -14 15l-11 173q-2 17 12 17z" />
    <glyph glyph-name="parenleft" unicode="(" horiz-adv-x="273" 
d="M51 318q0 276 117 458q8 12 20 12h48q22 0 11 -20q-118 -199 -118 -450t118 -451q11 -19 -11 -19h-48q-13 0 -20 11q-117 182 -117 459z" />
    <glyph glyph-name="parenright" unicode=")" horiz-adv-x="273" 
d="M222 318q0 -277 -117 -459q-7 -11 -20 -11h-48q-22 0 -11 19q118 200 118 451t-118 450q-11 20 11 20h48q13 0 20 -12q117 -182 117 -458z" />
    <glyph glyph-name="asterisk" unicode="*" horiz-adv-x="423" 
d="M317 562l-76 -20l50 -62q20 -24 26 -31q16 -23 -2 -38q-20 -14 -38 9q-2 3 -5.5 8.5t-7.5 11t-9 13.5l-44 67l-43 -67q-18 -28 -22 -33q-18 -22 -37 -9q-20 15 -2 38q6 8 25 31l50 62l-77 20l-38 10q-29 9 -20 32q6 24 35 14q20 -6 38 -13l74 -29l-5 80q-2 36 -2 40
q0 29 24 29q25 0 25 -29q0 -4 -2 -40l-4 -80l74 29q17 7 37 13q28 10 35 -14q8 -24 -20 -32q-5 -2 -18 -5t-21 -5z" />
    <glyph glyph-name="plus" unicode="+" horiz-adv-x="560" 
d="M314 584v-197h198q9 0 9 -9v-50q0 -10 -9 -10h-198v-197q0 -10 -9 -10h-50q-10 0 -10 10v197h-197q-9 0 -9 10v50q0 9 9 9h197v197q0 10 10 10h50q9 0 9 -10z" />
    <glyph glyph-name="comma" unicode="," horiz-adv-x="196" 
d="M152 15q1 -34 -22 -65.5t-56 -44.5q-10 -3 -15 3l-8 12q-4 8 4 14q30 23 30 41q0 11 -18 26t-18 37q0 20 12.5 32t34.5 12q54 0 56 -67z" />
    <glyph glyph-name="hyphen" unicode="-" horiz-adv-x="499" 
d="M401 255h-303q-9 0 -9 10v50q0 9 9 9h303q9 0 9 -9v-50q0 -10 -9 -10z" />
    <glyph glyph-name="period" unicode="." horiz-adv-x="184" 
d="M141 37q0 -19 -13.5 -33t-32.5 -14t-32.5 13.5t-13.5 33.5q0 19 13.5 32t32.5 13t32.5 -13t13.5 -32z" />
    <glyph glyph-name="slash" unicode="/" horiz-adv-x="373" 
d="M396 668l-338 -659q-4 -9 -14 -9h-60q-16 0 -8 13l337 658q5 10 15 10h59q6 0 8.5 -4t0.5 -9z" />
    <glyph glyph-name="zero" unicode="0" 
d="M552 340q0 -172 -64.5 -261t-187.5 -89t-188 89t-65 261t65 261t188 89t187.5 -89t64.5 -261zM473 340q0 140 -45 211q-43 66 -128 66q-84 0 -128 -66q-47 -74 -47 -211q0 -140 46 -211q43 -66 129 -66q83 0 128 66q45 70 45 211z" />
    <glyph glyph-name="one" unicode="1" 
d="M277 604l-145 -56q-14 -4 -14 9v49q0 10 10 14l162 63q12 5 21 5h36q10 0 10 -10v-609h139q10 0 10 -10v-50q0 -9 -10 -9h-367q-10 0 -10 9v50q0 10 10 10h148v535z" />
    <glyph glyph-name="two" unicode="2" 
d="M163 69h340q9 0 9 -10v-50q0 -9 -9 -9h-415q-10 0 -10 9v28q0 70 15 112t51 78q37 38 118 83t106 64q63 48 63 117q0 52 -32 89q-38 43 -111 43q-77 0 -161 -57q-12 -6 -16 3l-22 43q-4 8 4 14q99 64 201 64q105 0 166 -67q47 -53 47 -130q0 -97 -84 -163
q-33 -27 -109 -69t-108 -72q-24 -23 -33.5 -49t-9.5 -71z" />
    <glyph glyph-name="three" unicode="3" 
d="M247 318h-31q-10 0 -10 10v45q0 9 10 9h26q66 0 104 26q47 32 47 94q0 55 -40 90q-38 31 -89 31q-72 0 -142 -47q-11 -7 -16 2l-21 41q-5 10 4 15q86 56 180 56q79 0 133 -44q63 -51 63 -135q0 -116 -110 -156q65 -19 100 -63.5t35 -109.5q0 -91 -71 -145
q-60 -47 -156 -47q-112 0 -183 44q-10 7 -5 16l21 44q5 9 16 2q64 -42 146 -42q64 0 104 28q52 37 52 106q0 73 -64 110q-36 20 -103 20z" />
    <glyph glyph-name="four" unicode="4" horiz-adv-x="601" 
d="M435 0h-58q-9 0 -9 9v147h-314q-10 0 -10 10v43q0 7 7 18l312 448q7 11 20 11h52q10 0 10 -9v-455h97q10 0 10 -9v-47q0 -10 -10 -10h-97v-147q0 -9 -10 -9zM368 568l-237 -346h237v346z" />
    <glyph glyph-name="five" unicode="5" 
d="M98 323l27 348q0 10 9 10h349q10 0 10 -10v-50q0 -9 -10 -9h-290l-18 -222q24 21 57 33q34 14 75 14q99 0 158 -64q54 -60 54 -158q0 -94 -60 -157q-68 -68 -178 -68q-122 0 -193 63q-10 5 -6 15l21 45q5 8 13 2q37 -32 73.5 -46.5t91.5 -14.5q71 0 116 45q45 47 45 115
q0 72 -42 116q-40 43 -103 43q-52 0 -91 -25q-27 -17 -48 -44q-3 -7 -14 -5l-36 9q-10 1 -10 15z" />
    <glyph glyph-name="six" unicode="6" 
d="M307 353q-108 0 -160 -98q5 -85 34 -132q40 -65 126 -65q65 0 104.5 41.5t39.5 106.5q0 68 -38.5 107.5t-105.5 39.5zM67 309q0 168 61 267q71 114 207 114q54 0 99 -12q40 -10 76 -31q8 -5 4 -14l-22 -46q-4 -8 -15 -2q-33 17 -66 26q-36 10 -77 10q-99 0 -148 -92
q-38 -71 -38 -197q27 39 62 60q46 29 105 29q107 0 165 -67q48 -56 48 -146q0 -101 -66 -162q-62 -56 -156 -56q-111 0 -169 67q-70 78 -70 252z" />
    <glyph glyph-name="seven" unicode="7" 
d="M82 681h428q10 0 10 -10v-44q0 -6 -5 -18l-280 -600q-5 -9 -15 -9h-64q-16 0 -8 15l230 477q17 35 65 120h-300v-98q0 -10 -10 -10h-51q-10 0 -10 10v157q0 10 10 10z" />
    <glyph glyph-name="eight" unicode="8" 
d="M463 179q0 54 -44.5 87t-122.5 61q-72 -25 -115 -59.5t-43 -87.5q0 -59 41 -94.5t121 -35.5t121.5 35t41.5 94zM438 518q0 55 -39.5 83.5t-97.5 28.5q-59 0 -98.5 -25t-39.5 -81q0 -27 12.5 -49t36 -38t43.5 -25.5t49 -20.5q134 51 134 127zM373 360q38 -17 61.5 -30.5
t51 -36t41 -52t13.5 -66.5q0 -87 -63.5 -136t-176.5 -49q-114 0 -177 48.5t-63 135.5q0 38 15.5 69.5t43 53.5t52 36t56.5 27q-64 29 -103 66.5t-39 97.5q0 83 61.5 124.5t152.5 41.5q87 0 151.5 -42t64.5 -126q0 -32 -12 -59t-35.5 -46t-44 -31.5t-50.5 -25.5z" />
    <glyph glyph-name="nine" unicode="9" 
d="M450 427q-5 94 -45.5 144t-113.5 50q-66 0 -105.5 -42t-39.5 -106q0 -70 38 -109t106 -39q106 0 160 102zM530 370q0 -168 -61 -267q-71 -114 -207 -114q-54 0 -99 12q-40 10 -76 31q-8 5 -4 14l22 46q4 8 15 2q33 -17 66 -26q36 -10 77 -10q99 0 148 92q38 71 38 197
q-27 -39 -62 -60q-46 -29 -105 -29q-107 0 -165 67q-48 56 -48 146q0 101 66 162q62 56 156 56q111 0 169 -67q70 -78 70 -252z" />
    <glyph glyph-name="colon" unicode=":" horiz-adv-x="191" 
d="M142 37q0 -20 -13 -33.5t-32 -13.5t-32.5 13.5t-13.5 33.5q0 19 13.5 32t32.5 13t32 -13t13 -32zM142 415q0 -20 -13 -33.5t-32 -13.5t-32.5 13.5t-13.5 33.5q0 19 13.5 32t32.5 13t32 -13t13 -32z" />
    <glyph glyph-name="semicolon" unicode=";" horiz-adv-x="191" 
d="M146 415q0 -20 -13.5 -33.5t-32.5 -13.5t-32.5 13.5t-13.5 33.5q0 19 13.5 32t32.5 13t32.5 -13t13.5 -32zM155 15q0 -34 -23 -65.5t-56 -44.5q-10 -3 -15 3l-7 12q-5 8 3 14q30 23 30 41q0 11 -18 26t-18 37q0 20 13 32t35 12q54 0 56 -67z" />
    <glyph glyph-name="less" unicode="&#x3c;" horiz-adv-x="614" 
d="M50 320v65q0 11 9 15l484 207q13 5 13 -7v-59q0 -11 -10 -15l-412 -173l412 -174q10 -3 10 -15v-59q0 -12 -13 -7l-484 208q-9 4 -9 14z" />
    <glyph glyph-name="equal" unicode="=" horiz-adv-x="560" 
d="M512 198h-464q-9 0 -9 9v50q0 10 9 10h464q9 0 9 -10v-50q0 -9 -9 -9zM512 438h-464q-9 0 -9 9v50q0 10 9 10h464q9 0 9 -10v-50q0 -9 -9 -9z" />
    <glyph glyph-name="greater" unicode="&#x3e;" horiz-adv-x="615" 
d="M564 385v-65q0 -10 -9 -14l-484 -208q-13 -4 -13 7v59q0 12 9 15l412 174l-412 173q-9 4 -9 15v59q0 11 13 7l484 -207q9 -4 9 -15z" />
    <glyph glyph-name="question" unicode="?" horiz-adv-x="490" 
d="M243 624q-92 0 -184 -77q-7 -7 -13 2l-21 41q-4 7 5 15q92 85 217 85q90 0 148 -53q62 -54 62 -142q0 -54 -25.5 -89.5t-77.5 -72.5q-54 -40 -72.5 -69.5t-20.5 -76.5q-1 -10 -12 -10h-37q-9 0 -12 8q-6 19 -6 40q0 51 46 99q11 12 24.5 23.5t34.5 28t33 26.5
q49 41 49 93q0 60 -41 95q-37 34 -97 34zM272 37q0 -20 -13.5 -33.5t-32.5 -13.5t-32.5 13.5t-13.5 33.5q0 19 13.5 32t32.5 13t32.5 -13t13.5 -32z" />
    <glyph glyph-name="at" unicode="@" horiz-adv-x="801" 
d="M510 228v119q-106 -5 -158 -23q-69 -22 -69 -77q0 -36 30 -59q27 -21 73 -21q88 0 124 61zM425 15q74 0 143 15.5t105 37.5q11 8 14 -3l6 -18q3 -7 -5 -11q-41 -24 -115.5 -39.5t-147.5 -15.5q-165 0 -270.5 98.5t-105.5 259.5q0 144 109.5 248t262.5 104q143 0 237 -81
t94 -217q0 -107 -49 -183t-127 -76q-55 0 -61 53q-43 -54 -130 -54q-54 0 -94 26q-48 32 -48 89q0 79 102 110q60 18 165 23q0 66 -31 95q-31 30 -82 30q-60 0 -114 -37q-11 -5 -14 3l-9 17q-3 7 5 13q63 41 132 41q65 0 108 -38q46 -41 46 -124v-172q0 -40 32 -40
q53 0 93 60.5t40 162.5q0 121 -83 193t-212 72q-138 0 -237 -94t-99 -225q0 -145 95.5 -234t244.5 -89z" />
    <glyph glyph-name="A" unicode="A" horiz-adv-x="691" 
d="M345 616q-82 0 -138 -59q-54 -62 -54 -163v-86h384v86q0 103 -54 163q-54 59 -138 59zM617 397v-388q0 -9 -9 -9h-61q-10 0 -10 9v228h-384v-228q0 -9 -10 -9h-60q-10 0 -10 9v388q0 136 85 218q72 75 187 75t188 -75q84 -83 84 -218z" />
    <glyph glyph-name="B" unicode="B" horiz-adv-x="633" 
d="M584 182q0 -90 -65.5 -136t-159.5 -46h-275q-9 0 -9 9v662q0 10 9 10h222q94 0 149 -37q73 -48 73 -136q0 -110 -91 -150v-4q71 -12 109 -57.5t38 -114.5zM448 496q0 66 -53 98q-37 22 -86 22h-154v-238h144q64 0 93 15q56 31 56 103zM503 191q0 71 -60 103
q-34 20 -129 20h-159v-249h188q53 0 87 15q73 31 73 111z" />
    <glyph glyph-name="C" unicode="C" horiz-adv-x="659" 
d="M401 -10q-154 0 -254 96.5t-100 254.5q0 144 104.5 246.5t251.5 102.5q114 0 208 -54q11 -6 6 -15l-24 -50q-4 -9 -14 -3q-89 50 -178 50q-110 0 -190.5 -82t-80.5 -195q0 -122 79.5 -200.5t192.5 -78.5q96 0 180 51q8 6 14 -3l24 -52q3 -8 -5 -13q-97 -55 -214 -55z" />
    <glyph glyph-name="D" unicode="D" horiz-adv-x="738" 
d="M691 340q0 -204 -155 -291q-89 -49 -223 -49h-229q-9 0 -9 9v662q0 10 9 10h244q186 0 283 -108q80 -88 80 -233zM155 613v-546h151q107 0 178 37q125 66 125 236q0 120 -62 188q-75 85 -231 85h-161z" />
    <glyph glyph-name="E" unicode="E" horiz-adv-x="598" 
d="M84 681h469q9 0 9 -10v-51q0 -10 -9 -10h-398v-234h346q9 0 9 -9v-52q0 -9 -9 -9h-346v-235h398q9 0 9 -10v-52q0 -9 -9 -9h-469q-9 0 -9 9v662q0 10 9 10z" />
    <glyph glyph-name="F" unicode="F" horiz-adv-x="561" 
d="M155 306v-297q0 -9 -10 -9h-61q-9 0 -9 9v662q0 10 9 10h438q9 0 9 -10v-51q0 -10 -9 -10h-367v-234h318q9 0 9 -9v-52q0 -9 -9 -9h-318z" />
    <glyph glyph-name="G" unicode="G" horiz-adv-x="738" 
d="M403 690q114 0 208 -54q11 -6 6 -15l-24 -50q-4 -9 -14 -3q-93 50 -178 50q-112 0 -191.5 -82t-79.5 -195q0 -126 77.5 -203t193.5 -77q117 0 192 63v143h-205q-10 0 -10 10v51q0 10 10 10h271q10 0 10 -10v-319q0 -9 -10 -9h-56q-10 0 -10 9v41q-84 -60 -198 -60
q-149 0 -248.5 93.5t-99.5 257.5q0 144 104 246.5t252 102.5z" />
    <glyph glyph-name="H" unicode="H" horiz-adv-x="718" 
d="M573 681h61q9 0 9 -10v-662q0 -9 -9 -9h-61q-10 0 -10 9v297h-408v-297q0 -9 -10 -9h-61q-9 0 -9 9v662q0 10 9 10h61q10 0 10 -10v-294h408v294q0 10 10 10z" />
    <glyph glyph-name="I" unicode="I" horiz-adv-x="230" 
d="M84 681h61q10 0 10 -10v-662q0 -9 -10 -9h-61q-9 0 -9 9v662q0 10 9 10z" />
    <glyph glyph-name="J" unicode="J" horiz-adv-x="513" 
d="M189 -10q-97 0 -174 63q-7 7 -3 15l28 47q6 10 14 3q63 -57 135 -57q79 0 126 48q46 48 46 142v420q0 10 9 10h61q10 0 10 -10v-426q0 -126 -74 -193q-68 -62 -178 -62z" />
    <glyph glyph-name="K" unicode="K" horiz-adv-x="610" 
d="M490 9l-262 315l-73 -73v-242q0 -9 -10 -9h-61q-9 0 -9 9v662q0 10 9 10h61q10 0 10 -10v-318l312 318q9 10 20 10h76q7 0 8.5 -5t-3.5 -10l-284 -284l301 -366q5 -5 4 -10.5t-9 -5.5h-72q-12 0 -18 9z" />
    <glyph glyph-name="L" unicode="L" horiz-adv-x="533" 
d="M84 681h61q10 0 10 -10v-600h347q9 0 9 -10v-52q0 -9 -9 -9h-418q-9 0 -9 9v662q0 10 9 10z" />
    <glyph glyph-name="M" unicode="M" horiz-adv-x="832" 
d="M757 671v-662q0 -9 -9 -9h-59q-9 0 -9 9v533l-225 -369q-6 -10 -16 -10h-44q-10 0 -16 10l-227 369v-533q0 -9 -9 -9h-59q-9 0 -9 9v662q0 10 9 10h63q11 0 17 -10l251 -416l252 416q7 10 18 10h63q9 0 9 -10z" />
    <glyph glyph-name="N" unicode="N" horiz-adv-x="740" 
d="M588 129v542q0 10 10 10h57q10 0 10 -10v-662q0 -9 -10 -9h-56q-11 0 -18 10l-430 540v-541q0 -9 -9 -9h-58q-9 0 -9 9v662q0 10 9 10h55q10 0 19 -10z" />
    <glyph glyph-name="O" unicode="O" horiz-adv-x="806" 
d="M759 339q0 -147 -104.5 -248t-251.5 -101t-251.5 101t-104.5 248q0 148 104.5 249.5t251.5 101.5t251.5 -102t104.5 -249zM674 339q0 114 -78.5 195t-192.5 81t-193 -81t-79 -195t79 -194.5t193 -80.5t192.5 80.5t78.5 194.5z" />
    <glyph glyph-name="P" unicode="P" horiz-adv-x="626" 
d="M508 457q0 83 -58 123q-42 31 -110 31h-185v-308h174q77 0 117 27q62 42 62 127zM84 681h268q96 0 157 -48q80 -62 80 -176q0 -118 -87 -181q-58 -43 -160 -43h-187v-224q0 -9 -10 -9h-61q-9 0 -9 9v662q0 10 9 10z" />
    <glyph glyph-name="Q" unicode="Q" horiz-adv-x="806" 
d="M777 -97q14 -2 8 -13l-27 -51q-6 -8 -16 -8q-12 0 -38.5 6.5t-69 20.5t-80 27t-99 34.5t-99.5 34.5q-11 5 -11 17v25q-127 17 -212.5 114t-85.5 229q0 148 104.5 249.5t251.5 101.5t251.5 -102t104.5 -249q0 -131 -85 -227.5t-212 -113.5q0 -7 9 -11q61 -21 158.5 -48.5
t147.5 -35.5zM674 339q0 114 -78.5 195t-192.5 81t-193 -81t-79 -195t79 -194.5t193 -80.5t192.5 80.5t78.5 194.5z" />
    <glyph glyph-name="R" unicode="R" horiz-adv-x="639" 
d="M521 310q-43 -32 -105 -40l190 -254q10 -16 -5 -16h-68q-13 0 -19 10l-188 256h-171v-257q0 -9 -10 -9h-61q-9 0 -9 9v662q0 10 9 10h270q108 0 166 -39q80 -54 80 -169q0 -107 -79 -163zM345 613h-190v-280h183q82 0 122 23q59 34 59 116t-57 117q-40 24 -117 24z" />
    <glyph glyph-name="S" unicode="S" horiz-adv-x="556" 
d="M275 -10q-128 0 -229 65q-10 5 -5 14l25 51q3 8 13 3q101 -65 195 -65q70 0 112 31q45 35 45 96q0 67 -87 104q-25 11 -91.5 31t-105.5 39q-102 50 -102 148q0 83 59 131q65 52 183 52q113 0 198 -48q8 -6 4 -14l-24 -50q-5 -10 -14 -4q-81 47 -168 47q-83 0 -122 -36
q-32 -29 -32 -75q0 -64 99 -100q11 -4 87.5 -26.5t113.5 -44.5q89 -51 89 -147t-72 -152q-64 -50 -171 -50z" />
    <glyph glyph-name="T" unicode="T" horiz-adv-x="564" 
d="M13 681h538q9 0 9 -10v-51q0 -10 -9 -10h-229v-601q0 -9 -10 -9h-60q-10 0 -10 9v601h-229q-9 0 -9 10v51q0 10 9 10z" />
    <glyph glyph-name="U" unicode="U" horiz-adv-x="722" 
d="M569 278v393q0 10 9 10h61q10 0 10 -10v-402q0 -120 -66 -194q-77 -85 -222 -85t-222 85q-66 74 -66 194v402q0 10 10 10h60q10 0 10 -10v-393q0 -98 51 -155q54 -61 156 -61q103 0 157 61q52 57 52 155z" />
    <glyph glyph-name="V" unicode="V" horiz-adv-x="630" 
d="M626 667l-265 -659q-5 -11 -16 -11h-64q-11 0 -15 11l-262 659q-7 14 7 14h64q12 0 15 -11l223 -573h2l224 573q5 11 15 11h65q12 0 7 -14z" />
    <glyph glyph-name="W" unicode="W" horiz-adv-x="1072" 
d="M919 248v423q0 10 10 10h61q9 0 9 -10v-423q0 -120 -61 -186q-66 -72 -189 -72q-71 0 -126 34q-59 37 -87 110q-26 -71 -86 -110q-55 -34 -126 -34q-123 0 -189 72q-62 67 -62 186v423q0 10 10 10h60q10 0 10 -10v-423q0 -87 42 -134q46 -50 131 -50q67 0 110 40
q60 55 60 160v407q0 10 10 10h61q9 0 9 -10v-407q0 -104 61 -160q42 -40 110 -40q85 0 130 50q42 47 42 134z" />
    <glyph glyph-name="X" unicode="X" horiz-adv-x="648" 
d="M375 341l270 -326q9 -15 -7 -15h-80q-10 0 -16 8l-217 271l-219 -271q-6 -8 -16 -8h-80q-7 0 -9.5 5t2.5 10l272 324l-268 327q-5 5 -3 10t9 5h80q9 0 16 -10l216 -267l213 267q7 10 16 10h81q7 0 9 -5t-2 -10z" />
    <glyph glyph-name="Y" unicode="Y" horiz-adv-x="610" 
d="M304 378l209 293q5 10 15 10h70q7 0 9 -5t-2 -10l-261 -367v-290q0 -9 -10 -9h-60q-10 0 -10 9v290l-260 367q-4 5 -2.5 10t9.5 5h69q10 0 16 -10z" />
    <glyph glyph-name="Z" unicode="Z" horiz-adv-x="571" 
d="M13 15l407 595h-396q-9 0 -9 10v51q0 10 9 10h517q10 0 10 -9q0 -4 -2 -7l-407 -594h409q9 0 9 -10v-52q0 -9 -9 -9h-530q-10 0 -10 8q0 5 2 7z" />
    <glyph glyph-name="bracketleft" unicode="[" horiz-adv-x="327" 
d="M288 -152h-206q-10 0 -10 9v921q0 10 10 10h206q10 0 10 -10v-48q0 -9 -10 -9h-137v-806h137q10 0 10 -10v-48q0 -9 -10 -9z" />
    <glyph glyph-name="backslash" unicode="\" horiz-adv-x="276" 
d="M91 668l184 -655q4 -13 -9 -13h-52q-12 0 -15 12l-184 656q-4 13 8 13h52q12 0 16 -13z" />
    <glyph glyph-name="bracketright" unicode="]" horiz-adv-x="327" 
d="M245 -152h-206q-9 0 -9 9v48q0 10 9 10h137v806h-137q-9 0 -9 9v48q0 10 9 10h206q10 0 10 -10v-921q0 -9 -10 -9z" />
    <glyph glyph-name="asciicircum" unicode="^" horiz-adv-x="519" 
d="M241 720h36q9 0 15 -9l187 -291q2 -3 2 -6t-2 -5t-7 -2h-52q-8 0 -16 9l-145 229l-145 -229q-6 -9 -15 -9h-54q-6 0 -7.5 4.5t1.5 8.5l187 291q6 9 15 9z" />
    <glyph glyph-name="underscore" unicode="_" horiz-adv-x="484" 
d="M484 -139h-484q-10 0 -10 10v38q0 10 10 10h484q10 0 10 -10v-38q0 -10 -10 -10z" />
    <glyph glyph-name="grave" unicode="`" horiz-adv-x="417" 
d="M133 764h50q7 0 13 -10l90 -167q1 -2 2 -5t1 -5.5t-2 -4.5t-6 -2h-37q-9 0 -14 9l-104 169q-9 16 7 16z" />
    <glyph glyph-name="a" unicode="a" horiz-adv-x="475" 
d="M232 401q-66 0 -137 -41q-10 -6 -14 3l-17 37q-4 8 5 13q70 47 172 47q89 0 132 -49q37 -42 37 -122v-280q0 -9 -9 -9h-47q-9 0 -9 9v16h-4q-60 -35 -136 -35q-67 0 -112 32q-51 37 -51 101q0 82 93 118q67 25 202 32v15q0 56 -23 83q-26 30 -82 30zM226 48q55 0 111 29
v141q-100 -4 -149 -18q-76 -19 -76 -73q0 -39 33.5 -59t80.5 -20z" />
    <glyph glyph-name="b" unicode="b" horiz-adv-x="529" 
d="M82 1q-10 2 -10 12v658q0 10 10 10h54q9 0 9 -10v-239q59 28 125 28q97 0 157 -64q58 -65 58 -171q0 -93 -53 -154q-71 -81 -213 -81q-98 0 -137 11zM145 370v-314q33 -6 80 -6q99 0 149 61q36 44 36 114q0 82 -45 129q-43 44 -109 44q-60 0 -111 -28z" />
    <glyph glyph-name="c" unicode="c" horiz-adv-x="471" 
d="M290 51q62 0 109 28q11 8 15 -2l20 -37q4 -6 -5 -13q-55 -37 -141 -37q-116 0 -181 68q-62 62 -62 167q0 88 51 149q71 86 193 86q80 0 138 -40q9 -7 5 -13l-21 -38q-5 -9 -15 -3q-49 31 -107 31q-82 0 -130 -57q-40 -46 -40 -115q0 -77 46 -126q45 -48 125 -48z" />
    <glyph glyph-name="d" unicode="d" horiz-adv-x="521" 
d="M311 61h65v319q-49 18 -99 18q-81 0 -127 -65q-31 -45 -31 -108q0 -69 41 -112q51 -52 151 -52zM439 0h-135q-131 0 -200 69q-59 57 -59 155q0 88 45 151q64 86 183 86q49 0 103 -18v228q0 10 9 10h54q10 0 10 -10v-662q0 -9 -10 -9z" />
    <glyph glyph-name="e" unicode="e" horiz-adv-x="524" 
d="M121 258h290q-3 61 -37 100q-40 43 -104 43q-72 0 -113 -47q-33 -39 -36 -96zM288 50q69 0 136 40q11 7 15 -2l19 -37q4 -7 -4 -13q-71 -48 -172 -48q-114 0 -178 73q-59 65 -59 168q0 98 60 163q61 66 165 66q105 0 164 -72q53 -67 47 -172q0 -11 -12 -11h-348
q5 -60 39 -100q46 -55 128 -55z" />
    <glyph glyph-name="f" unicode="f" horiz-adv-x="339" 
d="M248 627q-40 0 -59 -24q-21 -25 -21 -87v-64h135q9 0 9 -10v-39q0 -9 -9 -9h-135v-385q0 -9 -10 -9h-54q-9 0 -9 9v385h-58q-10 0 -10 9v39q0 10 10 10h58v71q0 90 40 131q35 35 98 35q80 0 134 -42q8 -5 4 -13l-18 -37q-5 -10 -16 -3q-42 33 -89 33z" />
    <glyph glyph-name="g" unicode="g" horiz-adv-x="530" 
d="M246 -173q71 0 105 39q34 38 34 112v58q-54 -45 -135 -45q-91 0 -146 62q-59 67 -59 173t57 172q55 62 147 62q76 0 135 -47h3v29q0 10 9 10h52q10 0 10 -10v-456q0 -110 -57 -166q-52 -52 -156 -52q-94 0 -165 48q-8 5 -4 12l20 40q5 9 15 2q64 -43 135 -43zM257 52
q72 0 128 48v248q-64 52 -127 52q-64 0 -100 -46q-39 -48 -39 -127q0 -83 38 -130q37 -45 100 -45z" />
    <glyph glyph-name="h" unicode="h" horiz-adv-x="554" 
d="M146 671v-296q45 85 158 85q84 0 131 -41q54 -48 54 -151v-259q0 -9 -10 -9h-53q-10 0 -10 9v243q0 81 -37 115q-31 29 -89 29q-80 0 -118 -69q-26 -49 -26 -119v-199q0 -9 -9 -9h-55q-10 0 -10 9v662q0 10 10 10h55q9 0 9 -10z" />
    <glyph glyph-name="i" unicode="i" horiz-adv-x="218" 
d="M72 442q0 10 10 10h54q9 0 9 -10v-433q0 -9 -9 -9h-54q-10 0 -10 9v433zM108 623q-18 0 -31 12.5t-13 31.5q0 18 13 30.5t31 12.5t31 -12.5t13 -30.5q0 -19 -13 -31.5t-31 -12.5z" />
    <glyph glyph-name="j" unicode="j" horiz-adv-x="217" 
d="M151 667q0 -19 -12.5 -31.5t-30.5 -12.5q-19 0 -31.5 12.5t-12.5 31.5q0 18 12.5 30.5t31.5 12.5q18 0 30.5 -12.5t12.5 -30.5zM72 -2v444q0 9 10 9h54q9 0 9 -9v-406q0 -107 -18 -171t-73 -96q-11 -4 -19 4l-33 33q-9 9 1 15q40 25 54.5 66t14.5 111z" />
    <glyph glyph-name="k" unicode="k" horiz-adv-x="485" 
d="M376 9l-167 200l-64 -58v-142q0 -9 -9 -9h-54q-10 0 -10 9v662q0 10 10 10h54q9 0 9 -10v-440l220 212q9 9 19 9h62q9 0 10.5 -6t-4.5 -11l-193 -179l203 -241q11 -15 -7 -15h-62q-12 0 -17 9z" />
    <glyph glyph-name="l" unicode="l" horiz-adv-x="217" 
d="M72 671q0 10 10 10h54q9 0 9 -10v-662q0 -9 -9 -9h-54q-10 0 -10 9v662z" />
    <glyph glyph-name="m" unicode="m" horiz-adv-x="817" 
d="M143 398h3q46 62 132 62q62 0 102 -30q33 -24 48 -64q20 44 60 70q38 24 93 24q79 0 123 -44q48 -46 48 -138v-269q0 -9 -9 -9h-55q-10 0 -10 9v251q0 72 -30 105q-28 31 -82 31q-61 0 -91 -48q-26 -44 -26 -124v-215q0 -9 -9 -9h-55q-10 0 -10 9v251q0 72 -30 105
q-28 31 -82 31q-61 0 -91 -48q-26 -44 -26 -114v-225q0 -9 -9 -9h-55q-10 0 -10 9v433q0 10 10 10h51q10 0 10 -10v-44z" />
    <glyph glyph-name="n" unicode="n" horiz-adv-x="554" 
d="M143 375h3q45 85 158 85q84 0 131 -41q54 -48 54 -151v-259q0 -9 -10 -9h-53q-10 0 -10 9v243q0 81 -37 115q-31 29 -89 29q-80 0 -118 -69q-26 -49 -26 -119v-199q0 -9 -9 -9h-55q-10 0 -10 9v433q0 10 10 10h51q10 0 10 -10v-67z" />
    <glyph glyph-name="o" unicode="o" horiz-adv-x="567" 
d="M117 225q0 -74 45 -122q47 -53 122 -53t122 53q45 48 45 122t-45 122q-47 53 -122 53t-122 -53q-45 -48 -45 -122zM45 225q0 102 67 167q68 68 172 68t172 -68q67 -65 67 -167t-67 -167q-68 -68 -172 -68t-172 68q-67 65 -67 167z" />
    <glyph glyph-name="p" unicode="p" horiz-adv-x="524" 
d="M145 395v-324q42 -21 99 -21q72 0 118 46q45 43 45 130q0 80 -48 126q-51 49 -135 49q-31 0 -79 -6zM83 448q62 12 134 12q123 0 194 -65q69 -64 69 -169t-57 -165q-64 -71 -172 -71q-62 0 -106 20v-232q0 -9 -9 -9h-54q-10 0 -10 9v657q0 10 11 13z" />
    <glyph glyph-name="q" unicode="q" horiz-adv-x="523" 
d="M378 -222v277q-45 -65 -132 -65q-86 0 -140 56q-61 63 -61 178q0 94 53 157q70 79 208 79q72 0 132 -15q13 -4 13 -15v-652q0 -9 -10 -9h-54q-9 0 -9 9zM378 216v178q-51 7 -77 7q-101 0 -150 -63q-34 -43 -34 -112q0 -86 41 -133q37 -43 99 -43q121 0 121 166z" />
    <glyph glyph-name="r" unicode="r" horiz-adv-x="377" 
d="M261 393q-51 0 -81 -40q-34 -46 -34 -132v-212q0 -9 -9 -9h-55q-10 0 -10 9v433q0 10 10 10h51q10 0 10 -10v-55h3q35 73 127 73q63 0 108 -36q7 -6 3 -13l-22 -45q-5 -9 -15 -2q-41 29 -86 29z" />
    <glyph glyph-name="s" unicode="s" horiz-adv-x="410" 
d="M198 49q94 0 94 68q0 26 -16 41.5t-48 29.5q-12 6 -50.5 19.5t-58.5 22.5q-74 34 -74 109q0 57 43 89.5t122 32.5q82 0 140 -33q8 -5 5 -13l-20 -41q-4 -9 -13 -3q-52 29 -109 29q-92 0 -92 -61q0 -23 14 -36t41 -25q15 -7 54 -20.5t55 -21.5q83 -39 83 -113
q0 -61 -45 -97t-122 -36q-93 0 -156 38q-9 4 -4 12l20 41q5 9 13 4q58 -36 124 -36z" />
    <glyph glyph-name="t" unicode="t" horiz-adv-x="353" 
d="M157 394v-235q0 -50 15 -73q20 -33 71 -33q43 0 82 28q10 7 15 -1l18 -39q4 -7 -4 -13q-53 -38 -129 -38q-75 0 -111 44q-31 39 -31 116v244h-53q-10 0 -10 9v39q0 10 10 10h53v87q0 10 10 10h54q10 0 10 -10v-87h157q10 0 10 -10v-39q0 -9 -10 -9h-157z" />
    <glyph glyph-name="u" unicode="u" horiz-adv-x="545" 
d="M65 191v251q0 10 9 10h54q10 0 10 -10v-244q0 -55 18 -88q33 -55 117 -55q87 0 116 54q18 31 18 89v244q0 10 10 10h54q9 0 9 -10v-251q0 -79 -33 -128q-50 -73 -174 -73q-125 0 -175 73q-33 49 -33 128z" />
    <glyph glyph-name="v" unicode="v" horiz-adv-x="450" 
d="M446 438l-176 -430q-5 -11 -16 -11h-63q-11 0 -15 11l-172 430q-7 14 7 14h58q12 0 15 -11l141 -371h2l140 371q5 11 15 11h57q14 0 7 -14z" />
    <glyph glyph-name="w" unicode="w" horiz-adv-x="795" 
d="M730 442v-251q0 -81 -27 -128q-40 -73 -150 -73q-88 0 -128 53q-20 24 -27 42q-8 -18 -28 -42q-40 -53 -127 -53q-111 0 -151 73q-27 48 -27 128v251q0 10 9 10h54q10 0 10 -10v-247q0 -56 17 -90q25 -49 93 -49q72 0 97 54q16 32 16 87v245q0 10 10 10h54q9 0 9 -10
v-245q0 -52 16 -87q25 -54 98 -54q67 0 92 48q18 33 18 91v247q0 10 10 10h53q9 0 9 -10z" />
    <glyph glyph-name="x" unicode="x" horiz-adv-x="476" 
d="M7 15l186 215l-177 206q-5 6 -3 11t9 5h68q9 0 16 -10l132 -161l133 161q7 10 16 10h65q8 0 9.5 -5t-3.5 -11l-177 -201l188 -220q11 -15 -7 -15h-66q-8 0 -16 8l-142 172l-143 -172q-6 -8 -16 -8h-65q-7 0 -9.5 5t2.5 10z" />
    <glyph glyph-name="y" unicode="y" horiz-adv-x="477" 
d="M470 439l-180 -463q-39 -98 -87 -149q-65 -63 -162 -59q-8 0 -8 8v55q0 7 9 7q2 0 8 -0.5t11 -0.5q54 0 95 46q31 36 54 90l-205 466q-5 13 8 13h65q12 0 15 -11l155 -377l140 377q3 11 15 11h60q12 0 7 -13z" />
    <glyph glyph-name="z" unicode="z" horiz-adv-x="403" 
d="M385 0h-368q-16 0 -6 15l269 373h-256q-9 0 -9 10v44q0 10 9 10h359q7 0 9.5 -5t-1.5 -11l-269 -372h263q9 0 9 -10v-45q0 -9 -9 -9z" />
    <glyph glyph-name="braceleft" unicode="{" horiz-adv-x="319" 
d="M32 292v50q0 9 9 9h5q43 0 64 32q26 36 26 116l-3 141q0 69 28 104q35 42 117 42q10 0 10 -9v-41q0 -9 -9 -9q-41 0 -61 -26q-15 -22 -15 -72l2 -137q0 -85 -31 -127q-23 -33 -68 -48q42 -14 68 -48q31 -44 31 -127l-2 -137q0 -50 15 -72q19 -27 61 -27q9 0 9 -9v-40
q0 -10 -10 -10q-81 0 -117 42q-28 35 -28 105l3 140q0 81 -26 117q-22 31 -64 31h-5q-9 0 -9 10z" />
    <glyph glyph-name="bar" unicode="|" horiz-adv-x="224" 
d="M84 681h55q10 0 10 -10v-880q0 -9 -10 -9h-55q-9 0 -9 9v880q0 10 9 10z" />
    <glyph glyph-name="braceright" unicode="}" horiz-adv-x="319" 
d="M287 342v-50q0 -10 -9 -10h-5q-42 0 -64 -31q-26 -36 -26 -117l3 -140q0 -70 -28 -105q-36 -42 -117 -42q-10 0 -10 10v40q0 9 9 9q42 0 61 27q15 22 15 72l-2 137q0 83 31 127q26 34 68 48q-45 15 -68 48q-31 42 -31 127l2 137q0 50 -15 72q-20 26 -61 26q-9 0 -9 9v41
q0 9 10 9q82 0 117 -42q28 -35 28 -104l-3 -141q0 -80 26 -116q21 -32 64 -32h5q9 0 9 -9z" />
    <glyph glyph-name="asciitilde" unicode="~" horiz-adv-x="601" 
d="M412 219q-35 0 -66.5 14t-51.5 30.5t-47 30.5t-54 14q-32 0 -53 -17t-21 -53q0 -9 -11 -9h-47q-10 0 -10 9q0 68 39.5 104t98.5 36q36 0 68 -14t51.5 -30.5t46.5 -30.5t53 -14q32 0 53 16.5t21 52.5q0 10 10 10h48q10 0 10 -10q0 -68 -39 -103.5t-99 -35.5z" />
    <glyph glyph-name="nbspace" unicode="&#xa0;" 
 />
    <glyph glyph-name="exclamdown" unicode="&#xa1;" horiz-adv-x="246" 
d="M78 414q0 20 13 33t33 13t33 -13t13 -33t-13 -33t-33 -13t-33 13t-13 33zM160 -230h-73q-10 0 -8 10l19 470q0 10 9 10h33q9 0 9 -10l20 -470q0 -10 -9 -10z" />
    <glyph glyph-name="cent" unicode="&#xa2;" 
d="M334 537h22q10 0 10 -10v-68q67 -4 121 -39q8 -6 5 -13l-21 -38q-5 -10 -15 -3q-49 31 -107 31q-82 0 -130 -57q-40 -45 -40 -115q0 -78 45 -126q46 -48 125 -48q63 0 110 28q10 7 14 -2l21 -37q3 -7 -5 -13q-46 -31 -123 -36v-67q0 -9 -10 -9h-22q-10 0 -10 9v67
q-100 6 -158 67q-62 64 -62 167q0 89 52 149q61 76 168 84v69q0 10 10 10z" />
    <glyph glyph-name="sterling" unicode="&#xa3;" 
d="M203 204q0 30 -15 79h-80q-10 0 -10 9v45q0 10 10 10h56q-32 79 -32 136q0 95 61 151q59 56 159 56q93 0 158 -40q9 -5 5 -13l-21 -42q-4 -9 -12 -4q-58 33 -124 33q-70 0 -110 -40q-40 -38 -40 -104q0 -47 32 -133h214q10 0 10 -10v-45q0 -9 -10 -9h-191q13 -46 13 -76
q0 -79 -53 -138h281q10 0 10 -10v-50q0 -9 -10 -9h-424q-10 0 -10 9v50q0 10 10 10h65q58 54 58 135z" />
    <glyph glyph-name="currency" unicode="&#xa4;" horiz-adv-x="691" 
d="M149 388q-1 -82 57 -140.5t140 -57.5q81 -1 139 57.5t58 140.5q0 81 -57.5 138.5t-139.5 57.5t-140 -57.5t-57 -138.5zM52 140l90 91q-55 68 -55 157q0 90 56 157l-92 90q-6 8 0 14l33 33q6 8 14 0l91 -91q69 56 157 56q89 0 156 -56l91 92q8 6 14 0l33 -33q5 -7 0 -14
l-91 -91q56 -67 56 -157q0 -88 -55 -158l90 -91q7 -7 0 -14l-32 -33q-7 -5 -14 0l-92 92q-66 -55 -156 -55q-88 0 -158 55l-90 -91q-7 -5 -14 0l-32 33q-7 7 0 14z" />
    <glyph glyph-name="yen" unicode="&#xa5;" 
d="M72 208h186v86h-186q-9 0 -9 10v35q0 9 9 9h158l-216 319q-2 3 -2 6t2.5 5.5t6.5 2.5h70q11 0 17 -11l190 -292l192 292q6 11 16 11h71q15 0 8 -14l-218 -319h158q9 0 9 -9v-35q0 -10 -9 -10h-187v-86h187q9 0 9 -10v-35q0 -10 -9 -10h-187v-144q0 -9 -9 -9h-61
q-10 0 -10 9v144h-186q-9 0 -9 10v35q0 10 9 10z" />
    <glyph glyph-name="brokenbar" unicode="&#xa6;" horiz-adv-x="224" 
d="M84 681h55q10 0 10 -10v-372q0 -9 -10 -9h-55q-9 0 -9 9v372q0 10 9 10zM84 173h55q10 0 10 -10v-372q0 -9 -10 -9h-55q-9 0 -9 9v372q0 10 9 10z" />
    <glyph glyph-name="section" unicode="&#xa7;" horiz-adv-x="471" 
d="M222 -230q-86 0 -157 49q-8 6 -5 13l19 40q5 9 13 3q61 -46 127 -46q45 0 71 25q28 26 28 72q0 25 -9 45.5t-28.5 38.5t-36 29.5t-47 30.5t-45.5 29q-48 34 -75.5 73.5t-27.5 95.5q0 87 75 147q-47 47 -47 111q0 71 43 116q48 49 130 49q86 0 157 -49q8 -5 5 -13l-19 -40
q-4 -9 -14 -3q-61 46 -125 46q-50 0 -76 -29q-24 -23 -24 -68q0 -11 2.5 -21.5t5 -19t9.5 -18t11.5 -16t15 -15.5t15.5 -13.5t19 -14t19 -12.5t21 -13t20 -13q62 -39 96 -80.5t34 -104.5q0 -86 -75 -149q47 -47 47 -110q0 -72 -45 -117q-47 -48 -127 -48zM297 92
q49 37 49 92q0 71 -79 125q-12 9 -44.5 29t-48.5 32q-49 -41 -49 -93q0 -69 71 -120q16 -12 51 -33t50 -32z" />
    <glyph glyph-name="dieresis" unicode="&#xa8;" horiz-adv-x="417" 
d="M114 623q-18 0 -31 13t-13 31t13 31t31 13q19 0 31.5 -13t12.5 -31t-12.5 -31t-31.5 -13zM302 623q-18 0 -31 13t-13 31t13 31t31 13t31 -13t13 -31t-13 -31t-31 -13z" />
    <glyph glyph-name="copyright" unicode="&#xa9;" horiz-adv-x="833" 
d="M91 358q0 -135 94.5 -230.5t230.5 -95.5q135 0 229.5 95.5t94.5 230.5t-94.5 231t-229.5 96t-230 -96t-95 -231zM784 358q0 -153 -107.5 -260t-260.5 -107q-154 0 -261.5 107t-107.5 260t107.5 261t261.5 108q153 0 260.5 -108t107.5 -261zM428 171q-82 0 -135.5 50
t-53.5 134q0 79 56 131.5t133 52.5q54 0 94 -20q9 -5 13.5 -8.5t3.5 -7.5q0 -3 -7.5 -16t-9.5 -13q-4 -1 -22 7q-32 16 -73 16q-58 0 -99.5 -40.5t-41.5 -101.5q0 -64 40.5 -103t101.5 -39q42 0 75 14q17 7 21 5q1 0 8.5 -14t7.5 -16q1 -4 -2 -7t-12 -6q-45 -18 -98 -18z
" />
    <glyph glyph-name="ordfeminine" unicode="&#xaa;" horiz-adv-x="283" 
d="M75 293h131q10 0 10 -10v-15q0 -9 -10 -9h-131q-9 0 -9 9v15q0 10 9 10zM141 445q33 0 62 16v88q-59 -5 -82 -12q-43 -12 -43 -46q0 -22 17.5 -34t45.5 -12zM34 490q0 47 48 69q33 17 121 22v7q0 41 -20 57q-14 11 -40 11q-38 0 -79 -24q-8 -4 -11 2l-8 17q-3 7 6 12
q44 28 98 28q41 0 66 -19q33 -25 33 -90v-165q0 -9 -9 -9h-22q-9 0 -9 9v14h-3q-14 -10 -35 -17q-21 -6 -43 -6q-37 0 -66 21q-27 22 -27 61z" />
    <glyph glyph-name="guillemotleft" unicode="&#xab;" horiz-adv-x="577" 
d="M31 227q0 6 7 15l191 207q9 9 19 9h54q9 0 10.5 -5t-3.5 -12l-194 -214l194 -213q5 -8 3.5 -13t-10.5 -5h-54q-10 0 -19 10l-191 207q-7 7 -7 14zM265 227q0 7 8 15l191 207q8 9 19 9h54q8 0 10 -5t-4 -12l-194 -214l194 -213q6 -8 4 -13t-10 -5h-54q-11 0 -19 10
l-191 207q-8 6 -8 14z" />
    <glyph glyph-name="logicalnot" unicode="&#xac;" horiz-adv-x="558" 
d="M35 324v54q0 9 9 9h469q10 0 10 -9v-183q0 -10 -10 -10h-50q-10 0 -10 10v120h-409q-9 0 -9 9z" />
    <glyph glyph-name="uni00AD" unicode="&#xad;" horiz-adv-x="499" 
d="M98 324h303q9 0 9 -9v-50q0 -10 -9 -10h-303q-9 0 -9 10v50q0 9 9 9z" />
    <glyph glyph-name="registered" unicode="&#xae;" horiz-adv-x="464" 
d="M232 719q77 0 131 -54t54 -130t-54 -129.5t-130 -53.5q-77 0 -131 53.5t-54 129.5t54 130t130 54zM233 376q66 0 112.5 47t46.5 112q0 67 -46.5 113.5t-113.5 46.5q-66 0 -112.5 -46.5t-46.5 -113.5q0 -66 46.5 -112.5t113.5 -46.5zM307 572q0 -42 -48 -51l50 -65
q7 -10 -5 -10h-12q-6 0 -11 6l-50 66h-46v-65q0 -7 -8 -7h-11q-7 0 -7 8v165q0 8 8 8h72q68 0 68 -55zM281 573q0 31 -45 31h-51v-64h50q46 0 46 33z" />
    <glyph glyph-name="macron" unicode="&#xaf;" horiz-adv-x="637" 
d="M90 687h236q10 0 10 -9v-42q0 -9 -10 -9h-236q-10 0 -10 9v42q0 9 10 9z" />
    <glyph glyph-name="degree" unicode="&#xb0;" horiz-adv-x="370" 
d="M286 593q0 43 -29.5 72t-71.5 29q-43 0 -71.5 -29t-28.5 -72t28.5 -72t71.5 -29q42 0 71.5 29t29.5 72zM320 593q0 -56 -39.5 -95t-95.5 -39t-95.5 39t-39.5 95t39.5 95.5t95.5 39.5t95.5 -39.5t39.5 -95.5z" />
    <glyph glyph-name="plusminus" unicode="&#xb1;" horiz-adv-x="560" 
d="M314 623v-197h198q9 0 9 -9v-50q0 -10 -9 -10h-198v-197q0 -10 -9 -10h-50q-10 0 -10 10v197h-197q-9 0 -9 10v50q0 9 9 9h197v197q0 10 10 10h50q9 0 9 -10zM48 69h464q9 0 9 -10v-50q0 -9 -9 -9h-464q-9 0 -9 9v50q0 10 9 10z" />
    <glyph glyph-name="twosuperior" unicode="&#xb2;" horiz-adv-x="417" 
d="M92 342v13q0 62 36 99q20 20 63 43t59 37q24 21 24 52q0 32 -22 49t-51 17q-39 0 -80 -27q-8 -5 -12 3l-9 18q-4 8 5 14q49 31 98 31t82 -30q32 -30 32 -74q0 -46 -35 -78q-20 -18 -61.5 -40.5t-57.5 -37.5q-24 -24 -24 -58h171q9 0 9 -10v-21q0 -9 -9 -9h-209q-9 0 -9 9
z" />
    <glyph glyph-name="threesuperior" unicode="&#xb3;" horiz-adv-x="417" 
d="M189 497h-10q-9 0 -9 9v17q0 10 9 10h7q26 0 44 7q33 14 33 53q0 25 -18 42t-48 17q-34 0 -68 -20q-8 -5 -13 3l-8 17q-5 10 4 15q48 24 88 24q47 0 75.5 -27t28.5 -67q0 -57 -53 -79q65 -23 65 -89q0 -45 -32.5 -73t-87.5 -28q-50 0 -91 22q-9 5 -4 13l8 19q4 8 13 2
q34 -19 71 -19q38 0 59.5 18t21.5 49q0 44 -43 59q-17 6 -42 6z" />
    <glyph glyph-name="acute" unicode="&#xb4;" horiz-adv-x="417" 
d="M233 764h50q7 0 9 -5.5t-2 -10.5l-104 -169q-5 -9 -14 -9h-37q-13 0 -5 17l90 167q6 10 13 10z" />
    <glyph glyph-name="mu" unicode="&#xb5;" horiz-adv-x="545" 
d="M65 -162v604q0 10 9 10h54q10 0 10 -10v-249q0 -55 18 -88q33 -55 117 -55q86 0 115 55q19 33 19 88v249q0 10 10 10h54q9 0 9 -10v-251q0 -79 -33 -128q-50 -73 -174 -73q-52 0 -88 17q-32 15 -47 45v-214q0 -9 -10 -9h-54q-9 0 -9 9z" />
    <glyph glyph-name="paragraph" unicode="&#xb6;" horiz-adv-x="620" 
d="M584 654h-100v-844q0 -10 -9 -10h-48q-9 0 -9 10v844h-117v-844q0 -10 -10 -10h-47q-10 0 -10 10v501q-92 5 -144 59t-52 144q0 97 60 149.5t170 52.5h316q10 0 10 -9v-43q0 -10 -10 -10z" />
    <glyph glyph-name="periodcentered" unicode="&#xb7;" horiz-adv-x="192" 
d="M145 345q0 -20 -14 -34t-34 -14t-34 14t-14 34t14 33.5t34 13.5t34 -13.5t14 -33.5z" />
    <glyph glyph-name="cedilla" unicode="&#xb8;" horiz-adv-x="431" 
d="M254 -110q0 -47 -38 -67.5t-87 -20.5q-21 0 -38 3q-8 2 -8 9v22q0 8 8 8q3 0 14 -1t22 -1q31 0 53.5 12t22.5 38q0 21 -18 31.5t-45 10.5q-11 0 -21 -1l7 76h39v-44q39 -3 64 -22.5t25 -52.5z" />
    <glyph glyph-name="onesuperior" unicode="&#xb9;" horiz-adv-x="417" 
d="M193 640l-75 -27q-14 -6 -14 9v16q0 10 10 14l92 35q8 4 13 4h10q9 0 9 -10v-308h70q10 0 10 -10v-21q0 -9 -10 -9h-192q-10 0 -10 9v21q0 10 10 10h77v267z" />
    <glyph glyph-name="ordmasculine" unicode="&#xba;" horiz-adv-x="385" 
d="M95 550q0 -40 24 -69q26 -33 73 -33q49 0 74 33q24 29 24 69t-24 69q-26 33 -74 33q-47 0 -73 -33q-24 -29 -24 -69zM49 550q0 55 35 95q43 46 108 46q66 0 109 -46q35 -40 35 -95t-35 -95q-43 -46 -109 -46q-65 0 -108 46q-35 40 -35 95zM126 293h131q10 0 10 -10v-15
q0 -9 -10 -9h-131q-9 0 -9 9v15q0 10 9 10z" />
    <glyph glyph-name="guillemotright" unicode="&#xbb;" horiz-adv-x="577" 
d="M546 227q0 -7 -7 -14l-191 -207q-9 -10 -20 -10h-53q-9 0 -10.5 5t3.5 13l194 213l-194 214q-5 7 -3.5 12t10.5 5h53q11 0 20 -9l191 -207q7 -9 7 -15zM312 227q0 -6 -8 -14l-191 -207q-7 -10 -19 -10h-54q-20 0 -6 18l194 213l-194 214q-6 7 -4.5 12t10.5 5h54
q11 0 19 -9l191 -207q8 -10 8 -15z" />
    <glyph glyph-name="onequarter" unicode="&#xbc;" horiz-adv-x="417" 
d="M49 257h318q9 0 9 -10v-21q0 -9 -9 -9h-318q-10 0 -10 9v21q0 10 10 10zM68 -90l156 220q7 11 20 11h17q9 0 9 -10v-222h48q10 0 10 -10v-19q0 -9 -10 -9h-48v-75q0 -9 -9 -9h-25q-10 0 -10 9v75h-155q-10 0 -10 9v12q0 8 7 18zM115 -91h111v159zM188 640l-75 -27
q-14 -6 -14 9v16q0 10 10 14l92 35q8 4 13 4h10q10 0 10 -10v-308h70q9 0 9 -10v-21q0 -9 -9 -9h-193q-10 0 -10 9v21q0 10 10 10h77v267z" />
    <glyph glyph-name="onehalf" unicode="&#xbd;" horiz-adv-x="417" 
d="M91 -201v13q0 63 36 99q20 20 63 43t59 37q24 21 24 52q0 32 -23 49q-20 17 -51 17q-39 0 -79 -27q-9 -5 -13 3l-8 18q-5 8 4 14q51 31 99 31q49 0 81 -30q32 -29 32 -74q0 -47 -34 -78l-119 -78q-24 -24 -24 -58h171q9 0 9 -10v-21q0 -9 -9 -9h-209q-9 0 -9 9zM188 640
l-75 -27q-14 -6 -14 9v16q0 10 10 14l92 35q8 4 13 4h10q10 0 10 -10v-308h70q9 0 9 -10v-21q0 -9 -9 -9h-193q-10 0 -10 9v21q0 10 10 10h77v267zM49 257h318q9 0 9 -10v-21q0 -9 -9 -9h-318q-10 0 -10 9v21q0 10 10 10z" />
    <glyph glyph-name="threequarters" unicode="&#xbe;" horiz-adv-x="417" 
d="M180 497h-10q-9 0 -9 9v17q0 10 9 10h7q26 0 44 7q33 14 33 53q0 25 -18 42t-48 17q-34 0 -68 -20q-8 -5 -13 3l-8 17q-5 10 4 15q48 24 88 24q47 0 75.5 -27t28.5 -67q0 -57 -53 -79q65 -23 65 -89q0 -45 -32.5 -73t-87.5 -28q-50 0 -91 22q-10 5 -4 13l8 19q4 8 13 2
q34 -19 71 -19q38 0 59.5 18t21.5 49q0 44 -43 59q-17 6 -42 6zM49 257h318q9 0 9 -10v-21q0 -9 -9 -9h-318q-10 0 -10 9v21q0 10 10 10zM68 -90l156 220q7 11 20 11h17q9 0 9 -10v-222h48q10 0 10 -10v-19q0 -9 -10 -9h-48v-75q0 -9 -9 -9h-25q-10 0 -10 9v75h-155
q-10 0 -10 9v12q0 8 7 18zM115 -91h111v159z" />
    <glyph glyph-name="questiondown" unicode="&#xbf;" horiz-adv-x="499" 
d="M257 -173q94 0 184 78q8 6 13 -3l21 -41q4 -7 -5 -15q-92 -85 -217 -85q-90 0 -149 53q-61 55 -61 142q0 54 25.5 89.5t77.5 73.5q54 39 72.5 69t20.5 77q2 10 12 10h37q8 0 12 -9q6 -19 6 -40q0 -51 -46 -99q-11 -12 -24.5 -23.5t-34.5 -28t-33 -26.5q-49 -41 -49 -93
q0 -60 40 -95q39 -34 98 -34zM228 415q0 19 13 32.5t33 13.5t33 -13.5t13 -32.5t-13 -32.5t-33 -13.5t-33 13.5t-13 32.5z" />
    <glyph glyph-name="Agrave" unicode="&#xc0;" horiz-adv-x="691" 
d="M345 616q-82 0 -138 -59q-54 -62 -54 -163v-86h384v86q0 103 -54 163q-54 59 -138 59zM617 397v-388q0 -9 -9 -9h-61q-10 0 -10 9v228h-384v-228q0 -9 -10 -9h-60q-10 0 -10 9v388q0 136 85 218q72 75 187 75t188 -75q84 -83 84 -218zM269 969h50q7 0 13 -10l90 -167
q1 -2 2 -5t1 -5.5t-2 -4.5t-6 -2h-37q-9 0 -14 9l-104 169q-9 16 7 16z" />
    <glyph glyph-name="Aacute" unicode="&#xc1;" horiz-adv-x="691" 
d="M345 616q-82 0 -138 -59q-54 -62 -54 -163v-86h384v86q0 103 -54 163q-54 59 -138 59zM617 397v-388q0 -9 -9 -9h-61q-10 0 -10 9v228h-384v-228q0 -9 -10 -9h-60q-10 0 -10 9v388q0 136 85 218q72 75 187 75t188 -75q84 -83 84 -218zM374 969h50q7 0 9 -5.5t-2 -10.5
l-104 -169q-5 -9 -14 -9h-37q-14 0 -5 17l90 167q6 10 13 10z" />
    <glyph glyph-name="Acircumflex" unicode="&#xc2;" horiz-adv-x="691" 
d="M345 616q-82 0 -138 -59q-54 -62 -54 -163v-86h384v86q0 103 -54 163q-54 59 -138 59zM617 397v-388q0 -9 -9 -9h-61q-10 0 -10 9v228h-384v-228q0 -9 -10 -9h-60q-10 0 -10 9v388q0 136 85 218q72 75 187 75t188 -75q84 -83 84 -218zM331 968h26q6 0 14 -8l155 -173
q3 -3 3.5 -6t-1.5 -5t-6 -2h-46q-9 0 -17 8l-115 126l-115 -126q-8 -8 -17 -8h-46q-4 0 -6 2t-1.5 5t3.5 6l155 173q8 8 14 8z" />
    <glyph glyph-name="Atilde" unicode="&#xc3;" horiz-adv-x="691" 
d="M345 616q-82 0 -138 -59q-54 -62 -54 -163v-86h384v86q0 103 -54 163q-54 59 -138 59zM617 397v-388q0 -9 -9 -9h-61q-10 0 -10 9v228h-384v-228q0 -9 -10 -9h-60q-10 0 -10 9v388q0 136 85 218q72 75 187 75t188 -75q84 -83 84 -218zM411 892q41 0 45 38q1 10 10 10h23
q12 0 12 -10q0 -41 -22 -66t-62 -25q-33 0 -76 29q-40 26 -62 26q-41 0 -45 -39q-3 -10 -10 -10h-23q-12 0 -12 11q0 41 22 66t62 25q36 0 77 -29q42 -26 61 -26z" />
    <glyph glyph-name="Adieresis" unicode="&#xc4;" horiz-adv-x="691" 
d="M345 616q-82 0 -138 -59q-54 -62 -54 -163v-86h384v86q0 103 -54 163q-54 59 -138 59zM617 397v-388q0 -9 -9 -9h-61q-10 0 -10 9v228h-384v-228q0 -9 -10 -9h-60q-10 0 -10 9v388q0 136 85 218q72 75 187 75t188 -75q84 -83 84 -218zM250 825q-18 0 -31 13t-13 31t13 31
t31 13q19 0 31.5 -13t12.5 -31t-12.5 -31t-31.5 -13zM438 825q-18 0 -31 13t-13 31t13 31t31 13t31 -13t13 -31t-13 -31t-31 -13z" />
    <glyph glyph-name="Aring" unicode="&#xc5;" horiz-adv-x="691" 
d="M345 616q-82 0 -138 -59q-54 -62 -54 -163v-86h384v86q0 103 -54 163q-54 59 -138 59zM617 397v-388q0 -9 -9 -9h-61q-10 0 -10 9v228h-384v-228q0 -9 -10 -9h-60q-10 0 -10 9v388q0 136 85 218q72 75 187 75t188 -75q84 -83 84 -218zM460 862q0 -48 -34 -82t-81 -34
q-48 0 -82 33.5t-34 82.5q0 48 34 82t82 34q47 0 81 -34t34 -82zM424 862q0 33 -23.5 56.5t-55.5 23.5q-33 0 -56 -23.5t-23 -56.5q0 -34 23 -57.5t56 -23.5q32 0 55.5 23.5t23.5 57.5z" />
    <glyph glyph-name="AE" unicode="&#xc6;" horiz-adv-x="1010" 
d="M617 397v-21h296q9 0 9 -9v-52q0 -9 -9 -9h-296v-235h348q9 0 9 -10v-52q0 -9 -9 -9h-418h-2q-3 0 -5 2q-3 3 -3 7v228h-384v-228q0 -9 -10 -9h-60q-10 0 -10 9v388q0 136 85 218q72 75 187 75t188 -75q1 -3 4 -4v60q0 10 10 10h418q9 0 9 -10v-51q0 -10 -9 -10h-348
v-201v-12zM345 616q-82 0 -138 -59q-54 -62 -54 -163v-86h384v86q0 103 -54 163q-54 59 -138 59z" />
    <glyph glyph-name="Ccedilla" unicode="&#xc7;" horiz-adv-x="659" 
d="M508 -110q0 -47 -38 -67.5t-87 -20.5q-22 0 -38 3q-8 2 -8 9v22q0 8 8 8q3 0 14 -1t22 -1q31 0 53.5 12t22.5 38q0 21 -18 31.5t-45 10.5q-11 0 -21 -1l5 58q-145 8 -238 103.5t-93 246.5q0 144 104.5 246.5t251.5 102.5q114 0 208 -54q11 -6 6 -15l-24 -50q-4 -9 -14 -3
q-89 50 -178 50q-110 0 -190.5 -82t-80.5 -195q0 -122 79.5 -200.5t192.5 -78.5q96 0 180 51q8 6 14 -3l24 -52q3 -8 -5 -13q-92 -51 -196 -55v-25q39 -3 64 -22.5t25 -52.5z" />
    <glyph glyph-name="Egrave" unicode="&#xc8;" horiz-adv-x="598" 
d="M84 681h469q9 0 9 -10v-51q0 -10 -9 -10h-398v-234h346q9 0 9 -9v-52q0 -9 -9 -9h-346v-235h398q9 0 9 -10v-52q0 -9 -9 -9h-469q-9 0 -9 9v662q0 10 9 10zM220 969h50q7 0 13 -10l90 -167q1 -2 2 -5t1 -5.5t-2 -4.5t-6 -2h-37q-9 0 -14 9l-104 169q-9 16 7 16z" />
    <glyph glyph-name="Eacute" unicode="&#xc9;" horiz-adv-x="598" 
d="M84 681h469q9 0 9 -10v-51q0 -10 -9 -10h-398v-234h346q9 0 9 -9v-52q0 -9 -9 -9h-346v-235h398q9 0 9 -10v-52q0 -9 -9 -9h-469q-9 0 -9 9v662q0 10 9 10zM354 969h50q7 0 9 -5.5t-2 -10.5l-104 -169q-5 -9 -14 -9h-37q-14 0 -5 17l90 167q6 10 13 10z" />
    <glyph glyph-name="Ecircumflex" unicode="&#xca;" horiz-adv-x="598" 
d="M84 681h469q9 0 9 -10v-51q0 -10 -9 -10h-398v-234h346q9 0 9 -9v-52q0 -9 -9 -9h-346v-235h398q9 0 9 -10v-52q0 -9 -9 -9h-469q-9 0 -9 9v662q0 10 9 10zM294 968h26q6 0 14 -8l155 -173q3 -3 3.5 -6t-1.5 -5t-6 -2h-46q-9 0 -17 8l-115 126l-115 -126q-8 -8 -17 -8
h-46q-4 0 -6 2t-1.5 5t3.5 6l155 173q8 8 14 8z" />
    <glyph glyph-name="Edieresis" unicode="&#xcb;" horiz-adv-x="598" 
d="M84 681h469q9 0 9 -10v-51q0 -10 -9 -10h-398v-234h346q9 0 9 -9v-52q0 -9 -9 -9h-346v-235h398q9 0 9 -10v-52q0 -9 -9 -9h-469q-9 0 -9 9v662q0 10 9 10zM221 825q-18 0 -31 13t-13 31t13 31t31 13q19 0 31.5 -13t12.5 -31t-12.5 -31t-31.5 -13zM409 825q-18 0 -31 13
t-13 31t13 31t31 13t31 -13t13 -31t-13 -31t-31 -13z" />
    <glyph glyph-name="Igrave" unicode="&#xcc;" horiz-adv-x="229" 
d="M84 681h61q10 0 10 -10v-662q0 -9 -10 -9h-61q-9 0 -9 9v662q0 10 9 10zM38 969h50q7 0 13 -10l90 -167q1 -2 2 -5t1 -5.5t-2 -4.5t-6 -2h-37q-9 0 -14 9l-104 169q-9 16 7 16z" />
    <glyph glyph-name="Iacute" unicode="&#xcd;" horiz-adv-x="229" 
d="M84 681h61q10 0 10 -10v-662q0 -9 -10 -9h-61q-9 0 -9 9v662q0 10 9 10zM142 969h50q7 0 9 -5.5t-2 -10.5l-104 -169q-5 -9 -14 -9h-37q-14 0 -5 17l90 167q6 10 13 10z" />
    <glyph glyph-name="Icircumflex" unicode="&#xce;" horiz-adv-x="229" 
d="M84 681h61q10 0 10 -10v-662q0 -9 -10 -9h-61q-9 0 -9 9v662q0 10 9 10zM101 968h26q6 0 14 -8l155 -173q3 -3 3.5 -6t-1.5 -5t-6 -2h-46q-9 0 -17 8l-115 126l-115 -126q-8 -8 -17 -8h-46q-4 0 -6 2t-1.5 5t3.5 6l155 173q8 8 14 8z" />
    <glyph glyph-name="Idieresis" unicode="&#xcf;" horiz-adv-x="229" 
d="M84 681h61q10 0 10 -10v-662q0 -9 -10 -9h-61q-9 0 -9 9v662q0 10 9 10zM21 825q-18 0 -31 13t-13 31t13 31t31 13q19 0 31.5 -13t12.5 -31t-12.5 -31t-31.5 -13zM209 825q-18 0 -31 13t-13 31t13 31t31 13t31 -13t13 -31t-13 -31t-31 -13z" />
    <glyph glyph-name="Eth" unicode="&#xd0;" horiz-adv-x="743" 
d="M696 340q0 -204 -154 -291q-89 -49 -224 -49h-229q-9 0 -9 9v297h-84q-10 0 -10 10v49q0 9 10 9h84v297q0 10 9 10h244q186 0 284 -108q79 -89 79 -233zM160 613v-239h158q10 0 10 -9v-49q0 -10 -10 -10h-158v-239h151q108 0 178 37q125 66 125 236q0 120 -62 188
q-75 85 -231 85h-161z" />
    <glyph glyph-name="Ntilde" unicode="&#xd1;" horiz-adv-x="740" 
d="M588 129v542q0 10 10 10h57q10 0 10 -10v-662q0 -9 -10 -9h-56q-11 0 -18 10l-430 540v-541q0 -9 -9 -9h-58q-9 0 -9 9v662q0 10 9 10h55q10 0 19 -10zM436 892q41 0 45 38q1 10 10 10h23q12 0 12 -10q0 -41 -22 -66t-62 -25q-33 0 -76 29q-40 26 -62 26q-41 0 -45 -39
q-3 -10 -10 -10h-23q-12 0 -12 11q0 41 22 66t62 25q36 0 77 -29q42 -26 61 -26z" />
    <glyph glyph-name="Ograve" unicode="&#xd2;" horiz-adv-x="806" 
d="M759 339q0 -147 -104.5 -248t-251.5 -101t-251.5 101t-104.5 248q0 148 104.5 249.5t251.5 101.5t251.5 -102t104.5 -249zM674 339q0 114 -78.5 195t-192.5 81t-193 -81t-79 -195t79 -194.5t193 -80.5t192.5 80.5t78.5 194.5zM325 969h50q7 0 13 -10l90 -167q1 -2 2 -5
t1 -5.5t-2 -4.5t-6 -2h-37q-9 0 -14 9l-104 169q-9 16 7 16z" />
    <glyph glyph-name="Oacute" unicode="&#xd3;" horiz-adv-x="806" 
d="M759 339q0 -147 -104.5 -248t-251.5 -101t-251.5 101t-104.5 248q0 148 104.5 249.5t251.5 101.5t251.5 -102t104.5 -249zM674 339q0 114 -78.5 195t-192.5 81t-193 -81t-79 -195t79 -194.5t193 -80.5t192.5 80.5t78.5 194.5zM429 969h50q7 0 9 -5.5t-2 -10.5l-104 -169
q-5 -9 -14 -9h-37q-13 0 -5 17l90 167q6 10 13 10z" />
    <glyph glyph-name="Ocircumflex" unicode="&#xd4;" horiz-adv-x="806" 
d="M759 339q0 -147 -104.5 -248t-251.5 -101t-251.5 101t-104.5 248q0 148 104.5 249.5t251.5 101.5t251.5 -102t104.5 -249zM674 339q0 114 -78.5 195t-192.5 81t-193 -81t-79 -195t79 -194.5t193 -80.5t192.5 80.5t78.5 194.5zM389 968h26q6 0 14 -8l155 -173q3 -3 3.5 -6
t-1.5 -5t-6 -2h-46q-9 0 -17 8l-115 126l-115 -126q-8 -8 -17 -8h-46q-4 0 -6 2t-1.5 5t3.5 6l155 173q8 8 14 8z" />
    <glyph glyph-name="Otilde" unicode="&#xd5;" horiz-adv-x="806" 
d="M759 339q0 -147 -104.5 -248t-251.5 -101t-251.5 101t-104.5 248q0 148 104.5 249.5t251.5 101.5t251.5 -102t104.5 -249zM674 339q0 114 -78.5 195t-192.5 81t-193 -81t-79 -195t79 -194.5t193 -80.5t192.5 80.5t78.5 194.5zM468 892q41 0 45 38q1 10 10 10h23
q12 0 12 -10q0 -41 -22 -66t-62 -25q-33 0 -76 29q-40 26 -62 26q-41 0 -45 -39q-3 -10 -10 -10h-23q-12 0 -12 11q0 41 22 66t62 25q36 0 77 -29q42 -26 61 -26z" />
    <glyph glyph-name="Odieresis" unicode="&#xd6;" horiz-adv-x="806" 
d="M759 339q0 -147 -104.5 -248t-251.5 -101t-251.5 101t-104.5 248q0 148 104.5 249.5t251.5 101.5t251.5 -102t104.5 -249zM674 339q0 114 -78.5 195t-192.5 81t-193 -81t-79 -195t79 -194.5t193 -80.5t192.5 80.5t78.5 194.5zM308 825q-18 0 -31 13t-13 31t13 31t31 13
q19 0 31.5 -13t12.5 -31t-12.5 -31t-31.5 -13zM496 825q-18 0 -31 13t-13 31t13 31t31 13t31 -13t13 -31t-13 -31t-31 -13z" />
    <glyph glyph-name="multiply" unicode="&#xd7;" horiz-adv-x="481" 
d="M77 565l163 -163l164 163q2 3 6.5 3t6.5 -3l36 -36q6 -6 0 -13l-164 -163l164 -164q2 -2 2 -6.5t-2 -6.5l-36 -36q-7 -6 -13 0l-164 164l-163 -164q-7 -6 -13 0l-36 36q-5 7 0 14l163 163l-163 163q-6 6 0 13l36 36q2 2 6.5 2t6.5 -2z" />
    <glyph glyph-name="Oslash" unicode="&#xd8;" horiz-adv-x="806" 
d="M759 339q0 -147 -104.5 -248t-251.5 -101q-115 0 -209 65l-40 -46q-9 -9 -15 -9h-47q-6 0 -8.5 4t1.5 9l67 77q-105 102 -105 249q0 148 104.5 249.5t251.5 101.5q115 0 209 -67l41 48q8 10 16 10h45q7 0 9 -4.5t-2 -9.5l-67 -78q105 -103 105 -250zM131 339
q0 -111 73 -189l357 414q-70 51 -158 51q-114 0 -193 -81t-79 -195zM674 339q0 108 -73 189l-357 -414q70 -50 159 -50q114 0 192.5 80.5t78.5 194.5z" />
    <glyph glyph-name="Ugrave" unicode="&#xd9;" horiz-adv-x="722" 
d="M569 278v393q0 10 9 10h61q10 0 10 -10v-402q0 -120 -66 -194q-77 -85 -222 -85t-222 85q-66 74 -66 194v402q0 10 10 10h60q10 0 10 -10v-393q0 -98 51 -155q54 -61 156 -61q103 0 157 61q52 57 52 155zM284 969h50q7 0 13 -10l90 -167q1 -2 2 -5t1 -5.5t-2 -4.5t-6 -2
h-37q-9 0 -14 9l-104 169q-9 16 7 16z" />
    <glyph glyph-name="Uacute" unicode="&#xda;" horiz-adv-x="722" 
d="M569 278v393q0 10 9 10h61q10 0 10 -10v-402q0 -120 -66 -194q-77 -85 -222 -85t-222 85q-66 74 -66 194v402q0 10 10 10h60q10 0 10 -10v-393q0 -98 51 -155q54 -61 156 -61q103 0 157 61q52 57 52 155zM387 969h50q7 0 9 -5.5t-2 -10.5l-104 -169q-5 -9 -14 -9h-37
q-13 0 -5 17l90 167q6 10 13 10z" />
    <glyph glyph-name="Ucircumflex" unicode="&#xdb;" horiz-adv-x="722" 
d="M569 278v393q0 10 9 10h61q10 0 10 -10v-402q0 -120 -66 -194q-77 -85 -222 -85t-222 85q-66 74 -66 194v402q0 10 10 10h60q10 0 10 -10v-393q0 -98 51 -155q54 -61 156 -61q103 0 157 61q52 57 52 155zM347 968h26q6 0 14 -8l155 -173q3 -3 3.5 -6t-1.5 -5t-6 -2h-46
q-9 0 -17 8l-115 126l-115 -126q-8 -8 -17 -8h-46q-4 0 -6 2t-1.5 5t3.5 6l155 173q8 8 14 8z" />
    <glyph glyph-name="Udieresis" unicode="&#xdc;" horiz-adv-x="722" 
d="M569 278v393q0 10 9 10h61q10 0 10 -10v-402q0 -120 -66 -194q-77 -85 -222 -85t-222 85q-66 74 -66 194v402q0 10 10 10h60q10 0 10 -10v-393q0 -98 51 -155q54 -61 156 -61q103 0 157 61q52 57 52 155zM267 825q-18 0 -31 13t-13 31t13 31t31 13q19 0 31.5 -13
t12.5 -31t-12.5 -31t-31.5 -13zM455 825q-18 0 -31 13t-13 31t13 31t31 13t31 -13t13 -31t-13 -31t-31 -13z" />
    <glyph glyph-name="Yacute" unicode="&#xdd;" horiz-adv-x="610" 
d="M304 378l209 293q5 10 15 10h70q7 0 9 -5t-2 -10l-261 -367v-290q0 -9 -10 -9h-60q-10 0 -10 9v290l-260 367q-4 5 -2.5 10t9.5 5h69q10 0 16 -10zM336 969h50q7 0 9 -5.5t-2 -10.5l-104 -169q-5 -9 -14 -9h-37q-14 0 -5 17l90 167q6 10 13 10z" />
    <glyph glyph-name="Thorn" unicode="&#xde;" horiz-adv-x="626" 
d="M75 -136v807q0 10 9 10h61q10 0 10 -10v-131h197q96 0 157 -48q80 -61 80 -176q0 -118 -87 -181q-58 -43 -160 -43h-187v-228q0 -10 -10 -10h-61q-9 0 -9 10zM508 316q0 78 -52 119q-43 35 -116 35h-185v-308h174q80 0 121 30q58 42 58 124z" />
    <glyph glyph-name="germandbls" unicode="&#xdf;" horiz-adv-x="552" 
d="M320 -10q-94 0 -151 45q-8 6 -4 14l20 40q5 9 13 3q48 -40 120 -40q53 0 86 31q34 31 34 82q0 14 -2.5 25.5t-11 22.5t-13 18t-19.5 18t-19 13.5l-24 15t-22 13.5q-4 2 -15 9t-15 9t-13.5 8t-13 9.5t-10.5 9.5t-9.5 10.5t-6 10.5t-5 13t-1.5 14q0 21 20 36.5t44.5 25
t44.5 32t20 56.5q0 44 -27 69q-28 27 -82 27q-58 0 -87 -38q-26 -32 -26 -95v-554q0 -10 -9 -10h-54q-10 0 -10 10v554q0 84 41 133q48 60 143 60q92 0 139 -41q46 -40 46 -105q0 -40 -21 -68.5t-46 -40t-46 -24t-21 -23.5q0 -13 14 -23t46 -24.5t46 -22.5q95 -55 95 -148
q0 -81 -57 -133q-52 -47 -131 -47z" />
    <glyph glyph-name="agrave" unicode="&#xe0;" horiz-adv-x="475" 
d="M232 401q-66 0 -137 -41q-10 -6 -14 3l-17 37q-4 8 5 13q70 47 172 47q89 0 132 -49q37 -42 37 -122v-280q0 -9 -9 -9h-47q-9 0 -9 9v16h-4q-60 -35 -136 -35q-67 0 -112 32q-51 37 -51 101q0 82 93 118q67 25 202 32v15q0 56 -23 83q-26 30 -82 30zM226 48q55 0 111 29
v141q-100 -4 -149 -18q-76 -19 -76 -73q0 -39 33.5 -59t80.5 -20zM162 765h50q7 0 13 -10l90 -167q1 -2 2 -5t1 -5.5t-2 -4.5t-6 -2h-37q-9 0 -14 9l-104 169q-9 16 7 16z" />
    <glyph glyph-name="aacute" unicode="&#xe1;" horiz-adv-x="475" 
d="M232 401q-66 0 -137 -41q-10 -6 -14 3l-17 37q-4 8 5 13q70 47 172 47q89 0 132 -49q37 -42 37 -122v-280q0 -9 -9 -9h-47q-9 0 -9 9v16h-4q-60 -35 -136 -35q-67 0 -112 32q-51 37 -51 101q0 82 93 118q67 25 202 32v15q0 56 -23 83q-26 30 -82 30zM226 48q55 0 111 29
v141q-100 -4 -149 -18q-76 -19 -76 -73q0 -39 33.5 -59t80.5 -20zM263 764h50q7 0 9 -5.5t-2 -10.5l-104 -169q-5 -9 -14 -9h-37q-13 0 -5 17l90 167q6 10 13 10z" />
    <glyph glyph-name="acircumflex" unicode="&#xe2;" horiz-adv-x="488" 
d="M232 401q-66 0 -137 -41q-10 -6 -14 3l-17 37q-4 8 5 13q70 47 172 47q89 0 132 -49q37 -42 37 -122v-280q0 -9 -9 -9h-47q-9 0 -9 9v16h-4q-60 -35 -136 -35q-67 0 -112 32q-51 37 -51 101q0 82 93 118q67 25 202 32v15q0 56 -23 83q-26 30 -82 30zM226 48q55 0 111 29
v141q-100 -4 -149 -18q-76 -19 -76 -73q0 -39 33.5 -59t80.5 -20zM224 764h26q6 0 14 -8l155 -173q3 -3 3.5 -6t-1.5 -5t-6 -2h-46q-9 0 -17 8l-115 126l-115 -126q-8 -8 -17 -8h-46q-4 0 -6 2t-1.5 5t3.5 6l155 173q8 8 14 8z" />
    <glyph glyph-name="atilde" unicode="&#xe3;" horiz-adv-x="475" 
d="M232 401q-66 0 -137 -41q-10 -6 -14 3l-17 37q-4 8 5 13q70 47 172 47q89 0 132 -49q37 -42 37 -122v-280q0 -9 -9 -9h-47q-9 0 -9 9v16h-4q-60 -35 -136 -35q-67 0 -112 32q-51 37 -51 101q0 82 93 118q67 25 202 32v15q0 56 -23 83q-26 30 -82 30zM226 48q55 0 111 29
v141q-100 -4 -149 -18q-76 -19 -76 -73q0 -39 33.5 -59t80.5 -20zM301 666q41 0 45 38q1 10 10 10h23q12 0 12 -10q0 -41 -22 -66t-62 -25q-33 0 -76 29q-40 26 -62 26q-41 0 -45 -39q-3 -10 -10 -10h-23q-12 0 -12 11q0 41 22 66t62 25q36 0 77 -29q42 -26 61 -26z" />
    <glyph glyph-name="adieresis" unicode="&#xe4;" horiz-adv-x="475" 
d="M232 401q-66 0 -137 -41q-10 -6 -14 3l-17 37q-4 8 5 13q70 47 172 47q89 0 132 -49q37 -42 37 -122v-280q0 -9 -9 -9h-47q-9 0 -9 9v16h-4q-60 -35 -136 -35q-67 0 -112 32q-51 37 -51 101q0 82 93 118q67 25 202 32v15q0 56 -23 83q-26 30 -82 30zM226 48q55 0 111 29
v141q-100 -4 -149 -18q-76 -19 -76 -73q0 -39 33.5 -59t80.5 -20zM143 623q-18 0 -31 13t-13 31t13 31t31 13q19 0 31.5 -13t12.5 -31t-12.5 -31t-31.5 -13zM331 623q-18 0 -31 13t-13 31t13 31t31 13t31 -13t13 -31t-13 -31t-31 -13z" />
    <glyph glyph-name="aring" unicode="&#xe5;" horiz-adv-x="475" 
d="M232 401q-66 0 -137 -41q-10 -6 -14 3l-17 37q-4 8 5 13q70 47 172 47q89 0 132 -49q37 -42 37 -122v-280q0 -9 -9 -9h-47q-9 0 -9 9v16h-4q-60 -35 -136 -35q-67 0 -112 32q-51 37 -51 101q0 82 93 118q67 25 202 32v15q0 56 -23 83q-26 30 -82 30zM226 48q55 0 111 29
v141q-100 -4 -149 -18q-76 -19 -76 -73q0 -39 33.5 -59t80.5 -20zM352 662q0 -48 -34 -82t-81 -34q-48 0 -82 33.5t-34 82.5q0 48 34 82t82 34q47 0 81 -34t34 -82zM316 662q0 33 -23.5 56.5t-55.5 23.5q-33 0 -56 -23.5t-23 -56.5q0 -34 23 -57.5t56 -23.5q32 0 55.5 23.5
t23.5 57.5z" />
    <glyph glyph-name="ae" unicode="&#xe6;" horiz-adv-x="816" 
d="M773 222q0 -11 -11 -11h-348q3 -65 38 -108q46 -56 127 -56q74 0 139 40q10 7 15 -2l18 -34q4 -6 -5 -13q-71 -48 -171 -48q-117 0 -183 77q-47 -43 -89 -59q-45 -18 -107 -18q-68 0 -110 36q-44 36 -44 94q0 70 84 103q75 30 211 35v30q0 57 -23 86q-25 30 -81 30
q-77 0 -139 -40q-11 -7 -14 2l-16 34q-3 8 5 13q71 47 172 47q59 0 92 -21q35 -22 53 -79q22 45 65 72q44 28 111 28q105 0 165 -72q50 -64 46 -166zM217 43q50 0 82 14q33 13 69 47q-28 47 -29 106q-104 0 -169 -24q-58 -21 -58 -64q0 -37 31 -59q28 -20 74 -20zM414 258
h289q-1 62 -36 101q-39 44 -104 44q-74 0 -114 -48q-32 -40 -35 -97z" />
    <glyph glyph-name="ccedilla" unicode="&#xe7;" horiz-adv-x="471" 
d="M392 -110q0 -47 -38 -67.5t-87 -20.5q-21 0 -38 3q-8 2 -8 9v22q0 8 8 8q3 0 14 -1t22 -1q31 0 53.5 12t22.5 38q0 21 -18 31.5t-45 10.5q-11 0 -21 -1l5 58q-99 8 -155 67q-62 62 -62 167q0 88 51 149q71 86 193 86q80 0 138 -40q9 -7 5 -13l-21 -38q-5 -9 -15 -3
q-49 31 -107 31q-82 0 -130 -57q-40 -46 -40 -115q0 -77 46 -126q45 -48 125 -48q62 0 109 28q11 8 15 -2l20 -37q4 -6 -5 -13q-51 -34 -126 -37v-25q39 -3 64 -22.5t25 -52.5z" />
    <glyph glyph-name="egrave" unicode="&#xe8;" horiz-adv-x="524" 
d="M121 258h290q-3 61 -37 100q-40 43 -104 43q-72 0 -113 -47q-33 -39 -36 -96zM288 50q69 0 136 40q11 7 15 -2l19 -37q4 -7 -4 -13q-71 -48 -172 -48q-114 0 -178 73q-59 65 -59 168q0 98 60 163q61 66 165 66q105 0 164 -72q53 -67 47 -172q0 -11 -12 -11h-348
q5 -60 39 -100q46 -55 128 -55zM187 765h50q7 0 13 -10l90 -167q1 -2 2 -5t1 -5.5t-2 -4.5t-6 -2h-37q-9 0 -14 9l-104 169q-9 16 7 16z" />
    <glyph glyph-name="eacute" unicode="&#xe9;" horiz-adv-x="524" 
d="M121 258h290q-3 61 -37 100q-40 43 -104 43q-72 0 -113 -47q-33 -39 -36 -96zM288 50q69 0 136 40q11 7 15 -2l19 -37q4 -7 -4 -13q-71 -48 -172 -48q-114 0 -178 73q-59 65 -59 168q0 98 60 163q61 66 165 66q105 0 164 -72q53 -67 47 -172q0 -11 -12 -11h-348
q5 -60 39 -100q46 -55 128 -55zM287 764h50q7 0 9 -5.5t-2 -10.5l-104 -169q-5 -9 -14 -9h-37q-13 0 -5 17l90 167q6 10 13 10z" />
    <glyph glyph-name="ecircumflex" unicode="&#xea;" horiz-adv-x="524" 
d="M121 258h290q-3 61 -37 100q-40 43 -104 43q-72 0 -113 -47q-33 -39 -36 -96zM288 50q69 0 136 40q11 7 15 -2l19 -37q4 -7 -4 -13q-71 -48 -172 -48q-114 0 -178 73q-59 65 -59 168q0 98 60 163q61 66 165 66q105 0 164 -72q53 -67 47 -172q0 -11 -12 -11h-348
q5 -60 39 -100q46 -55 128 -55zM248 764h26q6 0 14 -8l155 -173q3 -3 3.5 -6t-1.5 -5t-6 -2h-46q-9 0 -17 8l-115 126l-115 -126q-8 -8 -17 -8h-46q-4 0 -6 2t-1.5 5t3.5 6l155 173q8 8 14 8z" />
    <glyph glyph-name="edieresis" unicode="&#xeb;" horiz-adv-x="524" 
d="M121 258h290q-3 61 -37 100q-40 43 -104 43q-72 0 -113 -47q-33 -39 -36 -96zM288 50q69 0 136 40q11 7 15 -2l19 -37q4 -7 -4 -13q-71 -48 -172 -48q-114 0 -178 73q-59 65 -59 168q0 98 60 163q61 66 165 66q105 0 164 -72q53 -67 47 -172q0 -11 -12 -11h-348
q5 -60 39 -100q46 -55 128 -55zM167 623q-18 0 -31 13t-13 31t13 31t31 13q19 0 31.5 -13t12.5 -31t-12.5 -31t-31.5 -13zM355 623q-18 0 -31 13t-13 31t13 31t31 13t31 -13t13 -31t-13 -31t-31 -13z" />
    <glyph glyph-name="igrave" unicode="&#xec;" horiz-adv-x="218" 
d="M72 442q0 10 10 10h54q9 0 9 -10v-433q0 -9 -9 -9h-54q-10 0 -10 9v433zM34 765h50q7 0 13 -10l90 -167q1 -2 2 -5t1 -5.5t-2 -4.5t-6 -2h-37q-9 0 -14 9l-104 169q-9 16 7 16z" />
    <glyph glyph-name="iacute" unicode="&#xed;" horiz-adv-x="218" 
d="M72 442q0 10 10 10h54q9 0 9 -10v-433q0 -9 -9 -9h-54q-10 0 -10 9v433zM134 764h50q7 0 9 -5.5t-2 -10.5l-104 -169q-5 -9 -14 -9h-37q-14 0 -5 17l90 167q6 10 13 10z" />
    <glyph glyph-name="icircumflex" unicode="&#xee;" horiz-adv-x="218" 
d="M72 442q0 10 10 10h54q9 0 9 -10v-433q0 -9 -9 -9h-54q-10 0 -10 9v433zM96 764h26q6 0 14 -8l155 -173q3 -3 3.5 -6t-1.5 -5t-6 -2h-46q-9 0 -17 8l-115 126l-115 -126q-8 -8 -17 -8h-46q-4 0 -6 2t-1.5 5t3.5 6l155 173q8 8 14 8z" />
    <glyph glyph-name="idieresis" unicode="&#xef;" horiz-adv-x="218" 
d="M72 442q0 10 10 10h54q9 0 9 -10v-433q0 -9 -9 -9h-54q-10 0 -10 9v433zM15 623q-18 0 -31 13t-13 31t13 31t31 13q19 0 31.5 -13t12.5 -31t-12.5 -31t-31.5 -13zM203 623q-18 0 -31 13t-13 31t13 31t31 13t31 -13t13 -31t-13 -31t-31 -13z" />
    <glyph glyph-name="eth" unicode="&#xf0;" horiz-adv-x="510" 
d="M398 223q0 38 -10 86q-61 40 -128 40q-56 0 -101 -37t-45 -105q0 -70 37.5 -113t101.5 -43q63 0 104 44t41 128zM46 207q0 86 55 139q61 61 147 61q62 0 117 -36q-33 99 -114 181l-92 -72q-8 -6 -13 1l-20 25q-5 7 3 14l83 65q-27 27 -73 59q-9 5 -3 13l34 34q6 7 16 1
q46 -30 82 -65l82 65q9 7 14 0l19 -26q6 -8 -1 -13l-77 -60q74 -78 118 -174.5t44 -195.5q0 -112 -60.5 -172.5t-152.5 -60.5q-82 0 -138 48q-70 60 -70 169z" />
    <glyph glyph-name="ntilde" unicode="&#xf1;" horiz-adv-x="554" 
d="M143 375h3q45 85 158 85q84 0 131 -41q54 -48 54 -151v-259q0 -9 -10 -9h-53q-10 0 -10 9v243q0 81 -37 115q-31 29 -89 29q-80 0 -118 -69q-26 -49 -26 -119v-199q0 -9 -9 -9h-55q-10 0 -10 9v433q0 10 10 10h51q10 0 10 -10v-67zM340 666q41 0 45 38q1 10 10 10h23
q12 0 12 -10q0 -41 -22 -66t-62 -25q-33 0 -76 29q-40 26 -62 26q-41 0 -45 -39q-3 -10 -10 -10h-23q-12 0 -12 11q0 41 22 66t62 25q36 0 77 -29q42 -26 61 -26z" />
    <glyph glyph-name="ograve" unicode="&#xf2;" horiz-adv-x="567" 
d="M117 225q0 -74 45 -122q47 -53 122 -53t122 53q45 48 45 122t-45 122q-47 53 -122 53t-122 -53q-45 -48 -45 -122zM45 225q0 102 67 167q68 68 172 68t172 -68q67 -65 67 -167t-67 -167q-68 -68 -172 -68t-172 68q-67 65 -67 167zM208 765h50q7 0 13 -10l90 -167
q1 -2 2 -5t1 -5.5t-2 -4.5t-6 -2h-37q-9 0 -14 9l-104 169q-9 16 7 16z" />
    <glyph glyph-name="oacute" unicode="&#xf3;" horiz-adv-x="567" 
d="M117 225q0 -74 45 -122q47 -53 122 -53t122 53q45 48 45 122t-45 122q-47 53 -122 53t-122 -53q-45 -48 -45 -122zM45 225q0 102 67 167q68 68 172 68t172 -68q67 -65 67 -167t-67 -167q-68 -68 -172 -68t-172 68q-67 65 -67 167zM308 764h50q7 0 9 -5.5t-2 -10.5
l-104 -169q-5 -9 -14 -9h-37q-14 0 -5 17l90 167q6 10 13 10z" />
    <glyph glyph-name="ocircumflex" unicode="&#xf4;" horiz-adv-x="567" 
d="M117 225q0 -74 45 -122q47 -53 122 -53t122 53q45 48 45 122t-45 122q-47 53 -122 53t-122 -53q-45 -48 -45 -122zM45 225q0 102 67 167q68 68 172 68t172 -68q67 -65 67 -167t-67 -167q-68 -68 -172 -68t-172 68q-67 65 -67 167zM270 764h26q6 0 14 -8l155 -173
q3 -3 3.5 -6t-1.5 -5t-6 -2h-46q-9 0 -17 8l-115 126l-115 -126q-8 -8 -17 -8h-46q-4 0 -6 2t-1.5 5t3.5 6l155 173q8 8 14 8z" />
    <glyph glyph-name="otilde" unicode="&#xf5;" horiz-adv-x="567" 
d="M117 225q0 -74 45 -122q47 -53 122 -53t122 53q45 48 45 122t-45 122q-47 53 -122 53t-122 -53q-45 -48 -45 -122zM45 225q0 102 67 167q68 68 172 68t172 -68q67 -65 67 -167t-67 -167q-68 -68 -172 -68t-172 68q-67 65 -67 167zM347 666q41 0 45 38q1 10 10 10h23
q12 0 12 -10q0 -41 -22 -66t-62 -25q-33 0 -76 29q-40 26 -62 26q-41 0 -45 -39q-3 -10 -10 -10h-23q-12 0 -12 11q0 41 22 66t62 25q36 0 77 -29q42 -26 61 -26z" />
    <glyph glyph-name="odieresis" unicode="&#xf6;" horiz-adv-x="567" 
d="M117 225q0 -74 45 -122q47 -53 122 -53t122 53q45 48 45 122t-45 122q-47 53 -122 53t-122 -53q-45 -48 -45 -122zM45 225q0 102 67 167q68 68 172 68t172 -68q67 -65 67 -167t-67 -167q-68 -68 -172 -68t-172 68q-67 65 -67 167zM189 623q-18 0 -31 13t-13 31t13 31
t31 13q19 0 31.5 -13t12.5 -31t-12.5 -31t-31.5 -13zM377 623q-18 0 -31 13t-13 31t13 31t31 13t31 -13t13 -31t-13 -31t-31 -13z" />
    <glyph glyph-name="divide" unicode="&#xf7;" horiz-adv-x="582" 
d="M291 613q19 0 32 -13t13 -32t-13 -32.5t-32 -13.5q-20 0 -33.5 13.5t-13.5 32.5t13.5 32t33.5 13zM245 137q0 20 13 33.5t33 13.5t33 -13.5t13 -33.5q0 -19 -13.5 -32t-32.5 -13t-32.5 13t-13.5 32zM48 387h485q10 0 10 -9v-50q0 -10 -10 -10h-485q-9 0 -9 10v50q0 9 9 9
z" />
    <glyph glyph-name="oslash" unicode="&#xf8;" horiz-adv-x="575" 
d="M45 225q0 102 67 167q68 68 172 68q80 0 142 -43l22 25q10 10 15 10h27q7 0 8.5 -4.5t-2.5 -9.5l-40 -46q67 -65 67 -167t-67 -167q-68 -68 -172 -68q-79 0 -139 40l-18 -21q-7 -9 -15 -9h-27q-16 0 -6 13l36 42l-3 3q-67 65 -67 167zM117 225q0 -72 42 -119l225 261
q-42 33 -100 33q-75 0 -122 -53q-45 -48 -45 -122zM451 225q0 68 -39 115l-224 -261q42 -29 96 -29q75 0 122 53q45 48 45 122z" />
    <glyph glyph-name="ugrave" unicode="&#xf9;" horiz-adv-x="545" 
d="M65 191v251q0 10 9 10h54q10 0 10 -10v-244q0 -55 18 -88q33 -55 117 -55q87 0 116 54q18 31 18 89v244q0 10 10 10h54q9 0 9 -10v-251q0 -79 -33 -128q-50 -73 -174 -73q-125 0 -175 73q-33 49 -33 128zM197 765h50q7 0 13 -10l90 -167q1 -2 2 -5t1 -5.5t-2 -4.5t-6 -2
h-37q-9 0 -14 9l-104 169q-9 16 7 16z" />
    <glyph glyph-name="uacute" unicode="&#xfa;" horiz-adv-x="545" 
d="M65 191v251q0 10 9 10h54q10 0 10 -10v-244q0 -55 18 -88q33 -55 117 -55q87 0 116 54q18 31 18 89v244q0 10 10 10h54q9 0 9 -10v-251q0 -79 -33 -128q-50 -73 -174 -73q-125 0 -175 73q-33 49 -33 128zM297 764h50q7 0 9 -5.5t-2 -10.5l-104 -169q-5 -9 -14 -9h-37
q-13 0 -5 17l90 167q6 10 13 10z" />
    <glyph glyph-name="ucircumflex" unicode="&#xfb;" horiz-adv-x="545" 
d="M65 191v251q0 10 9 10h54q10 0 10 -10v-244q0 -55 18 -88q33 -55 117 -55q87 0 116 54q18 31 18 89v244q0 10 10 10h54q9 0 9 -10v-251q0 -79 -33 -128q-50 -73 -174 -73q-125 0 -175 73q-33 49 -33 128zM259 764h26q6 0 14 -8l155 -173q3 -3 3.5 -6t-1.5 -5t-6 -2h-46
q-9 0 -17 8l-115 126l-115 -126q-8 -8 -17 -8h-46q-4 0 -6 2t-1.5 5t3.5 6l155 173q8 8 14 8z" />
    <glyph glyph-name="udieresis" unicode="&#xfc;" horiz-adv-x="545" 
d="M65 191v251q0 10 9 10h54q10 0 10 -10v-244q0 -55 18 -88q33 -55 117 -55q87 0 116 54q18 31 18 89v244q0 10 10 10h54q9 0 9 -10v-251q0 -79 -33 -128q-50 -73 -174 -73q-125 0 -175 73q-33 49 -33 128zM178 623q-18 0 -31 13t-13 31t13 31t31 13q19 0 31.5 -13
t12.5 -31t-12.5 -31t-31.5 -13zM366 623q-18 0 -31 13t-13 31t13 31t31 13t31 -13t13 -31t-13 -31t-31 -13z" />
    <glyph glyph-name="yacute" unicode="&#xfd;" horiz-adv-x="477" 
d="M470 439l-180 -463q-39 -98 -87 -149q-65 -63 -162 -59q-8 0 -8 8v55q0 7 9 7q2 0 8 -0.5t11 -0.5q54 0 95 46q31 36 54 90l-205 466q-5 13 8 13h65q12 0 15 -11l155 -377l140 377q3 11 15 11h60q12 0 7 -13zM262 764h50q7 0 9 -5.5t-2 -10.5l-104 -169q-5 -9 -14 -9h-37
q-14 0 -5 17l90 167q6 10 13 10z" />
    <glyph glyph-name="thorn" unicode="&#xfe;" horiz-adv-x="524" 
d="M72 671q0 10 10 10h54q9 0 9 -10v-217q31 6 72 6q123 0 194 -65q69 -64 69 -169t-57 -165q-64 -71 -172 -71q-62 0 -106 20v-232q0 -9 -9 -9h-54q-10 0 -10 9v893zM224 401q-31 0 -79 -6v-324q42 -21 99 -21q72 0 118 46q45 43 45 130q0 80 -48 126q-51 49 -135 49z" />
    <glyph glyph-name="ydieresis" unicode="&#xff;" horiz-adv-x="477" 
d="M470 439l-180 -463q-39 -98 -87 -149q-65 -63 -162 -59q-8 0 -8 8v55q0 7 9 7q2 0 8 -0.5t11 -0.5q54 0 95 46q31 36 54 90l-205 466q-5 13 8 13h65q12 0 15 -11l155 -377l140 377q3 11 15 11h60q12 0 7 -13zM143 623q-18 0 -31 13t-13 31t13 31t31 13q19 0 31.5 -13
t12.5 -31t-12.5 -31t-31.5 -13zM331 623q-18 0 -31 13t-13 31t13 31t31 13t31 -13t13 -31t-13 -31t-31 -13z" />
    <glyph glyph-name="Amacron" unicode="&#x100;" horiz-adv-x="691" 
d="M345 616q-82 0 -138 -59q-54 -62 -54 -163v-86h384v86q0 103 -54 163q-54 59 -138 59zM617 397v-388q0 -9 -9 -9h-61q-10 0 -10 9v228h-384v-228q0 -9 -10 -9h-60q-10 0 -10 9v388q0 136 85 218q72 75 187 75t188 -75q84 -83 84 -218zM227 910h236q10 0 10 -9v-42
q0 -9 -10 -9h-236q-10 0 -10 9v42q0 9 10 9z" />
    <glyph glyph-name="amacron" unicode="&#x101;" horiz-adv-x="475" 
d="M232 401q-66 0 -137 -41q-10 -6 -14 3l-17 37q-4 8 5 13q70 47 172 47q89 0 132 -49q37 -42 37 -122v-280q0 -9 -9 -9h-47q-9 0 -9 9v16h-4q-60 -35 -136 -35q-67 0 -112 32q-51 37 -51 101q0 82 93 118q67 25 202 32v15q0 56 -23 83q-26 30 -82 30zM226 48q55 0 111 29
v141q-100 -4 -149 -18q-76 -19 -76 -73q0 -39 33.5 -59t80.5 -20zM113 687h236q10 0 10 -9v-42q0 -9 -10 -9h-236q-10 0 -10 9v42q0 9 10 9z" />
    <glyph glyph-name="Abreve" unicode="&#x102;" horiz-adv-x="691" 
d="M345 616q-82 0 -138 -59q-54 -62 -54 -163v-86h384v86q0 103 -54 163q-54 59 -138 59zM617 397v-388q0 -9 -9 -9h-61q-10 0 -10 9v228h-384v-228q0 -9 -10 -9h-60q-10 0 -10 9v388q0 136 85 218q72 75 187 75t188 -75q84 -83 84 -218zM345 855q74 0 81 72q1 10 11 10h25
q12 0 12 -10q0 -54 -34.5 -90t-94.5 -36t-95 36t-35 90q0 10 12 10h26q10 0 11 -10q2 -33 23 -52.5t58 -19.5z" />
    <glyph glyph-name="abreve" unicode="&#x103;" horiz-adv-x="475" 
d="M232 401q-66 0 -137 -41q-10 -6 -14 3l-17 37q-4 8 5 13q70 47 172 47q89 0 132 -49q37 -42 37 -122v-280q0 -9 -9 -9h-47q-9 0 -9 9v16h-4q-60 -35 -136 -35q-67 0 -112 32q-51 37 -51 101q0 82 93 118q67 25 202 32v15q0 56 -23 83q-26 30 -82 30zM226 48q55 0 111 29
v141q-100 -4 -149 -18q-76 -19 -76 -73q0 -39 33.5 -59t80.5 -20zM237 640q74 0 81 72q1 10 11 10h25q12 0 12 -10q0 -54 -34.5 -90t-94.5 -36t-95 36t-35 90q0 10 12 10h26q10 0 11 -10q2 -33 23 -52.5t58 -19.5z" />
    <glyph glyph-name="Aogonek" unicode="&#x104;" horiz-adv-x="691" 
d="M452 -114q0 35 25 66.5t61 52.5q-1 1 -1 4v228h-384v-228q0 -9 -10 -9h-60q-10 0 -10 9v388q0 136 85 218q72 75 187 75t188 -75q84 -83 84 -218v-388q0 -9 -9 -9h-31q-71 -45 -71 -94q0 -40 45 -40q17 0 33 4.5t19 4.5q6 0 6 -7v-29q0 -7 -6 -10q-29 -13 -66 -13t-61 17
t-24 53zM345 616q-82 0 -138 -59q-54 -62 -54 -163v-86h384v86q0 103 -54 163q-54 59 -138 59z" />
    <glyph glyph-name="aogonek" unicode="&#x105;" horiz-adv-x="475" 
d="M254 -117q0 36 27 68.5t64 54.5v3v16h-4q-60 -35 -136 -35q-67 0 -112 32q-51 37 -51 101q0 82 93 118q67 25 202 32v15q0 56 -23 83q-26 30 -82 30q-66 0 -137 -41q-10 -6 -14 3l-17 37q-4 8 5 13q70 47 172 47q89 0 132 -49q37 -42 37 -122v-280q0 -9 -9 -9h-18
q-75 -45 -75 -97q0 -40 45 -40q17 0 33 4.5t19 4.5q6 0 6 -7v-29q0 -7 -6 -10q-29 -13 -66 -13t-61 17t-24 53zM226 48q55 0 111 29v141q-100 -4 -149 -18q-76 -19 -76 -73q0 -39 33.5 -59t80.5 -20z" />
    <glyph glyph-name="Cacute" unicode="&#x106;" horiz-adv-x="659" 
d="M401 -10q-154 0 -254 96.5t-100 254.5q0 144 104.5 246.5t251.5 102.5q114 0 208 -54q11 -6 6 -15l-24 -50q-4 -9 -14 -3q-89 50 -178 50q-110 0 -190.5 -82t-80.5 -195q0 -122 79.5 -200.5t192.5 -78.5q96 0 180 51q8 6 14 -3l24 -52q3 -8 -5 -13q-97 -55 -214 -55z
M412 969h50q7 0 9 -5.5t-2 -10.5l-104 -169q-5 -9 -14 -9h-37q-14 0 -5 17l90 167q6 10 13 10z" />
    <glyph glyph-name="cacute" unicode="&#x107;" horiz-adv-x="471" 
d="M290 51q62 0 109 28q11 8 15 -2l20 -37q4 -6 -5 -13q-55 -37 -141 -37q-116 0 -181 68q-62 62 -62 167q0 88 51 149q71 86 193 86q80 0 138 -40q9 -7 5 -13l-21 -38q-5 -9 -15 -3q-49 31 -107 31q-82 0 -130 -57q-40 -46 -40 -115q0 -77 46 -126q45 -48 125 -48zM305 764
h50q7 0 9 -5.5t-2 -10.5l-104 -169q-5 -9 -14 -9h-37q-13 0 -5 17l90 167q6 10 13 10z" />
    <glyph glyph-name="Ccaron" unicode="&#x10c;" horiz-adv-x="659" 
d="M401 -10q-154 0 -254 96.5t-100 254.5q0 144 104.5 246.5t251.5 102.5q114 0 208 -54q11 -6 6 -15l-24 -50q-4 -9 -14 -3q-89 50 -178 50q-110 0 -190.5 -82t-80.5 -195q0 -122 79.5 -200.5t192.5 -78.5q96 0 180 51q8 6 14 -3l24 -52q3 -8 -5 -13q-97 -55 -214 -55z
M403 774h-26q-7 0 -14 7l-155 173q-5 4 -3.5 9t7.5 5h46q8 0 17 -10l115 -125l115 125q9 10 17 10h46q6 0 7.5 -5t-3.5 -9l-155 -173q-7 -7 -14 -7z" />
    <glyph glyph-name="ccaron" unicode="&#x10d;" horiz-adv-x="471" 
d="M290 51q62 0 109 28q11 8 15 -2l20 -37q4 -6 -5 -13q-55 -37 -141 -37q-116 0 -181 68q-62 62 -62 167q0 88 51 149q71 86 193 86q80 0 138 -40q9 -7 5 -13l-21 -38q-5 -9 -15 -3q-49 31 -107 31q-82 0 -130 -57q-40 -46 -40 -115q0 -77 46 -126q45 -48 125 -48zM277 570
h-26q-7 0 -14 7l-155 173q-5 4 -3.5 9t7.5 5h46q8 0 17 -10l115 -125l115 125q9 10 17 10h46q6 0 7.5 -5t-3.5 -9l-155 -173q-7 -7 -14 -7z" />
    <glyph glyph-name="Dcaron" unicode="&#x10e;" horiz-adv-x="738" 
d="M691 340q0 -204 -155 -291q-89 -49 -223 -49h-229q-9 0 -9 9v662q0 10 9 10h244q186 0 283 -108q80 -88 80 -233zM155 613v-546h151q107 0 178 37q125 66 125 236q0 120 -62 188q-75 85 -231 85h-161zM375 774h-26q-7 0 -14 7l-155 173q-5 4 -3.5 9t7.5 5h46q8 0 17 -10
l115 -125l115 125q9 10 17 10h46q6 0 7.5 -5t-3.5 -9l-155 -173q-7 -7 -14 -7z" />
    <glyph glyph-name="dcaron" unicode="&#x10f;" horiz-adv-x="631" 
d="M311 61h65v319q-49 18 -99 18q-81 0 -127 -65q-31 -45 -31 -108q0 -69 41 -112q51 -52 151 -52zM439 0h-135q-131 0 -200 69q-59 57 -59 155q0 88 45 151q64 86 183 86q49 0 103 -18v228q0 10 9 10h54q10 0 10 -10v-662q0 -9 -10 -9zM623 623q1 -34 -22 -65.5t-56 -44.5
q-10 -3 -15 3l-8 12q-4 8 4 14q30 23 30 41q0 11 -18 26t-18 37q0 20 12.5 32t34.5 12q54 0 56 -67z" />
    <glyph glyph-name="Dcroat" unicode="&#x110;" horiz-adv-x="743" 
d="M696 340q0 -204 -154 -291q-89 -49 -224 -49h-229q-9 0 -9 9v297h-84q-10 0 -10 10v49q0 9 10 9h84v297q0 10 9 10h244q186 0 284 -108q79 -89 79 -233zM160 613v-239h158q10 0 10 -9v-49q0 -10 -10 -10h-158v-239h151q108 0 178 37q125 66 125 236q0 120 -62 188
q-75 85 -231 85h-161z" />
    <glyph glyph-name="dcroat" unicode="&#x111;" horiz-adv-x="521" 
d="M276 587h100v84q0 10 9 10h54q10 0 10 -10v-84h95q10 0 10 -9v-34q0 -10 -10 -10h-95v-525q0 -9 -10 -9h-135q-131 0 -200 69q-59 57 -59 155q0 88 45 151q64 86 183 86q49 0 103 -18v91h-100q-10 0 -10 10v34q0 9 10 9zM311 61h65v319q-49 18 -99 18q-81 0 -127 -65
q-31 -45 -31 -108q0 -69 41 -112q51 -52 151 -52z" />
    <glyph glyph-name="Emacron" unicode="&#x112;" horiz-adv-x="598" 
d="M84 681h469q9 0 9 -10v-51q0 -10 -9 -10h-398v-234h346q9 0 9 -9v-52q0 -9 -9 -9h-346v-235h398q9 0 9 -10v-52q0 -9 -9 -9h-469q-9 0 -9 9v662q0 10 9 10zM191 910h236q10 0 10 -9v-42q0 -9 -10 -9h-236q-10 0 -10 9v42q0 9 10 9z" />
    <glyph glyph-name="emacron" unicode="&#x113;" horiz-adv-x="524" 
d="M121 258h290q-3 61 -37 100q-40 43 -104 43q-72 0 -113 -47q-33 -39 -36 -96zM288 50q69 0 136 40q11 7 15 -2l19 -37q4 -7 -4 -13q-71 -48 -172 -48q-114 0 -178 73q-59 65 -59 168q0 98 60 163q61 66 165 66q105 0 164 -72q53 -67 47 -172q0 -11 -12 -11h-348
q5 -60 39 -100q46 -55 128 -55zM144 687h236q10 0 10 -9v-42q0 -9 -10 -9h-236q-10 0 -10 9v42q0 9 10 9z" />
    <glyph glyph-name="Edotaccent" unicode="&#x116;" horiz-adv-x="598" 
d="M84 681h469q9 0 9 -10v-51q0 -10 -9 -10h-398v-234h346q9 0 9 -9v-52q0 -9 -9 -9h-346v-235h398q9 0 9 -10v-52q0 -9 -9 -9h-469q-9 0 -9 9v662q0 10 9 10zM316 830q-18 0 -31 13t-13 31t13 31t31 13t31 -13t13 -31t-13 -31t-31 -13z" />
    <glyph glyph-name="edotaccent" unicode="&#x117;" horiz-adv-x="524" 
d="M121 258h290q-3 61 -37 100q-40 43 -104 43q-72 0 -113 -47q-33 -39 -36 -96zM288 50q69 0 136 40q11 7 15 -2l19 -37q4 -7 -4 -13q-71 -48 -172 -48q-114 0 -178 73q-59 65 -59 168q0 98 60 163q61 66 165 66q105 0 164 -72q53 -67 47 -172q0 -11 -12 -11h-348
q5 -60 39 -100q46 -55 128 -55zM266 623q-18 0 -31 13t-13 31t13 31t31 13t31 -13t13 -31t-13 -31t-31 -13z" />
    <glyph glyph-name="Eogonek" unicode="&#x118;" horiz-adv-x="598" 
d="M405 -114q0 63 77 114h-398q-9 0 -9 9v662q0 10 9 10h469q9 0 9 -10v-51q0 -10 -9 -10h-398v-234h346q9 0 9 -9v-52q0 -9 -9 -9h-346v-235h398q9 0 9 -10v-52q0 -9 -9 -9h-23q-71 -45 -71 -94q0 -40 45 -40q17 0 33 4.5t19 4.5q6 0 6 -7v-29q0 -7 -6 -10q-29 -13 -66 -13
t-61 17t-24 53z" />
    <glyph glyph-name="eogonek" unicode="&#x119;" horiz-adv-x="524" 
d="M288 -99q0 50 51 94q-32 -5 -57 -5q-114 0 -178 73q-59 65 -59 168q0 98 60 163q61 66 165 66q105 0 164 -72q53 -67 47 -172q0 -11 -12 -11h-348q5 -60 39 -100q46 -55 128 -55q69 0 136 40q11 7 15 -2l19 -37q4 -7 -4 -13q-16 -11 -35 -20q-77 -45 -77 -97
q0 -40 45 -40q17 0 33 4.5t19 4.5q6 0 6 -7v-29q0 -7 -6 -10q-29 -13 -66 -13t-61 17t-24 53zM121 258h290q-3 61 -37 100q-40 43 -104 43q-72 0 -113 -47q-33 -39 -36 -96z" />
    <glyph glyph-name="Ecaron" unicode="&#x11a;" horiz-adv-x="598" 
d="M84 681h469q9 0 9 -10v-51q0 -10 -9 -10h-398v-234h346q9 0 9 -9v-52q0 -9 -9 -9h-346v-235h398q9 0 9 -10v-52q0 -9 -9 -9h-469q-9 0 -9 9v662q0 10 9 10zM335 774h-26q-7 0 -14 7l-155 173q-5 4 -3.5 9t7.5 5h46q8 0 17 -10l115 -125l115 125q9 10 17 10h46q6 0 7.5 -5
t-3.5 -9l-155 -173q-7 -7 -14 -7z" />
    <glyph glyph-name="ecaron" unicode="&#x11b;" horiz-adv-x="524" 
d="M121 258h290q-3 61 -37 100q-40 43 -104 43q-72 0 -113 -47q-33 -39 -36 -96zM288 50q69 0 136 40q11 7 15 -2l19 -37q4 -7 -4 -13q-71 -48 -172 -48q-114 0 -178 73q-59 65 -59 168q0 98 60 163q61 66 165 66q105 0 164 -72q53 -67 47 -172q0 -11 -12 -11h-348
q5 -60 39 -100q46 -55 128 -55zM275 570h-26q-7 0 -14 7l-155 173q-5 4 -3.5 9t7.5 5h46q8 0 17 -10l115 -125l115 125q9 10 17 10h46q6 0 7.5 -5t-3.5 -9l-155 -173q-7 -7 -14 -7z" />
    <glyph glyph-name="Gbreve" unicode="&#x11e;" horiz-adv-x="738" 
d="M403 690q114 0 208 -54q11 -6 6 -15l-24 -50q-4 -9 -14 -3q-93 50 -178 50q-112 0 -191.5 -82t-79.5 -195q0 -126 77.5 -203t193.5 -77q117 0 192 63v143h-205q-10 0 -10 10v51q0 10 10 10h271q10 0 10 -10v-319q0 -9 -10 -9h-56q-10 0 -10 9v41q-84 -60 -198 -60
q-149 0 -248.5 93.5t-99.5 257.5q0 144 104 246.5t252 102.5zM371 855q74 0 81 72q1 10 11 10h25q12 0 12 -10q0 -54 -34.5 -90t-94.5 -36t-95 36t-35 90q0 10 12 10h26q10 0 11 -10q2 -33 23 -52.5t58 -19.5z" />
    <glyph glyph-name="gbreve" unicode="&#x11f;" horiz-adv-x="530" 
d="M246 -173q71 0 105 39q34 38 34 112v58q-54 -45 -135 -45q-91 0 -146 62q-59 67 -59 173t57 172q55 62 147 62q76 0 135 -47h3v29q0 10 9 10h52q10 0 10 -10v-456q0 -110 -57 -166q-52 -52 -156 -52q-94 0 -165 48q-8 5 -4 12l20 40q5 9 15 2q64 -43 135 -43zM257 52
q72 0 128 48v248q-64 52 -127 52q-64 0 -100 -46q-39 -48 -39 -127q0 -83 38 -130q37 -45 100 -45zM265 640q74 0 81 72q1 10 11 10h25q12 0 12 -10q0 -54 -34.5 -90t-94.5 -36t-95 36t-35 90q0 10 12 10h26q10 0 11 -10q2 -33 23 -52.5t58 -19.5z" />
    <glyph glyph-name="Gcommaaccent" unicode="&#x122;" horiz-adv-x="738" 
d="M403 690q114 0 208 -54q11 -6 6 -15l-24 -50q-4 -9 -14 -3q-93 50 -178 50q-112 0 -191.5 -82t-79.5 -195q0 -126 77.5 -203t193.5 -77q117 0 192 63v143h-205q-10 0 -10 10v51q0 10 10 10h271q10 0 10 -10v-319q0 -9 -10 -9h-56q-10 0 -10 9v41q-84 -60 -198 -60
q-149 0 -248.5 93.5t-99.5 257.5q0 144 104 246.5t252 102.5zM450 -128q1 -34 -22 -65.5t-56 -44.5q-10 -3 -15 3l-8 12q-4 8 4 14q30 23 30 41q0 11 -18 26t-18 37q0 20 12.5 32t34.5 12q54 0 56 -67z" />
    <glyph glyph-name="gcommaaccent" unicode="&#x123;" horiz-adv-x="530" 
d="M211 624q-1 34 22.5 66t56.5 44q9 3 13 -3l8 -12q6 -8 -2 -13q-31 -24 -31 -42q0 -11 18.5 -26t18.5 -36q0 -20 -13 -32.5t-35 -12.5q-54 0 -56 67zM246 -173q71 0 105 39q34 38 34 112v58q-54 -45 -135 -45q-91 0 -146 62q-59 67 -59 173t57 172q55 62 147 62
q76 0 135 -47h3v29q0 10 9 10h52q10 0 10 -10v-456q0 -110 -57 -166q-52 -52 -156 -52q-94 0 -165 48q-8 5 -4 12l20 40q5 9 15 2q64 -43 135 -43zM257 52q72 0 128 48v248q-64 52 -127 52q-64 0 -100 -46q-39 -48 -39 -127q0 -83 38 -130q37 -45 100 -45z" />
    <glyph glyph-name="Imacron" unicode="&#x12a;" horiz-adv-x="229" 
d="M84 681h61q10 0 10 -10v-662q0 -9 -10 -9h-61q-9 0 -9 9v662q0 10 9 10zM-3 910h236q10 0 10 -9v-42q0 -9 -10 -9h-236q-10 0 -10 9v42q0 9 10 9z" />
    <glyph glyph-name="imacron" unicode="&#x12b;" horiz-adv-x="218" 
d="M72 442q0 10 10 10h54q9 0 9 -10v-433q0 -9 -9 -9h-54q-10 0 -10 9v433zM-9 687h236q10 0 10 -9v-42q0 -9 -10 -9h-236q-10 0 -10 9v42q0 9 10 9z" />
    <glyph glyph-name="Iogonek" unicode="&#x12e;" horiz-adv-x="229" 
d="M-13 -114q0 35 25.5 67t62.5 54v2v662q0 10 9 10h61q10 0 10 -10v-662q0 -9 -10 -9h-33q-71 -45 -71 -94q0 -40 45 -40q17 0 33 4.5t19 4.5q6 0 6 -7v-29q0 -7 -6 -10q-29 -13 -66 -13t-61 17t-24 53z" />
    <glyph glyph-name="iogonek" unicode="&#x12f;" horiz-adv-x="218" 
d="M-13 -116q0 35 25 66.5t61 53.5q-1 1 -1 5v433q0 10 10 10h54q9 0 9 -10v-433q0 -9 -9 -9h-21q-74 -45 -74 -96q0 -40 45 -40q17 0 33 4.5t19 4.5q6 0 6 -7v-29q0 -7 -6 -10q-29 -13 -66 -13t-61 17t-24 53zM108 623q-18 0 -31 12.5t-13 31.5q0 18 13 30.5t31 12.5
t31 -12.5t13 -30.5q0 -19 -13 -31.5t-31 -12.5z" />
    <glyph glyph-name="Idotaccent" unicode="&#x130;" horiz-adv-x="229" 
d="M84 681h61q10 0 10 -10v-662q0 -9 -10 -9h-61q-9 0 -9 9v662q0 10 9 10zM115 830q-18 0 -31 13t-13 31t13 31t31 13t31 -13t13 -31t-13 -31t-31 -13z" />
    <glyph glyph-name="dotlessi" unicode="&#x131;" horiz-adv-x="217" 
d="M72 442q0 10 10 10h54q9 0 9 -10v-433q0 -9 -9 -9h-54q-10 0 -10 9v433z" />
    <glyph glyph-name="Kcommaaccent" unicode="&#x136;" horiz-adv-x="610" 
d="M490 9l-262 315l-73 -73v-242q0 -9 -10 -9h-61q-9 0 -9 9v662q0 10 9 10h61q10 0 10 -10v-318l312 318q9 10 20 10h76q7 0 8.5 -5t-3.5 -10l-284 -284l301 -366q5 -5 4 -10.5t-9 -5.5h-72q-12 0 -18 9zM360 -128q1 -34 -22 -65.5t-56 -44.5q-10 -3 -15 3l-8 12q-4 8 4 14
q30 23 30 41q0 11 -18 26t-18 37q0 20 12.5 32t34.5 12q54 0 56 -67z" />
    <glyph glyph-name="kcommaaccent" unicode="&#x137;" horiz-adv-x="485" 
d="M376 9l-167 200l-64 -58v-142q0 -9 -9 -9h-54q-10 0 -10 9v662q0 10 10 10h54q9 0 9 -10v-440l220 212q9 9 19 9h62q9 0 10.5 -6t-4.5 -11l-193 -179l203 -241q11 -15 -7 -15h-62q-12 0 -17 9zM299 -128q1 -34 -22 -65.5t-56 -44.5q-10 -3 -15 3l-8 12q-4 8 4 14
q30 23 30 41q0 11 -18 26t-18 37q0 20 12.5 32t34.5 12q54 0 56 -67z" />
    <glyph glyph-name="Lacute" unicode="&#x139;" horiz-adv-x="534" 
d="M85 681h61q10 0 10 -10v-600h347q9 0 9 -10v-52q0 -9 -9 -9h-418q-9 0 -9 9v662q0 10 9 10zM181 969h50q7 0 9 -5.5t-2 -10.5l-104 -169q-5 -9 -14 -9h-37q-13 0 -5 17l90 167q6 10 13 10z" />
    <glyph glyph-name="lacute" unicode="&#x13a;" horiz-adv-x="218" 
d="M72 671q0 10 10 10h54q9 0 9 -10v-662q0 -9 -9 -9h-54q-10 0 -10 9v662zM138 969h50q7 0 9 -5.5t-2 -10.5l-104 -169q-5 -9 -14 -9h-37q-14 0 -5 17l90 167q6 10 13 10z" />
    <glyph glyph-name="Lcommaaccent" unicode="&#x13b;" horiz-adv-x="533" 
d="M84 681h61q10 0 10 -10v-600h347q9 0 9 -10v-52q0 -9 -9 -9h-418q-9 0 -9 9v662q0 10 9 10zM346 -128q1 -34 -22 -65.5t-56 -44.5q-10 -3 -15 3l-8 12q-4 8 4 14q30 23 30 41q0 11 -18 26t-18 37q0 20 12.5 32t34.5 12q54 0 56 -67z" />
    <glyph glyph-name="lcommaaccent" unicode="&#x13c;" horiz-adv-x="218" 
d="M72 671q0 10 10 10h54q9 0 9 -10v-662q0 -9 -9 -9h-54q-10 0 -10 9v662zM163 -128q1 -34 -22 -65.5t-56 -44.5q-10 -3 -15 3l-8 12q-4 8 4 14q30 23 30 41q0 11 -18 26t-18 37q0 20 12.5 32t34.5 12q54 0 56 -67z" />
    <glyph glyph-name="Lcaron" unicode="&#x13d;" horiz-adv-x="533" 
d="M84 681h61q10 0 10 -10v-600h347q9 0 9 -10v-52q0 -9 -9 -9h-418q-9 0 -9 9v662q0 10 9 10zM390 623q1 -34 -22 -65.5t-56 -44.5q-10 -3 -15 3l-8 12q-4 8 4 14q30 23 30 41q0 11 -18 26t-18 37q0 20 12.5 32t34.5 12q54 0 56 -67z" />
    <glyph glyph-name="lcaron" unicode="&#x13e;" horiz-adv-x="306" 
d="M72 671q0 10 10 10h54q9 0 9 -10v-662q0 -9 -9 -9h-54q-10 0 -10 9v662zM305 623q1 -34 -22 -65.5t-56 -44.5q-10 -3 -15 3l-8 12q-4 8 4 14q30 23 30 41q0 11 -18 26t-18 37q0 20 12.5 32t34.5 12q54 0 56 -67z" />
    <glyph glyph-name="Lslash" unicode="&#x141;" horiz-adv-x="540" 
d="M91 681h60q10 0 10 -10v-290l100 64q9 4 13 -3l24 -37q6 -7 -2 -13l-135 -86v-235h347q10 0 10 -10v-52q0 -9 -10 -9h-417q-10 0 -10 9v246l-75 -48q-9 -6 -14 3l-24 37q-6 8 3 13l110 70v341q0 10 10 10z" />
    <glyph glyph-name="lslash" unicode="&#x142;" horiz-adv-x="223" 
d="M283 402l-135 -87v-306q0 -9 -10 -9h-54q-9 0 -9 9v259l-79 -50q-9 -5 -14 3l-23 37q-5 8 2 13l114 72v328q0 10 9 10h54q10 0 10 -10v-281l100 64q8 5 13 -2l25 -37q4 -10 -3 -13z" />
    <glyph glyph-name="Nacute" unicode="&#x143;" horiz-adv-x="740" 
d="M588 129v542q0 10 10 10h57q10 0 10 -10v-662q0 -9 -10 -9h-56q-11 0 -18 10l-430 540v-541q0 -9 -9 -9h-58q-9 0 -9 9v662q0 10 9 10h55q10 0 19 -10zM395 969h50q7 0 9 -5.5t-2 -10.5l-104 -169q-5 -9 -14 -9h-37q-13 0 -5 17l90 167q6 10 13 10z" />
    <glyph glyph-name="nacute" unicode="&#x144;" horiz-adv-x="554" 
d="M143 375h3q45 85 158 85q84 0 131 -41q54 -48 54 -151v-259q0 -9 -10 -9h-53q-10 0 -10 9v243q0 81 -37 115q-31 29 -89 29q-80 0 -118 -69q-26 -49 -26 -119v-199q0 -9 -9 -9h-55q-10 0 -10 9v433q0 10 10 10h51q10 0 10 -10v-67zM303 764h50q7 0 9 -5.5t-2 -10.5
l-104 -169q-5 -9 -14 -9h-37q-13 0 -5 17l90 167q6 10 13 10z" />
    <glyph glyph-name="Ncommaaccent" unicode="&#x145;" horiz-adv-x="740" 
d="M588 129v542q0 10 10 10h57q10 0 10 -10v-662q0 -9 -10 -9h-56q-11 0 -18 10l-430 540v-541q0 -9 -9 -9h-58q-9 0 -9 9v662q0 10 9 10h55q10 0 19 -10zM423 -128q1 -34 -22 -65.5t-56 -44.5q-10 -3 -15 3l-8 12q-4 8 4 14q30 23 30 41q0 11 -18 26t-18 37q0 20 12.5 32
t34.5 12q54 0 56 -67z" />
    <glyph glyph-name="ncommaaccent" unicode="&#x146;" horiz-adv-x="554" 
d="M143 375h3q45 85 158 85q84 0 131 -41q54 -48 54 -151v-259q0 -9 -10 -9h-53q-10 0 -10 9v243q0 81 -37 115q-31 29 -89 29q-80 0 -118 -69q-26 -49 -26 -119v-199q0 -9 -9 -9h-55q-10 0 -10 9v433q0 10 10 10h51q10 0 10 -10v-67zM335 -128q1 -34 -22 -65.5t-56 -44.5
q-10 -3 -15 3l-8 12q-4 8 4 14q30 23 30 41q0 11 -18 26t-18 37q0 20 12.5 32t34.5 12q54 0 56 -67z" />
    <glyph glyph-name="Ncaron" unicode="&#x147;" horiz-adv-x="740" 
d="M588 129v542q0 10 10 10h57q10 0 10 -10v-662q0 -9 -10 -9h-56q-11 0 -18 10l-430 540v-541q0 -9 -9 -9h-58q-9 0 -9 9v662q0 10 9 10h55q10 0 19 -10zM384 774h-26q-7 0 -14 7l-155 173q-5 4 -3.5 9t7.5 5h46q8 0 17 -10l115 -125l115 125q9 10 17 10h46q6 0 7.5 -5
t-3.5 -9l-155 -173q-7 -7 -14 -7z" />
    <glyph glyph-name="ncaron" unicode="&#x148;" horiz-adv-x="554" 
d="M143 375h3q45 85 158 85q84 0 131 -41q54 -48 54 -151v-259q0 -9 -10 -9h-53q-10 0 -10 9v243q0 81 -37 115q-31 29 -89 29q-80 0 -118 -69q-26 -49 -26 -119v-199q0 -9 -9 -9h-55q-10 0 -10 9v433q0 10 10 10h51q10 0 10 -10v-67zM292 570h-26q-7 0 -14 7l-155 173
q-5 4 -3.5 9t7.5 5h46q8 0 17 -10l115 -125l115 125q9 10 17 10h46q6 0 7.5 -5t-3.5 -9l-155 -173q-7 -7 -14 -7z" />
    <glyph glyph-name="Omacron" unicode="&#x14c;" horiz-adv-x="806" 
d="M759 339q0 -147 -104.5 -248t-251.5 -101t-251.5 101t-104.5 248q0 148 104.5 249.5t251.5 101.5t251.5 -102t104.5 -249zM674 339q0 114 -78.5 195t-192.5 81t-193 -81t-79 -195t79 -194.5t193 -80.5t192.5 80.5t78.5 194.5zM285 910h236q10 0 10 -9v-42q0 -9 -10 -9
h-236q-10 0 -10 9v42q0 9 10 9z" />
    <glyph glyph-name="omacron" unicode="&#x14d;" horiz-adv-x="567" 
d="M117 225q0 -74 45 -122q47 -53 122 -53t122 53q45 48 45 122t-45 122q-47 53 -122 53t-122 -53q-45 -48 -45 -122zM45 225q0 102 67 167q68 68 172 68t172 -68q67 -65 67 -167t-67 -167q-68 -68 -172 -68t-172 68q-67 65 -67 167zM166 687h236q10 0 10 -9v-42
q0 -9 -10 -9h-236q-10 0 -10 9v42q0 9 10 9z" />
    <glyph glyph-name="Ohungarumlaut" unicode="&#x150;" horiz-adv-x="806" 
d="M759 339q0 -147 -104.5 -248t-251.5 -101t-251.5 101t-104.5 248q0 148 104.5 249.5t251.5 101.5t251.5 -102t104.5 -249zM674 339q0 114 -78.5 195t-192.5 81t-193 -81t-79 -195t79 -194.5t193 -80.5t192.5 80.5t78.5 194.5zM522 969h50q9 0 9 -7q0 -5 -3 -9l-117 -170
q-6 -8 -13 -8h-39q-7 0 -7 6q0 4 3 8l103 170q6 10 14 10zM365 969h51q8 0 8 -7q0 -5 -4 -9l-116 -170q-5 -8 -13 -8h-39q-8 0 -8 6q0 1 1 3.5t2 4.5l104 170q6 10 14 10z" />
    <glyph glyph-name="ohungarumlaut" unicode="&#x151;" horiz-adv-x="567" 
d="M117 225q0 -74 45 -122q47 -53 122 -53t122 53q45 48 45 122t-45 122q-47 53 -122 53t-122 -53q-45 -48 -45 -122zM45 225q0 102 67 167q68 68 172 68t172 -68q67 -65 67 -167t-67 -167q-68 -68 -172 -68t-172 68q-67 65 -67 167zM407 764h50q9 0 9 -7q0 -5 -3 -9
l-117 -170q-6 -8 -13 -8h-39q-7 0 -7 6q0 4 3 8l103 170q6 10 14 10zM250 764h51q8 0 8 -7q0 -5 -4 -9l-116 -170q-5 -8 -13 -8h-39q-8 0 -8 6q0 1 1.5 3.5t1.5 4.5l104 170q6 10 14 10z" />
    <glyph glyph-name="OE" unicode="&#x152;" horiz-adv-x="1200" 
d="M686 681h469q9 0 9 -10v-51q0 -10 -9 -10h-398v-234h346q9 0 9 -9v-52q0 -9 -9 -9h-346v-6v-229h398q9 0 9 -10v-52q0 -9 -9 -9h-469q-9 0 -9 9v106q-50 -59 -121.5 -92t-152.5 -33q-147 0 -251.5 101t-104.5 248q0 148 104.5 249.5t251.5 101.5q81 0 152.5 -34
t121.5 -93v108q0 10 9 10zM674 339q0 114 -78.5 195t-192.5 81t-193 -81t-79 -195t79 -194.5t193 -80.5t192.5 80.5t78.5 194.5z" />
    <glyph glyph-name="oe" unicode="&#x153;" horiz-adv-x="931" 
d="M695 50q69 0 136 40q11 7 15 -2l19 -37q4 -7 -4 -13q-71 -48 -172 -48q-114 0 -178 73q-18 20 -25 32q-16 -23 -30 -37q-68 -68 -172 -68t-172 68q-67 65 -67 167t67 167q68 68 172 68t172 -68q16 -16 29 -35q14 23 27 37q61 66 165 66q105 0 164 -72q53 -67 47 -172
q0 -11 -12 -11h-348q5 -60 39 -100q46 -55 128 -55zM117 225q0 -74 45 -122q47 -53 122 -53t122 53q45 48 45 122t-45 122q-47 53 -122 53t-122 -53q-45 -48 -45 -122zM528 258h290q-3 61 -37 100q-40 43 -104 43q-72 0 -113 -47q-33 -39 -36 -96z" />
    <glyph glyph-name="Racute" unicode="&#x154;" horiz-adv-x="639" 
d="M521 310q-43 -32 -105 -40l190 -254q10 -16 -5 -16h-68q-13 0 -19 10l-188 256h-171v-257q0 -9 -10 -9h-61q-9 0 -9 9v662q0 10 9 10h270q108 0 166 -39q80 -54 80 -169q0 -107 -79 -163zM345 613h-190v-280h183q82 0 122 23q59 34 59 116t-57 117q-40 24 -117 24z
M349 969h50q7 0 9 -5.5t-2 -10.5l-104 -169q-5 -9 -14 -9h-37q-13 0 -5 17l90 167q6 10 13 10z" />
    <glyph glyph-name="racute" unicode="&#x155;" horiz-adv-x="377" 
d="M253 764h50q7 0 9 -5.5t-2 -10.5l-104 -169q-5 -9 -14 -9h-37q-13 0 -5 17l90 167q6 10 13 10zM261 393q-51 0 -81 -40q-34 -46 -34 -132v-212q0 -9 -9 -9h-55q-10 0 -10 9v433q0 10 10 10h51q10 0 10 -10v-55h3q35 73 127 73q63 0 108 -36q7 -6 3 -13l-22 -45
q-5 -9 -15 -2q-41 29 -86 29z" />
    <glyph glyph-name="Rcommaaccent" unicode="&#x156;" horiz-adv-x="639" 
d="M521 310q-43 -32 -105 -40l190 -254q10 -16 -5 -16h-68q-13 0 -19 10l-188 256h-171v-257q0 -9 -10 -9h-61q-9 0 -9 9v662q0 10 9 10h270q108 0 166 -39q80 -54 80 -169q0 -107 -79 -163zM345 613h-190v-280h183q82 0 122 23q59 34 59 116t-57 117q-40 24 -117 24z
M375 -128q1 -34 -22 -65.5t-56 -44.5q-10 -3 -15 3l-8 12q-4 8 4 14q30 23 30 41q0 11 -18 26t-18 37q0 20 12.5 32t34.5 12q54 0 56 -67z" />
    <glyph glyph-name="rcommaaccent" unicode="&#x157;" horiz-adv-x="377" 
d="M183 -128q1 -34 -22 -65.5t-56 -44.5q-10 -3 -15 3l-8 12q-4 8 4 14q30 23 30 41q0 11 -18 26t-18 37q0 20 12.5 32t34.5 12q54 0 56 -67zM261 393q-51 0 -81 -40q-34 -46 -34 -132v-212q0 -9 -9 -9h-55q-10 0 -10 9v433q0 10 10 10h51q10 0 10 -10v-55h3q35 73 127 73
q63 0 108 -36q7 -6 3 -13l-22 -45q-5 -9 -15 -2q-41 29 -86 29z" />
    <glyph glyph-name="Rcaron" unicode="&#x158;" horiz-adv-x="639" 
d="M521 310q-43 -32 -105 -40l190 -254q10 -16 -5 -16h-68q-13 0 -19 10l-188 256h-171v-257q0 -9 -10 -9h-61q-9 0 -9 9v662q0 10 9 10h270q108 0 166 -39q80 -54 80 -169q0 -107 -79 -163zM345 613h-190v-280h183q82 0 122 23q59 34 59 116t-57 117q-40 24 -117 24z
M333 774h-26q-7 0 -14 7l-155 173q-5 4 -3.5 9t7.5 5h46q8 0 17 -10l115 -125l115 125q9 10 17 10h46q6 0 7.5 -5t-3.5 -9l-155 -173q-7 -7 -14 -7z" />
    <glyph glyph-name="rcaron" unicode="&#x159;" horiz-adv-x="378" 
d="M232 570h-26q-7 0 -14 7l-155 173q-5 4 -3.5 9t7.5 5h46q8 0 17 -10l115 -125l115 125q9 10 17 10h46q6 0 7.5 -5t-3.5 -9l-155 -173q-7 -7 -14 -7zM261 393q-51 0 -81 -40q-34 -46 -34 -132v-212q0 -9 -9 -9h-55q-10 0 -10 9v433q0 10 10 10h51q10 0 10 -10v-55h3
q35 73 127 73q63 0 108 -36q7 -6 3 -13l-22 -45q-5 -9 -15 -2q-41 29 -86 29z" />
    <glyph glyph-name="Sacute" unicode="&#x15a;" horiz-adv-x="556" 
d="M275 -10q-128 0 -229 65q-10 5 -5 14l25 51q3 8 13 3q101 -65 195 -65q70 0 112 31q45 35 45 96q0 67 -87 104q-25 11 -91.5 31t-105.5 39q-102 50 -102 148q0 83 59 131q65 52 183 52q113 0 198 -48q8 -6 4 -14l-24 -50q-5 -10 -14 -4q-81 47 -168 47q-83 0 -122 -36
q-32 -29 -32 -75q0 -64 99 -100q11 -4 87.5 -26.5t113.5 -44.5q89 -51 89 -147t-72 -152q-64 -50 -171 -50zM303 969h50q7 0 9 -5.5t-2 -10.5l-104 -169q-5 -9 -14 -9h-37q-13 0 -5 17l90 167q6 10 13 10z" />
    <glyph glyph-name="sacute" unicode="&#x15b;" horiz-adv-x="410" 
d="M198 49q94 0 94 68q0 26 -16 41.5t-48 29.5q-12 6 -50.5 19.5t-58.5 22.5q-74 34 -74 109q0 57 43 89.5t122 32.5q82 0 140 -33q8 -5 5 -13l-20 -41q-4 -9 -13 -3q-52 29 -109 29q-92 0 -92 -61q0 -23 14 -36t41 -25q15 -7 54 -20.5t55 -21.5q83 -39 83 -113
q0 -61 -45 -97t-122 -36q-93 0 -156 38q-9 4 -4 12l20 41q5 9 13 4q58 -36 124 -36zM237 764h50q7 0 9 -5.5t-2 -10.5l-104 -169q-5 -9 -14 -9h-37q-13 0 -5 17l90 167q6 10 13 10z" />
    <glyph glyph-name="Scedilla" unicode="&#x15e;" horiz-adv-x="556" 
d="M381 -110q0 -47 -38 -67.5t-87 -20.5q-21 0 -38 3q-8 2 -8 9v22q0 8 8 8q3 0 14 -1t22 -1q31 0 53.5 12t22.5 38q0 21 -18 31.5t-45 10.5q-11 0 -21 -1l5 58q-115 5 -205 64q-10 5 -5 14l25 51q3 8 13 3q101 -65 195 -65q70 0 112 31q45 35 45 96q0 67 -87 104
q-25 11 -91.5 31t-105.5 39q-102 50 -102 148q0 83 59 131q65 52 183 52q113 0 198 -48q8 -6 4 -14l-24 -50q-5 -10 -14 -4q-81 47 -168 47q-83 0 -122 -36q-32 -29 -32 -75q0 -64 99 -100q11 -4 87.5 -26.5t113.5 -44.5q89 -51 89 -147t-72 -152q-58 -46 -154 -49v-26
q39 -3 64 -22.5t25 -52.5z" />
    <glyph glyph-name="scedilla" unicode="&#x15f;" horiz-adv-x="410" 
d="M307 -110q0 -47 -38 -67.5t-87 -20.5q-22 0 -38 3q-8 2 -8 9v22q0 8 8 8q3 0 14 -1t22 -1q31 0 53.5 12t22.5 38q0 21 -18 31.5t-45 10.5q-11 0 -21 -1l5 58q-78 4 -132 37q-9 4 -4 12l20 41q5 9 13 4q58 -36 124 -36q94 0 94 68q0 26 -16 41.5t-48 29.5
q-12 6 -50.5 19.5t-58.5 22.5q-74 34 -74 109q0 57 43 89.5t122 32.5q82 0 140 -33q8 -5 5 -13l-20 -41q-4 -9 -13 -3q-52 29 -109 29q-92 0 -92 -61q0 -23 14 -36t41 -25q15 -7 54 -20.5t55 -21.5q83 -39 83 -113q0 -58 -40.5 -93t-109.5 -39v-26q39 -3 64 -22.5t25 -52.5z
" />
    <glyph glyph-name="Scaron" unicode="&#x160;" horiz-adv-x="556" 
d="M275 -10q-128 0 -229 65q-10 5 -5 14l25 51q3 8 13 3q101 -65 195 -65q70 0 112 31q45 35 45 96q0 67 -87 104q-25 11 -91.5 31t-105.5 39q-102 50 -102 148q0 83 59 131q65 52 183 52q113 0 198 -48q8 -6 4 -14l-24 -50q-5 -10 -14 -4q-81 47 -168 47q-83 0 -122 -36
q-32 -29 -32 -75q0 -64 99 -100q11 -4 87.5 -26.5t113.5 -44.5q89 -51 89 -147t-72 -152q-64 -50 -171 -50zM289 784h-26q-7 0 -14 7l-155 173q-5 4 -3.5 9t7.5 5h46q8 0 17 -10l115 -125l115 125q9 10 17 10h46q6 0 7.5 -5t-3.5 -9l-155 -173q-7 -7 -14 -7z" />
    <glyph glyph-name="scaron" unicode="&#x161;" horiz-adv-x="420" 
d="M201 49q94 0 94 68q0 26 -16 41.5t-48 29.5q-12 6 -50.5 19.5t-58.5 22.5q-74 34 -74 109q0 57 43 89.5t122 32.5q82 0 140 -33q8 -5 5 -13l-20 -41q-4 -9 -13 -3q-52 29 -109 29q-92 0 -92 -61q0 -23 14 -36t41 -25q15 -7 54 -20.5t55 -21.5q83 -39 83 -113
q0 -61 -45 -97t-122 -36q-93 0 -156 38q-9 4 -4 12l20 41q5 9 13 4q58 -36 124 -36zM221 570h-26q-7 0 -14 7l-155 173q-5 4 -3.5 9t7.5 5h46q8 0 17 -10l115 -125l115 125q9 10 17 10h46q6 0 7.5 -5t-3.5 -9l-155 -173q-7 -7 -14 -7z" />
    <glyph glyph-name="Tcommaaccent" unicode="&#x162;" horiz-adv-x="564" 
d="M13 681h538q9 0 9 -10v-51q0 -10 -9 -10h-229v-601q0 -9 -10 -9h-60q-10 0 -10 9v601h-229q-9 0 -9 10v51q0 10 9 10zM334 -128q1 -34 -22 -65.5t-56 -44.5q-10 -3 -15 3l-8 12q-4 8 4 14q30 23 30 41q0 11 -18 26t-18 37q0 20 12.5 32t34.5 12q54 0 56 -67z" />
    <glyph glyph-name="tcommaaccent" unicode="&#x163;" horiz-adv-x="353" 
d="M157 394v-235q0 -50 15 -73q20 -33 71 -33q43 0 82 28q10 7 15 -1l18 -39q4 -7 -4 -13q-53 -38 -129 -38q-75 0 -111 44q-31 39 -31 116v244h-53q-10 0 -10 9v39q0 10 10 10h53v87q0 10 10 10h54q10 0 10 -10v-87h157q10 0 10 -10v-39q0 -9 -10 -9h-157zM274 -128
q1 -34 -22 -65.5t-56 -44.5q-10 -3 -15 3l-8 12q-4 8 4 14q30 23 30 41q0 11 -18 26t-18 37q0 20 12.5 32t34.5 12q54 0 56 -67z" />
    <glyph glyph-name="Tcaron" unicode="&#x164;" horiz-adv-x="564" 
d="M13 681h538q9 0 9 -10v-51q0 -10 -9 -10h-229v-601q0 -9 -10 -9h-60q-10 0 -10 9v601h-229q-9 0 -9 10v51q0 10 9 10zM294 774h-26q-7 0 -14 7l-155 173q-5 4 -3.5 9t7.5 5h46q8 0 17 -10l115 -125l115 125q9 10 17 10h46q6 0 7.5 -5t-3.5 -9l-155 -173q-7 -7 -14 -7z
" />
    <glyph glyph-name="tcaron" unicode="&#x165;" horiz-adv-x="411" 
d="M157 394v-235q0 -50 15 -73q20 -33 71 -33q43 0 82 28q10 7 15 -1l18 -39q4 -7 -4 -13q-53 -38 -129 -38q-75 0 -111 44q-31 39 -31 116v244h-53q-10 0 -10 9v39q0 10 10 10h53v87q0 10 10 10h54q10 0 10 -10v-87h157q10 0 10 -10v-39q0 -9 -10 -9h-157zM400 623
q1 -34 -22 -65.5t-56 -44.5q-10 -3 -15 3l-8 12q-4 8 4 14q30 23 30 41q0 11 -18 26t-18 37q0 20 12.5 32t34.5 12q54 0 56 -67z" />
    <glyph glyph-name="Umacron" unicode="&#x16a;" horiz-adv-x="722" 
d="M569 278v393q0 10 9 10h61q10 0 10 -10v-402q0 -120 -66 -194q-77 -85 -222 -85t-222 85q-66 74 -66 194v402q0 10 10 10h60q10 0 10 -10v-393q0 -98 51 -155q54 -61 156 -61q103 0 157 61q52 57 52 155zM242 910h236q10 0 10 -9v-42q0 -9 -10 -9h-236q-10 0 -10 9v42
q0 9 10 9z" />
    <glyph glyph-name="umacron" unicode="&#x16b;" horiz-adv-x="545" 
d="M65 191v251q0 10 9 10h54q10 0 10 -10v-244q0 -55 18 -88q33 -55 117 -55q87 0 116 54q18 31 18 89v244q0 10 10 10h54q9 0 9 -10v-251q0 -79 -33 -128q-50 -73 -174 -73q-125 0 -175 73q-33 49 -33 128zM155 687h236q10 0 10 -9v-42q0 -9 -10 -9h-236q-10 0 -10 9v42
q0 9 10 9z" />
    <glyph glyph-name="Uring" unicode="&#x16e;" horiz-adv-x="722" 
d="M569 278v393q0 10 9 10h61q10 0 10 -10v-402q0 -120 -66 -194q-77 -85 -222 -85t-222 85q-66 74 -66 194v402q0 10 10 10h60q10 0 10 -10v-393q0 -98 51 -155q54 -61 156 -61q103 0 157 61q52 57 52 155zM476 862q0 -48 -34 -82t-81 -34q-48 0 -82 33.5t-34 82.5
q0 48 34 82t82 34q47 0 81 -34t34 -82zM440 862q0 33 -23.5 56.5t-55.5 23.5q-33 0 -56 -23.5t-23 -56.5q0 -34 23 -57.5t56 -23.5q32 0 55.5 23.5t23.5 57.5z" />
    <glyph glyph-name="uring" unicode="&#x16f;" horiz-adv-x="545" 
d="M65 191v251q0 10 9 10h54q10 0 10 -10v-244q0 -55 18 -88q33 -55 117 -55q87 0 116 54q18 31 18 89v244q0 10 10 10h54q9 0 9 -10v-251q0 -79 -33 -128q-50 -73 -174 -73q-125 0 -175 73q-33 49 -33 128zM387 662q0 -48 -33.5 -82t-81.5 -34t-82 33.5t-34 82.5
q0 48 34 82t82 34q47 0 81 -34t34 -82zM351 662q0 33 -23.5 56.5t-55.5 23.5q-33 0 -56 -23.5t-23 -56.5q0 -34 23 -57.5t56 -23.5q32 0 55.5 23.5t23.5 57.5z" />
    <glyph glyph-name="Uhungarumlaut" unicode="&#x170;" horiz-adv-x="722" 
d="M569 278v393q0 10 9 10h61q10 0 10 -10v-402q0 -120 -66 -194q-77 -85 -222 -85t-222 85q-66 74 -66 194v402q0 10 10 10h60q10 0 10 -10v-393q0 -98 51 -155q54 -61 156 -61q103 0 157 61q52 57 52 155zM489 969h50q9 0 9 -7q0 -5 -3 -9l-117 -170q-6 -8 -13 -8h-39
q-7 0 -7 6q0 4 3 8l103 170q6 10 14 10zM332 969h51q8 0 8 -7q0 -5 -4 -9l-116 -170q-5 -8 -13 -8h-39q-8 0 -8 6q0 1 1.5 3.5t1.5 4.5l104 170q6 10 14 10z" />
    <glyph glyph-name="uhungarumlaut" unicode="&#x171;" horiz-adv-x="545" 
d="M65 191v251q0 10 9 10h54q10 0 10 -10v-244q0 -55 18 -88q33 -55 117 -55q87 0 116 54q18 31 18 89v244q0 10 10 10h54q9 0 9 -10v-251q0 -79 -33 -128q-50 -73 -174 -73q-125 0 -175 73q-33 49 -33 128zM407 764h50q9 0 9 -7q0 -5 -3 -9l-117 -170q-6 -8 -13 -8h-39
q-7 0 -7 6q0 4 3 8l103 170q6 10 14 10zM250 764h51q8 0 8 -7q0 -5 -4 -9l-116 -170q-5 -8 -13 -8h-39q-8 0 -8 6q0 1 1.5 3.5t1.5 4.5l104 170q6 10 14 10z" />
    <glyph glyph-name="Uogonek" unicode="&#x172;" horiz-adv-x="722" 
d="M273 -114q0 54 64 105q-128 6 -198 84q-66 74 -66 194v402q0 10 10 10h60q10 0 10 -10v-393q0 -98 51 -155q54 -61 156 -61q103 0 157 61q52 57 52 155v393q0 10 9 10h61q10 0 10 -10v-402q0 -120 -66 -194q-70 -78 -199 -84q-57 -41 -57 -85q0 -40 45 -40q17 0 33 4.5
t19 4.5q6 0 6 -7v-29q0 -7 -6 -10q-29 -13 -66 -13t-61 17t-24 53z" />
    <glyph glyph-name="uogonek" unicode="&#x173;" horiz-adv-x="545" 
d="M187 -114q0 54 64 105q-109 6 -153 72q-33 49 -33 128v251q0 10 9 10h54q10 0 10 -10v-244q0 -55 18 -88q33 -55 117 -55q87 0 116 54q18 31 18 89v244q0 10 10 10h54q9 0 9 -10v-251q0 -79 -33 -128q-44 -64 -149 -72q-57 -41 -57 -85q0 -40 45 -40q17 0 33 4.5t19 4.5
q6 0 6 -7v-29q0 -7 -6 -10q-29 -13 -66 -13t-61 17t-24 53z" />
    <glyph glyph-name="Wcircumflex" unicode="&#x174;" horiz-adv-x="1072" 
d="M919 248v423q0 10 10 10h61q9 0 9 -10v-423q0 -120 -61 -186q-66 -72 -189 -72q-71 0 -126 34q-59 37 -87 110q-26 -71 -86 -110q-55 -34 -126 -34q-123 0 -189 72q-62 67 -62 186v423q0 10 10 10h60q10 0 10 -10v-423q0 -87 42 -134q46 -50 131 -50q67 0 110 40
q60 55 60 160v407q0 10 10 10h61q9 0 9 -10v-407q0 -104 61 -160q42 -40 110 -40q85 0 130 50q42 47 42 134zM522 968h26q6 0 14 -8l155 -173q3 -3 3.5 -6t-1.5 -5t-6 -2h-46q-9 0 -17 8l-115 126l-115 -126q-8 -8 -17 -8h-46q-4 0 -6 2t-1.5 5t3.5 6l155 173q8 8 14 8z" />
    <glyph glyph-name="wcircumflex" unicode="&#x175;" horiz-adv-x="795" 
d="M730 442v-251q0 -81 -27 -128q-40 -73 -150 -73q-88 0 -128 53q-20 24 -27 42q-8 -18 -28 -42q-40 -53 -127 -53q-111 0 -151 73q-27 48 -27 128v251q0 10 9 10h54q10 0 10 -10v-247q0 -56 17 -90q25 -49 93 -49q72 0 97 54q16 32 16 87v245q0 10 10 10h54q9 0 9 -10
v-245q0 -52 16 -87q25 -54 98 -54q67 0 92 48q18 33 18 91v247q0 10 10 10h53q9 0 9 -10zM384 764h26q6 0 14 -8l155 -173q3 -3 3.5 -6t-1.5 -5t-6 -2h-46q-9 0 -17 8l-115 126l-115 -126q-8 -8 -17 -8h-46q-4 0 -6 2t-1.5 5t3.5 6l155 173q8 8 14 8z" />
    <glyph glyph-name="Ycircumflex" unicode="&#x176;" horiz-adv-x="610" 
d="M304 378l209 293q5 10 15 10h70q7 0 9 -5t-2 -10l-261 -367v-290q0 -9 -10 -9h-60q-10 0 -10 9v290l-260 367q-4 5 -2.5 10t9.5 5h69q10 0 16 -10zM292 968h26q6 0 14 -8l155 -173q3 -3 3.5 -6t-1.5 -5t-6 -2h-46q-9 0 -17 8l-115 126l-115 -126q-8 -8 -17 -8h-46
q-4 0 -6 2t-1.5 5t3.5 6l155 173q8 8 14 8z" />
    <glyph glyph-name="ycircumflex" unicode="&#x177;" horiz-adv-x="477" 
d="M470 439l-180 -463q-39 -98 -87 -149q-65 -63 -162 -59q-8 0 -8 8v55q0 7 9 7q2 0 8 -0.5t11 -0.5q54 0 95 46q31 36 54 90l-205 466q-5 13 8 13h65q12 0 15 -11l155 -377l140 377q3 11 15 11h60q12 0 7 -13zM224 764h26q6 0 14 -8l155 -173q3 -3 3.5 -6t-1.5 -5t-6 -2
h-46q-9 0 -17 8l-115 126l-115 -126q-8 -8 -17 -8h-46q-4 0 -6 2t-1.5 5t3.5 6l155 173q8 8 14 8z" />
    <glyph glyph-name="Ydieresis" unicode="&#x178;" horiz-adv-x="610" 
d="M304 378l209 293q5 10 15 10h70q7 0 9 -5t-2 -10l-261 -367v-290q0 -9 -10 -9h-60q-10 0 -10 9v290l-260 367q-4 5 -2.5 10t9.5 5h69q10 0 16 -10zM210 825q-18 0 -31 13t-13 31t13 31t31 13q19 0 31.5 -13t12.5 -31t-12.5 -31t-31.5 -13zM398 825q-18 0 -31 13t-13 31
t13 31t31 13t31 -13t13 -31t-13 -31t-31 -13z" />
    <glyph glyph-name="Zacute" unicode="&#x179;" horiz-adv-x="571" 
d="M13 15l407 595h-396q-9 0 -9 10v51q0 10 9 10h517q10 0 10 -9q0 -4 -2 -7l-407 -594h409q9 0 9 -10v-52q0 -9 -9 -9h-530q-10 0 -10 8q0 5 2 7zM315 969h50q7 0 9 -5.5t-2 -10.5l-104 -169q-5 -9 -14 -9h-37q-13 0 -5 17l90 167q6 10 13 10z" />
    <glyph glyph-name="zacute" unicode="&#x17a;" horiz-adv-x="403" 
d="M385 0h-368q-16 0 -6 15l269 373h-256q-9 0 -9 10v44q0 10 9 10h359q7 0 9.5 -5t-1.5 -11l-269 -372h263q9 0 9 -10v-45q0 -9 -9 -9zM233 764h50q7 0 9 -5.5t-2 -10.5l-104 -169q-5 -9 -14 -9h-37q-13 0 -5 17l90 167q6 10 13 10z" />
    <glyph glyph-name="Zdotaccent" unicode="&#x17b;" horiz-adv-x="571" 
d="M13 15l407 595h-396q-9 0 -9 10v51q0 10 9 10h517q10 0 10 -9q0 -4 -2 -7l-407 -594h409q9 0 9 -10v-52q0 -9 -9 -9h-530q-10 0 -10 8q0 5 2 7zM279 830q-18 0 -31 13t-13 31t13 31t31 13t31 -13t13 -31t-13 -31t-31 -13z" />
    <glyph glyph-name="zdotaccent" unicode="&#x17c;" horiz-adv-x="403" 
d="M385 0h-368q-16 0 -6 15l269 373h-256q-9 0 -9 10v44q0 10 9 10h359q7 0 9.5 -5t-1.5 -11l-269 -372h263q9 0 9 -10v-45q0 -9 -9 -9zM201 623q-18 0 -31 13t-13 31t13 31t31 13t31 -13t13 -31t-13 -31t-31 -13z" />
    <glyph glyph-name="Zcaron" unicode="&#x17d;" horiz-adv-x="571" 
d="M13 15l407 595h-396q-9 0 -9 10v51q0 10 9 10h517q10 0 10 -9q0 -4 -2 -7l-407 -594h409q9 0 9 -10v-52q0 -9 -9 -9h-530q-10 0 -10 8q0 5 2 7zM299 784h-26q-7 0 -14 7l-155 173q-5 4 -3.5 9t7.5 5h46q8 0 17 -10l115 -125l115 125q9 10 17 10h46q6 0 7.5 -5t-3.5 -9
l-155 -173q-7 -7 -14 -7z" />
    <glyph glyph-name="zcaron" unicode="&#x17e;" horiz-adv-x="403" 
d="M385 0h-368q-16 0 -6 15l269 373h-256q-9 0 -9 10v44q0 10 9 10h359q7 0 9.5 -5t-1.5 -11l-269 -372h263q9 0 9 -10v-45q0 -9 -9 -9zM215 570h-26q-7 0 -14 7l-155 173q-5 4 -3.5 9t7.5 5h46q8 0 17 -10l115 -125l115 125q9 10 17 10h46q6 0 7.5 -5t-3.5 -9l-155 -173
q-7 -7 -14 -7z" />
    <glyph glyph-name="florin" unicode="&#x192;" 
d="M176 452h75l13 73q13 71 48 114q43 50 115 50q68 0 123 -38q7 -6 4 -14l-18 -37q-5 -9 -15 -2q-41 32 -84 32q-45 0 -71 -33q-21 -27 -32 -85l-11 -60h138q9 0 9 -10v-38q0 -9 -9 -9h-148l-87 -484q-11 -70 -48 -110q-41 -44 -115 -44q-50 0 -86 21q-9 5 -4 13l18 38
q5 7 15 2q26 -14 55 -14q41 0 63 25q23 24 32 76l85 477h-65q-10 0 -10 9v38q0 10 10 10z" />
    <glyph glyph-name="Scommaaccent" unicode="&#x218;" horiz-adv-x="556" 
d="M275 -10q-128 0 -229 65q-10 5 -5 14l25 51q3 8 13 3q101 -65 195 -65q70 0 112 31q45 35 45 96q0 67 -87 104q-25 11 -91.5 31t-105.5 39q-102 50 -102 148q0 83 59 131q65 52 183 52q113 0 198 -48q8 -6 4 -14l-24 -50q-5 -10 -14 -4q-81 47 -168 47q-83 0 -122 -36
q-32 -29 -32 -75q0 -64 99 -100q11 -4 87.5 -26.5t113.5 -44.5q89 -51 89 -147t-72 -152q-64 -50 -171 -50zM334 -128q1 -34 -22 -65.5t-56 -44.5q-10 -3 -15 3l-8 12q-4 8 4 14q30 23 30 41q0 11 -18 26t-18 37q0 20 12.5 32t34.5 12q54 0 56 -67z" />
    <glyph glyph-name="scommaaccent" unicode="&#x219;" horiz-adv-x="410" 
d="M198 49q94 0 94 68q0 26 -16 41.5t-48 29.5q-12 6 -50.5 19.5t-58.5 22.5q-74 34 -74 109q0 57 43 89.5t122 32.5q82 0 140 -33q8 -5 5 -13l-20 -41q-4 -9 -13 -3q-52 29 -109 29q-92 0 -92 -61q0 -23 14 -36t41 -25q15 -7 54 -20.5t55 -21.5q83 -39 83 -113
q0 -61 -45 -97t-122 -36q-93 0 -156 38q-9 4 -4 12l20 41q5 9 13 4q58 -36 124 -36zM265 -128q1 -34 -22 -65.5t-56 -44.5q-10 -3 -15 3l-8 12q-4 8 4 14q30 23 30 41q0 11 -18 26t-18 37q0 20 12.5 32t34.5 12q54 0 56 -67z" />
    <glyph glyph-name="uni021A" unicode="&#x21a;" horiz-adv-x="564" 
d="M13 681h538q9 0 9 -10v-51q0 -10 -9 -10h-229v-601q0 -9 -10 -9h-60q-10 0 -10 9v601h-229q-9 0 -9 10v51q0 10 9 10zM334 -128q1 -34 -22 -65.5t-56 -44.5q-10 -3 -15 3l-8 12q-4 8 4 14q30 23 30 41q0 11 -18 26t-18 37q0 20 12.5 32t34.5 12q54 0 56 -67z" />
    <glyph glyph-name="uni021B" unicode="&#x21b;" horiz-adv-x="353" 
d="M157 394v-235q0 -50 15 -73q20 -33 71 -33q43 0 82 28q10 7 15 -1l18 -39q4 -7 -4 -13q-53 -38 -129 -38q-75 0 -111 44q-31 39 -31 116v244h-53q-10 0 -10 9v39q0 10 10 10h53v87q0 10 10 10h54q10 0 10 -10v-87h157q10 0 10 -10v-39q0 -9 -10 -9h-157zM274 -128
q1 -34 -22 -65.5t-56 -44.5q-10 -3 -15 3l-8 12q-4 8 4 14q30 23 30 41q0 11 -18 26t-18 37q0 20 12.5 32t34.5 12q54 0 56 -67z" />
    <glyph glyph-name="circumflex" unicode="&#x2c6;" horiz-adv-x="417" 
d="M195 764h26q6 0 14 -8l155 -173q3 -3 3.5 -6t-1.5 -5t-6 -2h-46q-9 0 -17 8l-115 126l-115 -126q-8 -8 -17 -8h-46q-4 0 -6 2t-1.5 5t3.5 6l155 173q8 8 14 8z" />
    <glyph glyph-name="caron" unicode="&#x2c7;" horiz-adv-x="417" 
d="M221 570h-26q-7 0 -14 7l-155 173q-5 4 -3.5 9t7.5 5h46q8 0 17 -10l115 -125l115 125q9 10 17 10h46q6 0 7.5 -5t-3.5 -9l-155 -173q-7 -7 -14 -7z" />
    <glyph glyph-name="breve" unicode="&#x2d8;" horiz-adv-x="417" 
d="M208 640q74 0 81 72q1 10 11 10h25q12 0 12 -10q0 -54 -34.5 -90t-94.5 -36t-95 36t-35 90q0 10 12 10h26q10 0 11 -10q2 -33 23 -52.5t58 -19.5z" />
    <glyph glyph-name="dotaccent" unicode="&#x2d9;" horiz-adv-x="417" 
d="M208 623q-18 0 -31 13t-13 31t13 31t31 13t31 -13t13 -31t-13 -31t-31 -13z" />
    <glyph glyph-name="ring" unicode="&#x2da;" horiz-adv-x="417" 
d="M323 662q0 -48 -33.5 -82t-81.5 -34t-82 33.5t-34 82.5q0 48 34 82t82 34q47 0 81 -34t34 -82zM287 662q0 33 -23.5 56.5t-55.5 23.5q-33 0 -56 -23.5t-23 -56.5q0 -34 23 -57.5t56 -23.5q32 0 55.5 23.5t23.5 57.5z" />
    <glyph glyph-name="ogonek" unicode="&#x2db;" horiz-adv-x="417" 
d="M83 -114q0 37 29 70.5t68 55.5l36 -7q-79 -46 -79 -99q0 -40 45 -40q17 0 33 4.5t19 4.5q6 0 6 -7v-29q0 -7 -6 -10q-29 -13 -66 -13t-61 17t-24 53z" />
    <glyph glyph-name="tilde" unicode="&#x2dc;" horiz-adv-x="417" 
d="M274 666q41 0 45 38q1 10 10 10h23q12 0 12 -10q0 -41 -22 -66t-62 -25q-33 0 -76 29q-40 26 -62 26q-41 0 -45 -39q-3 -10 -10 -10h-23q-12 0 -12 11q0 41 22 66t62 25q36 0 77 -29q42 -26 61 -26z" />
    <glyph glyph-name="hungarumlaut" unicode="&#x2dd;" horiz-adv-x="417" 
d="M317 764h50q9 0 9 -7q0 -5 -3 -9l-117 -170q-6 -8 -13 -8h-39q-7 0 -7 6q0 4 3 8l103 170q6 10 14 10zM160 764h51q8 0 8 -7q0 -5 -4 -9l-116 -170q-5 -8 -13 -8h-39q-8 0 -8 6q0 1 1.5 3.5t1.5 4.5l104 170q6 10 14 10z" />
    <glyph glyph-name="pi" unicode="&#x3c0;" horiz-adv-x="586" 
d="M48 452h489q10 0 10 -10v-44q0 -10 -10 -10h-80v-227q0 -53 10 -83.5t35 -60.5q12 -17 -7 -17h-43q-13 0 -23 10q-44 45 -44 146v232h-184l-24 -232q-9 -98 -57 -146q-10 -10 -24 -10h-43q-19 0 -6 18q48 53 58 142l24 228h-81q-9 0 -9 10v44q0 10 9 10z" />
    <glyph glyph-name="afii10023" unicode="&#x401;" horiz-adv-x="598" 
d="M84 681h469q9 0 9 -10v-51q0 -10 -9 -10h-398v-234h346q9 0 9 -9v-52q0 -9 -9 -9h-346v-235h398q9 0 9 -10v-52q0 -9 -9 -9h-469q-9 0 -9 9v662q0 10 9 10zM221 825q-18 0 -31 13t-13 31t13 31t31 13q19 0 31.5 -13t12.5 -31t-12.5 -31t-31.5 -13zM409 825q-18 0 -31 13
t-13 31t13 31t31 13t31 -13t13 -31t-13 -31t-31 -13z" />
    <glyph glyph-name="afii10051" unicode="&#x402;" horiz-adv-x="750" 
d="M685 254v-16q0 -150 -110 -229q-12 -9 -29 -9h-46q-8 0 -9 4.5t4 8.5q117 86 117 217v16q0 82 -40 121q-33 33 -100 33q-85 0 -126 -61q-28 -44 -28 -100v-230q0 -9 -9 -9h-61q-10 0 -10 9v601h-228q-10 0 -10 10v51q0 10 10 10h537q10 0 10 -10v-51q0 -10 -10 -10h-229
v-243q22 43 61 65q44 28 108 28q87 0 137 -42q61 -49 61 -164z" />
    <glyph glyph-name="afii10052" unicode="&#x403;" horiz-adv-x="533" 
d="M145 0h-61q-9 0 -9 9v662q0 10 9 10h418q9 0 9 -10v-51q0 -10 -9 -10h-347v-601q0 -9 -10 -9zM302 969h50q7 0 9 -5.5t-2 -10.5l-104 -169q-5 -9 -14 -9h-37q-14 0 -5 17l90 167q6 10 13 10z" />
    <glyph glyph-name="afii10053" unicode="&#x404;" horiz-adv-x="657" 
d="M401 -10q-159 0 -257 100q-97 97 -97 251q0 137 95 237q107 112 261 112q114 0 208 -54q11 -6 6 -15l-24 -50q-4 -9 -14 -3q-93 50 -178 50q-109 0 -189 -82q-67 -70 -76 -160h387q9 0 9 -10v-50q0 -10 -9 -10h-388q10 -102 79 -169q77 -75 188 -75q96 0 180 51
q8 6 14 -3l24 -52q3 -8 -5 -13q-97 -55 -214 -55z" />
    <glyph glyph-name="afii10054" unicode="&#x405;" horiz-adv-x="556" 
d="M275 -10q-128 0 -229 65q-10 5 -5 14l25 51q3 8 13 3q101 -65 195 -65q70 0 112 31q45 35 45 96q0 67 -87 104q-25 11 -91.5 31t-105.5 39q-102 50 -102 148q0 83 59 131q65 52 183 52q113 0 198 -48q8 -6 4 -14l-24 -50q-5 -10 -14 -4q-81 47 -168 47q-83 0 -122 -36
q-32 -29 -32 -75q0 -64 99 -100q11 -4 87.5 -26.5t113.5 -44.5q89 -51 89 -147t-72 -152q-64 -50 -171 -50z" />
    <glyph glyph-name="afii10055" unicode="&#x406;" horiz-adv-x="229" 
d="M84 681h61q10 0 10 -10v-662q0 -9 -10 -9h-61q-9 0 -9 9v662q0 10 9 10z" />
    <glyph glyph-name="afii10056" unicode="&#x407;" horiz-adv-x="229" 
d="M84 681h61q10 0 10 -10v-662q0 -9 -10 -9h-61q-9 0 -9 9v662q0 10 9 10zM21 825q-18 0 -31 13t-13 31t13 31t31 13q19 0 31.5 -13t12.5 -31t-12.5 -31t-31.5 -13zM209 825q-18 0 -31 13t-13 31t13 31t31 13t31 -13t13 -31t-13 -31t-31 -13z" />
    <glyph glyph-name="afii10057" unicode="&#x408;" horiz-adv-x="513" 
d="M189 -10q-97 0 -174 63q-7 7 -3 15l28 47q6 10 14 3q63 -57 135 -57q79 0 126 48q46 48 46 142v420q0 10 9 10h61q10 0 10 -10v-426q0 -126 -74 -193q-68 -62 -178 -62z" />
    <glyph glyph-name="afii10058" unicode="&#x409;" horiz-adv-x="1090" 
d="M128 681h474q10 0 10 -10v-293h189q90 0 145 -27q95 -44 95 -160q0 -112 -93 -161q-59 -30 -141 -30h-265q-10 0 -10 9v600h-334v-96q0 -198 -25 -319q-28 -130 -77 -184q-9 -10 -22 -10h-49q-18 0 -7 18q53 64 77 183q23 110 23 312v158q0 10 10 10zM960 191
q0 72 -63 103q-42 20 -101 20h-184v-249h189q59 0 98 21q61 32 61 105z" />
    <glyph glyph-name="afii10059" unicode="&#x40a;" horiz-adv-x="1122" 
d="M563 9v305h-408v-305q0 -9 -10 -9h-61q-9 0 -9 9v662q0 10 9 10h61q10 0 10 -10v-293h408v293q0 10 10 10h61q9 0 9 -10v-293h189q89 0 146 -27q95 -44 95 -160q0 -112 -94 -161q-59 -30 -141 -30h-265q-10 0 -10 9zM992 191q0 71 -63 103q-42 20 -102 20h-184v-249h189
q58 0 99 21q61 33 61 105z" />
    <glyph glyph-name="afii10060" unicode="&#x40b;" horiz-adv-x="731" 
d="M238 610h-228q-10 0 -10 10v51q0 10 10 10h537q10 0 10 -10v-51q0 -10 -10 -10h-229v-243q24 43 58 65q40 28 101 28q85 0 132 -41q57 -48 57 -154v-256q0 -9 -10 -9h-54q-9 0 -9 9v245q0 77 -37 113q-32 33 -93 33q-81 0 -118 -61q-27 -43 -27 -100v-230q0 -9 -9 -9h-61
q-10 0 -10 9v601z" />
    <glyph glyph-name="afii10061" unicode="&#x40c;" horiz-adv-x="615" 
d="M505 681h68q8 0 9.5 -5t-3.5 -10l-284 -320l290 -330q5 -6 4 -11t-8 -5h-72q-12 0 -18 9l-262 297h-74v-297q0 -9 -10 -9h-61q-9 0 -9 9v662q0 10 9 10h61q10 0 10 -10v-295h73l259 295q6 10 18 10zM356 969h50q7 0 9 -5.5t-2 -10.5l-104 -169q-5 -9 -14 -9h-37
q-14 0 -5 17l90 167q6 10 13 10z" />
    <glyph glyph-name="afii10062" unicode="&#x40e;" horiz-adv-x="580" 
d="M56 69h22q67 0 106 29q38 27 74 90l-255 479q-6 14 8 14h67q11 0 16 -11l205 -401l191 401q4 11 15 11h64q13 0 7 -14l-227 -470q-44 -94 -96 -139q-68 -58 -167 -58h-30q-10 0 -10 9v50q0 10 10 10zM289 855q74 0 81 72q1 10 11 10h25q12 0 12 -10q0 -54 -34.5 -90
t-94.5 -36t-95 36t-35 90q0 10 12 10h26q10 0 11 -10q2 -33 23 -52.5t58 -19.5z" />
    <glyph glyph-name="afii10145" unicode="&#x40f;" horiz-adv-x="705" 
d="M559 681h61q10 0 10 -10v-662q0 -9 -10 -9h-228v-219q0 -9 -9 -9h-61q-10 0 -10 9v219h-228q-9 0 -9 9v662q0 10 9 10h61q10 0 10 -10v-600h395v600q0 10 9 10z" />
    <glyph glyph-name="afii10017" unicode="&#x410;" horiz-adv-x="626" 
d="M150 168l-62 -158q-3 -10 -15 -10h-60q-8 0 -8 7q0 5 2 9l259 657q4 11 15 11h64q11 0 15 -11l258 -657q3 -6 3 -9q0 -7 -10 -7h-61q-12 0 -15 10l-62 158h-323zM453 233l-141 354l-141 -354h282z" />
    <glyph glyph-name="afii10018" unicode="&#x411;" horiz-adv-x="633" 
d="M84 681h448q10 0 10 -10v-51q0 -10 -10 -10h-377v-232h188q89 0 146 -27q95 -44 95 -160q0 -112 -94 -161q-59 -30 -141 -30h-265q-9 0 -9 9v662q0 10 9 10zM503 191q0 72 -63 103q-42 20 -102 20h-183v-249h188q59 0 99 21q61 33 61 105z" />
    <glyph glyph-name="afii10019" unicode="&#x412;" horiz-adv-x="633" 
d="M584 182q0 -90 -65.5 -136t-159.5 -46h-275q-9 0 -9 9v662q0 10 9 10h222q94 0 149 -37q73 -48 73 -136q0 -110 -91 -150v-4q71 -12 109 -57.5t38 -114.5zM448 496q0 66 -53 98q-37 22 -86 22h-154v-238h144q64 0 93 15q56 31 56 103zM503 191q0 71 -60 103
q-34 20 -129 20h-159v-249h188q53 0 87 15q73 31 73 111z" />
    <glyph glyph-name="afii10020" unicode="&#x413;" horiz-adv-x="533" 
d="M145 0h-61q-9 0 -9 9v662q0 10 9 10h418q9 0 9 -10v-51q0 -10 -9 -10h-347v-601q0 -9 -10 -9z" />
    <glyph glyph-name="afii10021" unicode="&#x414;" horiz-adv-x="752" 
d="M276 513q0 -162 -14 -251q-18 -116 -60 -191h347v538h-273v-96zM18 -225v287q0 9 9 9h93q45 75 63 194q13 89 13 248v158q0 10 10 10h413q10 0 10 -10v-600h96q10 0 10 -9v-287q0 -9 -10 -9h-61q-9 0 -9 9v225h-557v-225q0 -9 -10 -9h-61q-9 0 -9 9z" />
    <glyph glyph-name="afii10022" unicode="&#x415;" horiz-adv-x="598" 
d="M84 681h469q9 0 9 -10v-51q0 -10 -9 -10h-398v-234h346q9 0 9 -9v-52q0 -9 -9 -9h-346v-235h398q9 0 9 -10v-52q0 -9 -9 -9h-469q-9 0 -9 9v662q0 10 9 10z" />
    <glyph glyph-name="afii10024" unicode="&#x416;" horiz-adv-x="991" 
d="M382 376h73v295q0 10 10 10h61q9 0 9 -10v-295h74l258 295q7 10 19 10h68q8 0 9.5 -5t-3.5 -10l-284 -320l290 -330q5 -6 4 -11t-8 -5h-72q-11 0 -19 9l-261 297h-75v-297q0 -9 -9 -9h-61q-10 0 -10 9v297h-74l-262 -297q-6 -9 -19 -9h-71q-7 0 -8.5 5t3.5 11l291 330
l-284 320q-3 3 -4 6.5t1.5 6t7.5 2.5h69q11 0 18 -10z" />
    <glyph glyph-name="afii10025" unicode="&#x417;" horiz-adv-x="508" 
d="M217 318h-89q-10 0 -10 10v45q0 9 10 9h84q65 0 104 26q47 32 47 94q0 57 -41 90q-38 31 -93 31q-74 0 -142 -46q-11 -7 -17 1l-21 42q-4 11 4 15q87 55 182 55q87 0 141 -49q59 -51 59 -130q0 -55 -28 -95.5t-82 -60.5q65 -19 100 -63.5t35 -109.5q0 -91 -70 -145
q-61 -47 -157 -47q-113 0 -184 44q-8 7 -5 16l22 44q4 10 15 2q66 -42 146 -42q67 0 107 31q50 37 50 103q0 73 -64 110q-36 20 -103 20z" />
    <glyph glyph-name="afii10026" unicode="&#x418;" horiz-adv-x="727" 
d="M572 9v493l-417 -429v-64q0 -9 -10 -9h-61q-9 0 -9 9v662q0 10 9 10h61q10 0 10 -10v-498l417 429v69q0 9 10 9h60q10 0 10 -9v-662q0 -10 -10 -10h-60q-10 0 -10 10z" />
    <glyph glyph-name="afii10027" unicode="&#x419;" horiz-adv-x="727" 
d="M572 9v493l-417 -429v-64q0 -9 -10 -9h-61q-9 0 -9 9v662q0 10 9 10h61q10 0 10 -10v-498l417 429v69q0 9 10 9h60q10 0 10 -9v-662q0 -10 -10 -10h-60q-10 0 -10 10zM363 855q74 0 81 72q1 10 11 10h25q12 0 12 -10q0 -54 -34.5 -90t-94.5 -36t-95 36t-35 90q0 10 12 10
h26q10 0 11 -10q2 -33 23 -52.5t58 -19.5z" />
    <glyph glyph-name="afii10028" unicode="&#x41a;" horiz-adv-x="611" 
d="M505 681h68q8 0 9.5 -5t-3.5 -10l-284 -320l290 -330q5 -6 4 -11t-8 -5h-72q-12 0 -18 9l-262 297h-74v-297q0 -9 -10 -9h-61q-9 0 -9 9v662q0 10 9 10h61q10 0 10 -10v-295h73l259 295q6 10 18 10z" />
    <glyph glyph-name="afii10029" unicode="&#x41b;" horiz-adv-x="687" 
d="M96 10q-9 -10 -22 -10h-49q-18 0 -7 18q53 64 77 183q23 110 23 312v158q0 10 10 10h474q10 0 10 -10v-662q0 -9 -10 -9h-60q-10 0 -10 9v600h-334v-96q0 -198 -25 -319q-28 -130 -77 -184z" />
    <glyph glyph-name="afii10030" unicode="&#x41c;" horiz-adv-x="832" 
d="M757 671v-662q0 -9 -9 -9h-59q-9 0 -9 9v533l-225 -369q-6 -10 -16 -10h-44q-10 0 -16 10l-227 369v-533q0 -9 -9 -9h-59q-9 0 -9 9v662q0 10 9 10h63q11 0 17 -10l251 -416l252 416q7 10 18 10h63q9 0 9 -10z" />
    <glyph glyph-name="afii10031" unicode="&#x41d;" horiz-adv-x="718" 
d="M573 681h61q9 0 9 -10v-662q0 -9 -9 -9h-61q-10 0 -10 9v297h-408v-297q0 -9 -10 -9h-61q-9 0 -9 9v662q0 10 9 10h61q10 0 10 -10v-294h408v294q0 10 10 10z" />
    <glyph glyph-name="afii10032" unicode="&#x41e;" horiz-adv-x="806" 
d="M759 339q0 -147 -104.5 -248t-251.5 -101t-251.5 101t-104.5 248q0 148 104.5 249.5t251.5 101.5t251.5 -102t104.5 -249zM674 339q0 114 -78.5 195t-192.5 81t-193 -81t-79 -195t79 -194.5t193 -80.5t192.5 80.5t78.5 194.5z" />
    <glyph glyph-name="afii10033" unicode="&#x41f;" horiz-adv-x="705" 
d="M620 0h-61q-9 0 -9 9v600h-395v-600q0 -9 -10 -9h-61q-9 0 -9 9v662q0 10 9 10h536q10 0 10 -10v-662q0 -9 -10 -9z" />
    <glyph glyph-name="afii10034" unicode="&#x420;" horiz-adv-x="626" 
d="M508 457q0 83 -58 123q-42 31 -110 31h-185v-308h174q77 0 117 27q62 42 62 127zM84 681h268q96 0 157 -48q80 -62 80 -176q0 -118 -87 -181q-58 -43 -160 -43h-187v-224q0 -9 -10 -9h-61q-9 0 -9 9v662q0 10 9 10z" />
    <glyph glyph-name="afii10035" unicode="&#x421;" horiz-adv-x="659" 
d="M401 -10q-154 0 -254 96.5t-100 254.5q0 144 104.5 246.5t251.5 102.5q114 0 208 -54q11 -6 6 -15l-24 -50q-4 -9 -14 -3q-89 50 -178 50q-110 0 -190.5 -82t-80.5 -195q0 -122 79.5 -200.5t192.5 -78.5q96 0 180 51q8 6 14 -3l24 -52q3 -8 -5 -13q-97 -55 -214 -55z" />
    <glyph glyph-name="afii10036" unicode="&#x422;" horiz-adv-x="564" 
d="M13 681h538q9 0 9 -10v-51q0 -10 -9 -10h-229v-601q0 -9 -10 -9h-60q-10 0 -10 9v601h-229q-9 0 -9 10v51q0 10 9 10z" />
    <glyph glyph-name="afii10037" unicode="&#x423;" horiz-adv-x="579" 
d="M56 69h22q67 0 106 29q38 27 74 90l-255 479q-6 14 8 14h67q11 0 16 -11l205 -401l191 401q4 11 15 11h64q13 0 7 -14l-227 -470q-44 -94 -96 -139q-68 -58 -167 -58h-30q-10 0 -10 9v50q0 10 10 10z" />
    <glyph glyph-name="afii10038" unicode="&#x424;" horiz-adv-x="771" 
d="M426 164h37q71 0 115 33q64 46 64 143q0 95 -64 143q-42 32 -115 32h-37v-351zM346 164v351h-37q-74 0 -116 -32q-64 -49 -64 -143q0 -95 64 -143q44 -33 116 -33h37zM724 340q0 -128 -89 -198q-62 -48 -163 -48h-46v-85q0 -9 -10 -9h-61q-9 0 -9 9v85h-45
q-103 0 -164 48q-89 68 -89 198q0 127 89 198q61 48 164 48h45v85q0 10 9 10h61q10 0 10 -10v-85h46q102 0 163 -48q89 -71 89 -198z" />
    <glyph glyph-name="afii10039" unicode="&#x425;" horiz-adv-x="648" 
d="M375 341l270 -326q9 -15 -7 -15h-80q-10 0 -16 8l-217 271l-219 -271q-6 -8 -16 -8h-80q-7 0 -9.5 5t2.5 10l272 324l-268 327q-5 5 -3 10t9 5h80q9 0 16 -10l216 -267l213 267q7 10 16 10h81q7 0 9 -5t-2 -10z" />
    <glyph glyph-name="afii10040" unicode="&#x426;" horiz-adv-x="754" 
d="M84 0q-9 0 -9 9v662q0 10 9 10h61q10 0 10 -10v-600h395v600q0 10 9 10h61q10 0 10 -10v-600h96q10 0 10 -9v-287q0 -9 -10 -9h-61q-9 0 -9 9v225h-572z" />
    <glyph glyph-name="afii10041" unicode="&#x427;" horiz-adv-x="633" 
d="M62 461v210q0 10 10 10h61q9 0 9 -10v-209q0 -78 34 -113q36 -39 115 -39q84 0 187 38v323q0 10 9 10h61q10 0 10 -10v-662q0 -9 -10 -9h-61q-9 0 -9 9v265q-100 -36 -192 -36q-119 0 -174 62q-50 56 -50 161z" />
    <glyph glyph-name="afii10042" unicode="&#x428;" horiz-adv-x="1108" 
d="M1033 671v-662q0 -9 -10 -9h-939q-9 0 -9 9v662q0 10 9 10h61q10 0 10 -10v-600h359v600q0 10 9 10h61q10 0 10 -10v-600h359v600q0 10 10 10h60q10 0 10 -10z" />
    <glyph glyph-name="afii10043" unicode="&#x429;" horiz-adv-x="1157" 
d="M84 0q-9 0 -9 9v662q0 10 9 10h61q10 0 10 -10v-600h359v600q0 10 9 10h61q10 0 10 -10v-600h359v600q0 10 10 10h60q10 0 10 -10v-600h96q10 0 10 -9v-287q0 -9 -10 -9h-60q-10 0 -10 9v225h-975z" />
    <glyph glyph-name="afii10044" unicode="&#x42a;" horiz-adv-x="821" 
d="M538 0h-265q-10 0 -10 9v601h-230q-9 0 -9 10v51q0 10 9 10h301q9 0 9 -10v-293h189q89 0 146 -27q95 -45 95 -160q0 -111 -94 -161q-59 -30 -141 -30zM692 191q0 72 -64 103q-40 20 -101 20h-184v-249h189q58 0 99 21q61 33 61 105z" />
    <glyph glyph-name="afii10045" unicode="&#x42b;" horiz-adv-x="863" 
d="M717 681h61q10 0 10 -10v-662q0 -9 -10 -9h-61q-9 0 -9 9v662q0 10 9 10zM75 9v662q0 10 9 10h61q10 0 10 -10v-293h188q89 0 146 -27q95 -44 95 -160q0 -112 -94 -161q-59 -30 -141 -30h-265q-9 0 -9 9zM503 191q0 72 -63 103q-42 20 -102 20h-183v-249h188q59 0 99 21
q61 33 61 105z" />
    <glyph glyph-name="afii10046" unicode="&#x42c;" horiz-adv-x="633" 
d="M75 9v662q0 10 9 10h61q10 0 10 -10v-293h188q89 0 146 -27q95 -44 95 -160q0 -112 -94 -161q-59 -30 -141 -30h-265q-9 0 -9 9zM503 191q0 72 -63 103q-42 20 -102 20h-183v-249h188q59 0 99 21q61 33 61 105z" />
    <glyph glyph-name="afii10047" unicode="&#x42d;" horiz-adv-x="656" 
d="M255 -10q-117 0 -214 55q-8 5 -5 13l24 52q6 8 15 3q82 -51 179 -51q111 0 188 75q69 67 79 169h-387q-10 0 -10 10v50q0 10 10 10h386q-11 93 -76 160q-79 82 -189 82q-85 0 -178 -50q-10 -6 -14 3l-24 50q-4 9 5 15q96 54 210 54q153 0 260 -112q95 -100 95 -237
q0 -153 -96 -251q-102 -100 -258 -100z" />
    <glyph glyph-name="afii10048" unicode="&#x42e;" horiz-adv-x="1073" 
d="M1026 339q0 -147 -104 -248t-251 -101q-139 0 -240.5 91t-113.5 225h-162v-297q0 -9 -10 -9h-61q-9 0 -9 9v662q0 10 9 10h61q10 0 10 -10v-294h163q14 133 115 223t238 90q147 0 251 -102t104 -249zM942 339q0 114 -78.5 195t-193.5 81q-113 0 -192 -81t-79 -195
t78.5 -194.5t192.5 -80.5q115 0 193.5 80.5t78.5 194.5z" />
    <glyph glyph-name="afii10049" unicode="&#x42f;" horiz-adv-x="639" 
d="M117 310q-79 58 -79 163q0 115 80 169q59 39 166 39h270q10 0 10 -10v-662q0 -9 -10 -9h-60q-10 0 -10 9v257h-169l-188 -256q-6 -10 -19 -10h-67q-9 0 -9 7q0 5 5 12l194 260q-74 5 -114 31zM484 613h-190q-77 0 -117 -24q-58 -36 -58 -117q0 -80 60 -116
q39 -23 116 -23h189v280z" />
    <glyph glyph-name="afii10065" unicode="&#x430;" horiz-adv-x="475" 
d="M232 401q-66 0 -137 -41q-10 -6 -14 3l-17 37q-4 8 5 13q70 47 172 47q89 0 132 -49q37 -42 37 -122v-280q0 -9 -9 -9h-47q-9 0 -9 9v16h-4q-60 -35 -136 -35q-67 0 -112 32q-51 37 -51 101q0 82 93 118q67 25 202 32v15q0 56 -23 83q-26 30 -82 30zM226 48q55 0 111 29
v141q-100 -4 -149 -18q-76 -19 -76 -73q0 -39 33.5 -59t80.5 -20z" />
    <glyph glyph-name="afii10066" unicode="&#x431;" horiz-adv-x="564" 
d="M120 301q-1 -12 -1 -34q2 -109 47 -164q43 -54 118 -54q79 0 123 47q42 44 42 114q0 69 -40 112q-43 49 -119 49q-104 0 -170 -70zM453 671q0 -60 -41 -94q-25 -20 -96.5 -42.5t-103.5 -43.5q-67 -47 -85 -130q72 62 182 62q102 0 160 -65q51 -56 51 -148q0 -96 -61 -157
q-65 -63 -175 -63q-104 0 -165 64q-71 75 -71 224q0 171 110 250q38 28 104.5 49t88.5 35q33 23 33 59q0 10 9 10h50q10 0 10 -10z" />
    <glyph glyph-name="afii10067" unicode="&#x432;" horiz-adv-x="501" 
d="M303 0h-221q-10 0 -10 9v433q0 10 10 10h185q65 0 100 -25q49 -32 49 -91q0 -72 -61 -99v-3q47 -7 72.5 -37t25.5 -76q0 -60 -43.5 -90.5t-106.5 -30.5zM345 325q0 41 -34 61q-23 13 -57 13h-111v-146h104q43 0 61 9q37 19 37 63zM381 130q0 43 -40 64q-22 13 -86 13
h-112v-156h132q34 0 58 10q48 19 48 69z" />
    <glyph glyph-name="afii10068" unicode="&#x433;" horiz-adv-x="419" 
d="M135 0h-53q-10 0 -10 9v433q0 10 10 10h312q10 0 10 -10v-45q0 -10 -10 -10h-249v-378q0 -9 -10 -9z" />
    <glyph glyph-name="afii10069" unicode="&#x434;" horiz-adv-x="646" 
d="M527 442v-378h86q10 0 10 -9v-209q0 -9 -10 -9h-53q-9 0 -9 9v154h-452v-154q0 -9 -10 -9h-53q-10 0 -10 9v209q0 9 10 9h73q37 61 53 150q14 74 16 198v30q0 10 9 10h331q9 0 9 -10zM249 387q-4 -116 -18 -190q-16 -78 -48 -133h271v323h-205z" />
    <glyph glyph-name="afii10070" unicode="&#x435;" horiz-adv-x="524" 
d="M121 258h290q-3 61 -37 100q-40 43 -104 43q-72 0 -113 -47q-33 -39 -36 -96zM288 50q69 0 136 40q11 7 15 -2l19 -37q4 -7 -4 -13q-71 -48 -172 -48q-114 0 -178 73q-59 65 -59 168q0 98 60 163q61 66 165 66q105 0 164 -72q53 -67 47 -172q0 -11 -12 -11h-348
q5 -60 39 -100q46 -55 128 -55z" />
    <glyph glyph-name="afii10072" unicode="&#x436;" horiz-adv-x="757" 
d="M660 452h62q8 0 9.5 -5t-4.5 -12l-184 -204l190 -215q5 -6 3.5 -11t-7.5 -5h-65q-12 0 -18 9l-165 186h-66v-186q0 -9 -10 -9h-53q-10 0 -10 9v186h-66l-165 -186q-8 -9 -19 -9h-64q-7 0 -8 5t4 11l190 215l-184 204q-6 7 -4.5 12t8.5 5h63q10 0 18 -10l161 -183h66v183
q0 10 10 10h53q10 0 10 -10v-183h66l161 183q8 10 18 10z" />
    <glyph glyph-name="afii10073" unicode="&#x437;" horiz-adv-x="399" 
d="M181 -10q-86 0 -140 32q-8 5 -5 13l17 35q3 9 13 4q55 -29 110 -29q49 0 76 21q33 22 33 60q0 54 -63 73q-22 6 -79 6h-20q-10 0 -10 10v34q0 10 10 10h15q59 0 83 8q48 18 48 62q0 32 -29 55q-26 19 -62 19q-53 0 -105 -31q-10 -6 -13 4l-16 34q-6 9 4 13q60 37 136 37
q64 0 107 -33q44 -35 46 -91q0 -71 -74 -100q92 -27 92 -115q0 -61 -48 -95q-47 -36 -126 -36z" />
    <glyph glyph-name="afii10074" unicode="&#x438;" horiz-adv-x="578" 
d="M506 442v-433q0 -9 -9 -9h-54q-10 0 -10 9v315l-288 -276v-39q0 -9 -9 -9h-54q-10 0 -10 9v433q0 10 10 10h54q9 0 9 -10v-317l288 277v40q0 10 10 10h54q9 0 9 -10z" />
    <glyph glyph-name="afii10075" unicode="&#x439;" horiz-adv-x="578" 
d="M506 442v-433q0 -9 -9 -9h-54q-10 0 -10 9v315l-288 -276v-39q0 -9 -9 -9h-54q-10 0 -10 9v433q0 10 10 10h54q9 0 9 -10v-317l288 277v40q0 10 10 10h54q9 0 9 -10zM289 640q74 0 81 72q1 10 11 10h25q12 0 12 -10q0 -54 -34.5 -90t-94.5 -36t-95 36t-35 90q0 10 12 10
h26q10 0 11 -10q2 -33 23 -52.5t58 -19.5z" />
    <glyph glyph-name="afii10076" unicode="&#x43a;" horiz-adv-x="487" 
d="M390 452h63q7 0 8.5 -5t-4.5 -12l-184 -204l190 -215q6 -6 4.5 -11t-8.5 -5h-64q-11 0 -19 9l-165 186h-66v-186q0 -9 -10 -9h-53q-10 0 -10 9v433q0 10 10 10h53q10 0 10 -10v-183h66l161 183q8 10 18 10z" />
    <glyph glyph-name="afii10077" unicode="&#x43b;" horiz-adv-x="534" 
d="M178 387q-6 -165 -27 -252q-20 -82 -55 -125q-8 -10 -22 -10h-44q-17 0 -6 18q39 58 57 130q24 94 24 251v41q0 12 12 12h335q10 0 10 -10v-433q0 -9 -10 -9h-54q-9 0 -9 9v378h-211z" />
    <glyph glyph-name="afii10078" unicode="&#x43c;" horiz-adv-x="636" 
d="M334 83h-32q-10 0 -16 10l-142 233v-317q0 -9 -10 -9h-52q-10 0 -10 9v433q0 10 10 10h53q11 0 18 -11l165 -276l165 276q5 11 17 11h54q10 0 10 -10v-433q0 -9 -10 -9h-52q-10 0 -10 9v317l-142 -233q-5 -10 -16 -10z" />
    <glyph glyph-name="afii10079" unicode="&#x43d;" horiz-adv-x="556" 
d="M421 452h53q10 0 10 -10v-433q0 -9 -10 -9h-53q-10 0 -10 9v186h-266v-186q0 -9 -10 -9h-53q-10 0 -10 9v433q0 10 10 10h53q10 0 10 -10v-183h266v183q0 10 10 10z" />
    <glyph glyph-name="afii10080" unicode="&#x43e;" horiz-adv-x="567" 
d="M117 225q0 -74 45 -122q47 -53 122 -53t122 53q45 48 45 122t-45 122q-47 53 -122 53t-122 -53q-45 -48 -45 -122zM45 225q0 102 67 167q68 68 172 68t172 -68q67 -65 67 -167t-67 -167q-68 -68 -172 -68t-172 68q-67 65 -67 167z" />
    <glyph glyph-name="afii10081" unicode="&#x43f;" horiz-adv-x="543" 
d="M82 452h379q10 0 10 -10v-433q0 -9 -10 -9h-53q-10 0 -10 9v378h-253v-378q0 -9 -10 -9h-53q-10 0 -10 9v433q0 10 10 10z" />
    <glyph glyph-name="afii10082" unicode="&#x440;" horiz-adv-x="524" 
d="M145 395v-324q42 -21 99 -21q72 0 118 46q45 43 45 130q0 80 -48 126q-51 49 -135 49q-31 0 -79 -6zM83 448q62 12 134 12q123 0 194 -65q69 -64 69 -169t-57 -165q-64 -71 -172 -71q-62 0 -106 20v-232q0 -9 -9 -9h-54q-10 0 -10 9v657q0 10 11 13z" />
    <glyph glyph-name="afii10083" unicode="&#x441;" horiz-adv-x="471" 
d="M290 51q62 0 109 28q11 8 15 -2l20 -37q4 -6 -5 -13q-55 -37 -141 -37q-116 0 -181 68q-62 62 -62 167q0 88 51 149q71 86 193 86q80 0 138 -40q9 -7 5 -13l-21 -38q-5 -9 -15 -3q-49 31 -107 31q-82 0 -130 -57q-40 -46 -40 -115q0 -77 46 -126q45 -48 125 -48z" />
    <glyph glyph-name="afii10084" unicode="&#x442;" horiz-adv-x="448" 
d="M18 452h411q10 0 10 -10v-45q0 -10 -10 -10h-169v-378q0 -9 -9 -9h-54q-10 0 -10 9v378h-169q-9 0 -9 10v45q0 10 9 10z" />
    <glyph glyph-name="afii10085" unicode="&#x443;" horiz-adv-x="477" 
d="M470 439l-180 -463q-39 -98 -87 -149q-65 -63 -162 -59q-8 0 -8 8v55q0 7 9 7q2 0 8 -0.5t11 -0.5q54 0 95 46q31 36 54 90l-205 466q-5 13 8 13h65q12 0 15 -11l155 -377l140 377q3 11 15 11h60q12 0 7 -13z" />
    <glyph glyph-name="afii10086" unicode="&#x444;" horiz-adv-x="725" 
d="M478 400q-45 0 -79 -21v-308q34 -21 79 -21q58 0 94 45q36 46 36 130q0 88 -36 130q-36 45 -94 45zM248 50q45 0 79 21v308q-34 21 -79 21q-59 0 -95 -45q-36 -44 -36 -130q0 -84 36 -130q36 -45 95 -45zM399 601v-161q36 20 87 20q93 0 147 -69q48 -61 48 -166
q0 -104 -48 -166q-54 -69 -147 -69q-51 0 -87 20v-163q0 -10 -10 -10h-53q-9 0 -9 10v163q-36 -20 -87 -20q-95 0 -147 69q-48 62 -48 166q0 105 48 166q52 69 147 69q51 0 87 -20v161q0 9 9 9h53q10 0 10 -9z" />
    <glyph glyph-name="afii10087" unicode="&#x445;" horiz-adv-x="476" 
d="M7 15l186 215l-177 206q-5 6 -3 11t9 5h68q9 0 16 -10l132 -161l133 161q7 10 16 10h65q8 0 9.5 -5t-3.5 -11l-177 -201l188 -220q11 -15 -7 -15h-66q-8 0 -16 8l-142 172l-143 -172q-6 -8 -16 -8h-65q-7 0 -9.5 5t2.5 10z" />
    <glyph glyph-name="afii10088" unicode="&#x446;" horiz-adv-x="589" 
d="M72 9v433q0 10 10 10h53q10 0 10 -10v-378h253v378q0 10 9 10h54q10 0 10 -10v-378h86q9 0 9 -9v-207q0 -10 -9 -10h-53q-10 0 -10 10v152h-412q-10 0 -10 9z" />
    <glyph glyph-name="afii10089" unicode="&#x447;" horiz-adv-x="515" 
d="M443 442v-433q0 -9 -9 -9h-54q-10 0 -10 9v161q-69 -25 -132 -25q-90 0 -131 40q-40 40 -40 122v135q0 10 9 10h54q10 0 10 -10v-135q0 -51 24 -75q23 -26 80 -26q62 0 126 24v212q0 10 10 10h54q9 0 9 -10z" />
    <glyph glyph-name="afii10090" unicode="&#x448;" horiz-adv-x="837" 
d="M765 442v-433q0 -9 -10 -9h-673q-10 0 -10 9v433q0 10 10 10h53q10 0 10 -10v-378h237v378q0 10 10 10h53q10 0 10 -10v-378h237v378q0 10 9 10h54q10 0 10 -10z" />
    <glyph glyph-name="afii10091" unicode="&#x449;" horiz-adv-x="883" 
d="M788 0h-706q-10 0 -10 9v433q0 10 10 10h53q10 0 10 -10v-378h237v378q0 10 10 10h53q10 0 10 -10v-378h237v378q0 10 9 10h54q10 0 10 -10v-378h86q9 0 9 -9v-207q0 -10 -9 -10h-53q-10 0 -10 10v152z" />
    <glyph glyph-name="afii10092" unicode="&#x44a;" horiz-adv-x="625" 
d="M416 0h-210q-9 0 -9 9v379h-174q-9 0 -9 9v45q0 10 9 10h237q10 0 10 -10v-186h144q88 0 131 -43q32 -32 32 -85q0 -57 -38 -92q-42 -36 -123 -36zM505 127q0 33 -20 50q-26 25 -88 25h-127v-148h132q55 0 80 20q23 18 23 53z" />
    <glyph glyph-name="afii10093" unicode="&#x44b;" horiz-adv-x="670" 
d="M381 127q0 34 -20 50q-25 25 -88 25h-128v-148h133q55 0 80 20q23 18 23 53zM534 452h54q10 0 10 -10v-433q0 -9 -10 -9h-54q-9 0 -9 9v433q0 10 9 10zM145 442v-186h145q89 0 131 -43q32 -32 32 -85q0 -59 -38 -92q-42 -36 -123 -36h-210q-10 0 -10 9v433q0 10 10 10h54
q9 0 9 -10z" />
    <glyph glyph-name="afii10094" unicode="&#x44c;" horiz-adv-x="502" 
d="M145 442v-186h145q89 0 131 -43q32 -32 32 -85q0 -59 -38 -92q-42 -36 -123 -36h-210q-10 0 -10 9v433q0 10 10 10h54q9 0 9 -10zM381 127q0 34 -20 50q-25 25 -88 25h-128v-148h133q55 0 80 20q23 18 23 53z" />
    <glyph glyph-name="afii10095" unicode="&#x44d;" horiz-adv-x="474" 
d="M348 201h-255q-10 0 -10 10v30q0 9 10 9h254q-6 57 -42 96q-48 53 -128 53q-58 0 -110 -32q-10 -5 -13 3l-18 37q-4 8 5 13q61 40 141 40q120 0 192 -86q52 -60 52 -149q0 -103 -62 -167q-66 -68 -181 -68q-84 0 -144 37q-7 6 -4 13l18 38q4 7 13 2q48 -31 112 -31
q73 0 121 43q43 40 49 109z" />
    <glyph glyph-name="afii10096" unicode="&#x44e;" horiz-adv-x="804" 
d="M72 442q0 10 10 10h54q9 0 9 -10v-182h141q9 80 63 132q68 68 172 68t172 -68q67 -65 67 -167t-67 -167q-68 -68 -172 -68t-172 68q-57 57 -64 136h-140v-185q0 -9 -9 -9h-54q-10 0 -10 9v433zM354 225q0 -73 44 -123q50 -53 123 -53q72 0 122 53q45 51 45 123t-45 123
q-50 53 -122 53q-73 0 -123 -53q-44 -50 -44 -123z" />
    <glyph glyph-name="afii10097" unicode="&#x44f;" horiz-adv-x="475" 
d="M205 452h186q9 0 9 -10v-433q0 -9 -9 -9h-52q-9 0 -9 9v160h-108l-119 -162q-5 -7 -15 -7h-53q-12 0 -5 14l129 170q-53 9 -79 33q-39 33 -39 95q0 84 66 119q40 21 98 21zM330 392h-117q-52 0 -77 -21q-23 -21 -23 -60q0 -44 28 -64q26 -19 76 -19h113v164z" />
    <glyph glyph-name="afii10071" unicode="&#x451;" horiz-adv-x="524" 
d="M121 258h290q-3 61 -37 100q-40 43 -104 43q-72 0 -113 -47q-33 -39 -36 -96zM288 50q69 0 136 40q11 7 15 -2l19 -37q4 -7 -4 -13q-71 -48 -172 -48q-114 0 -178 73q-59 65 -59 168q0 98 60 163q61 66 165 66q105 0 164 -72q53 -67 47 -172q0 -11 -12 -11h-348
q5 -60 39 -100q46 -55 128 -55zM167 623q-18 0 -31 13t-13 31t13 31t31 13q19 0 31.5 -13t12.5 -31t-12.5 -31t-31.5 -13zM355 623q-18 0 -31 13t-13 31t13 31t31 13t31 -13t13 -31t-13 -31t-31 -13z" />
    <glyph glyph-name="afii10099" unicode="&#x452;" horiz-adv-x="556" 
d="M418 71v183q0 81 -37 117q-29 29 -89 29q-78 0 -118 -61q-26 -43 -26 -100v-230q0 -9 -10 -9h-54q-9 0 -9 9v535h-59q-9 0 -9 10v38q0 10 9 10h59v69q0 10 9 10h54q10 0 10 -10v-69h153q10 0 10 -10v-38q0 -10 -10 -10h-153v-177q20 41 53 64q43 29 106 29q83 0 130 -41
q54 -48 54 -151v-217q0 -156 -90 -203q-10 -6 -16 1l-35 36q-7 7 2 14q38 22 52 59t14 113z" />
    <glyph glyph-name="afii10100" unicode="&#x453;" horiz-adv-x="421" 
d="M135 0h-53q-10 0 -10 9v433q0 10 10 10h312q10 0 10 -10v-45q0 -10 -10 -10h-249v-378q0 -9 -10 -9zM261 764h50q7 0 9 -5.5t-2 -10.5l-104 -169q-5 -9 -14 -9h-37q-13 0 -5 17l90 167q6 10 13 10z" />
    <glyph glyph-name="afii10101" unicode="&#x454;" horiz-adv-x="471" 
d="M377 201h-254q4 -68 49 -109q46 -43 120 -43q64 0 112 31q8 6 13 -2l19 -38q2 -7 -5 -13q-60 -37 -143 -37q-116 0 -181 68q-62 62 -62 167q0 88 51 149q72 86 193 86q79 0 141 -40q8 -5 4 -13l-18 -37q-4 -9 -13 -3q-51 32 -110 32q-80 0 -128 -53q-37 -40 -41 -96h253
q10 0 10 -9v-30q0 -10 -10 -10z" />
    <glyph glyph-name="afii10102" unicode="&#x455;" horiz-adv-x="410" 
d="M198 49q94 0 94 68q0 26 -16 41.5t-48 29.5q-12 6 -50.5 19.5t-58.5 22.5q-74 34 -74 109q0 57 43 89.5t122 32.5q82 0 140 -33q8 -5 5 -13l-20 -41q-4 -9 -13 -3q-52 29 -109 29q-92 0 -92 -61q0 -23 14 -36t41 -25q15 -7 54 -20.5t55 -21.5q83 -39 83 -113
q0 -61 -45 -97t-122 -36q-93 0 -156 38q-9 4 -4 12l20 41q5 9 13 4q58 -36 124 -36z" />
    <glyph glyph-name="afii10103" unicode="&#x456;" horiz-adv-x="218" 
d="M72 442q0 10 10 10h54q9 0 9 -10v-433q0 -9 -9 -9h-54q-10 0 -10 9v433zM108 623q-18 0 -31 12.5t-13 31.5q0 18 13 30.5t31 12.5t31 -12.5t13 -30.5q0 -19 -13 -31.5t-31 -12.5z" />
    <glyph glyph-name="afii10104" unicode="&#x457;" horiz-adv-x="218" 
d="M72 442q0 10 10 10h54q9 0 9 -10v-433q0 -9 -9 -9h-54q-10 0 -10 9v433zM15 623q-18 0 -31 13t-13 31t13 31t31 13q19 0 31.5 -13t12.5 -31t-12.5 -31t-31.5 -13zM203 623q-18 0 -31 13t-13 31t13 31t31 13t31 -13t13 -31t-13 -31t-31 -13z" />
    <glyph glyph-name="afii10105" unicode="&#x458;" horiz-adv-x="218" 
d="M151 667q0 -19 -12.5 -31.5t-30.5 -12.5q-19 0 -31.5 12.5t-12.5 31.5q0 18 12.5 30.5t31.5 12.5q18 0 30.5 -12.5t12.5 -30.5zM72 -2v444q0 9 10 9h54q9 0 9 -9v-406q0 -107 -18 -171t-73 -96q-11 -4 -19 4l-33 33q-9 9 1 15q40 25 54.5 66t14.5 111z" />
    <glyph glyph-name="afii10106" unicode="&#x459;" horiz-adv-x="830" 
d="M401 387h-223q-6 -165 -27 -252q-20 -82 -55 -125q-8 -10 -22 -10h-44q-17 0 -6 18q39 58 57 130q24 94 24 251v41q0 12 12 12h347q10 0 10 -10v-186h144q89 0 131 -43q32 -32 32 -85q0 -57 -38 -92q-42 -36 -123 -36h-210q-9 0 -9 9v378zM709 127q0 33 -20 50
q-26 25 -88 25h-127v-148h132q55 0 80 20q23 18 23 53z" />
    <glyph glyph-name="afii10107" unicode="&#x45a;" horiz-adv-x="840" 
d="M484 442v-186h144q89 0 131 -43q32 -32 32 -85q0 -57 -38 -92q-42 -36 -123 -36h-209q-10 0 -10 9v193h-266v-193q0 -9 -9 -9h-54q-10 0 -10 9v433q0 10 10 10h54q9 0 9 -10v-186h266v186q0 10 10 10h54q9 0 9 -10zM719 127q0 33 -20 50q-26 25 -88 25h-127v-148h132
q55 0 80 20q23 18 23 53z" />
    <glyph glyph-name="afii10108" unicode="&#x45b;" horiz-adv-x="556" 
d="M292 400q-79 0 -118 -61q-26 -43 -26 -100v-230q0 -9 -10 -9h-54q-9 0 -9 9v535h-59q-9 0 -9 10v38q0 10 9 10h59v69q0 10 9 10h54q10 0 10 -10v-69h153q10 0 10 -10v-38q0 -10 -10 -10h-153v-177q20 41 53 64q43 29 106 29q83 0 130 -41q54 -48 54 -151v-259
q0 -9 -10 -9h-54q-9 0 -9 9v245q0 81 -37 117q-29 29 -89 29z" />
    <glyph glyph-name="afii10109" unicode="&#x45c;" horiz-adv-x="494" 
d="M390 452h63q7 0 8.5 -5t-4.5 -12l-184 -204l190 -215q6 -6 4.5 -11t-8.5 -5h-64q-11 0 -19 9l-165 186h-66v-186q0 -9 -10 -9h-53q-10 0 -10 9v433q0 10 10 10h53q10 0 10 -10v-183h66l161 183q8 10 18 10zM283 764h50q7 0 9 -5.5t-2 -10.5l-104 -169q-5 -9 -14 -9h-37
q-13 0 -5 17l90 167q6 10 13 10z" />
    <glyph glyph-name="afii10110" unicode="&#x45e;" horiz-adv-x="474" 
d="M470 439l-180 -463q-39 -98 -87 -149q-65 -63 -162 -59q-8 0 -8 8v55q0 7 9 7q2 0 8 -0.5t11 -0.5q54 0 95 46q31 36 54 90l-205 466q-5 13 8 13h65q12 0 15 -11l155 -377l140 377q3 11 15 11h60q12 0 7 -13zM238 640q74 0 81 72q1 10 11 10h25q12 0 12 -10
q0 -54 -34.5 -90t-94.5 -36t-95 36t-35 90q0 10 12 10h26q10 0 11 -10q2 -33 23 -52.5t58 -19.5z" />
    <glyph glyph-name="afii10193" unicode="&#x45f;" horiz-adv-x="543" 
d="M408 452h53q10 0 10 -10v-433q0 -9 -10 -9h-153v-152q0 -10 -10 -10h-53q-9 0 -9 10v152h-154q-10 0 -10 9v433q0 10 10 10h54q9 0 9 -10v-378h253v378q0 10 10 10z" />
    <glyph glyph-name="afii10050" unicode="&#x490;" horiz-adv-x="533" 
d="M450 862h52q9 0 9 -9v-233q0 -10 -9 -10h-347v-601q0 -9 -10 -9h-61q-9 0 -9 9v662q0 10 9 10h356v172q0 9 10 9z" />
    <glyph glyph-name="afii10098" unicode="&#x491;" horiz-adv-x="421" 
d="M338 617q0 9 9 9h51q10 0 10 -9v-220q0 -10 -10 -10h-253v-378q0 -9 -10 -9h-53q-10 0 -10 9v433q0 10 10 10h256v165z" />
    <glyph glyph-name="endash" unicode="&#x2013;" horiz-adv-x="700" 
d="M601 215h-503q-9 0 -9 10v52q0 10 9 10h503q10 0 10 -10v-52q0 -10 -10 -10z" />
    <glyph glyph-name="emdash" unicode="&#x2014;" horiz-adv-x="1230" 
d="M1131 215h-1033q-9 0 -9 10v52q0 10 9 10h1033q10 0 10 -10v-52q0 -10 -10 -10z" />
    <glyph glyph-name="quoteleft" unicode="&#x2018;" horiz-adv-x="209" 
d="M53 583q-1 34 22 66t56 44q10 3 14 -4l8 -11q5 -8 -3 -14q-31 -24 -31 -41q0 -12 18.5 -26.5t18.5 -35.5q0 -20 -13 -32.5t-34 -12.5q-54 0 -56 67z" />
    <glyph glyph-name="quoteright" unicode="&#x2019;" horiz-adv-x="209" 
d="M156 624q1 -35 -22 -67t-56 -43q-9 -4 -15 3l-8 12q-5 8 4 13q30 25 30 41q0 12 -18 27t-18 36q0 20 13 32.5t34 12.5q54 0 56 -67z" />
    <glyph glyph-name="quotesinglbase" unicode="&#x201a;" horiz-adv-x="196" 
d="M152 12q1 -34 -22 -66t-56 -44q-10 -3 -15 4l-8 11q-4 8 4 14q30 25 30 41q0 11 -18 26t-18 37q0 20 12.5 32t34.5 12q54 0 56 -67z" />
    <glyph glyph-name="quotedblleft" unicode="&#x201c;" horiz-adv-x="363" 
d="M207 583q-1 34 22 66t56 44q10 3 14 -4l8 -11q5 -8 -3 -14q-31 -24 -31 -41q0 -12 18.5 -26.5t18.5 -35.5q0 -20 -13 -32.5t-34 -12.5q-54 0 -56 67zM53 583q-1 33 22 65.5t56 44.5q10 3 14 -4l8 -11q5 -8 -3 -14q-31 -22 -31 -41q0 -12 18.5 -26.5t18.5 -35.5
q0 -20 -13 -32.5t-34 -12.5q-56 0 -56 67z" />
    <glyph glyph-name="quotedblright" unicode="&#x201d;" horiz-adv-x="363" 
d="M156 624q1 -35 -22 -67t-56 -43q-9 -4 -15 3l-8 12q-5 8 4 13q30 25 30 41q0 12 -18 27t-18 36q0 20 13 32.5t34 12.5q54 0 56 -67zM310 624q1 -35 -22.5 -67t-56.5 -43q-10 -4 -14 3l-8 12q-4 7 3 13q31 24 31 41q0 12 -18 27t-18 36q0 20 13 32.5t34 12.5q54 0 56 -67z
" />
    <glyph glyph-name="quotedblbase" unicode="&#x201e;" horiz-adv-x="350" 
d="M152 12q1 -34 -22 -66t-56 -44q-10 -3 -15 4l-8 11q-4 8 4 14q30 25 30 41q0 11 -18 26t-18 37q0 20 12.5 32t34.5 12q54 0 56 -67zM306 12q1 -34 -22.5 -66t-56.5 -44q-10 -3 -14 4l-8 11q-4 7 3 14q31 24 31 41q0 11 -18 26t-18 37q0 20 12.5 32t34.5 12q54 0 56 -67z
" />
    <glyph glyph-name="dagger" unicode="&#x2020;" horiz-adv-x="498" 
d="M249 -227q-16 0 -27.5 11t-11.5 27q0 62 15 557q-146 -12 -165 -12q-15 0 -25.5 10.5t-10.5 25.5q0 16 10.5 26.5t25.5 10.5q4 0 165 -12q-13 216 -13 237q0 16 10.5 26.5t26.5 10.5t26.5 -10.5t10.5 -26.5q0 -21 -13 -237q161 12 165 12q14 0 25 -10.5t11 -26.5
q0 -15 -11 -25.5t-25 -10.5q-19 0 -166 12q16 -493 16 -557q0 -16 -11.5 -27t-27.5 -11z" />
    <glyph glyph-name="daggerdbl" unicode="&#x2021;" horiz-adv-x="498" 
d="M213 231l12 137q-146 -12 -165 -12q-15 0 -25.5 10.5t-10.5 25.5q0 16 10.5 26.5t25.5 10.5q4 0 165 -12q-13 216 -13 237q0 16 10.5 26.5t26.5 10.5t26.5 -10.5t10.5 -26.5q0 -21 -13 -237q161 12 165 12q14 0 25 -10.5t11 -26.5q0 -15 -11 -25.5t-25 -10.5
q-19 0 -166 12l13 -137l-13 -136q147 12 166 12q14 0 25 -10.5t11 -26.5q0 -15 -11 -25.5t-25 -10.5q-4 0 -165 12q13 -216 13 -237q0 -16 -10.5 -26.5t-26.5 -10.5t-26.5 10.5t-10.5 26.5q0 21 13 237q-161 -12 -165 -12q-15 0 -25.5 10.5t-10.5 25.5q0 16 10.5 26.5
t25.5 10.5q19 0 165 -12z" />
    <glyph glyph-name="bullet" unicode="&#x2022;" horiz-adv-x="510" 
d="M53 341q0 83 59.5 142.5t142.5 59.5t142.5 -59.5t59.5 -142.5t-59.5 -142.5t-142.5 -59.5t-142.5 59.5t-59.5 142.5z" />
    <glyph glyph-name="ellipsis" unicode="&#x2026;" horiz-adv-x="683" 
d="M640 37q0 -19 -13 -32.5t-32 -13.5q-20 0 -33.5 13.5t-13.5 32.5t13.5 32.5t33.5 13.5q19 0 32 -13.5t13 -32.5zM390 37q0 -19 -13 -32.5t-32 -13.5t-32.5 13.5t-13.5 32.5t13.5 32.5t32.5 13.5t32 -13.5t13 -32.5zM141 37q0 -19 -13.5 -32.5t-32.5 -13.5t-32.5 13.5
t-13.5 32.5t13.5 32.5t32.5 13.5t32.5 -13.5t13.5 -32.5z" />
    <glyph glyph-name="perthousand" unicode="&#x2030;" horiz-adv-x="1007" 
d="M289 536q0 46 -32.5 78.5t-78.5 32.5t-78.5 -32.5t-32.5 -78.5t32.5 -78.5t78.5 -32.5t78.5 32.5t32.5 78.5zM331 536q0 -63 -45.5 -108t-107.5 -45q-63 0 -108 44.5t-45 108.5q0 63 45 108t108 45q62 0 107.5 -45t45.5 -108zM361 143q0 -47 32.5 -79.5t78.5 -32.5
t78.5 33t32.5 79t-32.5 78t-78.5 32t-78.5 -32t-32.5 -78zM319 143q0 63 45.5 108t107.5 45q63 0 108 -45t45 -108t-45 -108t-108 -45t-108 45t-45 108zM717 143q0 -47 32.5 -79.5t79.5 -32.5q46 0 78 32.5t32 79.5q0 46 -32 78t-78 32q-47 0 -79.5 -32t-32.5 -78zM676 143
q0 63 45 108t108 45q62 0 107.5 -45t45.5 -108t-45.5 -108t-107.5 -45q-63 0 -108 44.5t-45 108.5zM89 11l424 662q5 8 13 8h30q6 0 7.5 -3.5t-1.5 -8.5l-424 -662q-4 -7 -13 -7h-30q-13 0 -6 11z" />
    <glyph glyph-name="guilsinglleft" unicode="&#x2039;" horiz-adv-x="343" 
d="M31 227q0 6 7 15l191 207q9 9 19 9h54q9 0 10.5 -5t-3.5 -12l-194 -214l194 -213q5 -8 3.5 -13t-10.5 -5h-54q-10 0 -19 10l-191 207q-7 7 -7 14z" />
    <glyph glyph-name="guilsinglright" unicode="&#x203a;" horiz-adv-x="343" 
d="M312 227q0 -7 -7 -14l-192 -207q-7 -10 -19 -10h-53q-9 0 -11 5t4 13l194 213l-194 214q-6 7 -4 12t11 5h53q11 0 19 -9l192 -207q7 -9 7 -15z" />
    <glyph glyph-name="fraction" unicode="&#x2044;" horiz-adv-x="372" 
d="M395 668l-338 -659q-5 -9 -14 -9h-60q-15 0 -8 13l337 658q5 10 15 10h59q6 0 8.5 -4t0.5 -9z" />
    <glyph glyph-name="Euro" unicode="&#x20ac;" 
d="M-2 428h62q25 96 100 168q100 94 237 94q117 0 207 -53q10 -7 6 -16l-24 -50q-3 -9 -13 -3q-85 50 -177 50q-96 0 -169 -66q-58 -53 -80 -124h358q9 0 9 -9v-25q0 -9 -9 -9h-371q-4 -20 -4 -44q0 -23 3 -46h316q9 0 9 -10v-24q0 -10 -9 -10h-302q21 -76 77 -126
q72 -63 173 -63q96 0 178 51q9 6 14 -3l23 -51q5 -9 -4 -14q-93 -55 -211 -55q-134 0 -226 77q-88 71 -113 184h-60q-9 0 -9 10v24q0 10 9 10h53q-2 15 -2 46q0 29 3 44h-54q-9 0 -9 9v25q0 9 9 9z" />
    <glyph glyph-name="afii61352" unicode="&#x2116;" horiz-adv-x="1315" 
d="M655 0h-56q-11 0 -18 10l-430 540v-541q0 -9 -9 -9h-58q-9 0 -9 9v662q0 10 9 10h55q10 0 19 -10l430 -542v542q0 10 10 10h57q10 0 10 -10v-662q0 -9 -10 -9zM860 455q0 -72 45 -123q49 -52 122 -52q74 0 123 52q44 50 44 123q0 72 -44 122q-50 53 -123 53
q-72 0 -122 -53q-45 -51 -45 -122zM788 455q0 102 68 167q66 68 171 68q106 0 172 -68q68 -65 68 -167q0 -103 -68 -168q-68 -68 -172 -68q-103 0 -171 68q-68 65 -68 168zM801 64h452q10 0 10 -9v-46q0 -9 -10 -9h-452q-10 0 -10 9v46q0 9 10 9z" />
    <glyph glyph-name="trademark" unicode="&#x2122;" horiz-adv-x="776" 
d="M37 713h273q10 0 10 -10v-23q0 -10 -10 -10h-112v-306q0 -9 -10 -9h-28q-10 0 -10 9v306h-113q-9 0 -9 10v23q0 10 9 10zM539 491l126 212q7 10 18 10h26q9 0 9 -10v-342q0 -9 -9 -9h-28q-9 0 -9 9v268l-113 -188q-6 -10 -14 -10h-12q-8 0 -14 10l-112 188v-268
q0 -9 -10 -9h-27q-9 0 -9 9v342q0 10 9 10h26q11 0 17 -10z" />
    <glyph glyph-name="Omega" unicode="&#x2126;" horiz-adv-x="753" 
d="M376 690q134 0 212.5 -73.5t78.5 -211.5q0 -121 -82 -227q-16 -20 -37.5 -45.5t-33.5 -41t-19 -28.5h170q9 0 9 -10v-44q0 -9 -9 -9h-230q-10 0 -10 9v36q0 16 9.5 32t34.5 47.5t43 59.5q72 102 72 208q0 111 -54.5 168.5t-153.5 57.5q-98 0 -153 -57.5t-55 -168.5
q0 -105 73 -208q18 -28 43 -59.5t34.5 -47.5t9.5 -32v-36q0 -9 -10 -9h-229q-10 0 -10 9v44q0 10 10 10h169q-6 13 -17.5 28.5t-34.5 41.5t-38 45q-82 106 -82 227q0 138 78 211.5t212 73.5z" />
    <glyph glyph-name="partialdiff" unicode="&#x2202;" horiz-adv-x="510" 
d="M388 307q-61 42 -133 42q-62 0 -102 -42t-40 -104q0 -65 38 -108q40 -43 104 -43q70 0 108 50q34 45 34 122q0 42 -9 83zM45 203q0 92 60 150q57 54 140 54q66 0 122 -35q-30 74 -88 141q-64 73 -157 132q-9 6 -3 13l35 36q6 6 15 1q100 -59 177 -153q120 -151 120 -318
q0 -104 -54 -168q-58 -66 -158 -66q-92 0 -148 56q-61 58 -61 157z" />
    <glyph glyph-name="Delta" unicode="&#x2206;" horiz-adv-x="606" 
d="M303 568l-179 -499h358zM559 0h-513q-9 0 -9 9v27q0 9 2 14l220 622q5 9 14 9h59q10 0 14 -9l221 -622q2 -10 2 -14v-27q0 -9 -10 -9z" />
    <glyph glyph-name="product" unicode="&#x220f;" horiz-adv-x="689" 
d="M604 -171h-61q-9 0 -9 9v771h-379v-771q0 -9 -10 -9h-61q-9 0 -9 9v833q0 10 9 10h520q10 0 10 -10v-833q0 -9 -10 -9z" />
    <glyph glyph-name="summation" unicode="&#x2211;" horiz-adv-x="518" 
d="M467 0h-418q-9 0 -9 9v36q0 9 7 16l279 279l-279 279q-7 6 -7 16v36q0 10 9 10h418q10 0 10 -10v-50q0 -10 -10 -10h-315l244 -245q7 -7 7 -16v-20q0 -9 -7 -16l-244 -245h315q10 0 10 -9v-51q0 -9 -10 -9z" />
    <glyph glyph-name="minus" unicode="&#x2212;" horiz-adv-x="536" 
d="M487 318h-439q-9 0 -9 10v50q0 9 9 9h439q10 0 10 -9v-50q0 -10 -10 -10z" />
    <glyph glyph-name="radical" unicode="&#x221a;" horiz-adv-x="742" 
d="M732 701l-372 -709q-4 -9 -15 -9h-39q-8 0 -13 9l-110 184h-122q-10 0 -10 9v53q0 10 10 10h151q10 0 17 -10l95 -160l328 628q5 10 14 10h57q6 0 8.5 -4.5t0.5 -10.5z" />
    <glyph glyph-name="infinity" unicode="&#x221e;" horiz-adv-x="813" 
d="M405 205q-25 -59 -69 -99.5t-103 -40.5q-88 0 -137 57.5t-49 146.5q0 91 50 147.5t136 56.5q107 0 172 -139q64 139 173 139q83 0 135 -56.5t52 -147.5q0 -88 -50 -146t-137 -58q-60 0 -103.5 40t-69.5 100zM703 269q0 59 -32.5 102t-94.5 43q-54 0 -89 -42.5t-51 -102.5
q44 -145 140 -145q59 0 93 42.5t34 102.5zM234 414q-56 0 -91 -40.5t-35 -104.5q0 -60 33.5 -102.5t92.5 -42.5q94 0 141 145q-17 58 -53 101.5t-88 43.5z" />
    <glyph glyph-name="integral" unicode="&#x222b;" horiz-adv-x="396" 
d="M357 606h-49q-70 0 -70 -77v-556q0 -69 -37.5 -108t-104.5 -39h-58q-10 0 -10 9v52q0 10 10 10h50q70 0 70 76v556q0 69 37 108.5t105 39.5h57q10 0 10 -10v-52q0 -9 -10 -9z" />
    <glyph glyph-name="approxequal" unicode="&#x2248;" horiz-adv-x="504" 
d="M34 195v39q0 11 7 17q53 41 113 41q40 0 102 -26t94 -26q50 0 105 41q5 4 9.5 2t4.5 -10v-39q0 -11 -8 -17q-53 -41 -113 -41q-38 0 -97.5 26t-93.5 26q-55 0 -110 -41q-5 -4 -9 -2t-4 10zM34 427v40q0 10 7 16q54 42 113 42q40 0 102 -26.5t94 -26.5q48 0 105 41
q5 4 9.5 2t4.5 -10v-39q0 -11 -8 -17q-55 -41 -113 -41q-38 0 -97.5 26t-93.5 26q-54 0 -110 -40q-5 -4 -9 -2t-4 9z" />
    <glyph glyph-name="notequal" unicode="&#x2260;" horiz-adv-x="560" 
d="M48 267h161l76 171h-237q-9 0 -9 9v50q0 10 9 10h268l59 130q3 10 14 10h35q6 0 8.5 -4t0.5 -9l-57 -127h136q9 0 9 -10v-50q0 -9 -9 -9h-167l-77 -171h244q9 0 9 -10v-50q0 -9 -9 -9h-275l-55 -126q-6 -9 -15 -9h-35q-14 0 -8 13l54 122h-130q-9 0 -9 9v50q0 10 9 10z
" />
    <glyph glyph-name="lessequal" unicode="&#x2264;" horiz-adv-x="560" 
d="M54 69h452q9 0 9 -10v-50q0 -9 -9 -9h-452q-10 0 -10 9v50q0 10 10 10zM44 422v35q0 10 9 14l449 216q13 4 13 -7v-52q0 -11 -10 -15l-365 -173l365 -174q10 -4 10 -15v-52q0 -11 -13 -7l-449 216q-9 4 -9 14z" />
    <glyph glyph-name="greaterequal" unicode="&#x2265;" horiz-adv-x="560" 
d="M54 69h452q9 0 9 -10v-50q0 -9 -9 -9h-452q-10 0 -10 9v50q0 10 10 10zM515 457v-35q0 -10 -9 -14l-449 -216q-13 -5 -13 7v52q0 11 10 15l366 174l-366 173q-10 4 -10 15v52q0 12 13 7l449 -216q9 -4 9 -14z" />
    <glyph glyph-name="lozenge" unicode="&#x25ca;" horiz-adv-x="588" 
d="M42 329v22q0 11 7 18l217 302q5 9 14 9h29q7 0 14 -9l217 -302q6 -8 6 -18v-22q0 -10 -6 -18l-217 -302q-6 -9 -14 -9h-29q-8 0 -14 9l-217 302q-7 7 -7 18zM475 340l-181 256l-180 -256l181 -256z" />
    <glyph glyph-name="A.2" unicode="&#xe000;" horiz-adv-x="691" 
d="M345 616q-82 0 -138 -59q-54 -62 -54 -163v-98h384v98q0 103 -54 163q-54 59 -138 59zM617 397v-388q0 -9 -9 -9h-61q-10 0 -10 9v216h-384v-216q0 -9 -10 -9h-60q-10 0 -10 9v388q0 136 85 218q72 75 187 75t188 -75q84 -83 84 -218z" />
    <glyph glyph-name="A.3" unicode="&#xe001;" horiz-adv-x="640" 
d="M322 620q-57 0 -112 -18.5t-91 -40.5q-10 -7 -14 2l-23 49q-4 7 4 12q101 66 242 66q127 0 186 -72q53 -64 53 -187v-422q0 -9 -10 -9h-55q-9 0 -9 9v33h-5q-81 -52 -201 -52q-88 0 -152 39q-82 53 -82 149q0 111 102 168q98 53 332 66v19q0 95 -39 140q-40 49 -126 49z
M139 182q0 -69 60 -101q47 -24 115 -24q99 0 173 50v242q-184 -10 -260 -45q-88 -39 -88 -122z" />
    <glyph glyph-name="A.calt" unicode="&#xe002;" horiz-adv-x="626" 
d="M150 168l-62 -158q-3 -10 -15 -10h-60q-8 0 -8 7q0 5 2 9l259 657q4 11 15 11h64q11 0 15 -11l258 -657q3 -6 3 -9q0 -7 -10 -7h-61q-12 0 -15 10l-62 158h-323zM453 233l-141 354l-141 -354h282z" />
    <glyph glyph-name="AE.3" unicode="&#xe003;" horiz-adv-x="1164" 
d="M314 56q76 0 127.5 24.5t97.5 65.5q-41 59 -50 174q-350 0 -350 -138q0 -65 51 -95.5t124 -30.5zM322 620q-57 0 -112 -18.5t-91 -40.5q-10 -7 -14 2l-23 49q-4 7 4 12q100 65 233 65q89 0 147.5 -36t75.5 -130q29 77 100 122t170 45q159 -1 243 -114q59 -78 65 -198
q1 -24 0 -47q0 -11 -12 -11h-531q7 -116 74 -185q71 -73 185 -73q126 0 219 66q11 7 15 -2l23 -51q4 -7 -4 -12q-116 -73 -254 -73q-166 0 -261 104q-56 -49 -122 -76.5t-163 -27.5q-60 0 -111.5 18.5t-88 62.5t-36.5 107q0 39 15.5 70.5t40 52.5t62 37t73.5 25t83 14.5
t82 7t78 2.5q-2 40 -4 62q-1 42 -11.5 73.5t-25.5 50t-36.5 29.5t-42 14.5t-45.5 3.5zM576 389h460q-5 99 -65.5 163t-158.5 64q-100 0 -163 -63t-73 -164z" />
    <glyph glyph-name="AE.calt" unicode="&#xe004;" horiz-adv-x="995" 
d="M222 168l-121 -158q-9 -10 -20 -10h-69q-7 0 -9 5t3 11l506 653q8 12 23 12h414q10 0 10 -10v-51q0 -10 -10 -10h-347v-234h295q10 0 10 -9v-52q0 -9 -10 -9h-295v-235h347q10 0 10 -10v-52q0 -9 -10 -9h-417q-10 0 -10 10v158h-300zM271 233h251v327z" />
    <glyph glyph-name="AEsmall.3" unicode="&#xe005;" horiz-adv-x="947" 
d="M658 552q112 0 183 -75q69 -73 64 -214q0 -11 -11 -11h-415q6 -78 46 -127q55 -67 152 -67q95 0 170 52q12 7 15 -3l20 -42q6 -9 -4 -14q-96 -59 -203 -59q-132 0 -205 81q-97 -81 -226 -81q-77 0 -128 38q-59 43 -59 118q0 88 92 129q76 33 249 35v33q0 70 -29 104
q-31 38 -95 38q-79 0 -156 -48q-11 -6 -14 2l-21 44q-3 8 4 13q85 54 193 54q80 0 120 -40q34 -33 48 -86q19 39 54 69q60 57 156 57zM263 55q95 0 178 62q-40 55 -41 135q-138 -2 -195 -22q-73 -24 -73 -79q0 -47 38 -72q37 -24 93 -24zM480 310h349q-3 79 -46 123
q-49 52 -123 52q-84 0 -135 -59q-39 -46 -45 -116z" />
    <glyph glyph-name="Aacute.2" unicode="&#xe006;" horiz-adv-x="691" 
d="M345 616q-82 0 -138 -59q-54 -62 -54 -163v-98h384v98q0 103 -54 163q-54 59 -138 59zM617 397v-388q0 -9 -9 -9h-61q-10 0 -10 9v216h-384v-216q0 -9 -10 -9h-60q-10 0 -10 9v388q0 136 85 218q72 75 187 75t188 -75q84 -83 84 -218zM371 969h50q7 0 9 -5.5t-2 -10.5
l-104 -169q-5 -9 -14 -9h-37q-13 0 -5 17l90 167q6 10 13 10z" />
    <glyph glyph-name="Aacute.3" unicode="&#xe007;" horiz-adv-x="640" 
d="M322 620q-57 0 -112 -18.5t-91 -40.5q-10 -7 -14 2l-23 49q-4 7 4 12q101 66 242 66q127 0 186 -72q53 -64 53 -187v-422q0 -9 -10 -9h-55q-9 0 -9 9v33h-5q-81 -52 -201 -52q-88 0 -152 39q-82 53 -82 149q0 111 102 168q98 53 332 66v19q0 95 -39 140q-40 49 -126 49z
M139 182q0 -69 60 -101q47 -24 115 -24q99 0 173 50v242q-184 -10 -260 -45q-88 -39 -88 -122zM348 969h50q7 0 9 -5.5t-2 -10.5l-104 -169q-5 -9 -14 -9h-37q-14 0 -5 17l90 167q6 10 13 10z" />
    <glyph glyph-name="Aacute.calt" unicode="&#xe008;" horiz-adv-x="626" 
d="M150 168l-62 -158q-3 -10 -15 -10h-60q-8 0 -8 7q0 5 2 9l259 657q4 11 15 11h64q11 0 15 -11l258 -657q3 -6 3 -9q0 -7 -10 -7h-61q-12 0 -15 10l-62 158h-323zM453 233l-141 354l-141 -354h282zM333 969h50q7 0 9 -5.5t-2 -10.5l-104 -169q-5 -9 -14 -9h-37
q-13 0 -5 17l90 167q6 10 13 10z" />
    <glyph glyph-name="Abreve.2" unicode="&#xe009;" horiz-adv-x="691" 
d="M345 616q-82 0 -138 -59q-54 -62 -54 -163v-98h384v98q0 103 -54 163q-54 59 -138 59zM617 397v-388q0 -9 -9 -9h-61q-10 0 -10 9v216h-384v-216q0 -9 -10 -9h-60q-10 0 -10 9v388q0 136 85 218q72 75 187 75t188 -75q84 -83 84 -218zM345 855q74 0 81 72q1 10 11 10h25
q12 0 12 -10q0 -54 -34.5 -90t-94.5 -36t-95 36t-35 90q0 10 12 10h26q10 0 11 -10q2 -33 23 -52.5t58 -19.5z" />
    <glyph glyph-name="Abreve.3" unicode="&#xe00a;" horiz-adv-x="640" 
d="M322 620q-57 0 -112 -18.5t-91 -40.5q-10 -7 -14 2l-23 49q-4 7 4 12q101 66 242 66q127 0 186 -72q53 -64 53 -187v-422q0 -9 -10 -9h-55q-9 0 -9 9v33h-5q-81 -52 -201 -52q-88 0 -152 39q-82 53 -82 149q0 111 102 168q98 53 332 66v19q0 95 -39 140q-40 49 -126 49z
M139 182q0 -69 60 -101q47 -24 115 -24q99 0 173 50v242q-184 -10 -260 -45q-88 -39 -88 -122zM322 855q74 0 81 72q1 10 11 10h25q12 0 12 -10q0 -54 -34.5 -90t-94.5 -36t-95 36t-35 90q0 10 12 10h26q10 0 11 -10q2 -33 23 -52.5t58 -19.5z" />
    <glyph glyph-name="Abreve.calt" unicode="&#xe00b;" horiz-adv-x="626" 
d="M150 168l-62 -158q-3 -10 -15 -10h-60q-8 0 -8 7q0 5 2 9l259 657q4 11 15 11h64q11 0 15 -11l258 -657q3 -6 3 -9q0 -7 -10 -7h-61q-12 0 -15 10l-62 158h-323zM453 233l-141 354l-141 -354h282zM312 855q74 0 81 72q1 10 11 10h25q12 0 12 -10q0 -54 -34.5 -90
t-94.5 -36t-95 36t-35 90q0 10 12 10h26q10 0 11 -10q2 -33 23 -52.5t58 -19.5z" />
    <glyph glyph-name="Acircumflex.2" unicode="&#xe00c;" horiz-adv-x="691" 
d="M345 616q-82 0 -138 -59q-54 -62 -54 -163v-98h384v98q0 103 -54 163q-54 59 -138 59zM617 397v-388q0 -9 -9 -9h-61q-10 0 -10 9v216h-384v-216q0 -9 -10 -9h-60q-10 0 -10 9v388q0 136 85 218q72 75 187 75t188 -75q84 -83 84 -218zM331 968h26q6 0 14 -8l155 -173
q3 -3 3.5 -6t-1.5 -5t-6 -2h-46q-9 0 -17 8l-115 126l-115 -126q-8 -8 -17 -8h-46q-4 0 -6 2t-1.5 5t3.5 6l155 173q8 8 14 8z" />
    <glyph glyph-name="Acircumflex.3" unicode="&#xe00d;" horiz-adv-x="640" 
d="M322 620q-57 0 -112 -18.5t-91 -40.5q-10 -7 -14 2l-23 49q-4 7 4 12q101 66 242 66q127 0 186 -72q53 -64 53 -187v-422q0 -9 -10 -9h-55q-9 0 -9 9v33h-5q-81 -52 -201 -52q-88 0 -152 39q-82 53 -82 149q0 111 102 168q98 53 332 66v19q0 95 -39 140q-40 49 -126 49z
M139 182q0 -69 60 -101q47 -24 115 -24q99 0 173 50v242q-184 -10 -260 -45q-88 -39 -88 -122zM311 968h26q6 0 14 -8l155 -173q3 -3 3.5 -6t-1.5 -5t-6 -2h-46q-9 0 -17 8l-115 126l-115 -126q-8 -8 -17 -8h-46q-4 0 -6 2t-1.5 5t3.5 6l155 173q8 8 14 8z" />
    <glyph glyph-name="Acircumflex.calt" unicode="&#xe00e;" horiz-adv-x="626" 
d="M150 168l-62 -158q-3 -10 -15 -10h-60q-8 0 -8 7q0 5 2 9l259 657q4 11 15 11h64q11 0 15 -11l258 -657q3 -6 3 -9q0 -7 -10 -7h-61q-12 0 -15 10l-62 158h-323zM453 233l-141 354l-141 -354h282zM293 968h26q6 0 14 -8l155 -173q3 -3 3.5 -6t-1.5 -5t-6 -2h-46
q-9 0 -17 8l-115 126l-115 -126q-8 -8 -17 -8h-46q-4 0 -6 2t-1.5 5t3.5 6l155 173q8 8 14 8z" />
    <glyph glyph-name="Adieresis.2" unicode="&#xe00f;" horiz-adv-x="691" 
d="M345 616q-82 0 -138 -59q-54 -62 -54 -163v-98h384v98q0 103 -54 163q-54 59 -138 59zM617 397v-388q0 -9 -9 -9h-61q-10 0 -10 9v216h-384v-216q0 -9 -10 -9h-60q-10 0 -10 9v388q0 136 85 218q72 75 187 75t188 -75q84 -83 84 -218zM251 825q-18 0 -31 13t-13 31t13 31
t31 13q19 0 31.5 -13t12.5 -31t-12.5 -31t-31.5 -13zM439 825q-18 0 -31 13t-13 31t13 31t31 13t31 -13t13 -31t-13 -31t-31 -13z" />
    <glyph glyph-name="Adieresis.3" unicode="&#xe010;" horiz-adv-x="640" 
d="M322 620q-57 0 -112 -18.5t-91 -40.5q-10 -7 -14 2l-23 49q-4 7 4 12q101 66 242 66q127 0 186 -72q53 -64 53 -187v-422q0 -9 -10 -9h-55q-9 0 -9 9v33h-5q-81 -52 -201 -52q-88 0 -152 39q-82 53 -82 149q0 111 102 168q98 53 332 66v19q0 95 -39 140q-40 49 -126 49z
M139 182q0 -69 60 -101q47 -24 115 -24q99 0 173 50v242q-184 -10 -260 -45q-88 -39 -88 -122zM227 825q-18 0 -31 13t-13 31t13 31t31 13q19 0 31.5 -13t12.5 -31t-12.5 -31t-31.5 -13zM415 825q-18 0 -31 13t-13 31t13 31t31 13t31 -13t13 -31t-13 -31t-31 -13z" />
    <glyph glyph-name="Adieresis.calt" unicode="&#xe011;" horiz-adv-x="626" 
d="M150 168l-62 -158q-3 -10 -15 -10h-60q-8 0 -8 7q0 5 2 9l259 657q4 11 15 11h64q11 0 15 -11l258 -657q3 -6 3 -9q0 -7 -10 -7h-61q-12 0 -15 10l-62 158h-323zM453 233l-141 354l-141 -354h282zM218 825q-18 0 -31 13t-13 31t13 31t31 13q19 0 31.5 -13t12.5 -31
t-12.5 -31t-31.5 -13zM406 825q-18 0 -31 13t-13 31t13 31t31 13t31 -13t13 -31t-13 -31t-31 -13z" />
    <glyph glyph-name="Agrave.2" unicode="&#xe012;" horiz-adv-x="691" 
d="M345 616q-82 0 -138 -59q-54 -62 -54 -163v-98h384v98q0 103 -54 163q-54 59 -138 59zM617 397v-388q0 -9 -9 -9h-61q-10 0 -10 9v216h-384v-216q0 -9 -10 -9h-60q-10 0 -10 9v388q0 136 85 218q72 75 187 75t188 -75q84 -83 84 -218zM269 969h50q7 0 13 -10l90 -167
q1 -2 2 -5t1 -5.5t-2 -4.5t-6 -2h-37q-9 0 -14 9l-104 169q-9 16 7 16z" />
    <glyph glyph-name="Agrave.3" unicode="&#xe013;" horiz-adv-x="640" 
d="M322 620q-57 0 -112 -18.5t-91 -40.5q-10 -7 -14 2l-23 49q-4 7 4 12q101 66 242 66q127 0 186 -72q53 -64 53 -187v-422q0 -9 -10 -9h-55q-9 0 -9 9v33h-5q-81 -52 -201 -52q-88 0 -152 39q-82 53 -82 149q0 111 102 168q98 53 332 66v19q0 95 -39 140q-40 49 -126 49z
M139 182q0 -69 60 -101q47 -24 115 -24q99 0 173 50v242q-184 -10 -260 -45q-88 -39 -88 -122zM247 969h50q7 0 13 -10l90 -167q1 -2 2 -5t1 -5.5t-2 -4.5t-6 -2h-37q-9 0 -14 9l-104 169q-9 16 7 16z" />
    <glyph glyph-name="Agrave.calt" unicode="&#xe014;" horiz-adv-x="626" 
d="M150 168l-62 -158q-3 -10 -15 -10h-60q-8 0 -8 7q0 5 2 9l259 657q4 11 15 11h64q11 0 15 -11l258 -657q3 -6 3 -9q0 -7 -10 -7h-61q-12 0 -15 10l-62 158h-323zM453 233l-141 354l-141 -354h282zM229 969h50q7 0 13 -10l90 -167q1 -2 2 -5t1 -5.5t-2 -4.5t-6 -2h-37
q-9 0 -14 9l-104 169q-9 16 7 16z" />
    <glyph glyph-name="Amacron.2" unicode="&#xe015;" horiz-adv-x="691" 
d="M345 616q-82 0 -138 -59q-54 -62 -54 -163v-98h384v98q0 103 -54 163q-54 59 -138 59zM617 397v-388q0 -9 -9 -9h-61q-10 0 -10 9v216h-384v-216q0 -9 -10 -9h-60q-10 0 -10 9v388q0 136 85 218q72 75 187 75t188 -75q84 -83 84 -218zM227 910h236q10 0 10 -9v-42
q0 -9 -10 -9h-236q-10 0 -10 9v42q0 9 10 9z" />
    <glyph glyph-name="Amacron.3" unicode="&#xe016;" horiz-adv-x="640" 
d="M322 620q-57 0 -112 -18.5t-91 -40.5q-10 -7 -14 2l-23 49q-4 7 4 12q101 66 242 66q127 0 186 -72q53 -64 53 -187v-422q0 -9 -10 -9h-55q-9 0 -9 9v33h-5q-81 -52 -201 -52q-88 0 -152 39q-82 53 -82 149q0 111 102 168q98 53 332 66v19q0 95 -39 140q-40 49 -126 49z
M139 182q0 -69 60 -101q47 -24 115 -24q99 0 173 50v242q-184 -10 -260 -45q-88 -39 -88 -122zM207 910h236q10 0 10 -9v-42q0 -9 -10 -9h-236q-10 0 -10 9v42q0 9 10 9z" />
    <glyph glyph-name="Amacron.calt" unicode="&#xe017;" horiz-adv-x="626" 
d="M150 168l-62 -158q-3 -10 -15 -10h-60q-8 0 -8 7q0 5 2 9l259 657q4 11 15 11h64q11 0 15 -11l258 -657q3 -6 3 -9q0 -7 -10 -7h-61q-12 0 -15 10l-62 158h-323zM453 233l-141 354l-141 -354h282zM194 910h236q10 0 10 -9v-42q0 -9 -10 -9h-236q-10 0 -10 9v42q0 9 10 9z
" />
    <glyph glyph-name="Aogonek.2" unicode="&#xe018;" horiz-adv-x="691" 
d="M452 -114q0 35 25 66.5t61 52.5q-1 1 -1 4v216h-384v-216q0 -9 -10 -9h-60q-10 0 -10 9v388q0 136 85 218q72 75 187 75t188 -75q84 -83 84 -218v-388q0 -9 -9 -9h-31q-71 -45 -71 -94q0 -40 45 -40q17 0 33 4.5t19 4.5q6 0 6 -7v-29q0 -7 -6 -10q-29 -13 -66 -13t-61 17
t-24 53zM345 616q-82 0 -138 -59q-54 -62 -54 -163v-98h384v98q0 103 -54 163q-54 59 -138 59z" />
    <glyph glyph-name="Aogonek.3" unicode="&#xe019;" horiz-adv-x="640" 
d="M404 -114q0 35 26 67.5t63 53.5v2v33h-5q-81 -52 -201 -52q-88 0 -152 39q-82 53 -82 149q0 111 102 168q98 53 332 66v19q0 95 -39 140q-40 49 -126 49q-57 0 -112 -18.5t-91 -40.5q-10 -7 -14 2l-23 49q-4 7 4 12q101 66 242 66q127 0 186 -72q53 -64 53 -187v-422
q0 -9 -10 -9h-28q-71 -45 -71 -94q0 -40 45 -40q17 0 33 4.5t19 4.5q6 0 6 -7v-29q0 -7 -6 -10q-29 -13 -66 -13t-61 17t-24 53zM139 182q0 -69 60 -101q47 -24 115 -24q99 0 173 50v242q-184 -10 -260 -45q-88 -39 -88 -122z" />
    <glyph glyph-name="Aogonek.calt" unicode="&#xe01a;" horiz-adv-x="626" 
d="M451 -114q0 35 25 66.5t61 52.5q-2 2 -2 5l-62 158h-323l-62 -158q-3 -10 -15 -10h-60q-8 0 -8 7q0 5 2 9l259 657q4 11 15 11h64q11 0 15 -11l258 -657q3 -6 3 -9q0 -7 -10 -7h-35q-71 -45 -71 -94q0 -40 45 -40q17 0 33 4.5t19 4.5q6 0 6 -7v-29q0 -7 -6 -10
q-29 -13 -66 -13t-61 17t-24 53zM453 233l-141 354l-141 -354h282z" />
    <glyph glyph-name="Aring.2" unicode="&#xe01b;" horiz-adv-x="691" 
d="M345 616q-82 0 -138 -59q-54 -62 -54 -163v-98h384v98q0 103 -54 163q-54 59 -138 59zM617 397v-388q0 -9 -9 -9h-61q-10 0 -10 9v216h-384v-216q0 -9 -10 -9h-60q-10 0 -10 9v388q0 136 85 218q72 75 187 75t188 -75q84 -83 84 -218zM460 862q0 -48 -34 -82t-81 -34
q-48 0 -82 33.5t-34 82.5q0 48 34 82t82 34q47 0 81 -34t34 -82zM424 862q0 33 -23.5 56.5t-55.5 23.5q-33 0 -56 -23.5t-23 -56.5q0 -34 23 -57.5t56 -23.5q32 0 55.5 23.5t23.5 57.5z" />
    <glyph glyph-name="Aring.3" unicode="&#xe01c;" horiz-adv-x="640" 
d="M322 620q-57 0 -112 -18.5t-91 -40.5q-10 -7 -14 2l-23 49q-4 7 4 12q101 66 242 66q127 0 186 -72q53 -64 53 -187v-422q0 -9 -10 -9h-55q-9 0 -9 9v33h-5q-81 -52 -201 -52q-88 0 -152 39q-82 53 -82 149q0 111 102 168q98 53 332 66v19q0 95 -39 140q-40 49 -126 49z
M139 182q0 -69 60 -101q47 -24 115 -24q99 0 173 50v242q-184 -10 -260 -45q-88 -39 -88 -122zM438 862q0 -48 -34 -82t-81 -34q-48 0 -82 33.5t-34 82.5q0 48 34 82t82 34q47 0 81 -34t34 -82zM402 862q0 33 -23.5 56.5t-55.5 23.5q-33 0 -56 -23.5t-23 -56.5
q0 -34 23 -57.5t56 -23.5q32 0 55.5 23.5t23.5 57.5z" />
    <glyph glyph-name="Aring.calt" unicode="&#xe01d;" horiz-adv-x="626" 
d="M150 168l-62 -158q-3 -10 -15 -10h-60q-8 0 -8 7q0 5 2 9l259 657q4 11 15 11h64q11 0 15 -11l258 -657q3 -6 3 -9q0 -7 -10 -7h-61q-12 0 -15 10l-62 158h-323zM453 233l-141 354l-141 -354h282zM428 862q0 -48 -34 -82t-81 -34q-48 0 -82 33.5t-34 82.5q0 48 34 82
t82 34q47 0 81 -34t34 -82zM392 862q0 33 -23.5 56.5t-55.5 23.5q-33 0 -56 -23.5t-23 -56.5q0 -34 23 -57.5t56 -23.5q32 0 55.5 23.5t23.5 57.5z" />
    <glyph glyph-name="Asmall.2" unicode="&#xe01e;" horiz-adv-x="591" 
d="M295 484q-69 0 -111 -50q-39 -46 -39 -121v-75h300v75q0 76 -38 121q-42 50 -112 50zM519 316v-307q0 -9 -10 -9h-54q-10 0 -10 9v166h-300v-166q0 -9 -9 -9h-54q-10 0 -10 9v307q0 102 60 168q63 68 163 68q101 0 164 -68q60 -66 60 -168z" />
    <glyph glyph-name="Asmall.3" unicode="&#xe01f;" horiz-adv-x="544" 
d="M263 55q75 0 135 37v179q-137 -5 -196 -30q-70 -29 -70 -90q0 -48 41 -74q37 -22 90 -22zM471 341v-332q0 -9 -9 -9h-47q-9 0 -9 9v23h-5q-70 -40 -157 -40q-74 0 -125 35q-62 44 -62 121q0 98 97 142q73 34 244 41v14q0 70 -29 104q-31 38 -95 38q-79 0 -156 -48
q-11 -6 -14 2l-21 44q-3 8 4 13q85 54 193 54q101 0 149 -59q42 -53 42 -152z" />
    <glyph glyph-name="Asmall.calt" unicode="&#xe020;" horiz-adv-x="521" 
d="M134 131l-47 -121q-4 -10 -15 -10h-54q-8 0 -8 7q0 5 2 9l209 519q4 11 15 11h51q12 0 16 -11l206 -519q2 -4 2 -9q0 -7 -9 -7h-52q-12 0 -15 10l-49 121h-252zM368 189l-107 265l-108 -265h215z" />
    <glyph glyph-name="Asmallacute" unicode="&#xe021;" horiz-adv-x="591" 
d="M295 484q-69 0 -111 -50q-39 -46 -39 -121v-64h300v64q0 76 -38 121q-42 50 -112 50zM519 316v-307q0 -9 -10 -9h-54q-10 0 -10 9v178h-300v-178q0 -9 -9 -9h-54q-10 0 -10 9v307q0 102 60 168q63 68 163 68q101 0 164 -68q60 -66 60 -168zM322 826h50q7 0 9 -5.5
t-2 -10.5l-104 -169q-5 -9 -14 -9h-37q-14 0 -5 17l90 167q6 10 13 10z" />
    <glyph glyph-name="Asmallacute.2" unicode="&#xe022;" horiz-adv-x="591" 
d="M295 484q-69 0 -111 -50q-39 -46 -39 -121v-75h300v75q0 76 -38 121q-42 50 -112 50zM519 316v-307q0 -9 -10 -9h-54q-10 0 -10 9v166h-300v-166q0 -9 -9 -9h-54q-10 0 -10 9v307q0 102 60 168q63 68 163 68q101 0 164 -68q60 -66 60 -168zM326 826h50q7 0 9 -5.5
t-2 -10.5l-104 -169q-5 -9 -14 -9h-37q-14 0 -5 17l90 167q6 10 13 10z" />
    <glyph glyph-name="Asmallacute.3" unicode="&#xe023;" horiz-adv-x="544" 
d="M263 55q75 0 135 37v179q-137 -5 -196 -30q-70 -29 -70 -90q0 -48 41 -74q37 -22 90 -22zM471 341v-332q0 -9 -9 -9h-47q-9 0 -9 9v23h-5q-70 -40 -157 -40q-74 0 -125 35q-62 44 -62 121q0 98 97 142q73 34 244 41v14q0 70 -29 104q-31 38 -95 38q-79 0 -156 -48
q-11 -6 -14 2l-21 44q-3 8 4 13q85 54 193 54q101 0 149 -59q42 -53 42 -152zM304 826h50q7 0 9 -5.5t-2 -10.5l-104 -169q-5 -9 -14 -9h-37q-14 0 -5 17l90 167q6 10 13 10z" />
    <glyph glyph-name="Asmallacute.calt" unicode="&#xe024;" horiz-adv-x="521" 
d="M134 131l-47 -121q-4 -10 -15 -10h-54q-8 0 -8 7q0 5 2 9l209 519q4 11 15 11h51q12 0 16 -11l206 -519q2 -4 2 -9q0 -7 -9 -7h-52q-12 0 -15 10l-49 121h-252zM368 189l-107 265l-108 -265h215zM284 826h50q7 0 9 -5.5t-2 -10.5l-104 -169q-5 -9 -14 -9h-37q-14 0 -5 17
l90 167q6 10 13 10z" />
    <glyph glyph-name="Asmallbreve" unicode="&#xe025;" horiz-adv-x="591" 
d="M295 484q-69 0 -111 -50q-39 -46 -39 -121v-64h300v64q0 76 -38 121q-42 50 -112 50zM519 316v-307q0 -9 -10 -9h-54q-10 0 -10 9v178h-300v-178q0 -9 -9 -9h-54q-10 0 -10 9v307q0 102 60 168q63 68 163 68q101 0 164 -68q60 -66 60 -168zM294 700q74 0 81 72
q1 10 11 10h25q12 0 12 -10q0 -54 -34.5 -90t-94.5 -36t-95 36t-35 90q0 10 12 10h26q10 0 11 -10q2 -33 23 -52.5t58 -19.5z" />
    <glyph glyph-name="Asmallbreve.2" unicode="&#xe026;" horiz-adv-x="591" 
d="M295 484q-69 0 -111 -50q-39 -46 -39 -121v-75h300v75q0 76 -38 121q-42 50 -112 50zM519 316v-307q0 -9 -10 -9h-54q-10 0 -10 9v166h-300v-166q0 -9 -9 -9h-54q-10 0 -10 9v307q0 102 60 168q63 68 163 68q101 0 164 -68q60 -66 60 -168zM294 700q74 0 81 72
q1 10 11 10h25q12 0 12 -10q0 -54 -34.5 -90t-94.5 -36t-95 36t-35 90q0 10 12 10h26q10 0 11 -10q2 -33 23 -52.5t58 -19.5z" />
    <glyph glyph-name="Asmallbreve.3" unicode="&#xe027;" horiz-adv-x="544" 
d="M263 55q75 0 135 37v179q-137 -5 -196 -30q-70 -29 -70 -90q0 -48 41 -74q37 -22 90 -22zM471 341v-332q0 -9 -9 -9h-47q-9 0 -9 9v23h-5q-70 -40 -157 -40q-74 0 -125 35q-62 44 -62 121q0 98 97 142q73 34 244 41v14q0 70 -29 104q-31 38 -95 38q-79 0 -156 -48
q-11 -6 -14 2l-21 44q-3 8 4 13q85 54 193 54q101 0 149 -59q42 -53 42 -152zM275 700q74 0 81 72q1 10 11 10h25q12 0 12 -10q0 -54 -34.5 -90t-94.5 -36t-95 36t-35 90q0 10 12 10h26q10 0 11 -10q2 -33 23 -52.5t58 -19.5z" />
    <glyph glyph-name="Asmallbreve.calt" unicode="&#xe028;" horiz-adv-x="521" 
d="M134 131l-47 -121q-4 -10 -15 -10h-54q-8 0 -8 7q0 5 2 9l209 519q4 11 15 11h51q12 0 16 -11l206 -519q2 -4 2 -9q0 -7 -9 -7h-52q-12 0 -15 10l-49 121h-252zM368 189l-107 265l-108 -265h215zM260 700q74 0 81 72q1 10 11 10h25q12 0 12 -10q0 -54 -34.5 -90
t-94.5 -36t-95 36t-35 90q0 10 12 10h26q10 0 11 -10q2 -33 23 -52.5t58 -19.5z" />
    <glyph glyph-name="Asmallcircumflex" unicode="&#xe029;" horiz-adv-x="591" 
d="M295 484q-69 0 -111 -50q-39 -46 -39 -121v-64h300v64q0 76 -38 121q-42 50 -112 50zM519 316v-307q0 -9 -10 -9h-54q-10 0 -10 9v178h-300v-178q0 -9 -9 -9h-54q-10 0 -10 9v307q0 102 60 168q63 68 163 68q101 0 164 -68q60 -66 60 -168zM282 826h26q6 0 14 -8
l155 -173q3 -3 3.5 -6t-1.5 -5t-6 -2h-46q-9 0 -17 8l-115 126l-115 -126q-8 -8 -17 -8h-46q-4 0 -6 2t-1.5 5t3.5 6l155 173q8 8 14 8z" />
    <glyph glyph-name="Asmallcircumflex.2" unicode="&#xe02a;" horiz-adv-x="591" 
d="M295 484q-69 0 -111 -50q-39 -46 -39 -121v-75h300v75q0 76 -38 121q-42 50 -112 50zM519 316v-307q0 -9 -10 -9h-54q-10 0 -10 9v166h-300v-166q0 -9 -9 -9h-54q-10 0 -10 9v307q0 102 60 168q63 68 163 68q101 0 164 -68q60 -66 60 -168zM282 826h26q6 0 14 -8
l155 -173q3 -3 3.5 -6t-1.5 -5t-6 -2h-46q-9 0 -17 8l-115 126l-115 -126q-8 -8 -17 -8h-46q-4 0 -6 2t-1.5 5t3.5 6l155 173q8 8 14 8z" />
    <glyph glyph-name="Asmallcircumflex.3" unicode="&#xe02b;" horiz-adv-x="544" 
d="M263 55q75 0 135 37v179q-137 -5 -196 -30q-70 -29 -70 -90q0 -48 41 -74q37 -22 90 -22zM471 341v-332q0 -9 -9 -9h-47q-9 0 -9 9v23h-5q-70 -40 -157 -40q-74 0 -125 35q-62 44 -62 121q0 98 97 142q73 34 244 41v14q0 70 -29 104q-31 38 -95 38q-79 0 -156 -48
q-11 -6 -14 2l-21 44q-3 8 4 13q85 54 193 54q101 0 149 -59q42 -53 42 -152zM256 826h26q6 0 14 -8l155 -173q3 -3 3.5 -6t-1.5 -5t-6 -2h-46q-9 0 -17 8l-115 126l-115 -126q-8 -8 -17 -8h-46q-4 0 -6 2t-1.5 5t3.5 6l155 173q8 8 14 8z" />
    <glyph glyph-name="Asmallcircumflex.calt" unicode="&#xe02c;" horiz-adv-x="521" 
d="M134 131l-47 -121q-4 -10 -15 -10h-54q-8 0 -8 7q0 5 2 9l209 519q4 11 15 11h51q12 0 16 -11l206 -519q2 -4 2 -9q0 -7 -9 -7h-52q-12 0 -15 10l-49 121h-252zM368 189l-107 265l-108 -265h215zM247 826h26q6 0 14 -8l155 -173q3 -3 3.5 -6t-1.5 -5t-6 -2h-46
q-9 0 -17 8l-115 126l-115 -126q-8 -8 -17 -8h-46q-4 0 -6 2t-1.5 5t3.5 6l155 173q8 8 14 8z" />
    <glyph glyph-name="Asmalldieresis" unicode="&#xe02d;" horiz-adv-x="591" 
d="M295 484q-69 0 -111 -50q-39 -46 -39 -121v-64h300v64q0 76 -38 121q-42 50 -112 50zM519 316v-307q0 -9 -10 -9h-54q-10 0 -10 9v178h-300v-178q0 -9 -9 -9h-54q-10 0 -10 9v307q0 102 60 168q63 68 163 68q101 0 164 -68q60 -66 60 -168zM201 683q-18 0 -31 13t-13 31
t13 31t31 13q19 0 31.5 -13t12.5 -31t-12.5 -31t-31.5 -13zM389 683q-18 0 -31 13t-13 31t13 31t31 13t31 -13t13 -31t-13 -31t-31 -13z" />
    <glyph glyph-name="Asmalldieresis.2" unicode="&#xe02e;" horiz-adv-x="591" 
d="M295 484q-69 0 -111 -50q-39 -46 -39 -121v-75h300v75q0 76 -38 121q-42 50 -112 50zM519 316v-307q0 -9 -10 -9h-54q-10 0 -10 9v166h-300v-166q0 -9 -9 -9h-54q-10 0 -10 9v307q0 102 60 168q63 68 163 68q101 0 164 -68q60 -66 60 -168zM201 683q-18 0 -31 13t-13 31
t13 31t31 13q19 0 31.5 -13t12.5 -31t-12.5 -31t-31.5 -13zM389 683q-18 0 -31 13t-13 31t13 31t31 13t31 -13t13 -31t-13 -31t-31 -13z" />
    <glyph glyph-name="Asmalldieresis.3" unicode="&#xe02f;" horiz-adv-x="544" 
d="M263 55q75 0 135 37v179q-137 -5 -196 -30q-70 -29 -70 -90q0 -48 41 -74q37 -22 90 -22zM471 341v-332q0 -9 -9 -9h-47q-9 0 -9 9v23h-5q-70 -40 -157 -40q-74 0 -125 35q-62 44 -62 121q0 98 97 142q73 34 244 41v14q0 70 -29 104q-31 38 -95 38q-79 0 -156 -48
q-11 -6 -14 2l-21 44q-3 8 4 13q85 54 193 54q101 0 149 -59q42 -53 42 -152zM176 683q-18 0 -31 13t-13 31t13 31t31 13q19 0 31.5 -13t12.5 -31t-12.5 -31t-31.5 -13zM364 683q-18 0 -31 13t-13 31t13 31t31 13t31 -13t13 -31t-13 -31t-31 -13z" />
    <glyph glyph-name="Asmalldieresis.calt" unicode="&#xe030;" horiz-adv-x="521" 
d="M134 131l-47 -121q-4 -10 -15 -10h-54q-8 0 -8 7q0 5 2 9l209 519q4 11 15 11h51q12 0 16 -11l206 -519q2 -4 2 -9q0 -7 -9 -7h-52q-12 0 -15 10l-49 121h-252zM368 189l-107 265l-108 -265h215zM167 683q-18 0 -31 13t-13 31t13 31t31 13q19 0 31.5 -13t12.5 -31
t-12.5 -31t-31.5 -13zM355 683q-18 0 -31 13t-13 31t13 31t31 13t31 -13t13 -31t-13 -31t-31 -13z" />
    <glyph glyph-name="Asmallgrave" unicode="&#xe031;" horiz-adv-x="591" 
d="M295 484q-69 0 -111 -50q-39 -46 -39 -121v-64h300v64q0 76 -38 121q-42 50 -112 50zM519 316v-307q0 -9 -10 -9h-54q-10 0 -10 9v178h-300v-178q0 -9 -9 -9h-54q-10 0 -10 9v307q0 102 60 168q63 68 163 68q101 0 164 -68q60 -66 60 -168zM218 826h50q7 0 13 -10
l90 -167q1 -2 2 -5t1 -5.5t-2 -4.5t-6 -2h-37q-9 0 -14 9l-104 169q-9 16 7 16z" />
    <glyph glyph-name="Asmallgrave.2" unicode="&#xe032;" horiz-adv-x="591" 
d="M295 484q-69 0 -111 -50q-39 -46 -39 -121v-75h300v75q0 76 -38 121q-42 50 -112 50zM519 316v-307q0 -9 -10 -9h-54q-10 0 -10 9v166h-300v-166q0 -9 -9 -9h-54q-10 0 -10 9v307q0 102 60 168q63 68 163 68q101 0 164 -68q60 -66 60 -168zM220 826h50q7 0 13 -10
l90 -167q1 -2 2 -5t1 -5.5t-2 -4.5t-6 -2h-37q-9 0 -14 9l-104 169q-9 16 7 16z" />
    <glyph glyph-name="Asmallgrave.3" unicode="&#xe033;" horiz-adv-x="544" 
d="M263 55q75 0 135 37v179q-137 -5 -196 -30q-70 -29 -70 -90q0 -48 41 -74q37 -22 90 -22zM471 341v-332q0 -9 -9 -9h-47q-9 0 -9 9v23h-5q-70 -40 -157 -40q-74 0 -125 35q-62 44 -62 121q0 98 97 142q73 34 244 41v14q0 70 -29 104q-31 38 -95 38q-79 0 -156 -48
q-11 -6 -14 2l-21 44q-3 8 4 13q85 54 193 54q101 0 149 -59q42 -53 42 -152zM202 826h50q7 0 13 -10l90 -167q1 -2 2 -5t1 -5.5t-2 -4.5t-6 -2h-37q-9 0 -14 9l-104 169q-9 16 7 16z" />
    <glyph glyph-name="Asmallgrave.calt" unicode="&#xe034;" horiz-adv-x="521" 
d="M134 131l-47 -121q-4 -10 -15 -10h-54q-8 0 -8 7q0 5 2 9l209 519q4 11 15 11h51q12 0 16 -11l206 -519q2 -4 2 -9q0 -7 -9 -7h-52q-12 0 -15 10l-49 121h-252zM368 189l-107 265l-108 -265h215zM184 826h50q7 0 13 -10l90 -167q1 -2 2 -5t1 -5.5t-2 -4.5t-6 -2h-37
q-9 0 -14 9l-104 169q-9 16 7 16z" />
    <glyph glyph-name="Asmallmacron" unicode="&#xe035;" horiz-adv-x="591" 
d="M295 484q-69 0 -111 -50q-39 -46 -39 -121v-64h300v64q0 76 -38 121q-42 50 -112 50zM519 316v-307q0 -9 -10 -9h-54q-10 0 -10 9v178h-300v-178q0 -9 -9 -9h-54q-10 0 -10 9v307q0 102 60 168q63 68 163 68q101 0 164 -68q60 -66 60 -168zM177 747h236q10 0 10 -9v-42
q0 -9 -10 -9h-236q-10 0 -10 9v42q0 9 10 9z" />
    <glyph glyph-name="Asmallmacron.2" unicode="&#xe036;" horiz-adv-x="591" 
d="M295 484q-69 0 -111 -50q-39 -46 -39 -121v-75h300v75q0 76 -38 121q-42 50 -112 50zM519 316v-307q0 -9 -10 -9h-54q-10 0 -10 9v166h-300v-166q0 -9 -9 -9h-54q-10 0 -10 9v307q0 102 60 168q63 68 163 68q101 0 164 -68q60 -66 60 -168zM177 747h236q10 0 10 -9v-42
q0 -9 -10 -9h-236q-10 0 -10 9v42q0 9 10 9z" />
    <glyph glyph-name="Asmallmacron.3" unicode="&#xe037;" horiz-adv-x="544" 
d="M263 55q75 0 135 37v179q-137 -5 -196 -30q-70 -29 -70 -90q0 -48 41 -74q37 -22 90 -22zM471 341v-332q0 -9 -9 -9h-47q-9 0 -9 9v23h-5q-70 -40 -157 -40q-74 0 -125 35q-62 44 -62 121q0 98 97 142q73 34 244 41v14q0 70 -29 104q-31 38 -95 38q-79 0 -156 -48
q-11 -6 -14 2l-21 44q-3 8 4 13q85 54 193 54q101 0 149 -59q42 -53 42 -152zM156 747h236q10 0 10 -9v-42q0 -9 -10 -9h-236q-10 0 -10 9v42q0 9 10 9z" />
    <glyph glyph-name="Asmallmacron.calt" unicode="&#xe038;" horiz-adv-x="521" 
d="M134 131l-47 -121q-4 -10 -15 -10h-54q-8 0 -8 7q0 5 2 9l209 519q4 11 15 11h51q12 0 16 -11l206 -519q2 -4 2 -9q0 -7 -9 -7h-52q-12 0 -15 10l-49 121h-252zM368 189l-107 265l-108 -265h215zM142 747h236q10 0 10 -9v-42q0 -9 -10 -9h-236q-10 0 -10 9v42q0 9 10 9z
" />
    <glyph glyph-name="Asmallogonek" unicode="&#xe039;" horiz-adv-x="591" 
d="M357 -114q0 35 25.5 67t62.5 54v2v178h-300v-178q0 -9 -9 -9h-54q-10 0 -10 9v307q0 102 60 168q63 68 163 68q101 0 164 -68q60 -66 60 -168v-307q0 -9 -10 -9h-27q-71 -45 -71 -94q0 -40 45 -40q17 0 33 4.5t19 4.5q6 0 6 -7v-29q0 -7 -6 -10q-29 -13 -66 -13t-61 17
t-24 53zM295 484q-69 0 -111 -50q-39 -46 -39 -121v-64h300v64q0 76 -38 121q-42 50 -112 50z" />
    <glyph glyph-name="Asmallogonek.2" unicode="&#xe03a;" horiz-adv-x="591" 
d="M357 -114q0 35 25.5 67t62.5 54v2v166h-300v-166q0 -9 -9 -9h-54q-10 0 -10 9v307q0 102 60 168q63 68 163 68q101 0 164 -68q60 -66 60 -168v-307q0 -9 -10 -9h-27q-71 -45 -71 -94q0 -40 45 -40q17 0 33 4.5t19 4.5q6 0 6 -7v-29q0 -7 -6 -10q-29 -13 -66 -13t-61 17
t-24 53zM295 484q-69 0 -111 -50q-39 -46 -39 -121v-75h300v75q0 76 -38 121q-42 50 -112 50z" />
    <glyph glyph-name="Asmallogonek.3" unicode="&#xe03b;" horiz-adv-x="544" 
d="M315 -114q0 36 26.5 68.5t64.5 53.5v1v23h-5q-70 -40 -157 -40q-74 0 -125 35q-62 44 -62 121q0 98 97 142q73 34 244 41v14q0 70 -29 104q-31 38 -95 38q-79 0 -156 -48q-11 -6 -14 2l-21 44q-3 8 4 13q85 54 193 54q101 0 149 -59q42 -53 42 -152v-332q0 -9 -9 -9h-22
q-71 -45 -71 -94q0 -40 45 -40q17 0 33 4.5t19 4.5q6 0 6 -7v-29q0 -7 -6 -10q-29 -13 -66 -13t-61 17t-24 53zM263 55q75 0 135 37v179q-137 -5 -196 -30q-70 -29 -70 -90q0 -48 41 -74q37 -22 90 -22z" />
    <glyph glyph-name="Asmallogonek.calt" unicode="&#xe03c;" horiz-adv-x="521" 
d="M350 -114q0 35 25 66.5t61 53.5v2q-1 1 -1 2l-49 121h-252l-47 -121q-4 -10 -15 -10h-54q-8 0 -8 7q0 5 2 9l209 519q4 11 15 11h51q12 0 16 -11l206 -519q2 -4 2 -9q0 -7 -9 -7h-27q-71 -45 -71 -94q0 -40 45 -40q17 0 33 4.5t19 4.5q6 0 6 -7v-29q0 -7 -6 -10
q-29 -13 -66 -13t-61 17t-24 53zM368 189l-107 265l-108 -265h215z" />
    <glyph glyph-name="Asmallring" unicode="&#xe03d;" horiz-adv-x="591" 
d="M295 484q-69 0 -111 -50q-39 -46 -39 -121v-64h300v64q0 76 -38 121q-42 50 -112 50zM519 316v-307q0 -9 -10 -9h-54q-10 0 -10 9v178h-300v-178q0 -9 -9 -9h-54q-10 0 -10 9v307q0 102 60 168q63 68 163 68q101 0 164 -68q60 -66 60 -168zM411 722q0 -48 -33.5 -82
t-81.5 -34t-82 33.5t-34 82.5q0 48 34 82t82 34q47 0 81 -34t34 -82zM375 722q0 33 -23.5 56.5t-55.5 23.5q-33 0 -56 -23.5t-23 -56.5q0 -34 23 -57.5t56 -23.5q32 0 55.5 23.5t23.5 57.5z" />
    <glyph glyph-name="Asmallring.2" unicode="&#xe03e;" horiz-adv-x="591" 
d="M295 484q-69 0 -111 -50q-39 -46 -39 -121v-75h300v75q0 76 -38 121q-42 50 -112 50zM519 316v-307q0 -9 -10 -9h-54q-10 0 -10 9v166h-300v-166q0 -9 -9 -9h-54q-10 0 -10 9v307q0 102 60 168q63 68 163 68q101 0 164 -68q60 -66 60 -168zM411 722q0 -48 -33.5 -82
t-81.5 -34t-82 33.5t-34 82.5q0 48 34 82t82 34q47 0 81 -34t34 -82zM375 722q0 33 -23.5 56.5t-55.5 23.5q-33 0 -56 -23.5t-23 -56.5q0 -34 23 -57.5t56 -23.5q32 0 55.5 23.5t23.5 57.5z" />
    <glyph glyph-name="Asmallring.3" unicode="&#xe03f;" horiz-adv-x="544" 
d="M263 55q75 0 135 37v179q-137 -5 -196 -30q-70 -29 -70 -90q0 -48 41 -74q37 -22 90 -22zM471 341v-332q0 -9 -9 -9h-47q-9 0 -9 9v23h-5q-70 -40 -157 -40q-74 0 -125 35q-62 44 -62 121q0 98 97 142q73 34 244 41v14q0 70 -29 104q-31 38 -95 38q-79 0 -156 -48
q-11 -6 -14 2l-21 44q-3 8 4 13q85 54 193 54q101 0 149 -59q42 -53 42 -152zM389 722q0 -48 -33.5 -82t-81.5 -34t-82 33.5t-34 82.5q0 48 34 82t82 34q47 0 81 -34t34 -82zM353 722q0 33 -23.5 56.5t-55.5 23.5q-33 0 -56 -23.5t-23 -56.5q0 -34 23 -57.5t56 -23.5
q32 0 55.5 23.5t23.5 57.5z" />
    <glyph glyph-name="Asmallring.calt" unicode="&#xe040;" horiz-adv-x="521" 
d="M134 131l-47 -121q-4 -10 -15 -10h-54q-8 0 -8 7q0 5 2 9l209 519q4 11 15 11h51q12 0 16 -11l206 -519q2 -4 2 -9q0 -7 -9 -7h-52q-12 0 -15 10l-49 121h-252zM368 189l-107 265l-108 -265h215zM376 722q0 -48 -34 -82t-81 -34q-48 0 -82 33.5t-34 82.5q0 48 34 82
t82 34q47 0 81 -34t34 -82zM340 722q0 33 -23.5 56.5t-55.5 23.5q-33 0 -56 -23.5t-23 -56.5q0 -34 23 -57.5t56 -23.5q32 0 55.5 23.5t23.5 57.5z" />
    <glyph glyph-name="Asmalltilde" unicode="&#xe041;" horiz-adv-x="591" 
d="M295 484q-69 0 -111 -50q-39 -46 -39 -121v-64h300v64q0 76 -38 121q-42 50 -112 50zM519 316v-307q0 -9 -10 -9h-54q-10 0 -10 9v178h-300v-178q0 -9 -9 -9h-54q-10 0 -10 9v307q0 102 60 168q63 68 163 68q101 0 164 -68q60 -66 60 -168zM362 726q41 0 45 38
q1 10 10 10h23q12 0 12 -10q0 -41 -22 -66t-62 -25q-33 0 -76 29q-40 26 -62 26q-41 0 -45 -39q-3 -10 -10 -10h-23q-12 0 -12 11q0 41 22 66t62 25q36 0 77 -29q42 -26 61 -26z" />
    <glyph glyph-name="Asmalltilde.2" unicode="&#xe042;" horiz-adv-x="591" 
d="M295 484q-69 0 -111 -50q-39 -46 -39 -121v-75h300v75q0 76 -38 121q-42 50 -112 50zM519 316v-307q0 -9 -10 -9h-54q-10 0 -10 9v166h-300v-166q0 -9 -9 -9h-54q-10 0 -10 9v307q0 102 60 168q63 68 163 68q101 0 164 -68q60 -66 60 -168zM362 726q41 0 45 38
q1 10 10 10h23q12 0 12 -10q0 -41 -22 -66t-62 -25q-33 0 -76 29q-40 26 -62 26q-41 0 -45 -39q-3 -10 -10 -10h-23q-12 0 -12 11q0 41 22 66t62 25q36 0 77 -29q42 -26 61 -26z" />
    <glyph glyph-name="Asmalltilde.3" unicode="&#xe043;" horiz-adv-x="544" 
d="M263 55q75 0 135 37v179q-137 -5 -196 -30q-70 -29 -70 -90q0 -48 41 -74q37 -22 90 -22zM471 341v-332q0 -9 -9 -9h-47q-9 0 -9 9v23h-5q-70 -40 -157 -40q-74 0 -125 35q-62 44 -62 121q0 98 97 142q73 34 244 41v14q0 70 -29 104q-31 38 -95 38q-79 0 -156 -48
q-11 -6 -14 2l-21 44q-3 8 4 13q85 54 193 54q101 0 149 -59q42 -53 42 -152zM339 726q41 0 45 38q1 10 10 10h23q12 0 12 -10q0 -41 -22 -66t-62 -25q-33 0 -76 29q-40 26 -62 26q-41 0 -45 -39q-3 -10 -10 -10h-23q-12 0 -12 11q0 41 22 66t62 25q36 0 77 -29
q42 -26 61 -26z" />
    <glyph glyph-name="Asmalltilde.calt" unicode="&#xe044;" horiz-adv-x="521" 
d="M134 131l-47 -121q-4 -10 -15 -10h-54q-8 0 -8 7q0 5 2 9l209 519q4 11 15 11h51q12 0 16 -11l206 -519q2 -4 2 -9q0 -7 -9 -7h-52q-12 0 -15 10l-49 121h-252zM368 189l-107 265l-108 -265h215zM327 726q41 0 45 38q1 10 10 10h23q12 0 12 -10q0 -41 -22 -66t-62 -25
q-33 0 -76 29q-40 26 -62 26q-41 0 -45 -39q-3 -10 -10 -10h-23q-12 0 -12 11q0 41 22 66t62 25q36 0 77 -29q42 -26 61 -26z" />
    <glyph glyph-name="Atilde.2" unicode="&#xe045;" horiz-adv-x="691" 
d="M345 616q-82 0 -138 -59q-54 -62 -54 -163v-98h384v98q0 103 -54 163q-54 59 -138 59zM617 397v-388q0 -9 -9 -9h-61q-10 0 -10 9v216h-384v-216q0 -9 -10 -9h-60q-10 0 -10 9v388q0 136 85 218q72 75 187 75t188 -75q84 -83 84 -218zM411 892q41 0 45 38q1 10 10 10h23
q12 0 12 -10q0 -41 -22 -66t-62 -25q-33 0 -76 29q-40 26 -62 26q-41 0 -45 -39q-3 -10 -10 -10h-23q-12 0 -12 11q0 41 22 66t62 25q36 0 77 -29q42 -26 61 -26z" />
    <glyph glyph-name="Atilde.3" unicode="&#xe046;" horiz-adv-x="640" 
d="M322 620q-57 0 -112 -18.5t-91 -40.5q-10 -7 -14 2l-23 49q-4 7 4 12q101 66 242 66q127 0 186 -72q53 -64 53 -187v-422q0 -9 -10 -9h-55q-9 0 -9 9v33h-5q-81 -52 -201 -52q-88 0 -152 39q-82 53 -82 149q0 111 102 168q98 53 332 66v19q0 95 -39 140q-40 49 -126 49z
M139 182q0 -69 60 -101q47 -24 115 -24q99 0 173 50v242q-184 -10 -260 -45q-88 -39 -88 -122zM383 892q41 0 45 38q1 10 10 10h23q12 0 12 -10q0 -41 -22 -66t-62 -25q-33 0 -76 29q-40 26 -62 26q-41 0 -45 -39q-3 -10 -10 -10h-23q-12 0 -12 11q0 41 22 66t62 25
q36 0 77 -29q42 -26 61 -26z" />
    <glyph glyph-name="Atilde.calt" unicode="&#xe047;" horiz-adv-x="626" 
d="M150 168l-62 -158q-3 -10 -15 -10h-60q-8 0 -8 7q0 5 2 9l259 657q4 11 15 11h64q11 0 15 -11l258 -657q3 -6 3 -9q0 -7 -10 -7h-61q-12 0 -15 10l-62 158h-323zM453 233l-141 354l-141 -354h282zM379 892q41 0 45 38q1 10 10 10h23q12 0 12 -10q0 -41 -22 -66t-62 -25
q-33 0 -76 29q-40 26 -62 26q-41 0 -45 -39q-3 -10 -10 -10h-23q-12 0 -12 11q0 41 22 66t62 25q36 0 77 -29q42 -26 61 -26z" />
    <glyph glyph-name="B.2" unicode="&#xe048;" horiz-adv-x="671" 
d="M622 182q0 -90 -65.5 -136t-159.5 -46h-313q-9 0 -9 9v662q0 10 9 10h260q93 0 149 -37q73 -48 73 -136q0 -110 -91 -150v-4q71 -12 109 -57.5t38 -114.5zM486 496q0 66 -53 98q-37 22 -86 22h-192v-238h182q64 0 93 15q56 31 56 103zM541 191q0 71 -60 103
q-34 20 -129 20h-197v-249h226q53 0 87 15q73 31 73 111z" />
    <glyph glyph-name="Bsmall.2" unicode="&#xe049;" horiz-adv-x="563" 
d="M341 0h-259q-10 0 -10 9v525q0 10 10 10h215q76 0 121 -30q58 -38 58 -109q0 -87 -73 -119v-4q57 -9 87.5 -45t30.5 -91q0 -73 -52 -109.5t-128 -36.5zM404 392q0 51 -42 75q-29 16 -69 16h-148v-178h139q54 0 74 10q46 24 46 77zM447 156q0 54 -48 79q-28 15 -104 15
h-150v-190h173q43 0 71 12q58 22 58 84z" />
    <glyph glyph-name="C.2" unicode="&#xe04a;" horiz-adv-x="701" 
d="M662 541q0 -40 -26 -66.5t-76 -32.5q-11 0 -13 6l-19 36q-3 10 8 12q46 8 46 42q0 28 -31 49q-47 32 -133 32q-139 0 -220 -94q-68 -74 -68 -184q0 -123 78 -201t207 -78q109 0 201 55q11 5 15 -4l23 -50q5 -8 -4 -13q-102 -60 -232 -60q-172 0 -273 99q-98 96 -98 252
q0 136 89 233q50 55 123 85.5t158 30.5q130 0 199 -56q46 -38 46 -93z" />
    <glyph glyph-name="Cacute.2" unicode="&#xe04b;" horiz-adv-x="701" 
d="M662 541q0 -40 -26 -66.5t-76 -32.5q-11 0 -13 6l-19 36q-3 10 8 12q46 8 46 42q0 28 -31 49q-47 32 -133 32q-139 0 -220 -94q-68 -74 -68 -184q0 -123 78 -201t207 -78q109 0 201 55q11 5 15 -4l23 -50q5 -8 -4 -13q-102 -60 -232 -60q-172 0 -273 99q-98 96 -98 252
q0 136 89 233q50 55 123 85.5t158 30.5q130 0 199 -56q46 -38 46 -93zM433 969h50q7 0 9 -5.5t-2 -10.5l-104 -169q-5 -9 -14 -9h-37q-13 0 -5 17l90 167q6 10 13 10z" />
    <glyph glyph-name="Ccaron.2" unicode="&#xe04c;" horiz-adv-x="701" 
d="M662 541q0 -40 -26 -66.5t-76 -32.5q-11 0 -13 6l-19 36q-3 10 8 12q46 8 46 42q0 28 -31 49q-47 32 -133 32q-139 0 -220 -94q-68 -74 -68 -184q0 -123 78 -201t207 -78q109 0 201 55q11 5 15 -4l23 -50q5 -8 -4 -13q-102 -60 -232 -60q-172 0 -273 99q-98 96 -98 252
q0 136 89 233q50 55 123 85.5t158 30.5q130 0 199 -56q46 -38 46 -93zM417 774h-26q-7 0 -14 7l-155 173q-5 4 -3.5 9t7.5 5h46q8 0 17 -10l115 -125l115 125q9 10 17 10h46q6 0 7.5 -5t-3.5 -9l-155 -173q-7 -7 -14 -7z" />
    <glyph glyph-name="Ccedilla.2" unicode="&#xe04d;" horiz-adv-x="701" 
d="M523 -110q0 -47 -38 -67.5t-87 -20.5q-22 0 -38 3q-8 2 -8 9v22q0 8 8 8q3 0 14 -1t22 -1q31 0 53.5 12t22.5 38q0 21 -18 31.5t-45 10.5q-11 0 -21 -1l5 58q-156 6 -248 98q-98 96 -98 252q0 136 89 233q50 55 123 85.5t158 30.5q130 0 199 -56q46 -38 46 -93
q0 -40 -26 -66.5t-76 -32.5q-11 0 -13 6l-19 36q-3 10 8 12q46 8 46 42q0 28 -31 49q-47 32 -133 32q-139 0 -220 -94q-68 -74 -68 -184q0 -123 78 -201t207 -78q109 0 201 55q11 5 15 -4l23 -50q5 -8 -4 -13q-95 -56 -216 -60v-25q39 -3 64 -22.5t25 -52.5z" />
    <glyph glyph-name="Csmall.2" unicode="&#xe04e;" horiz-adv-x="548" 
d="M338 485q-104 0 -169 -78q-48 -57 -48 -134q0 -93 61 -152q63 -61 156 -61q88 0 153 42q10 6 13 -3l22 -45q3 -8 -4 -14q-79 -48 -183 -48q-128 0 -211 77q-83 78 -83 204q0 102 67 179q89 100 224 100q98 0 150 -45q40 -34 40 -82q0 -36 -22 -59t-65 -28q-9 0 -13 6
l-14 26q-3 8 8 12q39 5 39 37q0 22 -23 40q-33 26 -98 26z" />
    <glyph glyph-name="Csmallacute" unicode="&#xe04f;" horiz-adv-x="531" 
d="M332 60q77 0 143 40q8 6 13 -3l21 -44q5 -9 -4 -13q-74 -48 -176 -48q-121 0 -202 78q-82 79 -82 203q0 101 68 179q40 47 97 73.5t120 26.5q99 0 170 -45q9 -4 5 -14l-22 -44q-4 -9 -13 -3q-64 39 -137 39q-102 0 -165 -79q-47 -60 -47 -133q0 -90 60 -152
q59 -61 151 -61zM329 826h50q7 0 9 -5.5t-2 -10.5l-104 -169q-5 -9 -14 -9h-37q-13 0 -5 17l90 167q6 10 13 10z" />
    <glyph glyph-name="Csmallacute.2" unicode="&#xe050;" horiz-adv-x="548" 
d="M338 485q-104 0 -169 -78q-48 -57 -48 -134q0 -93 61 -152q63 -61 156 -61q88 0 153 42q10 6 13 -3l22 -45q3 -8 -4 -14q-79 -48 -183 -48q-128 0 -211 77q-83 78 -83 204q0 102 67 179q89 100 224 100q98 0 150 -45q40 -34 40 -82q0 -36 -22 -59t-65 -28q-9 0 -13 6
l-14 26q-3 8 8 12q39 5 39 37q0 22 -23 40q-33 26 -98 26zM352 826h50q7 0 9 -5.5t-2 -10.5l-104 -169q-5 -9 -14 -9h-37q-14 0 -5 17l90 167q6 10 13 10z" />
    <glyph glyph-name="Csmallcaron" unicode="&#xe051;" horiz-adv-x="531" 
d="M332 60q77 0 143 40q8 6 13 -3l21 -44q5 -9 -4 -13q-74 -48 -176 -48q-121 0 -202 78q-82 79 -82 203q0 101 68 179q40 47 97 73.5t120 26.5q99 0 170 -45q9 -4 5 -14l-22 -44q-4 -9 -13 -3q-64 39 -137 39q-102 0 -165 -79q-47 -60 -47 -133q0 -90 60 -152
q59 -61 151 -61zM333 632h-26q-7 0 -14 7l-155 173q-5 4 -3.5 9t7.5 5h46q8 0 17 -10l115 -125l115 125q9 10 17 10h46q6 0 7.5 -5t-3.5 -9l-155 -173q-7 -7 -14 -7z" />
    <glyph glyph-name="Csmallcaron.2" unicode="&#xe052;" horiz-adv-x="548" 
d="M338 485q-104 0 -169 -78q-48 -57 -48 -134q0 -93 61 -152q63 -61 156 -61q88 0 153 42q10 6 13 -3l22 -45q3 -8 -4 -14q-79 -48 -183 -48q-128 0 -211 77q-83 78 -83 204q0 102 67 179q89 100 224 100q98 0 150 -45q40 -34 40 -82q0 -36 -22 -59t-65 -28q-9 0 -13 6
l-14 26q-3 8 8 12q39 5 39 37q0 22 -23 40q-33 26 -98 26zM341 632h-26q-7 0 -14 7l-155 173q-5 4 -3.5 9t7.5 5h46q8 0 17 -10l115 -125l115 125q9 10 17 10h46q6 0 7.5 -5t-3.5 -9l-155 -173q-7 -7 -14 -7z" />
    <glyph glyph-name="Csmallcedilla" unicode="&#xe053;" horiz-adv-x="531" 
d="M427 -110q0 -47 -38 -67.5t-87 -20.5q-22 0 -38 3q-8 2 -8 9v22q0 8 8 8q3 0 14 -1t22 -1q31 0 53.5 12t22.5 38q0 21 -18 31.5t-45 10.5q-11 0 -21 -1l5 61q-102 9 -170 76q-82 79 -82 203q0 101 68 179q40 47 97 73.5t120 26.5q99 0 170 -45q9 -4 5 -14l-22 -44
q-4 -9 -13 -3q-64 39 -137 39q-102 0 -165 -79q-47 -60 -47 -133q0 -90 60 -152q59 -61 151 -61q77 0 143 40q8 6 13 -3l21 -44q5 -9 -4 -13q-71 -45 -167 -48v-27q39 -3 64 -22.5t25 -52.5z" />
    <glyph glyph-name="Csmallcedilla.2" unicode="&#xe054;" horiz-adv-x="548" 
d="M442 -110q0 -47 -38 -67.5t-87 -20.5q-21 0 -38 3q-8 2 -8 9v22q0 8 8 8q3 0 14 -1t22 -1q31 0 53.5 12t22.5 38q0 21 -18 31.5t-45 10.5q-11 0 -21 -1l5 60q-111 8 -184 76q-83 78 -83 204q0 102 67 179q89 100 224 100q98 0 150 -45q40 -34 40 -82q0 -36 -22 -59
t-65 -28q-9 0 -13 6l-14 26q-3 8 8 12q39 5 39 37q0 22 -23 40q-33 26 -98 26q-104 0 -169 -78q-48 -57 -48 -134q0 -93 61 -152q63 -61 156 -61q88 0 153 42q10 6 13 -3l22 -45q3 -8 -4 -14q-72 -44 -169 -48v-27q39 -3 64 -22.5t25 -52.5z" />
    <glyph glyph-name="Dsmallcaron" unicode="&#xe055;" horiz-adv-x="616" 
d="M265 0h-183q-10 0 -10 9v525q0 10 10 10h195q149 0 227 -86q63 -71 63 -187q0 -164 -123 -232q-69 -39 -179 -39zM145 480v-417h116q84 0 136 29q96 50 96 179q0 91 -48 144q-57 65 -177 65h-123zM304 632h-26q-7 0 -14 7l-155 173q-5 4 -3.5 9t7.5 5h46q8 0 17 -10
l115 -125l115 125q9 10 17 10h46q6 0 7.5 -5t-3.5 -9l-155 -173q-7 -7 -14 -7z" />
    <glyph glyph-name="E.1" unicode="&#xe056;" horiz-adv-x="569" 
d="M523 610h-176q-111 0 -162 -55q-41 -47 -41 -158v-19h326q10 0 10 -9v-52q0 -10 -10 -10h-326v-23q0 -111 41 -159q51 -54 162 -54h176q10 0 10 -10v-52q0 -9 -10 -9h-179q-147 0 -216 73q-39 41 -52 98t-13 137v64q0 80 13 137t52 99q69 73 216 73h179q10 0 10 -10v-51
q0 -10 -10 -10z" />
    <glyph glyph-name="E.2" unicode="&#xe057;" horiz-adv-x="630" 
d="M84 681h501q9 0 9 -10v-51q0 -10 -9 -10h-430v-284h378q9 0 9 -9v-52q0 -9 -9 -9h-378v-185h430q9 0 9 -10v-52q0 -9 -9 -9h-501q-9 0 -9 9v662q0 10 9 10z" />
    <glyph glyph-name="E.3" unicode="&#xe058;" horiz-adv-x="722" 
d="M136 389h460q-5 99 -65.5 163t-158.5 64q-100 0 -163 -63t-73 -164zM47 348q0 150 91 247q87 94 234 94q159 0 243 -113q59 -78 65 -198q1 -24 0 -47q0 -11 -12 -11h-531q7 -116 74 -185q71 -73 185 -73q126 0 219 66q11 7 15 -2l23 -51q4 -7 -4 -12q-116 -73 -256 -73
q-161 0 -254 99q-92 96 -92 259z" />
    <glyph glyph-name="Eacute.1" unicode="&#xe059;" horiz-adv-x="569" 
d="M523 610h-176q-111 0 -162 -55q-41 -47 -41 -158v-19h326q10 0 10 -9v-52q0 -10 -10 -10h-326v-23q0 -111 41 -159q51 -54 162 -54h176q10 0 10 -10v-52q0 -9 -10 -9h-179q-147 0 -216 73q-39 41 -52 98t-13 137v64q0 80 13 137t52 99q69 73 216 73h179q10 0 10 -10v-51
q0 -10 -10 -10zM351 969h50q7 0 9 -5.5t-2 -10.5l-104 -169q-5 -9 -14 -9h-37q-13 0 -5 17l90 167q6 10 13 10z" />
    <glyph glyph-name="Eacute.2" unicode="&#xe05a;" horiz-adv-x="630" 
d="M84 681h501q9 0 9 -10v-51q0 -10 -9 -10h-430v-284h378q9 0 9 -9v-52q0 -9 -9 -9h-378v-185h430q9 0 9 -10v-52q0 -9 -9 -9h-501q-9 0 -9 9v662q0 10 9 10zM370 969h50q7 0 9 -5.5t-2 -10.5l-104 -169q-5 -9 -14 -9h-37q-14 0 -5 17l90 167q6 10 13 10z" />
    <glyph glyph-name="Eacute.3" unicode="&#xe05b;" horiz-adv-x="722" 
d="M136 389h460q-5 99 -65.5 163t-158.5 64q-100 0 -163 -63t-73 -164zM47 348q0 150 91 247q87 94 234 94q159 0 243 -113q59 -78 65 -198q1 -24 0 -47q0 -11 -12 -11h-531q7 -116 74 -185q71 -73 185 -73q126 0 219 66q11 7 15 -2l23 -51q4 -7 -4 -12q-116 -73 -256 -73
q-161 0 -254 99q-92 96 -92 259zM403 969h50q7 0 9 -5.5t-2 -10.5l-104 -169q-5 -9 -14 -9h-37q-13 0 -5 17l90 167q6 10 13 10z" />
    <glyph glyph-name="Ecaron.1" unicode="&#xe05c;" horiz-adv-x="569" 
d="M523 610h-176q-111 0 -162 -55q-41 -47 -41 -158v-19h326q10 0 10 -9v-52q0 -10 -10 -10h-326v-23q0 -111 41 -159q51 -54 162 -54h176q10 0 10 -10v-52q0 -9 -10 -9h-179q-147 0 -216 73q-39 41 -52 98t-13 137v64q0 80 13 137t52 99q69 73 216 73h179q10 0 10 -10v-51
q0 -10 -10 -10zM355 774h-26q-7 0 -14 7l-155 173q-5 4 -3.5 9t7.5 5h46q8 0 17 -10l115 -125l115 125q9 10 17 10h46q6 0 7.5 -5t-3.5 -9l-155 -173q-7 -7 -14 -7z" />
    <glyph glyph-name="Ecaron.2" unicode="&#xe05d;" horiz-adv-x="630" 
d="M84 681h501q9 0 9 -10v-51q0 -10 -9 -10h-430v-284h378q9 0 9 -9v-52q0 -9 -9 -9h-378v-185h430q9 0 9 -10v-52q0 -9 -9 -9h-501q-9 0 -9 9v662q0 10 9 10zM358 774h-26q-7 0 -14 7l-155 173q-5 4 -3.5 9t7.5 5h46q8 0 17 -10l115 -125l115 125q9 10 17 10h46q6 0 7.5 -5
t-3.5 -9l-155 -173q-7 -7 -14 -7z" />
    <glyph glyph-name="Ecaron.3" unicode="&#xe05e;" horiz-adv-x="722" 
d="M136 389h460q-5 99 -65.5 163t-158.5 64q-100 0 -163 -63t-73 -164zM47 348q0 150 91 247q87 94 234 94q159 0 243 -113q59 -78 65 -198q1 -24 0 -47q0 -11 -12 -11h-531q7 -116 74 -185q71 -73 185 -73q126 0 219 66q11 7 15 -2l23 -51q4 -7 -4 -12q-116 -73 -256 -73
q-161 0 -254 99q-92 96 -92 259zM389 774h-26q-7 0 -14 7l-155 173q-5 4 -3.5 9t7.5 5h46q8 0 17 -10l115 -125l115 125q9 10 17 10h46q6 0 7.5 -5t-3.5 -9l-155 -173q-7 -7 -14 -7z" />
    <glyph glyph-name="Ecircumflex.1" unicode="&#xe05f;" horiz-adv-x="569" 
d="M523 610h-176q-111 0 -162 -55q-41 -47 -41 -158v-19h326q10 0 10 -9v-52q0 -10 -10 -10h-326v-23q0 -111 41 -159q51 -54 162 -54h176q10 0 10 -10v-52q0 -9 -10 -9h-179q-147 0 -216 73q-39 41 -52 98t-13 137v64q0 80 13 137t52 99q69 73 216 73h179q10 0 10 -10v-51
q0 -10 -10 -10zM309 968h26q6 0 14 -8l155 -173q3 -3 3.5 -6t-1.5 -5t-6 -2h-46q-9 0 -17 8l-115 126l-115 -126q-8 -8 -17 -8h-46q-4 0 -6 2t-1.5 5t3.5 6l155 173q8 8 14 8z" />
    <glyph glyph-name="Ecircumflex.2" unicode="&#xe060;" horiz-adv-x="630" 
d="M84 681h501q9 0 9 -10v-51q0 -10 -9 -10h-430v-284h378q9 0 9 -9v-52q0 -9 -9 -9h-378v-185h430q9 0 9 -10v-52q0 -9 -9 -9h-501q-9 0 -9 9v662q0 10 9 10zM321 968h26q6 0 14 -8l155 -173q3 -3 3.5 -6t-1.5 -5t-6 -2h-46q-9 0 -17 8l-115 126l-115 -126q-8 -8 -17 -8
h-46q-4 0 -6 2t-1.5 5t3.5 6l155 173q8 8 14 8z" />
    <glyph glyph-name="Ecircumflex.3" unicode="&#xe061;" horiz-adv-x="722" 
d="M136 389h460q-5 99 -65.5 163t-158.5 64q-100 0 -163 -63t-73 -164zM47 348q0 150 91 247q87 94 234 94q159 0 243 -113q59 -78 65 -198q1 -24 0 -47q0 -11 -12 -11h-531q7 -116 74 -185q71 -73 185 -73q126 0 219 66q11 7 15 -2l23 -51q4 -7 -4 -12q-116 -73 -256 -73
q-161 0 -254 99q-92 96 -92 259zM363 968h26q6 0 14 -8l155 -173q3 -3 3.5 -6t-1.5 -5t-6 -2h-46q-9 0 -17 8l-115 126l-115 -126q-8 -8 -17 -8h-46q-4 0 -6 2t-1.5 5t3.5 6l155 173q8 8 14 8z" />
    <glyph glyph-name="Edieresis.1" unicode="&#xe062;" horiz-adv-x="569" 
d="M523 610h-176q-111 0 -162 -55q-41 -47 -41 -158v-19h326q10 0 10 -9v-52q0 -10 -10 -10h-326v-23q0 -111 41 -159q51 -54 162 -54h176q10 0 10 -10v-52q0 -9 -10 -9h-179q-147 0 -216 73q-39 41 -52 98t-13 137v64q0 80 13 137t52 99q69 73 216 73h179q10 0 10 -10v-51
q0 -10 -10 -10zM225 825q-18 0 -31 13t-13 31t13 31t31 13q19 0 31.5 -13t12.5 -31t-12.5 -31t-31.5 -13zM413 825q-18 0 -31 13t-13 31t13 31t31 13t31 -13t13 -31t-13 -31t-31 -13z" />
    <glyph glyph-name="Edieresis.2" unicode="&#xe063;" horiz-adv-x="630" 
d="M84 681h501q9 0 9 -10v-51q0 -10 -9 -10h-430v-284h378q9 0 9 -9v-52q0 -9 -9 -9h-378v-185h430q9 0 9 -10v-52q0 -9 -9 -9h-501q-9 0 -9 9v662q0 10 9 10zM246 825q-18 0 -31 13t-13 31t13 31t31 13q19 0 31.5 -13t12.5 -31t-12.5 -31t-31.5 -13zM434 825q-18 0 -31 13
t-13 31t13 31t31 13t31 -13t13 -31t-13 -31t-31 -13z" />
    <glyph glyph-name="Edieresis.3" unicode="&#xe064;" horiz-adv-x="722" 
d="M136 389h460q-5 99 -65.5 163t-158.5 64q-100 0 -163 -63t-73 -164zM47 348q0 150 91 247q87 94 234 94q159 0 243 -113q59 -78 65 -198q1 -24 0 -47q0 -11 -12 -11h-531q7 -116 74 -185q71 -73 185 -73q126 0 219 66q11 7 15 -2l23 -51q4 -7 -4 -12q-116 -73 -256 -73
q-161 0 -254 99q-92 96 -92 259zM278 825q-18 0 -31 13t-13 31t13 31t31 13q19 0 31.5 -13t12.5 -31t-12.5 -31t-31.5 -13zM466 825q-18 0 -31 13t-13 31t13 31t31 13t31 -13t13 -31t-13 -31t-31 -13z" />
    <glyph glyph-name="Edotaccent.1" unicode="&#xe065;" horiz-adv-x="569" 
d="M523 610h-176q-111 0 -162 -55q-41 -47 -41 -158v-19h326q10 0 10 -9v-52q0 -10 -10 -10h-326v-23q0 -111 41 -159q51 -54 162 -54h176q10 0 10 -10v-52q0 -9 -10 -9h-179q-147 0 -216 73q-39 41 -52 98t-13 137v64q0 80 13 137t52 99q69 73 216 73h179q10 0 10 -10v-51
q0 -10 -10 -10zM331 830q-18 0 -31 13t-13 31t13 31t31 13t31 -13t13 -31t-13 -31t-31 -13z" />
    <glyph glyph-name="Edotaccent.2" unicode="&#xe066;" horiz-adv-x="630" 
d="M84 681h501q9 0 9 -10v-51q0 -10 -9 -10h-430v-284h378q9 0 9 -9v-52q0 -9 -9 -9h-378v-185h430q9 0 9 -10v-52q0 -9 -9 -9h-501q-9 0 -9 9v662q0 10 9 10zM339 830q-18 0 -31 13t-13 31t13 31t31 13t31 -13t13 -31t-13 -31t-31 -13z" />
    <glyph glyph-name="Edotaccent.3" unicode="&#xe067;" horiz-adv-x="722" 
d="M136 389h460q-5 99 -65.5 163t-158.5 64q-100 0 -163 -63t-73 -164zM47 348q0 150 91 247q87 94 234 94q159 0 243 -113q59 -78 65 -198q1 -24 0 -47q0 -11 -12 -11h-531q7 -116 74 -185q71 -73 185 -73q126 0 219 66q11 7 15 -2l23 -51q4 -7 -4 -12q-116 -73 -256 -73
q-161 0 -254 99q-92 96 -92 259zM374 830q-18 0 -31 13t-13 31t13 31t31 13t31 -13t13 -31t-13 -31t-31 -13z" />
    <glyph glyph-name="Egrave.1" unicode="&#xe068;" horiz-adv-x="569" 
d="M523 610h-176q-111 0 -162 -55q-41 -47 -41 -158v-19h326q10 0 10 -9v-52q0 -10 -10 -10h-326v-23q0 -111 41 -159q51 -54 162 -54h176q10 0 10 -10v-52q0 -9 -10 -9h-179q-147 0 -216 73q-39 41 -52 98t-13 137v64q0 80 13 137t52 99q69 73 216 73h179q10 0 10 -10v-51
q0 -10 -10 -10zM242 969h50q7 0 13 -10l90 -167q1 -2 2 -5t1 -5.5t-2 -4.5t-6 -2h-37q-9 0 -14 9l-104 169q-9 16 7 16z" />
    <glyph glyph-name="Egrave.2" unicode="&#xe069;" horiz-adv-x="630" 
d="M84 681h501q9 0 9 -10v-51q0 -10 -9 -10h-430v-284h378q9 0 9 -9v-52q0 -9 -9 -9h-378v-185h430q9 0 9 -10v-52q0 -9 -9 -9h-501q-9 0 -9 9v662q0 10 9 10zM259 969h50q7 0 13 -10l90 -167q1 -2 2 -5t1 -5.5t-2 -4.5t-6 -2h-37q-9 0 -14 9l-104 169q-9 16 7 16z" />
    <glyph glyph-name="Egrave.3" unicode="&#xe06a;" horiz-adv-x="722" 
d="M136 389h460q-5 99 -65.5 163t-158.5 64q-100 0 -163 -63t-73 -164zM47 348q0 150 91 247q87 94 234 94q159 0 243 -113q59 -78 65 -198q1 -24 0 -47q0 -11 -12 -11h-531q7 -116 74 -185q71 -73 185 -73q126 0 219 66q11 7 15 -2l23 -51q4 -7 -4 -12q-116 -73 -256 -73
q-161 0 -254 99q-92 96 -92 259zM302 969h50q7 0 13 -10l90 -167q1 -2 2 -5t1 -5.5t-2 -4.5t-6 -2h-37q-9 0 -14 9l-104 169q-9 16 7 16z" />
    <glyph glyph-name="Emacron.1" unicode="&#xe06b;" horiz-adv-x="569" 
d="M523 610h-176q-111 0 -162 -55q-41 -47 -41 -158v-19h326q10 0 10 -9v-52q0 -10 -10 -10h-326v-23q0 -111 41 -159q51 -54 162 -54h176q10 0 10 -10v-52q0 -9 -10 -9h-179q-147 0 -216 73q-39 41 -52 98t-13 137v64q0 80 13 137t52 99q69 73 216 73h179q10 0 10 -10v-51
q0 -10 -10 -10zM204 910h236q10 0 10 -9v-42q0 -9 -10 -9h-236q-10 0 -10 9v42q0 9 10 9z" />
    <glyph glyph-name="Emacron.2" unicode="&#xe06c;" horiz-adv-x="630" 
d="M84 681h501q9 0 9 -10v-51q0 -10 -9 -10h-430v-284h378q9 0 9 -9v-52q0 -9 -9 -9h-378v-185h430q9 0 9 -10v-52q0 -9 -9 -9h-501q-9 0 -9 9v662q0 10 9 10zM219 910h236q10 0 10 -9v-42q0 -9 -10 -9h-236q-10 0 -10 9v42q0 9 10 9z" />
    <glyph glyph-name="Emacron.3" unicode="&#xe06d;" horiz-adv-x="722" 
d="M136 389h460q-5 99 -65.5 163t-158.5 64q-100 0 -163 -63t-73 -164zM47 348q0 150 91 247q87 94 234 94q159 0 243 -113q59 -78 65 -198q1 -24 0 -47q0 -11 -12 -11h-531q7 -116 74 -185q71 -73 185 -73q126 0 219 66q11 7 15 -2l23 -51q4 -7 -4 -12q-116 -73 -256 -73
q-161 0 -254 99q-92 96 -92 259zM258 910h236q10 0 10 -9v-42q0 -9 -10 -9h-236q-10 0 -10 9v42q0 9 10 9z" />
    <glyph glyph-name="Eogonek.1" unicode="&#xe06e;" horiz-adv-x="569" 
d="M375 -114q0 63 77 114h-108q-147 0 -216 73q-39 41 -52 98t-13 137v64q0 80 13 137t52 99q69 73 216 73h179q10 0 10 -10v-51q0 -10 -10 -10h-176q-111 0 -162 -55q-41 -47 -41 -158v-19h326q10 0 10 -9v-52q0 -10 -10 -10h-326v-23q0 -111 41 -159q51 -54 162 -54h176
q10 0 10 -10v-52q0 -9 -10 -9h-23q-71 -45 -71 -94q0 -40 45 -40q17 0 33 4.5t19 4.5q6 0 6 -7v-29q0 -7 -6 -10q-29 -13 -66 -13t-61 17t-24 53z" />
    <glyph glyph-name="Eogonek.2" unicode="&#xe06f;" horiz-adv-x="630" 
d="M437 -114q0 63 77 114h-430q-9 0 -9 9v662q0 10 9 10h501q9 0 9 -10v-51q0 -10 -9 -10h-430v-284h378q9 0 9 -9v-52q0 -9 -9 -9h-378v-185h430q9 0 9 -10v-52q0 -9 -9 -9h-23q-71 -45 -71 -94q0 -40 45 -40q17 0 33 4.5t19 4.5q6 0 6 -7v-29q0 -7 -6 -10q-29 -13 -66 -13
t-61 17t-24 53z" />
    <glyph glyph-name="Eogonek.3" unicode="&#xe070;" horiz-adv-x="722" 
d="M476 -77q0 41 37 80q-59 -13 -120 -13q-161 0 -254 99q-92 96 -92 259q0 150 91 247q87 94 234 94q159 0 243 -113q59 -78 65 -198q1 -24 0 -47q0 -11 -12 -11h-531q7 -116 74 -185q71 -73 185 -73q126 0 219 66q11 7 15 -2l23 -51q4 -7 -4 -12q-32 -20 -57 -32
q-62 -43 -62 -88q0 -40 45 -40q17 0 33 4.5t19 4.5q6 0 6 -7v-29q0 -7 -6 -10q-29 -13 -66 -13t-61 17t-24 53zM136 389h460q-5 99 -65.5 163t-158.5 64q-100 0 -163 -63t-73 -164z" />
    <glyph glyph-name="Esmall.1" unicode="&#xe071;" horiz-adv-x="484" 
d="M454 479h-176q-91 0 -125 -47q-24 -32 -24 -95v-30h284q10 0 10 -10v-46q0 -9 -10 -9l-284 -1v-32q0 -61 24 -96q37 -48 125 -48h176q9 0 9 -9v-47q0 -9 -9 -9h-173q-132 0 -186 76q-40 55 -40 153v86q0 102 43 157q55 73 183 73h173q9 0 9 -10v-46q0 -10 -9 -10z" />
    <glyph glyph-name="Esmall.2" unicode="&#xe072;" horiz-adv-x="518" 
d="M82 544h407q9 0 9 -10v-45q0 -10 -9 -10h-344v-205h295q10 0 10 -10v-45q0 -10 -10 -10h-295v-144h344q9 0 9 -10v-46q0 -9 -9 -9h-407q-10 0 -10 9v525q0 10 10 10z" />
    <glyph glyph-name="Esmall.3" unicode="&#xe073;" horiz-adv-x="595" 
d="M305 552q112 0 183 -75q67 -71 64 -214q0 -11 -11 -11h-415q6 -78 46 -127q55 -67 152 -67q95 0 170 52q12 7 15 -3l20 -42q6 -9 -4 -14q-96 -59 -203 -59q-137 0 -210 87q-67 76 -67 199q0 117 69 195q72 79 191 79zM127 310h349q-3 79 -46 123q-49 52 -123 52
q-84 0 -135 -59q-39 -46 -45 -116z" />
    <glyph glyph-name="Esmallacute" unicode="&#xe074;" horiz-adv-x="489" 
d="M82 544h377q9 0 9 -10v-45q0 -10 -9 -10h-314v-174h273q10 0 10 -10v-45q0 -10 -10 -10h-273v-175h314q9 0 9 -10v-46q0 -9 -9 -9h-377q-10 0 -10 9v525q0 10 10 10zM307 826h50q7 0 9 -5.5t-2 -10.5l-104 -169q-5 -9 -14 -9h-37q-13 0 -5 17l90 167q6 10 13 10z" />
    <glyph glyph-name="Esmallacute.1" unicode="&#xe075;" horiz-adv-x="484" 
d="M454 479h-176q-91 0 -125 -47q-24 -32 -24 -95v-30h284q10 0 10 -10v-46q0 -9 -10 -9l-284 -1v-32q0 -61 24 -96q37 -48 125 -48h176q9 0 9 -9v-47q0 -9 -9 -9h-173q-132 0 -186 76q-40 55 -40 153v86q0 102 43 157q55 73 183 73h173q9 0 9 -10v-46q0 -10 -9 -10z
M328 826h50q7 0 9 -5.5t-2 -10.5l-104 -169q-5 -9 -14 -9h-37q-14 0 -5 17l90 167q6 10 13 10z" />
    <glyph glyph-name="Esmallacute.2" unicode="&#xe076;" horiz-adv-x="518" 
d="M82 544h407q9 0 9 -10v-45q0 -10 -9 -10h-344v-205h295q10 0 10 -10v-45q0 -10 -10 -10h-295v-144h344q9 0 9 -10v-46q0 -9 -9 -9h-407q-10 0 -10 9v525q0 10 10 10zM330 826h50q7 0 9 -5.5t-2 -10.5l-104 -169q-5 -9 -14 -9h-37q-14 0 -5 17l90 167q6 10 13 10z" />
    <glyph glyph-name="Esmallacute.3" unicode="&#xe077;" horiz-adv-x="595" 
d="M305 552q112 0 183 -75q67 -71 64 -214q0 -11 -11 -11h-415q6 -78 46 -127q55 -67 152 -67q95 0 170 52q12 7 15 -3l20 -42q6 -9 -4 -14q-96 -59 -203 -59q-137 0 -210 87q-67 76 -67 199q0 117 69 195q72 79 191 79zM127 310h349q-3 79 -46 123q-49 52 -123 52
q-84 0 -135 -59q-39 -46 -45 -116zM330 826h50q7 0 9 -5.5t-2 -10.5l-104 -169q-5 -9 -14 -9h-37q-14 0 -5 17l90 167q6 10 13 10z" />
    <glyph glyph-name="Esmallcaron" unicode="&#xe078;" horiz-adv-x="489" 
d="M82 544h377q9 0 9 -10v-45q0 -10 -9 -10h-314v-174h273q10 0 10 -10v-45q0 -10 -10 -10h-273v-175h314q9 0 9 -10v-46q0 -9 -9 -9h-377q-10 0 -10 9v525q0 10 10 10zM284 632h-26q-7 0 -14 7l-155 173q-5 4 -3.5 9t7.5 5h46q8 0 17 -10l115 -125l115 125q9 10 17 10h46
q6 0 7.5 -5t-3.5 -9l-155 -173q-7 -7 -14 -7z" />
    </font>
</defs>
</svg>
