<?xml version="1.0" standalone="no"?>
<!DOCTYPE svg PUBLIC "-//W3C//DTD SVG 1.1//EN" "http://www.w3.org/Graphics/SVG/1.1/DTD/svg11.dtd" >
<svg xmlns="http://www.w3.org/2000/svg" xmlns:xlink="http://www.w3.org/1999/xlink" version="1.1">
<metadata>
Created by FontForge 20150102 at Thu Jan 29 16:15:23 2015
 By uniteet7
Copyright (c) 2008 by G-Type Designed and digitized by Nick Cooke. All rights reserved.
</metadata>
<defs>
<font id="HouschkaProBold" horiz-adv-x="600" >
  <font-face 
    font-family="HouschkaProBold"
    font-weight="700"
    font-stretch="normal"
    units-per-em="1000"
    panose-1="2 0 5 3 0 0 0 2 0 3"
    ascent="760"
    descent="-240"
    x-height="458"
    cap-height="681"
    bbox="-160 -346.143 1277 988"
    underline-thickness="50"
    underline-position="-50"
    unicode-range="U+0020-FB06"
  />
<missing-glyph horiz-adv-x="500" 
d="M0 690h500v-690h-500v690zM250 301l-181 -249h361zM69 638l181 -249l180 249h-361zM218 345l-166 229v-458zM282 345l166 -229v458z" />
    <glyph glyph-name="ffj" unicode="ffj" horiz-adv-x="854" 
d="M656 354h-139v-339q0 -6 -4.5 -10.5t-10.5 -4.5h-102q-7 0 -11.5 4.5t-4.5 10.5v339h-165v-339q0 -6 -4.5 -10.5t-10.5 -4.5h-102q-6 0 -10.5 4.5t-4.5 10.5v339h-51q-6 0 -10.5 4.5t-4.5 11.5v73q0 15 15 15h51v43q0 90 43 137q39 41 106 41q82 0 139 -42q11 -8 6 -19
l-30 -65q-7 -12 -23 -5q-29 20 -58 20q-26 0 -39 -19q-12 -17 -12 -58v-33h165v52q0 74 36 120q46 59 138 59q93 0 154 -44q11 -8 6 -20l-34 -70q-6 -13 -22 -4q-43 27 -74 27q-35 0 -53 -21q-18 -19 -18 -62v-37h257q15 0 15 -15v-426q0 -189 -111 -253q-16 -9 -30 6
l-62 62q-15 13 -1 23q38 27 54.5 66t16.5 116v317z" />
    <glyph glyph-name="fj" unicode="fj" horiz-adv-x="556" 
d="M219 354v-339q0 -6 -4.5 -10.5t-10.5 -4.5h-102q-6 0 -10.5 4.5t-4.5 10.5v339h-51q-6 0 -10.5 4.5t-4.5 11.5v73q0 15 15 15h51v52q0 76 35 120q46 59 138 59q95 0 154 -44q12 -9 6 -20l-33 -70q-9 -12 -23 -4q-43 27 -74 27q-35 -1 -53 -21q-18 -19 -18 -62v-37h257
q15 0 15 -15v-426q0 -189 -111 -253q-14 -9 -29 6l-63 62q-14 14 0 23q38 27 54.5 66t16.5 116v317h-140z" />
    <glyph glyph-name="ff" unicode="ff" horiz-adv-x="668" 
d="M384 354h-165v-339q0 -6 -4.5 -10.5t-10.5 -4.5h-102q-6 0 -10.5 4.5t-4.5 10.5v339h-51q-6 0 -10.5 4.5t-4.5 11.5v73q0 15 15 15h51v43q0 90 43 137q39 41 106 41q82 0 139 -42q11 -8 6 -19l-30 -65q-7 -12 -23 -5q-29 20 -58 20q-26 0 -39 -19q-12 -19 -12 -58v-33
h165v53q0 90 47 137q39 41 112 41q93 0 154 -44q11 -9 6 -20l-34 -70q-7 -13 -22 -4q-43 27 -75 27q-28 0 -41 -18q-14 -18 -14 -59v-43h100q15 0 15 -15v-73q0 -7 -4.5 -11.5t-10.5 -4.5h-100v-339q0 -6 -4.5 -10.5t-10.5 -4.5h-102q-7 0 -11.5 4.5t-4.5 10.5v339z" />
    <glyph glyph-name="fi" unicode="fi" horiz-adv-x="564" 
d="M290 578q-35 -1 -53 -21q-18 -19 -18 -62v-37h265q15 0 15 -15v-428q0 -6 -4.5 -10.5t-10.5 -4.5h-102q-6 0 -10.5 4.5t-4.5 10.5v339h-148v-339q0 -6 -4.5 -10.5t-10.5 -4.5h-102q-6 0 -10.5 4.5t-4.5 10.5v339h-51q-6 0 -10.5 4.5t-4.5 11.5v73q0 15 15 15h51v52
q0 76 35 120q46 59 138 59q95 0 154 -44q12 -9 6 -20l-33 -70q-9 -12 -23 -4q-43 27 -74 27z" />
    <glyph glyph-name="fl" unicode="fl" horiz-adv-x="557" 
d="M476 653q16 -6 16 -21v-617q0 -6 -4.5 -10.5t-11.5 -4.5h-102q-6 0 -10.5 4.5t-4.5 10.5v531q0 13 -9 18q-23 15 -59 15q-72 0 -72 -88v-33h84q16 0 16 -15v-73q0 -16 -16 -16h-84v-339q0 -6 -4.5 -10.5t-10.5 -4.5h-102q-6 0 -10.5 4.5t-4.5 10.5v339h-51
q-6 0 -10.5 4.5t-4.5 11.5v73q0 15 15 15h51v53q0 178 206 178q50 0 102.5 -11.5t80.5 -24.5z" />
    <glyph glyph-name="ffi" unicode="ffi" horiz-adv-x="854" 
d="M384 354h-165v-339q0 -6 -4.5 -10.5t-10.5 -4.5h-102q-6 0 -10.5 4.5t-4.5 10.5v339h-51q-6 0 -10.5 4.5t-4.5 11.5v73q0 15 15 15h51v43q0 90 43 137q39 41 106 41q82 0 139 -42q11 -8 6 -19l-30 -65q-7 -12 -23 -5q-29 20 -58 20q-26 0 -39 -19q-12 -19 -12 -58v-33
h165v52q0 74 36 120q46 59 138 59q95 0 154 -44q11 -8 6 -20l-34 -70q-7 -12 -22 -4q-43 27 -74 27q-35 -1 -53 -21q-18 -19 -18 -62v-37h257q15 0 15 -15v-428q0 -6 -4.5 -10.5t-10.5 -4.5h-102q-7 0 -11.5 4.5t-4.5 10.5v339h-139v-339q0 -6 -4.5 -10.5t-10.5 -4.5h-102
q-7 0 -11.5 4.5t-4.5 10.5v339z" />
    <glyph glyph-name="ffl" unicode="ffl" horiz-adv-x="854" 
d="M270 568q-26 0 -39 -19q-12 -19 -12 -58v-33h165v53q0 178 206 178q51 0 103 -11.5t81 -24.5q15 -6 15 -21v-617q0 -6 -4.5 -10.5t-10.5 -4.5h-102q-6 0 -10.5 4.5t-4.5 10.5v531q0 12 -9 18q-24 15 -59 15q-72 0 -72 -88v-33h84q15 0 15 -15v-73q0 -7 -4.5 -11.5
t-10.5 -4.5h-84v-339q0 -6 -4.5 -10.5t-10.5 -4.5h-102q-7 0 -11.5 4.5t-4.5 10.5v339h-165v-339q0 -6 -4.5 -10.5t-10.5 -4.5h-102q-6 0 -10.5 4.5t-4.5 10.5v339h-51q-6 0 -10.5 4.5t-4.5 11.5v73q0 15 15 15h51v43q0 90 43 137q39 41 106 41q82 0 139 -42q11 -8 6 -19
l-30 -65q-7 -12 -23 -5q-29 20 -58 20z" />
    <glyph glyph-name=".notdef" horiz-adv-x="500" 
d="M0 690h500v-690h-500v690zM250 301l-181 -249h361zM69 638l181 -249l180 249h-361zM218 345l-166 229v-458zM282 345l166 -229v458z" />
    <glyph glyph-name=".null" horiz-adv-x="0" 
 />
    <glyph glyph-name="nonmarkingreturn" horiz-adv-x="333" 
 />
    <glyph glyph-name="space" unicode=" " horiz-adv-x="258" 
 />
    <glyph glyph-name="exclam" unicode="!" horiz-adv-x="332" 
d="M251 70q0 -33 -23 -56t-56 -23q-34 0 -56.5 23t-22.5 56q0 34 22.5 56.5t56.5 22.5q33 0 56 -22.5t23 -56.5zM103 681h138q14 0 12 -15l-36 -427q-2 -15 -16 -15h-58q-14 0 -16 15l-36 427q-2 15 12 15z" />
    <glyph glyph-name="quotedbl" unicode="&#x22;" horiz-adv-x="362" 
d="M47 681h93q20 0 18 -23l-21 -187q-1 -22 -21 -22h-45q-18 0 -21 22l-21 187q-2 23 18 23zM221 681h94q20 0 17 -23l-20 -187q-3 -22 -22 -22h-44q-19 0 -22 22l-20 187q-3 23 17 23z" />
    <glyph glyph-name="numbersign" unicode="#" horiz-adv-x="678" 
d="M616 97h-137l-34 -162q-5 -15 -23 -15h-67q-18 0 -14 23l33 154h-142l-34 -162q-4 -15 -22 -15h-67q-18 0 -15 23l33 154h-112q-6 0 -10.5 4.5t-4.5 11.5v73q0 6 4.5 10.5t10.5 4.5h134l29 136h-115q-16 0 -16 16v73q0 6 4.5 10.5t11.5 4.5h136l35 162q4 15 23 15h66
q20 0 14 -23l-33 -154h142l35 162q3 15 22 15h67q19 0 14 -23l-33 -154h113q6 0 10.5 -4.5t4.5 -10.5v-73q0 -7 -4.5 -11.5t-10.5 -4.5h-134l-29 -136h115q7 0 11.5 -4.5t4.5 -10.5v-73q0 -16 -16 -16zM283 337l-29 -136h142l29 136h-142z" />
    <glyph glyph-name="dollar" unicode="$" 
d="M538 190q0 -89 -71 -147q-51 -41 -131 -50v-69q0 -15 -15 -15h-39q-6 0 -10.5 4.5t-4.5 10.5v67q-113 5 -201 59q-12 7 -6 19l43 89q5 14 18 5q96 -57 170 -57q49 0 73 19q27 19 27 54q0 27 -20.5 43.5t-59.5 31.5q-13 4 -50 15.5t-65 22.5t-52 26q-80 52 -80 144
q0 84 67 134q52 39 136 46v72q0 6 4.5 10.5t10.5 4.5h39q15 0 15 -15v-71q97 -6 173 -47q13 -6 6 -18l-42 -91q-7 -12 -19 -5q-79 46 -156 46q-46 0 -68 -16q-24 -16 -24 -44q0 -24 20 -39t61 -29q14 -4 43 -12.5t47.5 -14t43 -16.5t43.5 -24q74 -53 74 -143z" />
    <glyph glyph-name="percent" unicode="%" horiz-adv-x="696" 
d="M260 536q0 34 -24.5 58t-58.5 24t-58 -24t-24 -58t24 -57.5t58 -23.5q35 0 59 23.5t24 57.5zM331 536q0 -63 -45.5 -108t-107.5 -45q-63 0 -108 44.5t-45 108.5q0 63 45 108t108 45q62 0 107.5 -45t45.5 -108zM435 143q0 -34 24.5 -58t59.5 -24q34 0 57.5 24t23.5 58
t-23.5 58t-57.5 24q-35 0 -59.5 -24t-24.5 -58zM365 143q0 63 45.5 108t107.5 45q63 0 108 -45t45 -108t-45 -108t-108 -45t-108 45t-45 108zM99 19l416 649q9 13 22 13h51q9 0 12 -6.5t-2 -13.5l-416 -649q-8 -12 -22 -12h-51q-9 0 -12 6t2 13z" />
    <glyph glyph-name="ampersand" unicode="&#x26;" horiz-adv-x="689" 
d="M637 122q16 -4 16 -20v-98q0 -14 -18 -14q-73 0 -161 54q-78 -54 -190 -54q-105 0 -173 50.5t-68 151.5q0 115 139 190q-36 70 -36 136q0 74 48 116.5t136 42.5q80 0 125 -42.5t45 -108.5q0 -60 -37 -103t-108 -82q43 -70 102 -124q18 36 18 97q0 17 15 17h95
q16 0 16 -17q0 -98 -39 -166q36 -21 75 -26zM374 528q0 23 -12 36t-33 13q-24 0 -37.5 -16t-13.5 -43q0 -36 22 -78q74 40 74 88zM296 93q49 0 83 24q-80 70 -143 162q-59 -37 -59 -89q0 -97 119 -97z" />
    <glyph glyph-name="quotesingle" unicode="'" horiz-adv-x="188" 
d="M47 681h93q20 0 18 -23l-21 -187q-1 -22 -21 -22h-45q-18 0 -21 22l-21 187q-2 23 18 23z" />
    <glyph glyph-name="parenleft" unicode="(" horiz-adv-x="340" 
d="M47 317q0 261 117 452q13 19 34 19h91q35 0 19 -33q-120 -218 -120 -438t120 -436q16 -33 -19 -33h-91q-21 0 -34 19q-117 191 -117 450z" />
    <glyph glyph-name="parenright" unicode=")" horiz-adv-x="340" 
d="M293 317q0 -259 -117 -450q-13 -19 -34 -19h-91q-35 0 -19 33q120 216 120 436t-120 438q-16 33 19 33h91q21 0 34 -19q117 -191 117 -452z" />
    <glyph glyph-name="asterisk" unicode="*" horiz-adv-x="430" 
d="M321 544l-56 -12l39 -43q18 -20 23 -27q24 -33 -6 -56q-32 -24 -56 8q-7 9 -19 31l-31 50l-30 -50q-16 -26 -20 -31q-24 -31 -56 -8q-29 24 -6 56q5 7 23 27l39 43l-56 12q-3 1 -16 4t-20 5q-16 5 -24 18t-2 31q11 35 51 24q13 -4 34 -13l52 -22l-5 57q0 4 -1 11.5
t-1.5 13.5t-0.5 11q0 18 10 29.5t29 11.5t29 -11.5t10 -29.5l-3 -36l-5 -57l52 22q24 10 34 13q40 11 51 -24q6 -18 -2 -31t-24 -18q-7 -2 -20 -5t-16 -4z" />
    <glyph glyph-name="plus" unicode="+" horiz-adv-x="576" 
d="M350 583v-168h168q7 0 11.5 -4.5t4.5 -10.5v-94q0 -15 -16 -15h-168v-169q0 -6 -4.5 -10.5t-10.5 -4.5h-94q-15 0 -15 15v169h-168q-15 0 -15 15v94q0 6 4.5 10.5t10.5 4.5h168v168q0 15 15 15h94q6 0 10.5 -4.5t4.5 -10.5z" />
    <glyph glyph-name="comma" unicode="," horiz-adv-x="272" 
d="M225 38q1 -57 -40.5 -108t-98.5 -68q-15 -4 -22 6l-13 21q-8 12 4 21q53 35 53 63q0 13 -9.5 23t-21 16.5t-21 21.5t-9.5 38q0 35 22.5 56t59.5 21q46 0 70 -29.5t26 -81.5z" />
    <glyph glyph-name="hyphen" unicode="-" horiz-adv-x="521" 
d="M413 218h-305q-6 0 -10.5 4.5t-4.5 10.5v94q0 7 4.5 11.5t10.5 4.5h305q6 0 10.5 -4.5t4.5 -11.5v-94q0 -6 -4.5 -10.5t-10.5 -4.5z" />
    <glyph glyph-name="period" unicode="." horiz-adv-x="251" 
d="M205 69q0 -33 -23 -56t-56 -23t-56 23t-23 56q0 34 23 57t56 23t56 -23t23 -57z" />
    <glyph glyph-name="slash" unicode="/" horiz-adv-x="409" 
d="M445 658l-329 -643q-8 -15 -23 -15h-113q-10 0 -14.5 6.5t0.5 15.5l330 644q8 15 22 15h113q11 0 15 -7t-1 -16z" />
    <glyph glyph-name="zero" unicode="0" 
d="M558 340q0 -172 -66 -261t-192 -89t-192.5 89t-66.5 261q0 173 66.5 262t192.5 89t192 -89t66 -262zM415 340q0 114 -31 169q-29 50 -84 50t-84 -50q-33 -56 -33 -169t32 -169q29 -50 85 -50q55 0 84 50q31 55 31 169z" />
    <glyph glyph-name="one" unicode="1" 
d="M250 539l-136 -48q-21 -6 -21 16v92q0 17 15 22l171 59q20 6 32 6h68q15 0 15 -15v-547h135q6 0 10.5 -4.5t4.5 -10.5v-94q0 -6 -4.5 -10.5t-10.5 -4.5h-423q-6 0 -10.5 4.5t-4.5 10.5v94q0 6 4.5 10.5t10.5 4.5h144v415z" />
    <glyph glyph-name="two" unicode="2" 
d="M219 124h286q7 0 11.5 -4.5t4.5 -10.5v-94q0 -6 -4.5 -10.5t-11.5 -4.5h-425q-15 0 -15 15v50q0 73 17 120.5t58 87.5q37 37 112 76t100 61q38 33 38 78q0 35 -23 58q-25 25 -72 25q-72 0 -156 -57q-18 -10 -24 3l-40 82q-6 11 6 20q112 71 226 71q106 0 169 -68
q49 -52 49 -130q0 -93 -70 -158q-37 -34 -106.5 -71t-94.5 -58q-35 -29 -35 -81z" />
    <glyph glyph-name="three" unicode="3" 
d="M236 291h-44q-15 0 -15 15v81q0 7 4.5 11.5t10.5 4.5h33q54 0 86 17q40 25 40 74q0 36 -26 57q-23 20 -57 20q-61 0 -129 -46q-16 -11 -23 3l-39 78q-7 14 6 22q95 62 196 62q83 0 137 -44q63 -51 63 -135q0 -112 -99 -155q124 -46 124 -174q0 -93 -69 -145
q-63 -47 -162 -47q-117 0 -199 52q-12 9 -5 20l40 82q6 13 21 3q65 -44 133 -44q44 0 70 17q37 24 37 75q0 54 -46 79q-29 17 -88 17z" />
    <glyph glyph-name="four" unicode="4" horiz-adv-x="601" 
d="M453 0h-108q-6 0 -10.5 4.5t-4.5 10.5v116h-289q-15 0 -15 15v82q0 14 9 27l296 414q9 14 26 14h96q6 0 10.5 -4.5t4.5 -11.5v-418h86q6 0 10.5 -4.5t4.5 -11.5v-87q0 -15 -15 -15h-86v-116q0 -6 -4.5 -10.5t-10.5 -4.5zM330 466l-153 -217h153v217z" />
    <glyph glyph-name="five" unicode="5" 
d="M83 311l24 355q2 15 16 15h357q6 0 10.5 -4.5t4.5 -10.5v-94q0 -7 -4.5 -11.5t-10.5 -4.5h-252l-10 -126q11 7 41 16q23 6 48 6q117 0 172 -69q51 -60 51 -160q0 -96 -61 -160q-68 -73 -193 -73q-118 0 -198 57q-13 8 -6 21l38 81q7 13 19 5q40 -27 70.5 -39t76.5 -12
q56 0 85 35q29 32 29 84q0 57 -26 86q-28 31 -77 31q-39 0 -64 -18q-24 -14 -38 -38q-7 -13 -21 -8l-66 13q-10 2 -13 6.5t-2 16.5z" />
    <glyph glyph-name="six" unicode="6" 
d="M310 318q-72 0 -117 -51q7 -157 114 -157q44 0 72 29.5t28 74.5q0 54 -28 79t-69 25zM53 313q0 181 75 280q75 97 210 97q60 0 109 -13q39 -11 80 -36q13 -7 6 -19l-41 -86q-6 -14 -22 -5q-25 14 -60 26q-35 11 -74 11q-69 0 -107 -61q-27 -42 -30 -114q24 20 53 31
q35 14 75 14q112 0 170 -71q48 -56 48 -149q0 -105 -70 -168q-66 -60 -168 -60q-120 0 -183 73q-71 80 -71 250z" />
    <glyph glyph-name="seven" unicode="7" 
d="M71 681h442q15 0 15 -15v-83q0 -17 -6 -30l-247 -538q-7 -15 -25 -15h-119q-25 0 -13 25l179 365q18 36 94 166h-210v-81q0 -6 -4.5 -10.5t-10.5 -4.5h-95q-6 0 -10.5 4.5t-4.5 10.5v191q0 6 4.5 10.5t10.5 4.5z" />
    <glyph glyph-name="eight" unicode="8" 
d="M415 190q0 34 -30.5 59.5t-90.5 50.5q-107 -43 -107 -110q0 -38 27 -65.5t86 -27.5t87 26.5t28 66.5zM389 511q0 35 -25 55t-62 20q-38 0 -64 -16t-26 -53q0 -19 8.5 -35t25 -28.5t29.5 -20t34 -17.5q80 39 80 95zM423 359q33 -20 51.5 -33.5t39.5 -35.5t30.5 -48.5
t9.5 -60.5q0 -87 -67 -139t-187 -52q-122 0 -188 50.5t-66 137.5q0 115 135 181q-33 21 -52 37t-37.5 49t-18.5 73q0 85 66 128.5t160 43.5q89 0 158.5 -43.5t69.5 -129.5q0 -42 -18 -75t-36.5 -48.5t-49.5 -34.5z" />
    <glyph glyph-name="nine" unicode="9" 
d="M405 413q-5 156 -113 156q-45 0 -72.5 -30t-27.5 -74q0 -55 27.5 -80t68.5 -25q66 0 117 53zM546 366q0 -181 -75 -280q-75 -97 -210 -97q-60 0 -109 13q-39 11 -80 36q-13 7 -6 19l41 86q6 14 22 5q25 -14 60 -26q35 -11 74 -11q69 0 107 61q27 42 30 114
q-24 -20 -53 -31q-35 -14 -75 -14q-112 0 -170 71q-48 56 -48 149q0 105 70 168q66 60 168 60q120 0 183 -73q71 -80 71 -250z" />
    <glyph glyph-name="colon" unicode=":" horiz-adv-x="261" 
d="M210 69q0 -33 -23 -56t-56 -23t-56.5 23t-23.5 56q0 34 23.5 57t56.5 23t56 -23t23 -57zM210 387q0 -33 -23 -56t-56 -23t-56.5 23t-23.5 56t23.5 56.5t56.5 23.5t56 -23.5t23 -56.5z" />
    <glyph glyph-name="semicolon" unicode=";" horiz-adv-x="261" 
d="M216 387q0 -33 -23 -56t-56 -23t-56 23t-23 56t23 56.5t56 23.5t56 -23.5t23 -56.5zM228 38q1 -57 -40 -108t-98 -68q-15 -4 -22 6l-13 21q-8 12 4 21q53 35 53 63q0 13 -9.5 23t-21 16.5t-21 21.5t-9.5 38q0 35 22 56t59 21q47 0 71 -29.5t25 -81.5z" />
    <glyph glyph-name="less" unicode="&#x3c;" horiz-adv-x="630" 
d="M48 291v124q0 18 15 23l489 190q21 7 21 -12v-110q0 -19 -16 -25l-359 -128l359 -128q16 -6 16 -25v-110q0 -19 -21 -12l-489 189q-15 5 -15 24z" />
    <glyph glyph-name="equal" unicode="=" horiz-adv-x="577" 
d="M518 174h-460q-6 0 -10.5 4.5t-4.5 10.5v94q0 6 4.5 10.5t10.5 4.5h460q7 0 11.5 -4.5t4.5 -10.5v-94q0 -6 -4.5 -10.5t-11.5 -4.5zM518 406h-460q-6 0 -10.5 4.5t-4.5 10.5v94q0 6 4.5 10.5t10.5 4.5h460q7 0 11.5 -4.5t4.5 -10.5v-94q0 -6 -4.5 -10.5t-11.5 -4.5z" />
    <glyph glyph-name="greater" unicode="&#x3e;" horiz-adv-x="633" 
d="M582 415v-124q0 -19 -15 -24l-490 -189q-21 -8 -21 12v110q0 19 17 25l359 128l-359 128q-17 6 -17 25v110q0 20 21 12l490 -190q15 -5 15 -23z" />
    <glyph glyph-name="question" unicode="?" horiz-adv-x="522" 
d="M261 574q-46 0 -85 -19t-87 -56q-4 -3 -10.5 -1.5t-8.5 7.5l-39 76q-4 10 7 21q106 89 229 89q95 0 157 -56q61 -55 61 -138q0 -53 -23.5 -89.5t-77.5 -74.5q-45 -31 -59.5 -54.5t-17.5 -59.5q0 -7 -5.5 -11.5t-12.5 -4.5h-70q-12 0 -20 14q-11 26 -11 53q0 43 42 90
q11 11 24 22.5t33 27.5t30 25q34 28 34 62q0 36 -26 57q-27 20 -64 20zM329 69q0 -33 -22.5 -56t-56.5 -23q-33 0 -56 23t-23 56q0 34 23 57t56 23q34 0 56.5 -23t22.5 -57z" />
    <glyph glyph-name="at" unicode="@" horiz-adv-x="802" 
d="M497 243v89q-98 -5 -139 -24q-46 -20 -46 -57q0 -28 22 -45t58 -17q72 0 105 54zM425 38q70 0 136 15t106 37q16 9 22 -6l10 -29q4 -11 -8 -19q-45 -25 -120.5 -40t-145.5 -15q-165 0 -272 99t-107 259q0 145 110.5 248.5t264.5 103.5q143 0 238.5 -81.5t95.5 -216.5
q0 -105 -51 -181t-134 -76q-52 0 -63 44q-39 -46 -116 -46q-53 0 -94 25q-52 35 -52 95q0 80 104 113q54 15 147 20q0 44 -23 69q-25 25 -67 25q-48 0 -107 -34q-15 -10 -22 4l-14 28q-5 12 7 20q65 44 136 44q66 0 109 -38q48 -41 48 -124v-161q0 -27 22 -27q40 0 76 50
t36 147q0 113 -78 179t-197 66q-131 0 -224.5 -88t-93.5 -211q0 -134 90.5 -216t230.5 -82z" />
    <glyph glyph-name="A" unicode="A" horiz-adv-x="693" 
d="M346 556q-58 0 -94 -36q-42 -44 -42 -120v-64h273v64q0 76 -41 120q-38 36 -96 36zM627 406v-391q0 -6 -4.5 -10.5t-10.5 -4.5h-114q-6 0 -10.5 4.5t-4.5 10.5v193h-273v-193q0 -6 -4.5 -10.5t-10.5 -4.5h-114q-6 0 -10.5 4.5t-4.5 10.5v391q0 64 25.5 123t74.5 100
q73 61 180 61q108 0 181 -61q50 -40 75 -99t25 -124z" />
    <glyph glyph-name="B" unicode="B" horiz-adv-x="619" 
d="M577 184q0 -89 -67 -136.5t-161 -47.5h-266q-7 0 -11.5 4.5t-4.5 10.5v651q0 6 4.5 10.5t11.5 4.5h206q106 0 166 -43q66 -49 66 -130q0 -106 -85 -145v-4q141 -33 141 -175zM376 483q0 44 -31 65q-23 16 -57 16h-77v-160h68q38 0 59 10q38 19 38 69zM430 203
q0 52 -47 73q-24 12 -85 12h-87v-171h107q42 0 64 10q48 21 48 76z" />
    <glyph glyph-name="C" unicode="C" horiz-adv-x="654" 
d="M402 -10q-165 0 -263.5 95t-98.5 256q0 149 105.5 249t259.5 100q114 0 206 -47q13 -8 7 -21l-46 -96q-6 -13 -20 -6q-80 40 -150 40q-87 0 -149 -63t-62 -156q0 -97 60.5 -158.5t151.5 -61.5q80 0 155 40q13 6 18 -5l46 -98q6 -13 -7 -19q-96 -49 -213 -49z" />
    <glyph glyph-name="D" unicode="D" horiz-adv-x="742" 
d="M701 341q0 -206 -152 -292q-88 -49 -224 -49h-242q-7 0 -11.5 4.5t-4.5 10.5v651q0 6 4.5 10.5t11.5 4.5h255q183 0 281 -104q82 -87 82 -236zM211 560v-439h104q82 0 137 27q102 51 102 193q0 100 -52 155q-60 64 -184 64h-107z" />
    <glyph glyph-name="E" unicode="E" horiz-adv-x="618" 
d="M83 681h482q7 0 11.5 -4.5t4.5 -10.5v-98q0 -6 -4.5 -10.5t-11.5 -4.5h-354v-147h302q6 0 10.5 -4.5t4.5 -10.5v-97q0 -7 -4.5 -11.5t-10.5 -4.5h-302v-151h354q16 0 16 -15v-97q0 -6 -4.5 -10.5t-11.5 -4.5h-482q-7 0 -11.5 4.5t-4.5 10.5v651q0 6 4.5 10.5t11.5 4.5z
" />
    <glyph glyph-name="F" unicode="F" horiz-adv-x="581" 
d="M211 278v-263q0 -15 -15 -15h-113q-7 0 -11.5 4.5t-4.5 10.5v651q0 6 4.5 10.5t11.5 4.5h453q6 0 10.5 -4.5t4.5 -10.5v-98q0 -6 -4.5 -10.5t-10.5 -4.5h-325v-147h280q6 0 10.5 -4.5t4.5 -10.5v-97q0 -7 -4.5 -11.5t-10.5 -4.5h-280z" />
    <glyph glyph-name="G" unicode="G" horiz-adv-x="746" 
d="M405 690q114 0 206 -47q13 -8 7 -21l-46 -96q-5 -12 -20 -6q-91 40 -150 40q-89 0 -150.5 -63.5t-61.5 -155.5q0 -98 59 -160.5t153 -62.5q85 0 145 39v83h-138q-6 0 -10.5 4.5t-4.5 10.5v98q0 6 4.5 10.5t10.5 4.5h259q15 0 15 -15v-338q0 -15 -15 -15h-106
q-6 0 -10.5 4.5t-4.5 10.5v12q-67 -37 -160 -37q-151 0 -249 93t-98 258q0 148 106.5 248.5t258.5 100.5z" />
    <glyph glyph-name="H" unicode="H" horiz-adv-x="733" 
d="M536 681h114q6 0 10.5 -4.5t4.5 -10.5v-651q0 -6 -4.5 -10.5t-10.5 -4.5h-114q-6 0 -10.5 4.5t-4.5 10.5v264h-310v-264q0 -15 -15 -15h-113q-7 0 -11.5 4.5t-4.5 10.5v651q0 6 4.5 10.5t11.5 4.5h113q15 0 15 -15v-260h310v260q0 6 4.5 10.5t10.5 4.5z" />
    <glyph glyph-name="I" unicode="I" horiz-adv-x="279" 
d="M83 681h113q15 0 15 -15v-651q0 -15 -15 -15h-113q-7 0 -11.5 4.5t-4.5 10.5v651q0 6 4.5 10.5t11.5 4.5z" />
    <glyph glyph-name="J" unicode="J" horiz-adv-x="533" 
d="M207 -10q-109 0 -191 67q-11 8 -3 21l53 90q8 12 20 2q60 -53 119 -53q55 0 84 28q34 34 34 115v406q0 6 4.5 10.5t10.5 4.5h114q6 0 10.5 -4.5t4.5 -10.5v-419q0 -137 -82 -203q-67 -54 -178 -54z" />
    <glyph glyph-name="K" unicode="K" horiz-adv-x="654" 
d="M466 15l-200 265l-55 -56v-209q0 -15 -15 -15h-113q-7 0 -11.5 4.5t-4.5 10.5v651q0 6 4.5 10.5t11.5 4.5h113q15 0 15 -15v-259l235 259q14 15 31 15h145q10 0 12.5 -7.5t-5.5 -15.5l-262 -272l270 -360q8 -8 6.5 -17t-14.5 -9h-134q-18 0 -29 15z" />
    <glyph glyph-name="L" unicode="L" horiz-adv-x="542" 
d="M83 681h113q15 0 15 -15v-539h291q16 0 16 -15v-97q0 -6 -4.5 -10.5t-11.5 -4.5h-419q-7 0 -11.5 4.5t-4.5 10.5v651q0 6 4.5 10.5t11.5 4.5z" />
    <glyph glyph-name="M" unicode="M" horiz-adv-x="840" 
d="M772 666v-651q0 -6 -4.5 -10.5t-11.5 -4.5h-108q-7 0 -11.5 4.5t-4.5 10.5v416l-145 -253q-9 -16 -24 -16h-83q-15 0 -24 16l-149 253v-416q0 -6 -4.5 -10.5t-11.5 -4.5h-108q-7 0 -11.5 4.5t-4.5 10.5v651q0 6 4.5 10.5t11.5 4.5h114q19 0 28 -16l194 -337l195 337
q8 16 27 16h115q7 0 11.5 -4.5t4.5 -10.5z" />
    <glyph glyph-name="N" unicode="N" horiz-adv-x="743" 
d="M537 239v427q0 6 4.5 10.5t10.5 4.5h108q6 0 10.5 -4.5t4.5 -10.5v-651q0 -6 -4.5 -10.5t-10.5 -4.5h-100q-18 0 -28 15l-327 426v-426q0 -6 -4.5 -10.5t-10.5 -4.5h-107q-7 0 -11.5 4.5t-4.5 10.5v651q0 6 4.5 10.5t11.5 4.5h100q15 0 27 -16z" />
    <glyph glyph-name="O" unicode="O" horiz-adv-x="810" 
d="M769 339q0 -155 -104 -252t-260 -97t-260.5 97t-104.5 252q0 156 104.5 253.5t260.5 97.5q155 0 259.5 -98t104.5 -253zM616 339q0 92 -60 154t-151 62t-151.5 -62t-60.5 -154t60.5 -153.5t151.5 -61.5t151 61.5t60 153.5z" />
    <glyph glyph-name="P" unicode="P" horiz-adv-x="646" 
d="M466 443q0 64 -43 92q-31 20 -76 20h-136v-224h133q50 0 77 18q45 27 45 94zM83 681h283q101 0 163 -51q83 -68 83 -187q0 -123 -90 -192q-60 -46 -156 -46h-155v-190q0 -15 -15 -15h-113q-7 0 -11.5 4.5t-4.5 10.5v651q0 6 4.5 10.5t11.5 4.5z" />
    <glyph glyph-name="Q" unicode="Q" horiz-adv-x="809" 
d="M786 -73q21 -3 12 -20l-52 -93q-6 -13 -24 -13t-48 7.5t-73 22t-81 29t-97 36.5t-97 36q-16 5 -16 26v44q-118 28 -194 119.5t-76 217.5q0 153 107 252t258 99t257.5 -99t106.5 -252q0 -125 -74 -215.5t-189 -119.5q0 -9 11 -12q160 -50 269 -65zM616 339q0 92 -60 154
t-151 62t-151.5 -62t-60.5 -154t60.5 -153.5t151.5 -61.5t151 61.5t60 153.5z" />
    <glyph glyph-name="R" unicode="R" horiz-adv-x="665" 
d="M550 293q-26 -22 -61 -37l148 -230q15 -26 -9 -26h-125q-21 0 -29 15l-134 221h-129v-221q0 -15 -15 -15h-113q-7 0 -11.5 4.5t-4.5 10.5v651q0 6 4.5 10.5t11.5 4.5h292q110 0 172 -46q79 -58 79 -175q0 -103 -76 -167zM363 559h-152v-201h140q62 0 88 17q41 26 41 83
q0 56 -38 82q-30 19 -79 19z" />
    <glyph glyph-name="S" unicode="S" horiz-adv-x="579" 
d="M282 -10q-137 0 -244 64q-12 7 -6 19l46 97q7 14 19 6q98 -62 183 -62q51 0 78 20q29 21 29 58q0 51 -85 80q-16 6 -54 17.5t-69 23.5t-57 28q-85 56 -85 155q0 90 71 143q69 51 188 51q123 0 218 -52q13 -7 6 -19l-46 -97q-7 -12 -19 -5q-88 48 -167 48q-47 0 -74 -17
q-25 -18 -25 -46q0 -26 22 -42.5t65 -30.5q14 -4 46 -13t51.5 -15.5t46 -18t46.5 -25.5q78 -54 78 -153q0 -100 -75 -157q-72 -57 -187 -57z" />
    <glyph glyph-name="T" unicode="T" horiz-adv-x="599" 
d="M23 681h552q7 0 11.5 -4.5t4.5 -10.5v-98q0 -6 -4.5 -10.5t-11.5 -4.5h-204v-538q0 -6 -4.5 -10.5t-10.5 -4.5h-114q-6 0 -10.5 4.5t-4.5 10.5v538h-204q-6 0 -10.5 4.5t-4.5 10.5v98q0 6 4.5 10.5t10.5 4.5z" />
    <glyph glyph-name="U" unicode="U" horiz-adv-x="724" 
d="M513 286v380q0 6 4.5 10.5t11.5 4.5h113q15 0 15 -15v-397q0 -117 -62 -188q-80 -91 -234 -91t-232 91q-63 72 -63 188v397q0 6 4.5 10.5t10.5 4.5h114q6 0 10.5 -4.5t4.5 -10.5v-380q0 -77 34 -117q39 -47 117 -47q80 0 119 47q33 41 33 117z" />
    <glyph glyph-name="V" unicode="V" horiz-adv-x="678" 
d="M674 660l-254 -648q-5 -15 -23 -15h-120q-19 0 -24 15l-248 648q-9 21 12 21h121q19 0 25 -17l173 -486h2l179 486q6 17 25 17h120q9 0 12.5 -6t-0.5 -15z" />
    <glyph glyph-name="W" unicode="W" horiz-adv-x="1046" 
d="M835 248v418q0 6 4.5 10.5t10.5 4.5h114q6 0 10.5 -4.5t4.5 -10.5v-420q0 -121 -69 -187q-69 -68 -195 -68q-61 0 -110 21q-50 23 -82 67q-33 -45 -83 -67q-49 -21 -110 -21q-126 0 -195 68q-69 66 -69 187v420q0 6 4.5 10.5t10.5 4.5h114q6 0 10.5 -4.5t4.5 -10.5v-418
q0 -61 32 -93t88 -32q58 0 88 33q33 38 33 111v399q0 15 15 15h113q7 0 11.5 -4.5t4.5 -10.5v-399q0 -74 32 -111q30 -33 88 -33t89 32q31 33 31 93z" />
    <glyph glyph-name="X" unicode="X" horiz-adv-x="701" 
d="M442 342l253 -318q8 -9 5 -16.5t-15 -7.5h-149q-15 0 -26 14l-159 217l-160 -217q-9 -14 -25 -14h-150q-12 0 -15 7.5t5 16.5l257 315l-252 317q-7 9 -4 17t15 8h150q15 0 25 -15l155 -210l150 210q12 15 27 15h151q12 0 15 -8t-5 -17z" />
    <glyph glyph-name="Y" unicode="Y" horiz-adv-x="660" 
d="M329 426l158 240q9 15 26 15h131q12 0 14.5 -7.5t-4.5 -17.5l-253 -373v-268q0 -6 -4.5 -10.5t-10.5 -4.5h-114q-6 0 -10.5 4.5t-4.5 10.5v269l-251 372q-7 10 -4.5 17.5t14.5 7.5h131q17 0 25 -15z" />
    <glyph glyph-name="Z" unicode="Z" horiz-adv-x="617" 
d="M12 22l342 531h-310q-6 0 -10.5 4.5t-4.5 10.5v98q0 6 4.5 10.5t10.5 4.5h533q15 0 15 -13q0 -4 -3 -9l-342 -532h336q16 0 16 -15v-97q0 -6 -4.5 -10.5t-11.5 -4.5h-559q-15 0 -15 13q0 5 3 9z" />
    <glyph glyph-name="bracketleft" unicode="[" horiz-adv-x="395" 
d="M347 -152h-267q-15 0 -15 15v910q0 15 15 15h267q15 0 15 -15v-90q0 -16 -15 -16h-141v-699h141q15 0 15 -15v-90q0 -15 -15 -15z" />
    <glyph glyph-name="backslash" unicode="\" horiz-adv-x="330" 
d="M153 660l178 -638q7 -22 -14 -22h-95q-20 0 -27 20l-178 638q-6 23 15 23h95q20 0 26 -21z" />
    <glyph glyph-name="bracketright" unicode="]" horiz-adv-x="395" 
d="M315 -153h-267q-16 0 -16 16v90q0 6 4.5 10.5t11.5 4.5h141v699h-141q-16 0 -16 16v90q0 6 4.5 10.5t11.5 4.5h267q6 0 10.5 -4.5t4.5 -10.5v-910q0 -7 -4.5 -11.5t-10.5 -4.5z" />
    <glyph glyph-name="asciicircum" unicode="^" horiz-adv-x="563" 
d="M250 716h63q15 0 25 -15l190 -291q5 -5 1.5 -13t-13.5 -8h-96q-15 0 -25 17l-113 175l-113 -175q-12 -17 -26 -17h-96q-10 0 -13 8t2 13l189 291q11 15 25 15z" />
    <glyph glyph-name="underscore" unicode="_" horiz-adv-x="459" 
d="M459 -156h-459q-15 0 -15 15v69q0 15 15 15h459q15 0 15 -15v-69q0 -6 -4.5 -10.5t-10.5 -4.5z" />
    <glyph glyph-name="grave" unicode="`" horiz-adv-x="465" 
d="M139 764h91q14 0 21 -15l76 -154q12 -27 -9 -27h-69q-13 0 -23 16l-97 157q-6 8 -3 15.5t13 7.5z" />
    <glyph glyph-name="a" unicode="a" horiz-adv-x="486" 
d="M229 365q-61 0 -125 -36q-16 -9 -22 5l-29 63q-5 12 6 20q79 50 186 50q98 0 145 -52q40 -45 40 -122v-278q0 -6 -4.5 -10.5t-10.5 -4.5h-88q-7 0 -11.5 4.5t-4.5 10.5v8h-4q-52 -33 -122 -33q-64 0 -106 37q-45 37 -45 104q0 78 83 116q62 27 181 36v10q0 35 -14 52
q-16 20 -55 20zM228 88q39 0 70 19v87q-138 -5 -138 -59q0 -23 19 -35t49 -12z" />
    <glyph glyph-name="b" unicode="b" horiz-adv-x="551" 
d="M80 1q-15 3 -15 18v647q0 15 15 15h102q6 0 10.5 -4.5t4.5 -10.5v-214q45 15 97 15q98 0 159 -66q60 -63 60 -173q0 -96 -55 -158q-72 -80 -223 -80q-104 0 -155 11zM197 342v-241q16 -2 50 -2q71 0 106 45q26 34 26 84q0 58 -32 93q-33 34 -81 34q-35 0 -69 -13z" />
    <glyph glyph-name="c" unicode="c" horiz-adv-x="479" 
d="M295 101q50 0 99 28q15 9 22 -4l37 -72q6 -10 -6 -19q-60 -44 -155 -44q-125 0 -195 73q-60 65 -60 166q0 86 50 147q73 90 208 90q86 0 150 -45q12 -8 6 -20l-39 -73q-6 -13 -22 -4q-48 30 -95 30q-56 0 -91 -38q-32 -35 -32 -87q0 -56 33 -91q34 -37 90 -37z" />
    <glyph glyph-name="d" unicode="d" horiz-adv-x="547" 
d="M320 110h30v237q-28 7 -61 7q-60 0 -92 -45q-24 -31 -24 -81q0 -58 36 -87q37 -31 111 -31zM467 0h-161q-125 0 -197 60q-72 61 -72 166q0 97 51 159q65 82 193 82q40 0 69 -8v207q0 6 4.5 10.5t10.5 4.5h102q6 0 10.5 -4.5t4.5 -10.5v-651q0 -6 -4.5 -10.5t-10.5 -4.5z
" />
    <glyph glyph-name="e" unicode="e" horiz-adv-x="525" 
d="M176 276h187q-1 35 -22 60q-25 27 -68 27q-48 0 -72 -27q-20 -23 -25 -60zM296 95q57 0 111 31q17 9 23 -4l35 -65q5 -11 -7 -20q-29 -20 -76 -33.5t-96 -13.5q-115 0 -182 67q-67 65 -67 177q0 100 67 169q62 64 168 64q118 0 177 -80q44 -60 42 -183q0 -15 -15 -15
h-299q7 -38 30 -61q31 -33 89 -33z" />
    <glyph glyph-name="f" unicode="f" horiz-adv-x="370" 
d="M275 574q-27 0 -42 -18q-14 -18 -14 -59v-39h100q16 0 16 -15v-73q0 -16 -16 -16h-100v-339q0 -6 -4.5 -10.5t-10.5 -4.5h-102q-6 0 -10.5 4.5t-4.5 10.5v339h-51q-6 0 -10.5 4.5t-4.5 11.5v73q0 15 15 15h51v53q0 91 46 137q41 41 112 41q95 0 154 -44q11 -8 6 -20
l-35 -73q-7 -12 -22 -4q-41 26 -73 26z" />
    <glyph glyph-name="g" unicode="g" horiz-adv-x="564" 
d="M266 -128q50 0 75 24q26 28 26 77v45q-46 -26 -111 -26q-91 0 -151 58q-68 66 -68 180q0 106 63 174q60 63 155 63q59 0 113 -37h3v13q0 15 15 15h98q15 0 15 -15v-453q0 -121 -68 -179q-59 -49 -167 -49q-107 0 -179 50q-11 10 -7 20l39 76q8 14 23 4q60 -40 126 -40z
M272 101q52 0 95 29v189q-48 35 -92 35q-46 0 -72 -29q-31 -37 -31 -97q0 -65 30 -98q27 -29 70 -29z" />
    <glyph glyph-name="h" unicode="h" horiz-adv-x="576" 
d="M387 244q0 62 -23 87q-20 23 -60 23q-54 0 -80.5 -41.5t-26.5 -97.5v-200q0 -6 -4.5 -10.5t-10.5 -4.5h-102q-15 0 -15 15v651q0 15 15 15h102q6 0 10.5 -4.5t4.5 -10.5v-254q54 55 136 55q85 0 134 -45q53 -48 53 -144v-263q0 -15 -15 -15h-103q-6 0 -10.5 4.5
t-4.5 10.5v229z" />
    <glyph glyph-name="i" unicode="i" horiz-adv-x="262" 
d="M65 443q0 15 15 15h102q15 0 15 -15v-428q0 -6 -4.5 -10.5t-10.5 -4.5h-102q-15 0 -15 15v428zM131 584q-32 0 -54 22t-22 54t22 54t54 22q31 0 53 -22t22 -54t-22 -54t-53 -22z" />
    <glyph glyph-name="j" unicode="j" horiz-adv-x="261" 
d="M206 660q0 -32 -22 -54t-54 -22t-54 22t-22 54t22 54t54 22t54 -22t22 -54zM64 37v406q0 6 4.5 10.5t11.5 4.5h102q6 0 10.5 -4.5t4.5 -10.5v-408q0 -207 -111 -271q-16 -8 -26 2l-70 70q-10 10 4 20q40 30 55 66t15 115z" />
    <glyph glyph-name="k" unicode="k" horiz-adv-x="539" 
d="M369 15l-122 167l-50 -47v-120q0 -6 -4.5 -10.5t-10.5 -4.5h-102q-15 0 -15 15v651q0 15 15 15h102q6 0 10.5 -4.5t4.5 -10.5v-388l162 167q12 13 29 13h120q12 0 15.5 -9t-5.5 -16l-179 -166l185 -243q7 -8 4.5 -16t-15.5 -8h-118q-16 0 -26 15z" />
    <glyph glyph-name="l" unicode="l" horiz-adv-x="262" 
d="M65 666q0 15 15 15h102q6 0 10.5 -4.5t4.5 -10.5v-651q0 -6 -4.5 -10.5t-10.5 -4.5h-102q-15 0 -15 15v651z" />
    <glyph glyph-name="m" unicode="m" horiz-adv-x="835" 
d="M193 426h3q46 40 113 40q94 0 143 -66q54 66 148 66q81 0 129 -45q50 -45 50 -140v-266q0 -6 -4.5 -10.5t-10.5 -4.5h-102q-15 0 -15 15v233q0 55 -20 82q-20 25 -58 25q-42 0 -63 -36q-18 -31 -18 -97v-207q0 -6 -4.5 -10.5t-10.5 -4.5h-102q-15 0 -15 15v233
q0 55 -20 82q-20 25 -58 25q-41 0 -63 -36q-16 -29 -18 -94v-210q0 -6 -4.5 -10.5t-10.5 -4.5h-102q-15 0 -15 15v428q0 15 15 15h98q15 0 15 -15v-17z" />
    <glyph glyph-name="n" unicode="n" horiz-adv-x="576" 
d="M193 412h3q54 55 137 55q85 0 134 -45q53 -48 53 -144v-263q0 -15 -15 -15h-103q-6 0 -10.5 4.5t-4.5 10.5v229q0 62 -23 87q-20 23 -60 23q-54 0 -80.5 -41.5t-26.5 -97.5v-200q0 -6 -4.5 -10.5t-10.5 -4.5h-102q-15 0 -15 15v428q0 15 15 15h98q15 0 15 -15v-31z" />
    <glyph glyph-name="o" unicode="o" horiz-adv-x="570" 
d="M167 228q0 -56 32 -91.5t85 -35.5t85 35.5t32 91.5t-32 91.5t-85 35.5t-85 -35.5t-32 -91.5zM37 228q0 109 70.5 174t176.5 65q107 0 177.5 -65t70.5 -174t-70.5 -173.5t-177.5 -64.5t-177 64.5t-70 173.5z" />
    <glyph glyph-name="p" unicode="p" horiz-adv-x="549" 
d="M197 355v-248q24 -9 56 -9q58 0 91 29q36 33 36 101q0 57 -32 94q-34 37 -94 37q-34 0 -57 -4zM80 451q60 16 161 16q134 0 206 -72q64 -62 64 -167q0 -101 -54 -163q-67 -75 -190 -75q-41 0 -70 8v-217q0 -7 -4.5 -11.5t-10.5 -4.5h-102q-15 0 -15 16v652q0 13 15 18z
" />
    <glyph glyph-name="q" unicode="q" horiz-adv-x="548" 
d="M350 211v141q-27 5 -54 5q-68 0 -103 -46q-25 -33 -25 -84q0 -60 27 -95q26 -34 72 -34q83 0 83 113zM244 -10q-87 0 -143 56q-64 64 -64 179q0 101 58 162q74 80 212 80q95 0 159 -21q17 -5 17 -20v-645q0 -7 -4.5 -11.5t-10.5 -4.5h-102q-16 0 -16 16v242
q-39 -33 -106 -33z" />
    <glyph glyph-name="r" unicode="r" horiz-adv-x="426" 
d="M284 351q-87 0 -87 -126v-210q0 -6 -4.5 -10.5t-10.5 -4.5h-102q-15 0 -15 15v428q0 15 15 15h98q15 0 15 -15v-27h3q43 51 112 51q68 0 112 -38q11 -10 5 -21l-37 -79q-7 -13 -23 -4q-43 26 -81 26z" />
    <glyph glyph-name="s" unicode="s" horiz-adv-x="430" 
d="M202 93q53 0 53 36q0 15 -10 23t-33 18q-11 5 -44.5 18t-51.5 22q-74 36 -74 120q0 64 48 100.5t135 36.5q92 0 155 -35q14 -7 6 -20l-36 -74q-6 -11 -18 -5q-53 29 -103 29q-47 0 -47 -32q0 -22 44 -39q91 -37 93 -38q75 -36 75 -116q0 -64 -51.5 -105.5t-137.5 -41.5
q-99 0 -165 38q-14 8 -7 19l37 77q6 12 19 6q64 -37 113 -37z" />
    <glyph glyph-name="t" unicode="t" horiz-adv-x="393" 
d="M213 354v-174q0 -33 10 -52q12 -24 46 -24q33 0 65 25q16 12 21 -2l35 -74q6 -11 -6 -20q-61 -43 -150 -43q-80 0 -117 44q-36 45 -36 128v192h-50q-6 0 -10.5 4.5t-4.5 11.5v73q0 15 15 15h50v90q0 15 15 15h102q15 0 15 -15v-90h126q15 0 15 -15v-73q0 -16 -15 -16
h-126z" />
    <glyph glyph-name="u" unicode="u" horiz-adv-x="567" 
d="M57 197v246q0 15 15 15h102q15 0 15 -15v-237q0 -37 13 -62q22 -42 81 -42q58 0 82 42q13 25 13 62v237q0 15 15 15h102q15 0 15 -15v-246q0 -84 -40 -135q-57 -72 -187 -72q-129 0 -186 72q-40 51 -40 135z" />
    <glyph glyph-name="v" unicode="v" horiz-adv-x="500" 
d="M495 437l-168 -425q-5 -15 -23 -15h-118q-19 0 -24 15l-158 425q-7 21 12 21h108q20 0 25 -16l102 -316h2l99 316q4 16 25 16h106q21 0 12 -21z" />
    <glyph glyph-name="w" unicode="w" horiz-adv-x="807" 
d="M750 443v-245q0 -85 -31 -134q-46 -74 -160 -74q-71 0 -116 33q-25 19 -39 39q-18 -25 -39 -40q-46 -32 -116 -32q-113 0 -161 73q-31 51 -31 135v245q0 15 15 15h102q15 0 15 -15v-241q0 -41 13 -67q16 -31 59 -31q49 0 67 43q10 23 10 58v238q0 15 15 15h102
q15 0 15 -15v-238q0 -35 10 -58q18 -43 68 -43q42 0 58 31q13 23 13 67v241q0 15 15 15h101q15 0 15 -15z" />
    <glyph glyph-name="x" unicode="x" horiz-adv-x="533" 
d="M6 24l178 210l-168 200q-8 8 -5 16t15 8h127q13 0 25 -15l88 -118l90 118q10 15 26 15h122q12 0 14.5 -7.5t-4.5 -16.5l-169 -191l182 -219q8 -9 5 -16.5t-15 -7.5h-124q-15 0 -26 14l-101 128l-100 -128q-12 -14 -26 -14h-124q-12 0 -15 7.5t5 16.5z" />
    <glyph glyph-name="y" unicode="y" horiz-adv-x="535" 
d="M530 437l-174 -462q-35 -97 -92 -148q-78 -70 -202 -63q-12 0 -12 12v101q0 12 12 12q3 0 13 -1t18 -1q44 0 75 24q26 22 46 57l-209 469q-9 21 12 21h123q20 0 25 -16l117 -309l98 309q5 16 25 16h113q19 0 12 -21z" />
    <glyph glyph-name="z" unicode="z" horiz-adv-x="446" 
d="M421 0h-400q-23 0 -9 20l216 323h-193q-7 0 -11.5 4.5t-4.5 10.5v85q0 15 16 15h388q9 0 12.5 -6t-2.5 -15l-214 -321h202q6 0 10.5 -4.5t4.5 -10.5v-86q0 -6 -4.5 -10.5t-10.5 -4.5z" />
    <glyph glyph-name="braceleft" unicode="{" horiz-adv-x="382" 
d="M45 271v91q0 15 15 15h5q36 0 54 26q22 31 22 104l-3 105q0 78 38 120q48 54 155 54q18 0 18 -15v-73q0 -15 -15 -15q-37 0 -57 -25q-15 -22 -15 -69l2 -97q0 -86 -37 -127q-26 -30 -74 -48q46 -19 74 -48q37 -43 37 -127l-2 -98q0 -45 15 -69q19 -25 57 -25q15 0 15 -15
v-72q0 -16 -18 -16q-107 0 -155 54q-38 42 -38 121l3 104q0 72 -22 103q-18 27 -54 27h-5q-15 0 -15 15z" />
    <glyph glyph-name="bar" unicode="|" horiz-adv-x="268" 
d="M83 681h102q6 0 10.5 -4.5t4.5 -10.5v-869q0 -6 -4.5 -10.5t-10.5 -4.5h-102q-7 0 -11.5 4.5t-4.5 10.5v869q0 6 4.5 10.5t11.5 4.5z" />
    <glyph glyph-name="braceright" unicode="}" horiz-adv-x="382" 
d="M337 362v-91q0 -15 -15 -15h-5q-36 0 -54 -27q-22 -31 -22 -103l3 -104q0 -79 -38 -121q-48 -54 -155 -54q-18 0 -18 16v72q0 15 15 15q38 0 57 25q15 24 15 69l-2 98q0 84 37 127q28 29 74 48q-48 18 -74 48q-37 41 -37 127l2 97q0 47 -15 69q-20 25 -57 25
q-15 0 -15 15v73q0 15 18 15q107 0 155 -54q38 -42 38 -120l-3 -105q0 -73 22 -104q18 -26 54 -26h5q15 0 15 -15z" />
    <glyph glyph-name="asciitilde" unicode="~" horiz-adv-x="660" 
d="M438 191q-46 0 -84 22.5t-68 44.5t-57 22q-60 0 -60 -63q0 -16 -17 -16h-89q-15 0 -15 16q0 87 45.5 138t128.5 51q37 0 69 -14t51 -30.5t43 -30.5t46 -14q60 0 60 63q0 15 17 15h89q15 0 15 -15q0 -88 -45.5 -138.5t-128.5 -50.5z" />
    <glyph glyph-name="nbspace" unicode="&#xa0;" 
 />
    <glyph glyph-name="exclamdown" unicode="&#xa1;" horiz-adv-x="324" 
d="M84 388q0 33 23 56t56 23q34 0 56.5 -23t22.5 -56q0 -34 -22.5 -56.5t-56.5 -22.5q-33 0 -56 22.5t-23 56.5zM232 -223h-138q-14 0 -12 15l36 427q2 15 16 15h58q14 0 16 -15l36 -427q2 -15 -12 -15z" />
    <glyph glyph-name="cent" unicode="&#xa2;" 
d="M322 553h39q15 0 15 -15v-73q68 -7 122 -44q12 -8 6 -20l-39 -72q-7 -12 -22 -4q-48 30 -94 30q-57 0 -92 -38q-32 -35 -32 -88q0 -58 33 -93q34 -37 92 -37q48 0 97 28q17 10 22 -4l37 -70q6 -10 -6 -19q-48 -34 -124 -42v-71q0 -16 -15 -16h-39q-6 0 -10.5 4.5
t-4.5 11.5v71q-99 9 -156 71q-60 63 -60 166q0 87 49 147q62 75 167 87v75q0 6 4.5 10.5t10.5 4.5z" />
    <glyph glyph-name="sterling" unicode="&#xa3;" 
d="M183 234q0 7 -2 23h-87q-6 0 -10.5 4.5t-4.5 11.5v84q0 6 4.5 10.5t10.5 4.5h53q-21 67 -21 110q0 95 63 150q64 58 169 58q98 0 169 -41q11 -6 6 -19l-38 -79q-7 -13 -19 -6q-53 28 -105 28q-50 0 -81 -29q-27 -27 -27 -69q0 -38 21 -103h175q15 0 15 -15v-84
q0 -16 -15 -16h-145l1 -15q0 -67 -40 -118h242q6 0 10.5 -4.5t4.5 -10.5v-94q0 -6 -4.5 -10.5t-10.5 -4.5h-446q-6 0 -10.5 4.5t-4.5 10.5v94q0 6 4.5 10.5t10.5 4.5h70q42 40 42 110z" />
    <glyph glyph-name="currency" unicode="&#xa4;" horiz-adv-x="701" 
d="M201 388q0 -62 44.5 -106.5t106.5 -44.5q61 0 105 44.5t44 106.5t-43.5 105.5t-105.5 43.5t-106.5 -44t-44.5 -105zM54 173l78 79q-39 61 -39 136t40 137l-79 79q-11 11 0 22l59 61q11 9 22 0l80 -81q61 41 137 41q74 0 135 -40l81 81q11 11 22 0l59 -60q11 -11 0 -22
l-79 -80q41 -62 41 -138t-41 -137l80 -80q11 -11 0 -22l-60 -60q-4 -5 -11 -5t-11 5l-80 81q-58 -41 -136 -41q-76 0 -139 41l-77 -80q-11 -11 -22 0l-60 61q-11 11 0 22z" />
    <glyph glyph-name="yen" unicode="&#xa5;" 
d="M68 210h158v69h-158q-6 0 -10.5 4.5t-4.5 10.5v65q0 6 4.5 10.5t10.5 4.5h108l-171 286q-5 6 -1.5 13.5t13.5 7.5h132q17 0 25 -17l124 -238l125 238q7 17 25 17h134q10 0 13 -8t-2 -13l-172 -286h108q6 0 10.5 -4.5t4.5 -10.5v-65q0 -6 -4.5 -10.5t-10.5 -4.5h-159v-69
h159q15 0 15 -15v-64q0 -15 -15 -15h-159v-101q0 -6 -4.5 -10.5t-10.5 -4.5h-114q-6 0 -10.5 4.5t-4.5 10.5v101h-158q-15 0 -15 15v64q0 15 15 15z" />
    <glyph glyph-name="brokenbar" unicode="&#xa6;" horiz-adv-x="268" 
d="M83 681h102q6 0 10.5 -4.5t4.5 -10.5v-361q0 -6 -4.5 -10.5t-10.5 -4.5h-102q-7 0 -11.5 4.5t-4.5 10.5v361q0 6 4.5 10.5t11.5 4.5zM83 173h102q6 0 10.5 -4.5t4.5 -10.5v-361q0 -6 -4.5 -10.5t-10.5 -4.5h-102q-7 0 -11.5 4.5t-4.5 10.5v361q0 6 4.5 10.5t11.5 4.5z
" />
    <glyph glyph-name="section" unicode="&#xa7;" horiz-adv-x="526" 
d="M247 -230q-93 0 -170 52q-12 9 -6 20l35 72q6 15 19 6q65 -46 117 -46q27 0 43 15q17 17 17 45q0 22 -15.5 44t-30.5 34t-52.5 37.5t-51.5 35.5q-106 78 -106 171q0 90 72 158q-32 42 -32 95q0 78 49 127q53 55 145 55q94 0 170 -52q13 -8 6 -20l-35 -72q-5 -14 -19 -6
q-63 47 -114 47q-30 0 -48 -18q-16 -14 -16 -42q0 -14 6 -28t12.5 -23.5t23.5 -23.5t26 -21t32.5 -23t31.5 -22q58 -40 91 -82t33 -101q0 -91 -72 -157q33 -43 33 -95q0 -75 -47 -125q-55 -57 -147 -57zM320 130q22 26 22 55q0 47 -61 95l-75 50q-22 -24 -22 -54
q0 -48 54 -90q14 -11 45 -31.5t37 -24.5z" />
    <glyph glyph-name="dieresis" unicode="&#xa8;" horiz-adv-x="465" 
d="M117 584q-32 0 -54 22.5t-22 54.5t22 54t54 22q31 0 53.5 -22.5t22.5 -53.5q0 -32 -22.5 -54.5t-53.5 -22.5zM349 584q-32 0 -54 22.5t-22 54.5t22 54t54 22q31 0 53 -22t22 -54t-22 -54.5t-53 -22.5z" />
    <glyph glyph-name="copyright" unicode="&#xa9;" horiz-adv-x="824" 
d="M113 359q0 -125 85.5 -212t209.5 -87t210 87t86 212q0 124 -85.5 211.5t-209.5 87.5t-210 -87.5t-86 -211.5zM777 359q0 -153 -107.5 -260.5t-260.5 -107.5t-261 107.5t-108 260.5t107.5 260.5t260.5 107.5t261 -107.5t108 -260.5zM424 171q-85 0 -138.5 50t-53.5 134
q0 79 57 131.5t136 52.5q61 0 103 -23q11 -5 8 -13q0 -1 -12.5 -26t-13.5 -25q-4 -5 -15 0q-36 17 -72 17q-45 0 -77.5 -32.5t-32.5 -81.5q0 -50 31.5 -82t79.5 -32q38 0 75 17q10 5 14 -1q1 0 13.5 -25.5t12.5 -26.5q2 -8 -8 -12q-49 -22 -107 -22z" />
    <glyph glyph-name="ordfeminine" unicode="&#xaa;" horiz-adv-x="296" 
d="M81 303h135q6 0 10.5 -4.5t4.5 -11.5v-25q0 -15 -15 -15h-135q-15 0 -15 15v25q0 16 15 16zM146 464q24 0 40 13v59q-36 -4 -53 -11q-26 -10 -26 -30q0 -14 11 -22.5t28 -8.5zM32 492q0 44 45 67q31 15 109 23v6q0 27 -12 37q-11 9 -29 9q-29 0 -74 -24q-10 -6 -14 3
l-14 30q-5 11 7 18q49 30 105 30q49 0 76 -23q33 -27 33 -92v-153q0 -15 -15 -15h-40q-15 0 -15 15v8h-3q-14 -11 -32 -17t-40 -6q-36 0 -62 22q-25 23 -25 62z" />
    <glyph glyph-name="guillemotleft" unicode="&#xab;" horiz-adv-x="654" 
d="M23 230q0 7 12 22l168 193q15 16 32 16h98q14 0 17.5 -9.5t-5.5 -20.5l-170 -201l170 -202q9 -12 5.5 -20.5t-17.5 -8.5h-98q-18 0 -32 15l-168 193q-12 14 -12 23zM302 230q0 8 11 22l168 193q15 16 32 16h98q15 0 18 -9.5t-6 -20.5l-169 -201l169 -202q9 -12 6 -20.5
t-18 -8.5h-98q-18 0 -32 15l-168 193q-11 13 -11 23z" />
    <glyph glyph-name="logicalnot" unicode="&#xac;" horiz-adv-x="587" 
d="M35 302v100q0 7 4.5 11.5t10.5 4.5h487q6 0 10.5 -4.5t4.5 -11.5v-223q0 -6 -4.5 -10.5t-10.5 -4.5h-96q-6 0 -10.5 4.5t-4.5 10.5v108h-376q-6 0 -10.5 4.5t-4.5 10.5z" />
    <glyph glyph-name="uni00AD" unicode="&#xad;" horiz-adv-x="521" 
d="M108 343h305q6 0 10.5 -4.5t4.5 -11.5v-94q0 -6 -4.5 -10.5t-10.5 -4.5h-305q-6 0 -10.5 4.5t-4.5 10.5v94q0 7 4.5 11.5t10.5 4.5z" />
    <glyph glyph-name="registered" unicode="&#xae;" horiz-adv-x="455" 
d="M227 718q77 0 131 -54t54 -130t-54 -129.5t-131 -53.5q-76 0 -130 53.5t-54 129.5t53.5 130t130.5 54zM227 387q62 0 104.5 42.5t42.5 104.5t-42.5 105t-104.5 43t-104 -43t-42 -105t42.5 -104.5t103.5 -42.5zM304 567q0 -38 -36 -51l37 -55q11 -17 -8 -17h-17
q-11 0 -18 11l-36 53h-33v-52q0 -12 -12 -12h-16q-12 0 -12 12v158q0 4 3.5 8t8.5 4h72q30 0 48.5 -15.5t18.5 -43.5zM264 567q0 25 -32 25h-39v-50h39q32 0 32 25z" />
    <glyph glyph-name="macron" unicode="&#xaf;" horiz-adv-x="539" 
d="M112 701h241q15 0 15 -15v-77q0 -16 -15 -16h-241q-15 0 -15 16v77q0 15 15 15z" />
    <glyph glyph-name="degree" unicode="&#xb0;" horiz-adv-x="370" 
d="M266 593q0 34 -23.5 56.5t-57.5 22.5t-57 -22.5t-23 -56.5t23 -57.5t57 -23.5t57.5 23.5t23.5 57.5zM320 593q0 -56 -39.5 -95.5t-95.5 -39.5t-95.5 39.5t-39.5 95.5t39.5 95.5t95.5 39.5t95.5 -39.5t39.5 -95.5z" />
    <glyph glyph-name="plusminus" unicode="&#xb1;" horiz-adv-x="577" 
d="M350 650v-168h168q7 0 11.5 -4.5t4.5 -10.5v-94q0 -15 -16 -15h-168v-169q0 -6 -4.5 -10.5t-10.5 -4.5h-94q-15 0 -15 15v169h-168q-15 0 -15 15v94q0 6 4.5 10.5t10.5 4.5h168v168q0 15 15 15h94q6 0 10.5 -4.5t4.5 -10.5zM58 124h460q7 0 11.5 -4.5t4.5 -10.5v-94
q0 -6 -4.5 -10.5t-11.5 -4.5h-460q-6 0 -10.5 4.5t-4.5 10.5v94q0 6 4.5 10.5t10.5 4.5z" />
    <glyph glyph-name="twosuperior" unicode="&#xb2;" horiz-adv-x="417" 
d="M84 348v20q0 69 40 108q19 19 58.5 39.5t53.5 33.5q16 14 16 36q0 19 -14 32q-13 11 -35 11q-38 0 -77 -27q-12 -8 -19 5l-14 30q-7 14 6 22q54 33 110 33q55 0 86 -33q28 -28 28 -70q0 -48 -33 -80q-19 -18 -56 -37.5t-50 -31.5q-19 -16 -19 -40h141q6 0 10.5 -4.5
t4.5 -10.5v-36q0 -6 -4.5 -10.5t-10.5 -4.5h-207q-6 0 -10.5 4.5t-4.5 10.5z" />
    <glyph glyph-name="threesuperior" unicode="&#xb3;" horiz-adv-x="417" 
d="M178 483h-15q-6 0 -10.5 4.5t-4.5 11.5v28q0 15 15 15h9q27 0 41 7q24 11 24 40q0 16 -11 27.5t-32 11.5q-30 0 -63 -21q-12 -7 -17 5l-15 30q-7 14 6 21q50 28 95 28q48 0 76 -27t28 -66q0 -58 -49 -80q62 -26 62 -90q0 -45 -32 -72.5t-88 -27.5q-55 0 -98 24
q-12 6 -6 19l16 33q6 12 18 4q31 -21 64 -21q55 0 55 48q0 30 -27 42q-12 6 -41 6z" />
    <glyph glyph-name="acute" unicode="&#xb4;" horiz-adv-x="465" 
d="M235 764h90q9 0 12.5 -7.5t-1.5 -15.5l-98 -157q-10 -16 -23 -16h-68q-12 0 -13 10.5t5 18.5l75 152q8 15 21 15z" />
    <glyph glyph-name="mu" unicode="&#xb5;" horiz-adv-x="567" 
d="M57 -159v602q0 15 15 15h102q15 0 15 -15v-241q0 -37 13 -62q22 -42 81 -42q58 0 82 41q13 26 13 63v241q0 15 15 15h102q15 0 15 -15v-246q0 -84 -40 -135q-57 -72 -187 -72q-37 0 -62 7q-18 6 -32 18v-174q0 -7 -4.5 -11.5t-10.5 -4.5h-102q-6 0 -10.5 4.5t-4.5 11.5z
" />
    <glyph glyph-name="paragraph" unicode="&#xb6;" horiz-adv-x="732" 
d="M689 606h-113v-791q0 -6 -4.5 -10.5t-10.5 -4.5h-87q-7 0 -11.5 4.5t-4.5 10.5v791h-110v-791q0 -6 -4.5 -10.5t-10.5 -4.5h-87q-15 0 -15 15v496q-92 5 -144.5 59.5t-52.5 143.5q0 97 60 149.5t170 52.5h425q6 0 10.5 -4.5t4.5 -10.5v-80q0 -6 -4.5 -10.5t-10.5 -4.5z
" />
    <glyph glyph-name="periodcentered" unicode="&#xb7;" horiz-adv-x="258" 
d="M213 345q0 -35 -24 -59.5t-59 -24.5t-59 24.5t-24 59.5t24.5 59t58.5 24t58.5 -24t24.5 -59z" />
    <glyph glyph-name="cedilla" unicode="&#xb8;" horiz-adv-x="475" 
d="M313 -114q0 -54 -43.5 -77.5t-103.5 -23.5q-26 0 -45 4q-12 2 -12 12v40q0 12 12 12q3 0 16 -1.5t23 -1.5q66 0 66 40q0 32 -55 32q-16 0 -25 -1l8 98h67v-48q43 -4 67.5 -27.5t24.5 -57.5z" />
    <glyph glyph-name="onesuperior" unicode="&#xb9;" horiz-adv-x="417" 
d="M175 610l-74 -25q-20 -6 -20 15v28q0 16 15 22l106 37q11 4 17 4h17q14 0 14 -15v-277h70q6 0 10.5 -4.5t4.5 -10.5v-36q0 -6 -4.5 -10.5t-10.5 -4.5h-222q-15 0 -15 15v36q0 15 15 15h77v211z" />
    <glyph glyph-name="ordmasculine" unicode="&#xba;" horiz-adv-x="373" 
d="M117 549q0 -28 16 -49q18 -28 54 -28q34 0 54 27q15 22 15 50q0 27 -15 50q-20 27 -54 27q-35 0 -54 -27q-16 -22 -16 -50zM40 549q0 56 33 94q43 48 114 48t113 -48q34 -37 34 -94q0 -56 -34 -93q-40 -48 -113 -48q-72 0 -114 48q-33 38 -33 93zM119 303h135
q6 0 10.5 -4.5t4.5 -10.5v-26q0 -6 -4.5 -10.5t-10.5 -4.5h-135q-7 0 -11.5 4.5t-4.5 10.5v26q0 6 4.5 10.5t11.5 4.5z" />
    <glyph glyph-name="guillemotright" unicode="&#xbb;" horiz-adv-x="654" 
d="M630 230q0 -9 -12 -23l-168 -193q-12 -15 -32 -15h-98q-14 0 -17.5 8.5t6.5 20.5l169 202l-169 201q-10 11 -6.5 20.5t17.5 9.5h98q19 0 32 -16l168 -193q12 -15 12 -22zM352 230q0 -9 -12 -23l-168 -193q-14 -15 -32 -15h-98q-14 0 -18 8.5t6 20.5l170 202l-170 201
q-10 11 -6 20.5t18 9.5h98q17 0 32 -16l168 -193q12 -15 12 -22z" />
    <glyph glyph-name="onequarter" unicode="&#xbc;" horiz-adv-x="417" 
d="M55 269h306q16 0 16 -15v-35q0 -16 -16 -16h-306q-15 0 -15 16v35q0 15 15 15zM69 -81l151 210q10 13 27 13h26q6 0 10.5 -4.5t4.5 -10.5v-207h40q6 0 10.5 -4.5t4.5 -10.5v-32q0 -7 -4.5 -11.5t-10.5 -4.5h-40v-53q0 -6 -4.5 -10.5t-10.5 -4.5h-42q-6 0 -10.5 4.5
t-4.5 10.5v53h-141q-15 0 -15 16v19q0 16 9 27zM147 -80h69v97zM173 610l-73 -25q-21 -6 -21 15v28q0 16 15 22l107 37q11 4 17 4h16q14 0 14 -15v-277h70q7 0 11.5 -4.5t4.5 -10.5v-36q0 -6 -4.5 -10.5t-11.5 -4.5h-222q-6 0 -10.5 4.5t-4.5 10.5v36q0 6 4.5 10.5t10.5 4.5
h77v211z" />
    <glyph glyph-name="onehalf" unicode="&#xbd;" horiz-adv-x="417" 
d="M83 -195v20q0 68 41 108q19 19 58.5 39.5t53.5 33.5q15 13 15 36q0 19 -13 32q-13 11 -35 11q-38 0 -77 -27q-12 -8 -19 5l-15 30q-6 14 7 22q52 33 110 33q55 0 86 -33q28 -28 28 -70q0 -48 -34 -80q-19 -18 -56 -38t-50 -31q-18 -15 -18 -40h140q7 0 11.5 -4.5
t4.5 -10.5v-36q0 -6 -4.5 -10.5t-11.5 -4.5h-206q-7 0 -11.5 4.5t-4.5 10.5zM55 269h306q16 0 16 -15v-35q0 -16 -16 -16h-306q-15 0 -15 16v35q0 15 15 15zM173 610l-73 -25q-21 -6 -21 15v28q0 16 15 22l107 37q11 4 17 4h16q14 0 14 -15v-277h70q7 0 11.5 -4.5t4.5 -10.5
v-36q0 -6 -4.5 -10.5t-11.5 -4.5h-222q-6 0 -10.5 4.5t-4.5 10.5v36q0 6 4.5 10.5t10.5 4.5h77v211z" />
    <glyph glyph-name="threequarters" unicode="&#xbe;" horiz-adv-x="417" 
d="M175 483h-15q-6 0 -10.5 4.5t-4.5 11.5v28q0 15 15 15h9q27 0 41 7q24 11 24 40q0 16 -11 27.5t-32 11.5q-30 0 -63 -21q-12 -7 -17 5l-15 30q-7 14 6 21q50 28 95 28q48 0 76 -27t28 -66q0 -58 -49 -80q62 -26 62 -90q0 -45 -32 -72.5t-88 -27.5q-55 0 -98 24
q-12 6 -6 19l16 33q6 12 18 4q31 -21 64 -21q55 0 55 48q0 30 -27 42q-12 6 -41 6zM55 269h306q16 0 16 -15v-35q0 -16 -16 -16h-306q-15 0 -15 16v35q0 15 15 15zM69 -81l151 210q10 13 27 13h26q6 0 10.5 -4.5t4.5 -10.5v-207h40q6 0 10.5 -4.5t4.5 -10.5v-32
q0 -7 -4.5 -11.5t-10.5 -4.5h-40v-53q0 -6 -4.5 -10.5t-10.5 -4.5h-42q-6 0 -10.5 4.5t-4.5 10.5v53h-141q-15 0 -15 16v19q0 16 9 27zM147 -80h69v97z" />
    <glyph glyph-name="questiondown" unicode="&#xbf;" horiz-adv-x="498" 
d="M263 -117q47 0 86 18.5t86 55.5q13 9 20 -5l38 -76q5 -10 -6 -21q-106 -89 -230 -89q-94 0 -157 55q-61 56 -61 139q0 52 24 89t78 74q45 32 59.5 55.5t16.5 58.5q1 16 18 16h70q13 0 20 -13q12 -24 12 -53q0 -44 -43 -90q-13 -14 -87 -75q-34 -30 -34 -62q0 -37 27 -57
q23 -20 63 -20zM195 387q0 33 23 56.5t56 23.5t56.5 -23.5t23.5 -56.5t-23.5 -56t-56.5 -23t-56 23t-23 56z" />
    <glyph glyph-name="Agrave" unicode="&#xc0;" horiz-adv-x="693" 
d="M346 556q-58 0 -94 -36q-42 -44 -42 -120v-64h273v64q0 76 -41 120q-38 36 -96 36zM627 406v-391q0 -6 -4.5 -10.5t-10.5 -4.5h-114q-6 0 -10.5 4.5t-4.5 10.5v193h-273v-193q0 -6 -4.5 -10.5t-10.5 -4.5h-114q-6 0 -10.5 4.5t-4.5 10.5v391q0 64 25.5 123t74.5 100
q73 61 180 61q108 0 181 -61q50 -40 75 -99t25 -124zM252 968h91q13 0 21 -15l76 -154q12 -27 -9 -27h-69q-13 0 -23 16l-97 157q-6 8 -3 15.5t13 7.5z" />
    <glyph glyph-name="Aacute" unicode="&#xc1;" horiz-adv-x="693" 
d="M346 556q-58 0 -94 -36q-42 -44 -42 -120v-64h273v64q0 76 -41 120q-38 36 -96 36zM627 406v-391q0 -6 -4.5 -10.5t-10.5 -4.5h-114q-6 0 -10.5 4.5t-4.5 10.5v193h-273v-193q0 -6 -4.5 -10.5t-10.5 -4.5h-114q-6 0 -10.5 4.5t-4.5 10.5v391q0 64 25.5 123t74.5 100
q73 61 180 61q108 0 181 -61q50 -40 75 -99t25 -124zM357 968h90q9 0 12.5 -7.5t-1.5 -15.5l-98 -157q-10 -16 -23 -16h-68q-12 0 -13 10.5t5 18.5l75 152q8 15 21 15z" />
    <glyph glyph-name="Acircumflex" unicode="&#xc2;" horiz-adv-x="693" 
d="M346 556q-58 0 -94 -36q-42 -44 -42 -120v-64h273v64q0 76 -41 120q-38 36 -96 36zM627 406v-391q0 -6 -4.5 -10.5t-10.5 -4.5h-114q-6 0 -10.5 4.5t-4.5 10.5v193h-273v-193q0 -6 -4.5 -10.5t-10.5 -4.5h-114q-6 0 -10.5 4.5t-4.5 10.5v391q0 64 25.5 123t74.5 100
q73 61 180 61q108 0 181 -61q50 -40 75 -99t25 -124zM323 968h46q11 0 20 -11l144 -163q7 -8 5 -15t-12 -7h-83q-16 0 -27 15l-70 79l-71 -79q-11 -15 -27 -15h-83q-10 0 -12 7t5 15l144 163q9 11 21 11z" />
    <glyph glyph-name="Atilde" unicode="&#xc3;" horiz-adv-x="693" 
d="M346 556q-58 0 -94 -36q-42 -44 -42 -120v-64h273v64q0 76 -41 120q-38 36 -96 36zM627 406v-391q0 -6 -4.5 -10.5t-10.5 -4.5h-114q-6 0 -10.5 4.5t-4.5 10.5v193h-273v-193q0 -6 -4.5 -10.5t-10.5 -4.5h-114q-6 0 -10.5 4.5t-4.5 10.5v391q0 64 25.5 123t74.5 100
q73 61 180 61q108 0 181 -61q50 -40 75 -99t25 -124zM411 893q31 0 38 37q3 15 15 15h42q18 0 18 -16q0 -58 -26 -92.5t-75 -34.5q-42 0 -82 30q-36 27 -59 27q-32 0 -39 -36q-3 -16 -15 -16h-42q-18 0 -18 17q0 57 26.5 91.5t75.5 34.5q40 0 83 -31q36 -26 58 -26z" />
    <glyph glyph-name="Adieresis" unicode="&#xc4;" horiz-adv-x="693" 
d="M346 556q-58 0 -94 -36q-42 -44 -42 -120v-64h273v64q0 76 -41 120q-38 36 -96 36zM627 406v-391q0 -6 -4.5 -10.5t-10.5 -4.5h-114q-6 0 -10.5 4.5t-4.5 10.5v193h-273v-193q0 -6 -4.5 -10.5t-10.5 -4.5h-114q-6 0 -10.5 4.5t-4.5 10.5v391q0 64 25.5 123t74.5 100
q73 61 180 61q108 0 181 -61q50 -40 75 -99t25 -124zM230 784q-32 0 -54 22.5t-22 54.5t22 54t54 22t54 -22.5t22 -53.5q0 -32 -22.5 -54.5t-53.5 -22.5zM462 784q-32 0 -54 22.5t-22 54.5t22 54t54 22q31 0 53 -22t22 -54t-22 -54.5t-53 -22.5z" />
    <glyph glyph-name="Aring" unicode="&#xc5;" horiz-adv-x="693" 
d="M346 556q-58 0 -94 -36q-42 -44 -42 -120v-64h273v64q0 76 -41 120q-38 36 -96 36zM627 406v-391q0 -6 -4.5 -10.5t-10.5 -4.5h-114q-6 0 -10.5 4.5t-4.5 10.5v193h-273v-193q0 -6 -4.5 -10.5t-10.5 -4.5h-114q-6 0 -10.5 4.5t-4.5 10.5v391q0 64 25.5 123t74.5 100
q73 61 180 61q108 0 181 -61q50 -40 75 -99t25 -124zM468 857q0 -49 -35.5 -84.5t-85.5 -35.5q-51 0 -86.5 35t-35.5 85q0 52 35.5 87t86.5 35q50 0 85.5 -35.5t35.5 -86.5zM410 857q0 27 -18.5 46t-44.5 19q-27 0 -45.5 -18.5t-18.5 -46.5q0 -26 18.5 -44.5t45.5 -18.5
q26 0 44.5 18.5t18.5 44.5z" />
    <glyph glyph-name="AE" unicode="&#xc6;" horiz-adv-x="984" 
d="M498 681h433q7 0 11.5 -4.5t4.5 -10.5v-98q0 -6 -4.5 -10.5t-11.5 -4.5h-304v-147h252q6 0 10.5 -4.5t4.5 -10.5v-97q0 -7 -4.5 -11.5t-10.5 -4.5h-252v-151h304q16 0 16 -15v-97q0 -6 -4.5 -10.5t-11.5 -4.5h-433h-4l-3 2q-5 2 -6 6q-2 2 -2 5v2v193h-273v-193
q0 -6 -4.5 -10.5t-10.5 -4.5h-114q-6 0 -10.5 4.5t-4.5 10.5v391q0 64 25.5 123t74.5 100q73 61 180 61q76 0 137 -32v8q0 6 4.5 10.5t10.5 4.5zM346 556q-58 0 -94 -36q-42 -44 -42 -120v-64h273v64q0 76 -41 120q-38 36 -96 36z" />
    <glyph glyph-name="Ccedilla" unicode="&#xc7;" horiz-adv-x="654" 
d="M523 -114q0 -54 -43.5 -77.5t-103.5 -23.5q-26 0 -45 4q-12 2 -12 12v40q0 12 12 12q3 0 16 -1.5t23 -1.5q66 0 66 40q0 32 -55 32q-16 0 -25 -1l6 71q-148 11 -235 104.5t-87 244.5q0 149 105.5 249t259.5 100q114 0 206 -47q13 -8 7 -21l-46 -96q-6 -13 -20 -6
q-80 40 -150 40q-87 0 -149 -63t-62 -156q0 -97 60.5 -158.5t151.5 -61.5q80 0 155 40q13 6 18 -5l46 -98q6 -13 -7 -19q-86 -43 -184 -48v-20q43 -4 67.5 -27.5t24.5 -57.5z" />
    <glyph glyph-name="Egrave" unicode="&#xc8;" horiz-adv-x="618" 
d="M83 681h482q7 0 11.5 -4.5t4.5 -10.5v-98q0 -6 -4.5 -10.5t-11.5 -4.5h-354v-147h302q6 0 10.5 -4.5t4.5 -10.5v-97q0 -7 -4.5 -11.5t-10.5 -4.5h-302v-151h354q16 0 16 -15v-97q0 -6 -4.5 -10.5t-11.5 -4.5h-482q-7 0 -11.5 4.5t-4.5 10.5v651q0 6 4.5 10.5t11.5 4.5z
M211 968h91q14 0 21 -15l76 -154q12 -27 -9 -27h-69q-13 0 -23 16l-97 157q-6 8 -3 15.5t13 7.5z" />
    <glyph glyph-name="Eacute" unicode="&#xc9;" horiz-adv-x="618" 
d="M83 681h482q7 0 11.5 -4.5t4.5 -10.5v-98q0 -6 -4.5 -10.5t-11.5 -4.5h-354v-147h302q6 0 10.5 -4.5t4.5 -10.5v-97q0 -7 -4.5 -11.5t-10.5 -4.5h-302v-151h354q16 0 16 -15v-97q0 -6 -4.5 -10.5t-11.5 -4.5h-482q-7 0 -11.5 4.5t-4.5 10.5v651q0 6 4.5 10.5t11.5 4.5z
M339 968h90q9 0 12.5 -7.5t-1.5 -15.5l-98 -157q-10 -16 -23 -16h-68q-12 0 -13 10.5t5 18.5l75 152q8 15 21 15z" />
    <glyph glyph-name="Ecircumflex" unicode="&#xca;" horiz-adv-x="618" 
d="M83 681h482q7 0 11.5 -4.5t4.5 -10.5v-98q0 -6 -4.5 -10.5t-11.5 -4.5h-354v-147h302q6 0 10.5 -4.5t4.5 -10.5v-97q0 -7 -4.5 -11.5t-10.5 -4.5h-302v-151h354q16 0 16 -15v-97q0 -6 -4.5 -10.5t-11.5 -4.5h-482q-7 0 -11.5 4.5t-4.5 10.5v651q0 6 4.5 10.5t11.5 4.5z
M293 968h46q11 0 20 -11l144 -163q7 -8 5 -15t-12 -7h-83q-16 0 -27 15l-70 79l-71 -79q-11 -15 -27 -15h-83q-10 0 -12 7t5 15l144 163q9 11 21 11z" />
    <glyph glyph-name="Edieresis" unicode="&#xcb;" horiz-adv-x="618" 
d="M83 681h482q7 0 11.5 -4.5t4.5 -10.5v-98q0 -6 -4.5 -10.5t-11.5 -4.5h-354v-147h302q6 0 10.5 -4.5t4.5 -10.5v-97q0 -7 -4.5 -11.5t-10.5 -4.5h-302v-151h354q16 0 16 -15v-97q0 -6 -4.5 -10.5t-11.5 -4.5h-482q-7 0 -11.5 4.5t-4.5 10.5v651q0 6 4.5 10.5t11.5 4.5z
M209 784q-32 0 -54 22.5t-22 54.5t22 54t54 22q31 0 53.5 -22.5t22.5 -53.5q0 -32 -22.5 -54.5t-53.5 -22.5zM441 784q-32 0 -54 22.5t-22 54.5t22 54t54 22q31 0 53 -22t22 -54t-22 -54.5t-53 -22.5z" />
    <glyph glyph-name="Igrave" unicode="&#xcc;" horiz-adv-x="279" 
d="M83 681h113q15 0 15 -15v-651q0 -15 -15 -15h-113q-7 0 -11.5 4.5t-4.5 10.5v651q0 6 4.5 10.5t11.5 4.5zM45 968h91q14 0 21 -15l76 -154q12 -27 -9 -27h-69q-13 0 -23 16l-97 157q-6 8 -3 15.5t13 7.5z" />
    <glyph glyph-name="Iacute" unicode="&#xcd;" horiz-adv-x="279" 
d="M83 681h113q15 0 15 -15v-651q0 -15 -15 -15h-113q-7 0 -11.5 4.5t-4.5 10.5v651q0 6 4.5 10.5t11.5 4.5zM145 968h90q9 0 12.5 -7.5t-1.5 -15.5l-98 -157q-10 -16 -23 -16h-68q-12 0 -13 10.5t5 18.5l75 152q8 15 21 15z" />
    <glyph glyph-name="Icircumflex" unicode="&#xce;" horiz-adv-x="279" 
d="M83 681h113q15 0 15 -15v-651q0 -15 -15 -15h-113q-7 0 -11.5 4.5t-4.5 10.5v651q0 6 4.5 10.5t11.5 4.5zM117 968h46q11 0 20 -11l144 -163q7 -8 5 -15t-12 -7h-83q-16 0 -27 15l-70 79l-71 -79q-11 -15 -27 -15h-83q-10 0 -12 7t5 15l144 163q9 11 21 11z" />
    <glyph glyph-name="Idieresis" unicode="&#xcf;" horiz-adv-x="279" 
d="M83 681h113q15 0 15 -15v-651q0 -15 -15 -15h-113q-7 0 -11.5 4.5t-4.5 10.5v651q0 6 4.5 10.5t11.5 4.5zM24 784q-32 0 -54 22.5t-22 54.5t22 54t54 22t54 -22.5t22 -53.5q0 -32 -22.5 -54.5t-53.5 -22.5zM256 784q-32 0 -54 22.5t-22 54.5t22 54t54 22q31 0 53 -22
t22 -54t-22 -54.5t-53 -22.5z" />
    <glyph glyph-name="Eth" unicode="&#xd0;" horiz-adv-x="753" 
d="M712 341q0 -205 -152 -292q-88 -49 -225 -49h-242q-6 0 -10.5 4.5t-4.5 10.5v264h-68q-15 0 -15 15v93q0 7 4.5 11.5t10.5 4.5h68v263q0 6 4.5 10.5t10.5 4.5h256q182 0 280 -104q83 -88 83 -236zM222 560v-157h118q6 0 10.5 -4.5t4.5 -11.5v-93q0 -15 -15 -15h-118v-158
h103q83 0 137 27q103 50 103 193q0 100 -52 155q-61 64 -185 64h-106z" />
    <glyph glyph-name="Ntilde" unicode="&#xd1;" horiz-adv-x="743" 
d="M537 239v427q0 6 4.5 10.5t10.5 4.5h108q6 0 10.5 -4.5t4.5 -10.5v-651q0 -6 -4.5 -10.5t-10.5 -4.5h-100q-18 0 -28 15l-327 426v-426q0 -6 -4.5 -10.5t-10.5 -4.5h-107q-7 0 -11.5 4.5t-4.5 10.5v651q0 6 4.5 10.5t11.5 4.5h100q15 0 27 -16zM436 893q31 0 38 37
q3 15 15 15h42q18 0 18 -16q0 -58 -26 -92.5t-75 -34.5q-42 0 -82 30q-36 27 -59 27q-32 0 -39 -36q-3 -16 -15 -16h-42q-18 0 -18 17q0 57 26.5 91.5t75.5 34.5q40 0 83 -31q36 -26 58 -26z" />
    <glyph glyph-name="Ograve" unicode="&#xd2;" horiz-adv-x="810" 
d="M769 339q0 -155 -104 -252t-260 -97t-260.5 97t-104.5 252q0 156 104.5 253.5t260.5 97.5q155 0 259.5 -98t104.5 -253zM616 339q0 92 -60 154t-151 62t-151.5 -62t-60.5 -154t60.5 -153.5t151.5 -61.5t151 61.5t60 153.5zM308 968h91q13 0 21 -15l76 -154q12 -27 -9 -27
h-69q-13 0 -23 16l-97 157q-6 8 -3 15.5t13 7.5z" />
    <glyph glyph-name="Oacute" unicode="&#xd3;" horiz-adv-x="810" 
d="M769 339q0 -155 -104 -252t-260 -97t-260.5 97t-104.5 252q0 156 104.5 253.5t260.5 97.5q155 0 259.5 -98t104.5 -253zM616 339q0 92 -60 154t-151 62t-151.5 -62t-60.5 -154t60.5 -153.5t151.5 -61.5t151 61.5t60 153.5zM409 968h90q9 0 12.5 -7.5t-1.5 -15.5l-98 -157
q-10 -16 -23 -16h-68q-12 0 -13 10.5t5 18.5l75 152q8 15 21 15z" />
    <glyph glyph-name="Ocircumflex" unicode="&#xd4;" horiz-adv-x="810" 
d="M769 339q0 -155 -104 -252t-260 -97t-260.5 97t-104.5 252q0 156 104.5 253.5t260.5 97.5q155 0 259.5 -98t104.5 -253zM616 339q0 92 -60 154t-151 62t-151.5 -62t-60.5 -154t60.5 -153.5t151.5 -61.5t151 61.5t60 153.5zM381 968h46q11 0 20 -11l144 -163q7 -8 5 -15
t-12 -7h-83q-16 0 -27 15l-70 79l-71 -79q-11 -15 -27 -15h-83q-10 0 -12 7t5 15l144 163q9 11 21 11z" />
    <glyph glyph-name="Otilde" unicode="&#xd5;" horiz-adv-x="810" 
d="M769 339q0 -155 -104 -252t-260 -97t-260.5 97t-104.5 252q0 156 104.5 253.5t260.5 97.5q155 0 259.5 -98t104.5 -253zM616 339q0 92 -60 154t-151 62t-151.5 -62t-60.5 -154t60.5 -153.5t151.5 -61.5t151 61.5t60 153.5zM469 893q31 0 38 37q3 15 15 15h42q18 0 18 -16
q0 -58 -26 -92.5t-75 -34.5q-42 0 -82 30q-36 27 -59 27q-32 0 -39 -36q-3 -16 -15 -16h-42q-18 0 -18 17q0 57 26.5 91.5t75.5 34.5q40 0 83 -31q36 -26 58 -26z" />
    <glyph glyph-name="Odieresis" unicode="&#xd6;" horiz-adv-x="810" 
d="M769 339q0 -155 -104 -252t-260 -97t-260.5 97t-104.5 252q0 156 104.5 253.5t260.5 97.5q155 0 259.5 -98t104.5 -253zM616 339q0 92 -60 154t-151 62t-151.5 -62t-60.5 -154t60.5 -153.5t151.5 -61.5t151 61.5t60 153.5zM288 784q-32 0 -54 22.5t-22 54.5t22 54t54 22
t54 -22.5t22 -53.5q0 -32 -22.5 -54.5t-53.5 -22.5zM520 784q-32 0 -54 22.5t-22 54.5t22 54t54 22q31 0 53 -22t22 -54t-22 -54.5t-53 -22.5z" />
    <glyph glyph-name="multiply" unicode="&#xd7;" horiz-adv-x="519" 
d="M112 587l147 -147l147 148q11 9 22 0l66 -67q10 -11 0 -21l-147 -147l147 -147q11 -11 0 -22l-66 -67q-11 -11 -22 0l-147 147l-147 -146q-10 -10 -21 0l-66 67q-11 10 0 21l146 147l-146 146q-11 11 0 21l66 67q11 11 21 0z" />
    <glyph glyph-name="Oslash" unicode="&#xd8;" horiz-adv-x="810" 
d="M769 339q0 -155 -104 -252t-260 -97q-111 0 -198 50l-22 -25q-12 -15 -24 -15h-84q-11 0 -15 7t4 15l66 76q-92 97 -92 241q0 156 104.5 253.5t260.5 97.5q109 0 197 -51l23 27q15 15 24 15h84q10 0 14 -8t-3 -15l-68 -78q93 -96 93 -241zM616 339q0 72 -39 127
l-276 -317q47 -25 104 -25q91 0 151 61.5t60 153.5zM193 339q0 -72 38 -127l276 318q-47 25 -102 25q-91 0 -151.5 -62t-60.5 -154z" />
    <glyph glyph-name="Ugrave" unicode="&#xd9;" horiz-adv-x="724" 
d="M513 286v380q0 6 4.5 10.5t11.5 4.5h113q15 0 15 -15v-397q0 -117 -62 -188q-80 -91 -234 -91t-232 91q-63 72 -63 188v397q0 6 4.5 10.5t10.5 4.5h114q6 0 10.5 -4.5t4.5 -10.5v-380q0 -77 34 -117q39 -47 117 -47q80 0 119 47q33 41 33 117zM266 968h91q13 0 21 -15
l76 -154q12 -27 -9 -27h-69q-13 0 -23 16l-97 157q-6 8 -3 15.5t13 7.5z" />
    <glyph glyph-name="Uacute" unicode="&#xda;" horiz-adv-x="724" 
d="M513 286v380q0 6 4.5 10.5t11.5 4.5h113q15 0 15 -15v-397q0 -117 -62 -188q-80 -91 -234 -91t-232 91q-63 72 -63 188v397q0 6 4.5 10.5t10.5 4.5h114q6 0 10.5 -4.5t4.5 -10.5v-380q0 -77 34 -117q39 -47 117 -47q80 0 119 47q33 41 33 117zM367 968h90q9 0 12.5 -7.5
t-1.5 -15.5l-98 -157q-10 -16 -23 -16h-68q-12 0 -13 10.5t5 18.5l75 152q8 15 21 15z" />
    <glyph glyph-name="Ucircumflex" unicode="&#xdb;" horiz-adv-x="724" 
d="M513 286v380q0 6 4.5 10.5t11.5 4.5h113q15 0 15 -15v-397q0 -117 -62 -188q-80 -91 -234 -91t-232 91q-63 72 -63 188v397q0 6 4.5 10.5t10.5 4.5h114q6 0 10.5 -4.5t4.5 -10.5v-380q0 -77 34 -117q39 -47 117 -47q80 0 119 47q33 41 33 117zM338 968h46q11 0 20 -11
l144 -163q7 -8 5 -15t-12 -7h-83q-16 0 -27 15l-70 79l-71 -79q-11 -15 -27 -15h-83q-10 0 -12 7t5 15l144 163q9 11 21 11z" />
    <glyph glyph-name="Udieresis" unicode="&#xdc;" horiz-adv-x="724" 
d="M513 286v380q0 6 4.5 10.5t11.5 4.5h113q15 0 15 -15v-397q0 -117 -62 -188q-80 -91 -234 -91t-232 91q-63 72 -63 188v397q0 6 4.5 10.5t10.5 4.5h114q6 0 10.5 -4.5t4.5 -10.5v-380q0 -77 34 -117q39 -47 117 -47q80 0 119 47q33 41 33 117zM246 784q-32 0 -54 22.5
t-22 54.5t22 54t54 22t54 -22.5t22 -53.5q0 -32 -22.5 -54.5t-53.5 -22.5zM478 784q-32 0 -54 22.5t-22 54.5t22 54t54 22q31 0 53 -22t22 -54t-22 -54.5t-53 -22.5z" />
    <glyph glyph-name="Yacute" unicode="&#xdd;" horiz-adv-x="660" 
d="M329 426l158 240q9 15 26 15h131q12 0 14.5 -7.5t-4.5 -17.5l-253 -373v-268q0 -6 -4.5 -10.5t-10.5 -4.5h-114q-6 0 -10.5 4.5t-4.5 10.5v269l-251 372q-7 10 -4.5 17.5t14.5 7.5h131q17 0 25 -15zM344 968h90q9 0 12.5 -7.5t-1.5 -15.5l-98 -157q-10 -16 -23 -16h-68
q-12 0 -13 10.5t5 18.5l75 152q7 15 21 15z" />
    <glyph glyph-name="Thorn" unicode="&#xde;" horiz-adv-x="647" 
d="M67 -121v787q0 6 4.5 10.5t11.5 4.5h113q15 0 15 -15v-113h155q101 0 163 -51q83 -68 83 -187q0 -60 -24 -110t-66 -81q-61 -47 -156 -47h-155v-198q0 -15 -15 -15h-113q-7 0 -11.5 4.5t-4.5 10.5zM466 315q0 54 -32 83q-29 29 -87 29h-136v-224h133q56 0 85 23
q37 29 37 89z" />
    <glyph glyph-name="germandbls" unicode="&#xdf;" horiz-adv-x="584" 
d="M360 -10q-78 0 -140 38q-13 6 -6 20l37 75q5 13 19 5q43 -26 86 -26q31 0 48 17q18 15 18 42q0 21 -15.5 36.5t-51 37.5t-51.5 34q-32 23 -48.5 46t-16.5 57q0 19 11 33.5t26.5 23.5t31 19t26.5 26.5t11 39.5q0 31 -19 50q-21 19 -54 19q-34 0 -55 -22q-20 -22 -20 -61
v-558q0 -6 -4.5 -10.5t-10.5 -4.5h-102q-15 0 -15 15v558q0 77 44 126q59 65 160 65q100 0 157 -43q53 -42 53 -116q0 -39 -18 -67t-39.5 -40t-39.5 -24t-18 -22q0 -12 14.5 -21.5t44 -22.5t46.5 -24q77 -51 77 -141q0 -80 -55 -132q-51 -48 -131 -48z" />
    <glyph glyph-name="agrave" unicode="&#xe0;" horiz-adv-x="486" 
d="M229 365q-61 0 -125 -36q-16 -9 -22 5l-29 63q-5 12 6 20q79 50 186 50q98 0 145 -52q40 -45 40 -122v-278q0 -6 -4.5 -10.5t-10.5 -4.5h-88q-7 0 -11.5 4.5t-4.5 10.5v8h-4q-52 -33 -122 -33q-64 0 -106 37q-45 37 -45 104q0 78 83 116q62 27 181 36v10q0 35 -14 52
q-16 20 -55 20zM228 88q39 0 70 19v87q-138 -5 -138 -59q0 -23 19 -35t49 -12zM150 764h91q13 0 21 -15l76 -154q12 -27 -9 -27h-69q-13 0 -23 16l-97 157q-6 8 -3 15.5t13 7.5z" />
    <glyph glyph-name="aacute" unicode="&#xe1;" horiz-adv-x="486" 
d="M229 365q-61 0 -125 -36q-16 -9 -22 5l-29 63q-5 12 6 20q79 50 186 50q98 0 145 -52q40 -45 40 -122v-278q0 -6 -4.5 -10.5t-10.5 -4.5h-88q-7 0 -11.5 4.5t-4.5 10.5v8h-4q-52 -33 -122 -33q-64 0 -106 37q-45 37 -45 104q0 78 83 116q62 27 181 36v10q0 35 -14 52
q-16 20 -55 20zM228 88q39 0 70 19v87q-138 -5 -138 -59q0 -23 19 -35t49 -12zM246 764h90q9 0 12.5 -7.5t-1.5 -15.5l-98 -157q-10 -16 -23 -16h-68q-12 0 -13 10.5t5 18.5l75 152q7 15 21 15z" />
    <glyph glyph-name="acircumflex" unicode="&#xe2;" horiz-adv-x="492" 
d="M229 365q-61 0 -125 -36q-16 -9 -22 5l-29 63q-5 12 6 20q79 50 186 50q98 0 145 -52q40 -45 40 -122v-278q0 -6 -4.5 -10.5t-10.5 -4.5h-88q-7 0 -11.5 4.5t-4.5 10.5v8h-4q-52 -33 -122 -33q-64 0 -106 37q-45 37 -45 104q0 78 83 116q62 27 181 36v10q0 35 -14 52
q-16 20 -55 20zM228 88q39 0 70 19v87q-138 -5 -138 -59q0 -23 19 -35t49 -12zM220 764h46q11 0 20 -11l144 -163q7 -8 5 -15t-12 -7h-83q-16 0 -27 15l-70 79l-71 -79q-11 -15 -27 -15h-83q-10 0 -12 7t5 15l144 163q9 11 21 11z" />
    <glyph glyph-name="atilde" unicode="&#xe3;" horiz-adv-x="486" 
d="M229 365q-61 0 -125 -36q-16 -9 -22 5l-29 63q-5 12 6 20q79 50 186 50q98 0 145 -52q40 -45 40 -122v-278q0 -6 -4.5 -10.5t-10.5 -4.5h-88q-7 0 -11.5 4.5t-4.5 10.5v8h-4q-52 -33 -122 -33q-64 0 -106 37q-45 37 -45 104q0 78 83 116q62 27 181 36v10q0 35 -14 52
q-16 20 -55 20zM228 88q39 0 70 19v87q-138 -5 -138 -59q0 -23 19 -35t49 -12zM304 684q31 0 38 37q3 15 15 15h42q18 0 18 -16q0 -58 -26 -92.5t-75 -34.5q-42 0 -82 30q-36 27 -59 27q-32 0 -39 -36q-3 -16 -15 -16h-42q-18 0 -18 17q0 57 26.5 91.5t75.5 34.5
q40 0 83 -31q36 -26 58 -26z" />
    <glyph glyph-name="adieresis" unicode="&#xe4;" horiz-adv-x="487" 
d="M229 365q-61 0 -125 -36q-16 -9 -22 5l-29 63q-5 12 6 20q79 50 186 50q98 0 145 -52q40 -45 40 -122v-278q0 -6 -4.5 -10.5t-10.5 -4.5h-88q-7 0 -11.5 4.5t-4.5 10.5v8h-4q-52 -33 -122 -33q-64 0 -106 37q-45 37 -45 104q0 78 83 116q62 27 181 36v10q0 35 -14 52
q-16 20 -55 20zM228 88q39 0 70 19v87q-138 -5 -138 -59q0 -23 19 -35t49 -12zM127 584q-32 0 -54 22.5t-22 54.5t22 54t54 22q31 0 53.5 -22.5t22.5 -53.5q0 -32 -22.5 -54.5t-53.5 -22.5zM359 584q-32 0 -54 22.5t-22 54.5t22 54t54 22q31 0 53 -22t22 -54t-22 -54.5
t-53 -22.5z" />
    <glyph glyph-name="aring" unicode="&#xe5;" horiz-adv-x="486" 
d="M229 365q-61 0 -125 -36q-16 -9 -22 5l-29 63q-5 12 6 20q79 50 186 50q98 0 145 -52q40 -45 40 -122v-278q0 -6 -4.5 -10.5t-10.5 -4.5h-88q-7 0 -11.5 4.5t-4.5 10.5v8h-4q-52 -33 -122 -33q-64 0 -106 37q-45 37 -45 104q0 78 83 116q62 27 181 36v10q0 35 -14 52
q-16 20 -55 20zM228 88q39 0 70 19v87q-138 -5 -138 -59q0 -23 19 -35t49 -12zM365 666q0 -49 -35.5 -84.5t-85.5 -35.5q-51 0 -86.5 35t-35.5 85q0 52 35.5 87t86.5 35q50 0 85.5 -35.5t35.5 -86.5zM307 666q0 27 -18.5 46t-44.5 19q-27 0 -45.5 -18.5t-18.5 -46.5
q0 -26 18.5 -44.5t45.5 -18.5q26 0 44.5 18.5t18.5 44.5z" />
    <glyph glyph-name="ae" unicode="&#xe6;" horiz-adv-x="785" 
d="M750 211q-2 -15 -16 -15h-298q6 -43 31 -70q32 -34 88 -34q59 0 113 32q16 9 23 -4l34 -63q5 -12 -6 -20q-67 -47 -173 -47q-115 0 -186 71q-40 -40 -81 -55q-43 -16 -96 -16q-68 0 -110 42q-39 37 -39 98q0 74 80 111q64 28 184 37v15q0 36 -14 53q-15 21 -54 21
q-63 0 -126 -37q-17 -10 -22 5l-29 62q-6 13 6 20q81 50 186 50q48 0 82 -14q30 -15 55 -44q24 26 58 40q43 18 92 18q120 0 177 -80q49 -67 41 -176zM225 84q31 0 52 10q22 9 43 30q-16 31 -19 71q-66 -3 -103 -17q-38 -15 -38 -44q0 -24 18 -37q16 -13 47 -13zM436 276
h188q-3 37 -23 61q-25 28 -68 28q-47 0 -72 -28q-20 -23 -25 -61z" />
    <glyph glyph-name="ccedilla" unicode="&#xe7;" horiz-adv-x="479" 
d="M410 -114q0 -54 -43.5 -77.5t-103.5 -23.5q-26 0 -45 4q-12 2 -12 12v40q0 12 12 12q4 0 17 -1.5t22 -1.5q66 0 66 40q0 32 -55 32q-16 0 -25 -1l6 72q-95 10 -152 70q-60 65 -60 166q0 86 50 147q73 90 208 90q86 0 150 -45q12 -8 6 -20l-39 -73q-6 -13 -22 -4
q-48 30 -95 30q-56 0 -91 -38q-32 -35 -32 -87q0 -56 33 -91q34 -37 90 -37q50 0 99 28q15 9 22 -4l37 -72q6 -10 -6 -19q-51 -37 -129 -43v-20q43 -4 67.5 -27.5t24.5 -57.5z" />
    <glyph glyph-name="egrave" unicode="&#xe8;" horiz-adv-x="525" 
d="M176 276h187q-1 35 -22 60q-25 27 -68 27q-48 0 -72 -27q-20 -23 -25 -60zM296 95q57 0 111 31q17 9 23 -4l35 -65q5 -11 -7 -20q-29 -20 -76 -33.5t-96 -13.5q-115 0 -182 67q-67 65 -67 177q0 100 67 169q62 64 168 64q118 0 177 -80q44 -60 42 -183q0 -15 -15 -15
h-299q7 -38 30 -61q31 -33 89 -33zM168 764h91q13 0 21 -15l76 -154q12 -27 -9 -27h-69q-13 0 -23 16l-97 157q-6 8 -3 15.5t13 7.5z" />
    <glyph glyph-name="eacute" unicode="&#xe9;" horiz-adv-x="525" 
d="M176 276h187q-1 35 -22 60q-25 27 -68 27q-48 0 -72 -27q-20 -23 -25 -60zM296 95q57 0 111 31q17 9 23 -4l35 -65q5 -11 -7 -20q-29 -20 -76 -33.5t-96 -13.5q-115 0 -182 67q-67 65 -67 177q0 100 67 169q62 64 168 64q118 0 177 -80q44 -60 42 -183q0 -15 -15 -15
h-299q7 -38 30 -61q31 -33 89 -33zM264 764h90q9 0 12.5 -7.5t-1.5 -15.5l-98 -157q-10 -16 -23 -16h-68q-12 0 -13 10.5t5 18.5l75 152q7 15 21 15z" />
    <glyph glyph-name="ecircumflex" unicode="&#xea;" horiz-adv-x="525" 
d="M176 276h187q-1 35 -22 60q-25 27 -68 27q-48 0 -72 -27q-20 -23 -25 -60zM296 95q57 0 111 31q17 9 23 -4l35 -65q5 -11 -7 -20q-29 -20 -76 -33.5t-96 -13.5q-115 0 -182 67q-67 65 -67 177q0 100 67 169q62 64 168 64q118 0 177 -80q44 -60 42 -183q0 -15 -15 -15
h-299q7 -38 30 -61q31 -33 89 -33zM239 764h46q11 0 20 -11l144 -163q7 -8 5 -15t-12 -7h-83q-16 0 -27 15l-70 79l-71 -79q-11 -15 -27 -15h-83q-10 0 -12 7t5 15l144 163q9 11 21 11z" />
    <glyph glyph-name="edieresis" unicode="&#xeb;" horiz-adv-x="525" 
d="M176 276h187q-1 35 -22 60q-25 27 -68 27q-48 0 -72 -27q-20 -23 -25 -60zM296 95q57 0 111 31q17 9 23 -4l35 -65q5 -11 -7 -20q-29 -20 -76 -33.5t-96 -13.5q-115 0 -182 67q-67 65 -67 177q0 100 67 169q62 64 168 64q118 0 177 -80q44 -60 42 -183q0 -15 -15 -15
h-299q7 -38 30 -61q31 -33 89 -33zM146 584q-32 0 -54 22.5t-22 54.5t22 54t54 22t54 -22.5t22 -53.5q0 -32 -22.5 -54.5t-53.5 -22.5zM378 584q-32 0 -54 22.5t-22 54.5t22 54t54 22q31 0 53 -22t22 -54t-22 -54.5t-53 -22.5z" />
    <glyph glyph-name="igrave" unicode="&#xec;" horiz-adv-x="262" 
d="M65 443q0 15 15 15h102q15 0 15 -15v-428q0 -6 -4.5 -10.5t-10.5 -4.5h-102q-15 0 -15 15v428zM38 764h91q13 0 21 -15l76 -154q12 -27 -9 -27h-69q-13 0 -23 16l-97 157q-6 8 -3 15.5t13 7.5z" />
    <glyph glyph-name="iacute" unicode="&#xed;" horiz-adv-x="262" 
d="M65 443q0 15 15 15h102q15 0 15 -15v-428q0 -6 -4.5 -10.5t-10.5 -4.5h-102q-15 0 -15 15v428zM134 764h90q9 0 12.5 -7.5t-1.5 -15.5l-98 -157q-10 -16 -23 -16h-68q-12 0 -13 10.5t5 18.5l75 152q7 15 21 15z" />
    <glyph glyph-name="icircumflex" unicode="&#xee;" horiz-adv-x="262" 
d="M65 443q0 15 15 15h102q15 0 15 -15v-428q0 -6 -4.5 -10.5t-10.5 -4.5h-102q-15 0 -15 15v428zM108 764h46q11 0 20 -11l144 -163q7 -8 5 -15t-12 -7h-83q-16 0 -27 15l-70 79l-71 -79q-11 -15 -27 -15h-83q-10 0 -12 7t5 15l144 163q9 11 21 11z" />
    <glyph glyph-name="idieresis" unicode="&#xef;" horiz-adv-x="262" 
d="M65 443q0 15 15 15h102q15 0 15 -15v-428q0 -6 -4.5 -10.5t-10.5 -4.5h-102q-15 0 -15 15v428zM15 584q-32 0 -54 22.5t-22 54.5t22 54t54 22q31 0 53.5 -22.5t22.5 -53.5q0 -32 -22.5 -54.5t-53.5 -22.5zM247 584q-32 0 -54 22.5t-22 54.5t22 54t54 22q31 0 53 -22
t22 -54t-22 -54.5t-53 -22.5z" />
    <glyph glyph-name="eth" unicode="&#xf0;" horiz-adv-x="518" 
d="M356 225q0 28 -7 66q-34 19 -82 19q-42 0 -75 -27t-33 -74q0 -48 25.5 -78t72.5 -30q44 0 71.5 30.5t27.5 93.5zM37 209q0 89 57 144q61 60 151 60q33 0 61 -15q-26 55 -81 108l-69 -53q-12 -8 -21 2l-36 47q-10 12 3 21l54 41q-9 9 -30 26t-24 20q-13 11 -1 21l64 62
q10 10 25 1q40 -29 66 -54l73 56q12 8 21 -2l35 -47q9 -12 -2 -21l-60 -46q157 -165 157 -355q0 -113 -63.5 -174t-159.5 -61q-88 0 -146 49q-74 61 -74 170z" />
    <glyph glyph-name="ntilde" unicode="&#xf1;" horiz-adv-x="576" 
d="M193 412h3q54 55 137 55q85 0 134 -45q53 -48 53 -144v-263q0 -15 -15 -15h-103q-6 0 -10.5 4.5t-4.5 10.5v229q0 62 -23 87q-20 23 -60 23q-54 0 -80.5 -41.5t-26.5 -97.5v-200q0 -6 -4.5 -10.5t-10.5 -4.5h-102q-15 0 -15 15v428q0 15 15 15h98q15 0 15 -15v-31z
M348 684q31 0 38 37q3 15 15 15h42q18 0 18 -16q0 -58 -26 -92.5t-75 -34.5q-42 0 -82 30q-36 27 -59 27q-32 0 -39 -36q-3 -16 -15 -16h-42q-18 0 -18 17q0 57 26.5 91.5t75.5 34.5q40 0 83 -31q36 -26 58 -26z" />
    <glyph glyph-name="ograve" unicode="&#xf2;" horiz-adv-x="570" 
d="M167 228q0 -56 32 -91.5t85 -35.5t85 35.5t32 91.5t-32 91.5t-85 35.5t-85 -35.5t-32 -91.5zM37 228q0 109 70.5 174t176.5 65q107 0 177.5 -65t70.5 -174t-70.5 -173.5t-177.5 -64.5t-177 64.5t-70 173.5zM190 764h91q13 0 21 -15l76 -154q12 -27 -9 -27h-69
q-13 0 -23 16l-97 157q-6 8 -3 15.5t13 7.5z" />
    <glyph glyph-name="oacute" unicode="&#xf3;" horiz-adv-x="570" 
d="M167 228q0 -56 32 -91.5t85 -35.5t85 35.5t32 91.5t-32 91.5t-85 35.5t-85 -35.5t-32 -91.5zM37 228q0 109 70.5 174t176.5 65q107 0 177.5 -65t70.5 -174t-70.5 -173.5t-177.5 -64.5t-177 64.5t-70 173.5zM286 764h90q9 0 12.5 -7.5t-1.5 -15.5l-98 -157
q-10 -16 -23 -16h-68q-12 0 -13 10.5t5 18.5l75 152q7 15 21 15z" />
    <glyph glyph-name="ocircumflex" unicode="&#xf4;" horiz-adv-x="570" 
d="M167 228q0 -56 32 -91.5t85 -35.5t85 35.5t32 91.5t-32 91.5t-85 35.5t-85 -35.5t-32 -91.5zM37 228q0 109 70.5 174t176.5 65q107 0 177.5 -65t70.5 -174t-70.5 -173.5t-177.5 -64.5t-177 64.5t-70 173.5zM261 764h46q11 0 20 -11l144 -163q7 -8 5 -15t-12 -7h-83
q-16 0 -27 15l-70 79l-71 -79q-11 -15 -27 -15h-83q-10 0 -12 7t5 15l144 163q9 11 21 11z" />
    <glyph glyph-name="otilde" unicode="&#xf5;" horiz-adv-x="570" 
d="M167 228q0 -56 32 -91.5t85 -35.5t85 35.5t32 91.5t-32 91.5t-85 35.5t-85 -35.5t-32 -91.5zM37 228q0 109 70.5 174t176.5 65q107 0 177.5 -65t70.5 -174t-70.5 -173.5t-177.5 -64.5t-177 64.5t-70 173.5zM344 684q31 0 38 37q3 15 15 15h42q18 0 18 -16
q0 -58 -26 -92.5t-75 -34.5q-42 0 -82 30q-36 27 -59 27q-32 0 -39 -36q-3 -16 -15 -16h-42q-18 0 -18 17q0 57 26.5 91.5t75.5 34.5q40 0 83 -31q36 -26 58 -26z" />
    <glyph glyph-name="odieresis" unicode="&#xf6;" horiz-adv-x="570" 
d="M167 228q0 -56 32 -91.5t85 -35.5t85 35.5t32 91.5t-32 91.5t-85 35.5t-85 -35.5t-32 -91.5zM37 228q0 109 70.5 174t176.5 65q107 0 177.5 -65t70.5 -174t-70.5 -173.5t-177.5 -64.5t-177 64.5t-70 173.5zM168 584q-32 0 -54 22.5t-22 54.5t22 54t54 22t54 -22.5
t22 -53.5q0 -32 -22.5 -54.5t-53.5 -22.5zM400 584q-32 0 -54 22.5t-22 54.5t22 54t54 22q31 0 53 -22t22 -54t-22 -54.5t-53 -22.5z" />
    <glyph glyph-name="divide" unicode="&#xf7;" horiz-adv-x="610" 
d="M305 654q32 0 55.5 -23t23.5 -56t-23.5 -56t-55.5 -23q-33 0 -56.5 23t-23.5 56t23.5 56t56.5 23zM225 130q0 34 23.5 57t56.5 23t56 -23t23 -57q0 -33 -23 -56t-56 -23t-56.5 23t-23.5 56zM58 415h493q7 0 11.5 -4.5t4.5 -10.5v-94q0 -16 -16 -16h-493q-15 0 -15 16v94
q0 15 15 15z" />
    <glyph glyph-name="oslash" unicode="&#xf8;" horiz-adv-x="573" 
d="M38 228q0 109 70.5 174t176.5 65q75 0 135 -34l9 10q13 15 25 15h45q11 0 14 -7t-5 -15l-37 -43q62 -67 62 -165q0 -109 -70.5 -173.5t-177.5 -64.5q-75 0 -133 32l-6 -7q-13 -15 -24 -15h-45q-12 0 -15 6t5 16l34 39q-63 65 -63 167zM168 228q0 -38 16 -70l158 183
q-26 14 -57 14q-53 0 -85 -35.5t-32 -91.5zM402 228q0 35 -15 67l-157 -182q24 -12 55 -12q53 0 85 35.5t32 91.5z" />
    <glyph glyph-name="ugrave" unicode="&#xf9;" horiz-adv-x="567" 
d="M57 197v246q0 15 15 15h102q15 0 15 -15v-237q0 -37 13 -62q22 -42 81 -42q58 0 82 42q13 25 13 62v237q0 15 15 15h102q15 0 15 -15v-246q0 -84 -40 -135q-57 -72 -187 -72q-129 0 -186 72q-40 51 -40 135zM189 764h91q14 0 21 -15l76 -154q12 -27 -9 -27h-69
q-13 0 -23 16l-97 157q-6 8 -3 15.5t13 7.5z" />
    <glyph glyph-name="uacute" unicode="&#xfa;" horiz-adv-x="567" 
d="M57 197v246q0 15 15 15h102q15 0 15 -15v-237q0 -37 13 -62q22 -42 81 -42q58 0 82 42q13 25 13 62v237q0 15 15 15h102q15 0 15 -15v-246q0 -84 -40 -135q-57 -72 -187 -72q-129 0 -186 72q-40 51 -40 135zM285 764h90q9 0 12.5 -7.5t-1.5 -15.5l-98 -157
q-10 -16 -23 -16h-68q-12 0 -13 10.5t5 18.5l75 152q8 15 21 15z" />
    <glyph glyph-name="ucircumflex" unicode="&#xfb;" horiz-adv-x="567" 
d="M57 197v246q0 15 15 15h102q15 0 15 -15v-237q0 -37 13 -62q22 -42 81 -42q58 0 82 42q13 25 13 62v237q0 15 15 15h102q15 0 15 -15v-246q0 -84 -40 -135q-57 -72 -187 -72q-129 0 -186 72q-40 51 -40 135zM260 764h46q11 0 20 -11l144 -163q7 -8 5 -15t-12 -7h-83
q-16 0 -27 15l-70 79l-71 -79q-11 -15 -27 -15h-83q-10 0 -12 7t5 15l144 163q9 11 21 11z" />
    <glyph glyph-name="udieresis" unicode="&#xfc;" horiz-adv-x="567" 
d="M57 197v246q0 15 15 15h102q15 0 15 -15v-237q0 -37 13 -62q22 -42 81 -42q58 0 82 42q13 25 13 62v237q0 15 15 15h102q15 0 15 -15v-246q0 -84 -40 -135q-57 -72 -187 -72q-129 0 -186 72q-40 51 -40 135zM167 584q-32 0 -54 22.5t-22 54.5t22 54t54 22
q31 0 53.5 -22.5t22.5 -53.5q0 -32 -22.5 -54.5t-53.5 -22.5zM399 584q-32 0 -54 22.5t-22 54.5t22 54t54 22q31 0 53 -22t22 -54t-22 -54.5t-53 -22.5z" />
    <glyph glyph-name="yacute" unicode="&#xfd;" horiz-adv-x="535" 
d="M530 437l-174 -462q-35 -97 -92 -148q-78 -70 -202 -63q-12 0 -12 12v101q0 12 12 12q3 0 13 -1t18 -1q44 0 75 24q26 22 46 57l-209 469q-9 21 12 21h123q20 0 25 -16l117 -309l98 309q5 16 25 16h113q19 0 12 -21zM269 764h90q9 0 12.5 -7.5t-1.5 -15.5l-98 -157
q-10 -16 -23 -16h-68q-12 0 -13 10.5t5 18.5l75 152q8 15 21 15z" />
    <glyph glyph-name="thorn" unicode="&#xfe;" horiz-adv-x="549" 
d="M65 666q0 15 15 15h102q6 0 10.5 -4.5t4.5 -10.5v-202q20 3 44 3q134 0 206 -72q64 -62 64 -167q0 -101 -54 -163q-67 -75 -190 -75q-41 0 -70 8v-217q0 -7 -4.5 -11.5t-10.5 -4.5h-102q-15 0 -15 16v885zM254 359q-34 0 -57 -4v-248q24 -9 56 -9q58 0 91 29
q36 33 36 101q0 57 -32 94q-34 37 -94 37z" />
    <glyph glyph-name="ydieresis" unicode="&#xff;" horiz-adv-x="535" 
d="M530 437l-174 -462q-35 -97 -92 -148q-78 -70 -202 -63q-12 0 -12 12v101q0 12 12 12q3 0 13 -1t18 -1q44 0 75 24q26 22 46 57l-209 469q-9 21 12 21h123q20 0 25 -16l117 -309l98 309q5 16 25 16h113q19 0 12 -21zM151 584q-32 0 -54 22.5t-22 54.5t22 54t54 22
q31 0 53.5 -22.5t22.5 -53.5q0 -32 -22.5 -54.5t-53.5 -22.5zM383 584q-32 0 -54 22.5t-22 54.5t22 54t54 22q31 0 53 -22t22 -54t-22 -54.5t-53 -22.5z" />
    <glyph glyph-name="Amacron" unicode="&#x100;" horiz-adv-x="693" 
d="M346 556q-58 0 -94 -36q-42 -44 -42 -120v-64h273v64q0 76 -41 120q-38 36 -96 36zM627 406v-391q0 -6 -4.5 -10.5t-10.5 -4.5h-114q-6 0 -10.5 4.5t-4.5 10.5v193h-273v-193q0 -6 -4.5 -10.5t-10.5 -4.5h-114q-6 0 -10.5 4.5t-4.5 10.5v391q0 64 25.5 123t74.5 100
q73 61 180 61q108 0 181 -61q50 -40 75 -99t25 -124zM225 924h241q15 0 15 -15v-77q0 -16 -15 -16h-241q-15 0 -15 16v77q0 15 15 15z" />
    <glyph glyph-name="amacron" unicode="&#x101;" horiz-adv-x="486" 
d="M229 365q-61 0 -125 -36q-16 -9 -22 5l-29 63q-5 12 6 20q79 50 186 50q98 0 145 -52q40 -45 40 -122v-278q0 -6 -4.5 -10.5t-10.5 -4.5h-88q-7 0 -11.5 4.5t-4.5 10.5v8h-4q-52 -33 -122 -33q-64 0 -106 37q-45 37 -45 104q0 78 83 116q62 27 181 36v10q0 35 -14 52
q-16 20 -55 20zM228 88q39 0 70 19v87q-138 -5 -138 -59q0 -23 19 -35t49 -12zM120 701h241q15 0 15 -15v-77q0 -16 -15 -16h-241q-15 0 -15 16v77q0 15 15 15z" />
    <glyph glyph-name="Abreve" unicode="&#x102;" horiz-adv-x="693" 
d="M346 556q-58 0 -94 -36q-42 -44 -42 -120v-64h273v64q0 76 -41 120q-38 36 -96 36zM627 406v-391q0 -6 -4.5 -10.5t-10.5 -4.5h-114q-6 0 -10.5 4.5t-4.5 10.5v193h-273v-193q0 -6 -4.5 -10.5t-10.5 -4.5h-114q-6 0 -10.5 4.5t-4.5 10.5v391q0 64 25.5 123t74.5 100
q73 61 180 61q108 0 181 -61q50 -40 75 -99t25 -124zM346 876q60 0 69 58q2 16 17 16h47q18 0 18 -17q0 -63 -40 -107t-111 -44t-111 44t-40 107q0 17 18 17h47q14 0 17 -16q9 -58 69 -58z" />
    <glyph glyph-name="abreve" unicode="&#x103;" horiz-adv-x="486" 
d="M229 365q-61 0 -125 -36q-16 -9 -22 5l-29 63q-5 12 6 20q79 50 186 50q98 0 145 -52q40 -45 40 -122v-278q0 -6 -4.5 -10.5t-10.5 -4.5h-88q-7 0 -11.5 4.5t-4.5 10.5v8h-4q-52 -33 -122 -33q-64 0 -106 37q-45 37 -45 104q0 78 83 116q62 27 181 36v10q0 35 -14 52
q-16 20 -55 20zM228 88q39 0 70 19v87q-138 -5 -138 -59q0 -23 19 -35t49 -12zM243 665q60 0 69 58q2 16 17 16h47q18 0 18 -17q0 -63 -40 -107t-111 -44t-111 44t-40 107q0 17 18 17h47q14 0 17 -16q9 -58 69 -58z" />
    <glyph glyph-name="Aogonek" unicode="&#x104;" horiz-adv-x="693" 
d="M403 -119q0 35 24 68.5t59 56.5q-3 4 -3 9v193h-273v-193q0 -6 -4.5 -10.5t-10.5 -4.5h-114q-6 0 -10.5 4.5t-4.5 10.5v391q0 64 25.5 123t74.5 100q73 61 180 61q108 0 181 -61q50 -40 75 -99t25 -124v-391q0 -6 -4.5 -10.5t-10.5 -4.5h-59q-59 -42 -59 -82
q0 -35 41 -35q16 0 32 4.5t21 4.5q9 0 9 -11v-53q0 -11 -9 -14q-37 -17 -80 -17q-45 0 -75 20t-30 64zM346 556q-58 0 -94 -36q-42 -44 -42 -120v-64h273v64q0 76 -41 120q-38 36 -96 36z" />
    <glyph glyph-name="aogonek" unicode="&#x105;" horiz-adv-x="486" 
d="M223 -123q0 37 26 72t64 58q-2 2 -2 8v8h-4q-52 -33 -122 -33q-64 0 -106 37q-45 37 -45 104q0 78 83 116q62 27 181 36v10q0 35 -14 52q-16 20 -55 20q-61 0 -125 -36q-16 -9 -22 5l-29 63q-5 12 6 20q79 50 186 50q98 0 145 -52q40 -45 40 -122v-278q0 -6 -4.5 -10.5
t-10.5 -4.5h-36q-65 -44 -65 -86q0 -35 41 -35q16 0 32 4.5t21 4.5q9 0 9 -11v-53q0 -11 -9 -14q-37 -17 -80 -17q-45 0 -75 20t-30 64zM228 88q39 0 70 19v87q-138 -5 -138 -59q0 -23 19 -35t49 -12z" />
    <glyph glyph-name="Cacute" unicode="&#x106;" horiz-adv-x="654" 
d="M402 -10q-165 0 -263.5 95t-98.5 256q0 149 105.5 249t259.5 100q114 0 206 -47q13 -8 7 -21l-46 -96q-6 -13 -20 -6q-80 40 -150 40q-87 0 -149 -63t-62 -156q0 -97 60.5 -158.5t151.5 -61.5q80 0 155 40q13 6 18 -5l46 -98q6 -13 -7 -19q-96 -49 -213 -49zM372 968h90
q9 0 12.5 -7.5t-1.5 -15.5l-98 -157q-10 -16 -23 -16h-68q-12 0 -13 10.5t5 18.5l75 152q7 15 21 15z" />
    <glyph glyph-name="cacute" unicode="&#x107;" horiz-adv-x="479" 
d="M295 101q50 0 99 28q15 9 22 -4l37 -72q6 -10 -6 -19q-60 -44 -155 -44q-125 0 -195 73q-60 65 -60 166q0 86 50 147q73 90 208 90q86 0 150 -45q12 -8 6 -20l-39 -73q-6 -13 -22 -4q-48 30 -95 30q-56 0 -91 -38q-32 -35 -32 -87q0 -56 33 -91q34 -37 90 -37zM291 764
h90q9 0 12.5 -7.5t-1.5 -15.5l-98 -157q-10 -16 -23 -16h-68q-12 0 -13 10.5t5 18.5l75 152q8 15 21 15z" />
    <glyph glyph-name="Ccaron" unicode="&#x10c;" horiz-adv-x="654" 
d="M402 -10q-165 0 -263.5 95t-98.5 256q0 149 105.5 249t259.5 100q114 0 206 -47q13 -8 7 -21l-46 -96q-6 -13 -20 -6q-80 40 -150 40q-87 0 -149 -63t-62 -156q0 -97 60.5 -158.5t151.5 -61.5q80 0 155 40q13 6 18 -5l46 -98q6 -13 -7 -19q-96 -49 -213 -49zM407 772h-46
q-11 0 -21 12l-144 162q-7 8 -5 15t12 7h83q16 0 27 -14l71 -79l70 79q11 14 27 14h83q10 0 12 -7t-5 -15l-144 -162q-10 -12 -20 -12z" />
    <glyph glyph-name="ccaron" unicode="&#x10d;" horiz-adv-x="479" 
d="M295 101q50 0 99 28q15 9 22 -4l37 -72q6 -10 -6 -19q-60 -44 -155 -44q-125 0 -195 73q-60 65 -60 166q0 86 50 147q73 90 208 90q86 0 150 -45q12 -8 6 -20l-39 -73q-6 -13 -22 -4q-48 30 -95 30q-56 0 -91 -38q-32 -35 -32 -87q0 -56 33 -91q34 -37 90 -37zM291 568
h-46q-11 0 -21 12l-144 162q-7 8 -5 15t12 7h83q16 0 27 -14l71 -79l70 79q11 14 27 14h83q10 0 12 -7t-5 -15l-144 -162q-10 -12 -20 -12z" />
    <glyph glyph-name="Dcaron" unicode="&#x10e;" horiz-adv-x="742" 
d="M701 341q0 -206 -152 -292q-88 -49 -224 -49h-242q-7 0 -11.5 4.5t-4.5 10.5v651q0 6 4.5 10.5t11.5 4.5h255q183 0 281 -104q82 -87 82 -236zM211 560v-439h104q82 0 137 27q102 51 102 193q0 100 -52 155q-60 64 -184 64h-107zM389 772h-46q-11 0 -21 12l-144 162
q-7 8 -5 15t12 7h83q16 0 27 -14l71 -79l70 79q11 14 27 14h83q10 0 12 -7t-5 -15l-144 -162q-10 -12 -20 -12z" />
    <glyph glyph-name="dcaron" unicode="&#x10f;" horiz-adv-x="751" 
d="M320 110h30v237q-28 7 -61 7q-60 0 -92 -45q-24 -31 -24 -81q0 -58 36 -87q37 -31 111 -31zM467 0h-161q-125 0 -197 60q-72 61 -72 166q0 97 51 159q65 82 193 82q40 0 69 -8v207q0 6 4.5 10.5t10.5 4.5h102q6 0 10.5 -4.5t4.5 -10.5v-651q0 -6 -4.5 -10.5t-10.5 -4.5z
M742 580q1 -57 -40.5 -108t-98.5 -68q-15 -4 -22 6l-13 21q-8 12 4 21q53 35 53 63q0 13 -9.5 23t-21 16.5t-21 21.5t-9.5 38q0 35 22.5 56t59.5 21q46 0 70 -29.5t26 -81.5z" />
    <glyph glyph-name="Dcroat" unicode="&#x110;" horiz-adv-x="753" 
d="M712 341q0 -205 -152 -292q-88 -49 -225 -49h-242q-6 0 -10.5 4.5t-4.5 10.5v264h-68q-15 0 -15 15v93q0 7 4.5 11.5t10.5 4.5h68v263q0 6 4.5 10.5t10.5 4.5h256q182 0 280 -104q83 -88 83 -236zM222 560v-157h118q6 0 10.5 -4.5t4.5 -11.5v-93q0 -15 -15 -15h-118v-158
h103q83 0 137 27q103 50 103 193q0 100 -52 155q-61 64 -185 64h-106z" />
    <glyph glyph-name="dcroat" unicode="&#x111;" horiz-adv-x="547" 
d="M269 600h81v66q0 6 4.5 10.5t10.5 4.5h102q6 0 10.5 -4.5t4.5 -10.5v-66h77q6 0 10.5 -4.5t4.5 -11.5v-62q0 -6 -4.5 -10.5t-10.5 -4.5h-77v-492q0 -6 -4.5 -10.5t-10.5 -4.5h-161q-125 0 -197 60q-72 61 -72 166q0 97 51 159q65 82 193 82q40 0 69 -8v48h-81
q-6 0 -10.5 4.5t-4.5 10.5v62q0 7 4.5 11.5t10.5 4.5zM320 110h30v237q-28 7 -61 7q-60 0 -92 -45q-24 -31 -24 -81q0 -58 36 -87q37 -31 111 -31z" />
    <glyph glyph-name="Emacron" unicode="&#x112;" horiz-adv-x="618" 
d="M83 681h482q7 0 11.5 -4.5t4.5 -10.5v-98q0 -6 -4.5 -10.5t-11.5 -4.5h-354v-147h302q6 0 10.5 -4.5t4.5 -10.5v-97q0 -7 -4.5 -11.5t-10.5 -4.5h-302v-151h354q16 0 16 -15v-97q0 -6 -4.5 -10.5t-11.5 -4.5h-482q-7 0 -11.5 4.5t-4.5 10.5v651q0 6 4.5 10.5t11.5 4.5z
M191 924h241q15 0 15 -15v-77q0 -16 -15 -16h-241q-15 0 -15 16v77q0 15 15 15z" />
    <glyph glyph-name="emacron" unicode="&#x113;" horiz-adv-x="525" 
d="M176 276h187q-1 35 -22 60q-25 27 -68 27q-48 0 -72 -27q-20 -23 -25 -60zM296 95q57 0 111 31q17 9 23 -4l35 -65q5 -11 -7 -20q-29 -20 -76 -33.5t-96 -13.5q-115 0 -182 67q-67 65 -67 177q0 100 67 169q62 64 168 64q118 0 177 -80q44 -60 42 -183q0 -15 -15 -15
h-299q7 -38 30 -61q31 -33 89 -33zM141 701h241q15 0 15 -15v-77q0 -16 -15 -16h-241q-15 0 -15 16v77q0 15 15 15z" />
    <glyph glyph-name="Edotaccent" unicode="&#x116;" horiz-adv-x="618" 
d="M83 681h482q7 0 11.5 -4.5t4.5 -10.5v-98q0 -6 -4.5 -10.5t-11.5 -4.5h-354v-147h302q6 0 10.5 -4.5t4.5 -10.5v-97q0 -7 -4.5 -11.5t-10.5 -4.5h-302v-151h354q16 0 16 -15v-97q0 -6 -4.5 -10.5t-11.5 -4.5h-482q-7 0 -11.5 4.5t-4.5 10.5v651q0 6 4.5 10.5t11.5 4.5z
M328 790q-32 0 -54 22t-22 54t22 54t54 22q31 0 53 -22t22 -54t-22 -54t-53 -22z" />
    <glyph glyph-name="edotaccent" unicode="&#x117;" horiz-adv-x="525" 
d="M176 276h187q-1 35 -22 60q-25 27 -68 27q-48 0 -72 -27q-20 -23 -25 -60zM296 95q57 0 111 31q17 9 23 -4l35 -65q5 -11 -7 -20q-29 -20 -76 -33.5t-96 -13.5q-115 0 -182 67q-67 65 -67 177q0 100 67 169q62 64 168 64q118 0 177 -80q44 -60 42 -183q0 -15 -15 -15
h-299q7 -38 30 -61q31 -33 89 -33zM271 585q-32 0 -54 22t-22 54t22 54t54 22q31 0 53 -22t22 -54t-22 -54t-53 -22z" />
    <glyph glyph-name="Eogonek" unicode="&#x118;" horiz-adv-x="618" 
d="M385 -119q0 63 73 119h-375q-7 0 -11.5 4.5t-4.5 10.5v651q0 6 4.5 10.5t11.5 4.5h482q7 0 11.5 -4.5t4.5 -10.5v-98q0 -6 -4.5 -10.5t-11.5 -4.5h-354v-147h302q6 0 10.5 -4.5t4.5 -10.5v-97q0 -7 -4.5 -11.5t-10.5 -4.5h-302v-151h354q16 0 16 -15v-97q0 -6 -4.5 -10.5
t-11.5 -4.5h-30q-59 -42 -59 -82q0 -35 41 -35q16 0 32 4.5t21 4.5q9 0 9 -11v-53q0 -11 -9 -14q-37 -17 -80 -17q-45 0 -75 20t-30 64z" />
    <glyph glyph-name="eogonek" unicode="&#x119;" horiz-adv-x="525" 
d="M266 -106q0 48 48 98q-18 -2 -28 -2q-115 0 -182 67q-67 65 -67 177q0 100 67 169q62 64 168 64q118 0 177 -80q44 -60 42 -183q0 -15 -15 -15h-299q7 -38 30 -61q31 -33 89 -33q57 0 111 31q17 9 23 -4l35 -65q5 -11 -7 -20t-33 -19q-68 -42 -68 -87q0 -35 41 -35
q16 0 32 4.5t21 4.5q9 0 9 -11v-53q0 -11 -9 -14q-37 -17 -80 -17q-45 0 -75 20t-30 64zM176 276h187q-1 35 -22 60q-25 27 -68 27q-48 0 -72 -27q-20 -23 -25 -60z" />
    <glyph glyph-name="Ecaron" unicode="&#x11a;" horiz-adv-x="618" 
d="M83 681h482q7 0 11.5 -4.5t4.5 -10.5v-98q0 -6 -4.5 -10.5t-11.5 -4.5h-354v-147h302q6 0 10.5 -4.5t4.5 -10.5v-97q0 -7 -4.5 -11.5t-10.5 -4.5h-302v-151h354q16 0 16 -15v-97q0 -6 -4.5 -10.5t-11.5 -4.5h-482q-7 0 -11.5 4.5t-4.5 10.5v651q0 6 4.5 10.5t11.5 4.5z
M352 772h-46q-11 0 -21 12l-144 162q-7 8 -5 15t12 7h83q16 0 27 -14l71 -79l70 79q11 14 27 14h83q10 0 12 -7t-5 -15l-144 -162q-10 -12 -20 -12z" />
    <glyph glyph-name="ecaron" unicode="&#x11b;" horiz-adv-x="525" 
d="M176 276h187q-1 35 -22 60q-25 27 -68 27q-48 0 -72 -27q-20 -23 -25 -60zM296 95q57 0 111 31q17 9 23 -4l35 -65q5 -11 -7 -20q-29 -20 -76 -33.5t-96 -13.5q-115 0 -182 67q-67 65 -67 177q0 100 67 169q62 64 168 64q118 0 177 -80q44 -60 42 -183q0 -15 -15 -15
h-299q7 -38 30 -61q31 -33 89 -33zM286 568h-46q-11 0 -21 12l-144 162q-7 8 -5 15t12 7h83q16 0 27 -14l71 -79l70 79q11 14 27 14h83q10 0 12 -7t-5 -15l-144 -162q-10 -12 -20 -12z" />
    <glyph glyph-name="Gbreve" unicode="&#x11e;" horiz-adv-x="746" 
d="M405 690q114 0 206 -47q13 -8 7 -21l-46 -96q-5 -12 -20 -6q-91 40 -150 40q-89 0 -150.5 -63.5t-61.5 -155.5q0 -98 59 -160.5t153 -62.5q85 0 145 39v83h-138q-6 0 -10.5 4.5t-4.5 10.5v98q0 6 4.5 10.5t10.5 4.5h259q15 0 15 -15v-338q0 -15 -15 -15h-106
q-6 0 -10.5 4.5t-4.5 10.5v12q-67 -37 -160 -37q-151 0 -249 93t-98 258q0 148 106.5 248.5t258.5 100.5zM373 876q60 0 69 58q2 16 17 16h47q18 0 18 -17q0 -63 -40 -107t-111 -44t-111 44t-40 107q0 17 18 17h47q14 0 17 -16q9 -58 69 -58z" />
    <glyph glyph-name="gbreve" unicode="&#x11f;" horiz-adv-x="564" 
d="M266 -128q50 0 75 24q26 28 26 77v45q-46 -26 -111 -26q-91 0 -151 58q-68 66 -68 180q0 106 63 174q60 63 155 63q59 0 113 -37h3v13q0 15 15 15h98q15 0 15 -15v-453q0 -121 -68 -179q-59 -49 -167 -49q-107 0 -179 50q-11 10 -7 20l39 76q8 14 23 4q60 -40 126 -40z
M272 101q52 0 95 29v189q-48 35 -92 35q-46 0 -72 -29q-31 -37 -31 -97q0 -65 30 -98q27 -29 70 -29zM282 665q60 0 69 58q2 16 17 16h47q18 0 18 -17q0 -63 -40 -107t-111 -44t-111 44t-40 107q0 17 18 17h47q14 0 17 -16q9 -58 69 -58z" />
    <glyph glyph-name="Gcommaaccent" unicode="&#x122;" horiz-adv-x="746" 
d="M405 690q114 0 206 -47q13 -8 7 -21l-46 -96q-5 -12 -20 -6q-91 40 -150 40q-89 0 -150.5 -63.5t-61.5 -155.5q0 -98 59 -160.5t153 -62.5q85 0 145 39v83h-138q-6 0 -10.5 4.5t-4.5 10.5v98q0 6 4.5 10.5t10.5 4.5h259q15 0 15 -15v-338q0 -15 -15 -15h-106
q-6 0 -10.5 4.5t-4.5 10.5v12q-67 -37 -160 -37q-151 0 -249 93t-98 258q0 148 106.5 248.5t258.5 100.5zM489 -169q1 -57 -40.5 -108t-98.5 -68q-15 -4 -22 6l-13 21q-8 12 4 21q53 35 53 63q0 13 -9.5 23t-21 16.5t-21 21.5t-9.5 38q0 35 22.5 56t59.5 21q46 0 70 -29.5
t26 -81.5z" />
    <glyph glyph-name="gcommaaccent" unicode="&#x123;" horiz-adv-x="564" 
d="M192 669q-2 55 39.5 106.5t98.5 68.5q15 5 21 -7l14 -20q7 -12 -4 -21q-53 -35 -53 -63q0 -13 9.5 -23t21 -16t21 -21.5t9.5 -38.5q0 -34 -22.5 -55t-58.5 -21q-47 0 -71 29.5t-25 81.5zM266 -128q50 0 75 24q26 28 26 77v45q-46 -26 -111 -26q-91 0 -151 58
q-68 66 -68 180q0 106 63 174q60 63 155 63q59 0 113 -37h3v13q0 15 15 15h98q15 0 15 -15v-453q0 -121 -68 -179q-59 -49 -167 -49q-107 0 -179 50q-11 10 -7 20l39 76q8 14 23 4q60 -40 126 -40zM272 101q52 0 95 29v189q-48 35 -92 35q-46 0 -72 -29q-31 -37 -31 -97
q0 -65 30 -98q27 -29 70 -29z" />
    <glyph glyph-name="Imacron" unicode="&#x12a;" horiz-adv-x="279" 
d="M83 681h113q15 0 15 -15v-651q0 -15 -15 -15h-113q-7 0 -11.5 4.5t-4.5 10.5v651q0 6 4.5 10.5t11.5 4.5zM19 924h241q15 0 15 -15v-77q0 -16 -15 -16h-241q-15 0 -15 16v77q0 15 15 15z" />
    <glyph glyph-name="imacron" unicode="&#x12b;" horiz-adv-x="262" 
d="M65 443q0 15 15 15h102q15 0 15 -15v-428q0 -6 -4.5 -10.5t-10.5 -4.5h-102q-15 0 -15 15v428zM10 701h241q15 0 15 -15v-77q0 -16 -15 -16h-241q-15 0 -15 16v77q0 15 15 15z" />
    <glyph glyph-name="Iogonek" unicode="&#x12e;" horiz-adv-x="279" 
d="M-20 -119q0 36 25.5 71t62.5 58q-1 1 -1 5v651q0 6 4.5 10.5t11.5 4.5h113q15 0 15 -15v-651q0 -15 -15 -15h-66q-59 -42 -59 -82q0 -35 41 -35q16 0 32 4.5t21 4.5q9 0 9 -11v-53q0 -11 -9 -14q-37 -17 -80 -17q-45 0 -75 20t-30 64z" />
    <glyph glyph-name="iogonek" unicode="&#x12f;" horiz-adv-x="262" 
d="M-15 -123q0 69 84 127q-4 4 -4 11v428q0 15 15 15h102q15 0 15 -15v-428q0 -6 -4.5 -10.5t-10.5 -4.5h-41q-65 -44 -65 -86q0 -35 41 -35q16 0 32 4.5t21 4.5q9 0 9 -11v-53q0 -11 -9 -14q-37 -17 -80 -17q-45 0 -75 20t-30 64zM131 584q-32 0 -54 22t-22 54t22 54t54 22
q31 0 53 -22t22 -54t-22 -54t-53 -22z" />
    <glyph glyph-name="Idotaccent" unicode="&#x130;" horiz-adv-x="279" 
d="M83 681h113q15 0 15 -15v-651q0 -15 -15 -15h-113q-7 0 -11.5 4.5t-4.5 10.5v651q0 6 4.5 10.5t11.5 4.5zM140 790q-32 0 -54 22t-22 54t22 54t54 22q31 0 53 -22t22 -54t-22 -54t-53 -22z" />
    <glyph glyph-name="dotlessi" unicode="&#x131;" horiz-adv-x="262" 
d="M65 443q0 15 15 15h102q15 0 15 -15v-428q0 -6 -4.5 -10.5t-10.5 -4.5h-102q-15 0 -15 15v428z" />
    <glyph glyph-name="Kcommaaccent" unicode="&#x136;" horiz-adv-x="654" 
d="M466 15l-200 265l-55 -56v-209q0 -15 -15 -15h-113q-7 0 -11.5 4.5t-4.5 10.5v651q0 6 4.5 10.5t11.5 4.5h113q15 0 15 -15v-259l235 259q14 15 31 15h145q10 0 12.5 -7.5t-5.5 -15.5l-262 -272l270 -360q8 -8 6.5 -17t-14.5 -9h-134q-18 0 -29 15zM416 -169
q1 -57 -40.5 -108t-98.5 -68q-15 -4 -22 6l-13 21q-8 12 4 21q53 35 53 63q0 13 -9.5 23t-21 16.5t-21 21.5t-9.5 38q0 35 22.5 56t59.5 21q46 0 70 -29.5t26 -81.5z" />
    <glyph glyph-name="kcommaaccent" unicode="&#x137;" horiz-adv-x="540" 
d="M369 15l-122 167l-50 -47v-120q0 -6 -4.5 -10.5t-10.5 -4.5h-102q-15 0 -15 15v651q0 15 15 15h102q6 0 10.5 -4.5t4.5 -10.5v-388l162 167q12 13 29 13h120q12 0 15.5 -9t-5.5 -16l-179 -166l185 -243q7 -8 4.5 -16t-15.5 -8h-118q-16 0 -26 15zM364 -169
q1 -57 -40.5 -108t-98.5 -68q-15 -4 -22 6l-13 21q-8 12 4 21q53 35 53 63q0 13 -9.5 23t-21 16.5t-21 21.5t-9.5 38q0 35 22.5 56t59.5 21q46 0 70 -29.5t26 -81.5z" />
    <glyph glyph-name="Lacute" unicode="&#x139;" horiz-adv-x="543" 
d="M84 681h113q15 0 15 -15v-539h291q16 0 16 -15v-97q0 -6 -4.5 -10.5t-11.5 -4.5h-419q-7 0 -11.5 4.5t-4.5 10.5v651q0 6 4.5 10.5t11.5 4.5zM169 968h90q9 0 12.5 -7.5t-1.5 -15.5l-98 -157q-10 -16 -23 -16h-68q-12 0 -13 10.5t5 18.5l75 152q8 15 21 15z" />
    <glyph glyph-name="lacute" unicode="&#x13a;" horiz-adv-x="262" 
d="M65 666q0 15 15 15h102q6 0 10.5 -4.5t4.5 -10.5v-651q0 -6 -4.5 -10.5t-10.5 -4.5h-102q-15 0 -15 15v651zM137 968h90q9 0 12.5 -7.5t-1.5 -15.5l-98 -157q-10 -16 -23 -16h-68q-12 0 -13 10.5t5 18.5l75 152q8 15 21 15z" />
    <glyph glyph-name="Lcommaaccent" unicode="&#x13b;" horiz-adv-x="542" 
d="M83 681h113q15 0 15 -15v-539h291q16 0 16 -15v-97q0 -6 -4.5 -10.5t-11.5 -4.5h-419q-7 0 -11.5 4.5t-4.5 10.5v651q0 6 4.5 10.5t11.5 4.5zM383 -169q1 -57 -40.5 -108t-98.5 -68q-15 -4 -22 6l-13 21q-8 12 4 21q53 35 53 63q0 13 -9.5 23t-21 16.5t-21 21.5t-9.5 38
q0 35 22.5 56t59.5 21q46 0 70 -29.5t26 -81.5z" />
    <glyph glyph-name="lcommaaccent" unicode="&#x13c;" horiz-adv-x="262" 
d="M65 666q0 15 15 15h102q6 0 10.5 -4.5t4.5 -10.5v-651q0 -6 -4.5 -10.5t-10.5 -4.5h-102q-15 0 -15 15v651zM222 -169q1 -57 -40.5 -108t-98.5 -68q-15 -4 -22 6l-13 21q-8 12 4 21q53 35 53 63q0 13 -9.5 23t-21 16.5t-21 21.5t-9.5 38q0 35 22.5 56t59.5 21
q46 0 70 -29.5t26 -81.5z" />
    <glyph glyph-name="Lcaron" unicode="&#x13d;" horiz-adv-x="542" 
d="M83 681h113q15 0 15 -15v-539h291q16 0 16 -15v-97q0 -6 -4.5 -10.5t-11.5 -4.5h-419q-7 0 -11.5 4.5t-4.5 10.5v651q0 6 4.5 10.5t11.5 4.5zM480 580q1 -57 -40.5 -108t-98.5 -68q-15 -4 -22 6l-13 21q-8 12 4 21q53 35 53 63q0 13 -9.5 23t-21 16.5t-21 21.5t-9.5 38
q0 35 22.5 56t59.5 21q46 0 70 -29.5t26 -81.5z" />
    <glyph glyph-name="lcaron" unicode="&#x13e;" horiz-adv-x="438" 
d="M65 666q0 15 15 15h102q6 0 10.5 -4.5t4.5 -10.5v-651q0 -6 -4.5 -10.5t-10.5 -4.5h-102q-15 0 -15 15v651zM431 579q1 -57 -40.5 -108t-98.5 -68q-15 -4 -22 6l-13 21q-8 12 4 21q53 35 53 63q0 13 -9.5 23t-21 16.5t-21 21.5t-9.5 38q0 35 22.5 56t59.5 21
q46 0 70 -29.5t26 -81.5z" />
    <glyph glyph-name="Lslash" unicode="&#x141;" horiz-adv-x="552" 
d="M93 681h114q6 0 10.5 -4.5t4.5 -10.5v-220l70 45q12 7 21 -4l46 -71q9 -13 -5 -21l-132 -85v-183h291q15 0 15 -15v-97q0 -15 -15 -15h-420q-6 0 -10.5 4.5t-4.5 10.5v203l-48 -30q-11 -8 -21 4l-45 71q-9 12 4 21l110 70v312q0 6 4.5 10.5t10.5 4.5z" />
    <glyph glyph-name="lslash" unicode="&#x142;" horiz-adv-x="263" 
d="M336 394l-138 -88v-291q0 -6 -4.5 -10.5t-10.5 -4.5h-102q-7 0 -11.5 4.5t-4.5 10.5v206l-52 -33q-14 -9 -21 4l-45 71q-10 12 4 21l114 72v310q0 6 4.5 10.5t11.5 4.5h102q6 0 10.5 -4.5t4.5 -10.5v-225l76 49q13 7 21 -4l45 -71q9 -12 -4 -21z" />
    <glyph glyph-name="Nacute" unicode="&#x143;" horiz-adv-x="743" 
d="M537 239v427q0 6 4.5 10.5t10.5 4.5h108q6 0 10.5 -4.5t4.5 -10.5v-651q0 -6 -4.5 -10.5t-10.5 -4.5h-100q-18 0 -28 15l-327 426v-426q0 -6 -4.5 -10.5t-10.5 -4.5h-107q-7 0 -11.5 4.5t-4.5 10.5v651q0 6 4.5 10.5t11.5 4.5h100q15 0 27 -16zM375 968h90q9 0 12.5 -7.5
t-1.5 -15.5l-98 -157q-10 -16 -23 -16h-68q-12 0 -13 10.5t5 18.5l75 152q8 15 21 15z" />
    <glyph glyph-name="nacute" unicode="&#x144;" horiz-adv-x="576" 
d="M193 412h3q54 55 137 55q85 0 134 -45q53 -48 53 -144v-263q0 -15 -15 -15h-103q-6 0 -10.5 4.5t-4.5 10.5v229q0 62 -23 87q-20 23 -60 23q-54 0 -80.5 -41.5t-26.5 -97.5v-200q0 -6 -4.5 -10.5t-10.5 -4.5h-102q-15 0 -15 15v428q0 15 15 15h98q15 0 15 -15v-31z
M295 764h90q9 0 12.5 -7.5t-1.5 -15.5l-98 -157q-10 -16 -23 -16h-68q-12 0 -13 10.5t5 18.5l75 152q8 15 21 15z" />
    <glyph glyph-name="Ncommaaccent" unicode="&#x145;" horiz-adv-x="743" 
d="M537 239v427q0 6 4.5 10.5t10.5 4.5h108q6 0 10.5 -4.5t4.5 -10.5v-651q0 -6 -4.5 -10.5t-10.5 -4.5h-100q-18 0 -28 15l-327 426v-426q0 -6 -4.5 -10.5t-10.5 -4.5h-107q-7 0 -11.5 4.5t-4.5 10.5v651q0 6 4.5 10.5t11.5 4.5h100q15 0 27 -16zM461 -169
q1 -57 -40.5 -108t-98.5 -68q-15 -4 -22 6l-13 21q-8 12 4 21q53 35 53 63q0 13 -9.5 23t-21 16.5t-21 21.5t-9.5 38q0 35 22.5 56t59.5 21q46 0 70 -29.5t26 -81.5z" />
    <glyph glyph-name="ncommaaccent" unicode="&#x146;" horiz-adv-x="576" 
d="M193 412h3q54 55 137 55q85 0 134 -45q53 -48 53 -144v-263q0 -15 -15 -15h-103q-6 0 -10.5 4.5t-4.5 10.5v229q0 62 -23 87q-20 23 -60 23q-54 0 -80.5 -41.5t-26.5 -97.5v-200q0 -6 -4.5 -10.5t-10.5 -4.5h-102q-15 0 -15 15v428q0 15 15 15h98q15 0 15 -15v-31z
M379 -169q1 -57 -40.5 -108t-98.5 -68q-15 -4 -22 6l-13 21q-8 12 4 21q53 35 53 63q0 13 -9.5 23t-21 16.5t-21 21.5t-9.5 38q0 35 22.5 56t59.5 21q46 0 70 -29.5t26 -81.5z" />
    <glyph glyph-name="Ncaron" unicode="&#x147;" horiz-adv-x="743" 
d="M537 239v427q0 6 4.5 10.5t10.5 4.5h108q6 0 10.5 -4.5t4.5 -10.5v-651q0 -6 -4.5 -10.5t-10.5 -4.5h-100q-18 0 -28 15l-327 426v-426q0 -6 -4.5 -10.5t-10.5 -4.5h-107q-7 0 -11.5 4.5t-4.5 10.5v651q0 6 4.5 10.5t11.5 4.5h100q15 0 27 -16zM395 772h-46q-11 0 -21 12
l-144 162q-7 8 -5 15t12 7h83q16 0 27 -14l71 -79l70 79q11 14 27 14h83q10 0 12 -7t-5 -15l-144 -162q-10 -12 -20 -12z" />
    <glyph glyph-name="ncaron" unicode="&#x148;" horiz-adv-x="576" 
d="M193 412h3q54 55 137 55q85 0 134 -45q53 -48 53 -144v-263q0 -15 -15 -15h-103q-6 0 -10.5 4.5t-4.5 10.5v229q0 62 -23 87q-20 23 -60 23q-54 0 -80.5 -41.5t-26.5 -97.5v-200q0 -6 -4.5 -10.5t-10.5 -4.5h-102q-15 0 -15 15v428q0 15 15 15h98q15 0 15 -15v-31z
M315 568h-46q-11 0 -21 12l-144 162q-7 8 -5 15t12 7h83q16 0 27 -14l71 -79l70 79q11 14 27 14h83q10 0 12 -7t-5 -15l-144 -162q-10 -12 -20 -12z" />
    <glyph glyph-name="Omacron" unicode="&#x14c;" horiz-adv-x="810" 
d="M769 339q0 -155 -104 -252t-260 -97t-260.5 97t-104.5 252q0 156 104.5 253.5t260.5 97.5q155 0 259.5 -98t104.5 -253zM616 339q0 92 -60 154t-151 62t-151.5 -62t-60.5 -154t60.5 -153.5t151.5 -61.5t151 61.5t60 153.5zM285 924h241q15 0 15 -15v-77q0 -16 -15 -16
h-241q-15 0 -15 16v77q0 15 15 15z" />
    <glyph glyph-name="omacron" unicode="&#x14d;" horiz-adv-x="570" 
d="M167 228q0 -56 32 -91.5t85 -35.5t85 35.5t32 91.5t-32 91.5t-85 35.5t-85 -35.5t-32 -91.5zM37 228q0 109 70.5 174t176.5 65q107 0 177.5 -65t70.5 -174t-70.5 -173.5t-177.5 -64.5t-177 64.5t-70 173.5zM163 701h241q15 0 15 -15v-77q0 -16 -15 -16h-241q-15 0 -15 16
v77q0 15 15 15z" />
    <glyph glyph-name="Ohungarumlaut" unicode="&#x150;" horiz-adv-x="810" 
d="M769 339q0 -155 -104 -252t-260 -97t-260.5 97t-104.5 252q0 156 104.5 253.5t260.5 97.5q155 0 259.5 -98t104.5 -253zM616 339q0 92 -60 154t-151 62t-151.5 -62t-60.5 -154t60.5 -153.5t151.5 -61.5t151 61.5t60 153.5zM517 968h89q14 0 14 -10q0 -6 -6 -13l-117 -161
q-11 -12 -20 -12h-72q-13 0 -13 10q0 5 5 13l95 158q9 15 25 15zM327 968h89q14 0 14 -10q0 -5 -5 -13l-118 -161q-11 -12 -20 -12h-72q-12 0 -12 10q0 6 4 13l96 158q9 15 24 15z" />
    <glyph glyph-name="ohungarumlaut" unicode="&#x151;" horiz-adv-x="570" 
d="M167 228q0 -56 32 -91.5t85 -35.5t85 35.5t32 91.5t-32 91.5t-85 35.5t-85 -35.5t-32 -91.5zM37 228q0 109 70.5 174t176.5 65q107 0 177.5 -65t70.5 -174t-70.5 -173.5t-177.5 -64.5t-177 64.5t-70 173.5zM403 763h89q14 0 14 -10q0 -5 -6 -13l-117 -161
q-11 -12 -20 -12h-72q-13 0 -13 10q0 5 5 13l95 158q9 15 25 15zM213 763h89q14 0 14 -10q0 -5 -5 -13l-118 -161q-11 -12 -20 -12h-72q-12 0 -12 10q0 6 4 13l96 158q9 15 24 15z" />
    <glyph glyph-name="OE" unicode="&#x152;" horiz-adv-x="1170" 
d="M635 681h482q7 0 11.5 -4.5t4.5 -10.5v-98q0 -6 -4.5 -10.5t-11.5 -4.5h-354v-145v-2h302q6 0 10.5 -4.5t4.5 -10.5v-97q0 -7 -4.5 -11.5t-10.5 -4.5h-301l-1 -8v-143h354q16 0 16 -15v-97q0 -6 -4.5 -10.5t-11.5 -4.5h-482q-7 0 -11.5 4.5t-4.5 10.5v36
q-94 -61 -214 -61q-156 0 -260.5 97t-104.5 252q0 156 104.5 253.5t260.5 97.5q121 0 214 -62v38q0 6 4.5 10.5t11.5 4.5zM616 339q0 92 -60 154t-151 62t-151.5 -62t-60.5 -154t60.5 -153.5t151.5 -61.5t151 61.5t60 153.5z" />
    <glyph glyph-name="oe" unicode="&#x153;" horiz-adv-x="889" 
d="M660 95q57 0 111 31q17 9 23 -4l35 -65q5 -11 -7 -20q-29 -20 -76 -33.5t-96 -13.5q-115 0 -182 67q-2 0 -2 2q-69 -69 -182 -69q-107 0 -177 64.5t-70 173.5t70.5 174t176.5 65q110 0 180 -68l4 4q62 64 168 64q118 0 177 -80q44 -60 42 -183q0 -15 -15 -15h-299
q7 -38 30 -61q31 -33 89 -33zM167 228q0 -56 32 -91.5t85 -35.5q52 0 83.5 33.5t33.5 88.5v5q0 56 -32 91.5t-85 35.5t-85 -35.5t-32 -91.5zM540 276h187q-1 35 -22 60q-25 27 -68 27q-48 0 -72 -27q-20 -23 -25 -60z" />
    <glyph glyph-name="Racute" unicode="&#x154;" horiz-adv-x="665" 
d="M550 293q-26 -22 -61 -37l148 -230q15 -26 -9 -26h-125q-21 0 -29 15l-134 221h-129v-221q0 -15 -15 -15h-113q-7 0 -11.5 4.5t-4.5 10.5v651q0 6 4.5 10.5t11.5 4.5h292q110 0 172 -46q79 -58 79 -175q0 -103 -76 -167zM363 559h-152v-201h140q62 0 88 17q41 26 41 83
q0 56 -38 82q-30 19 -79 19zM338 968h90q9 0 12.5 -7.5t-1.5 -15.5l-98 -157q-10 -16 -23 -16h-68q-12 0 -13 10.5t5 18.5l75 152q7 15 21 15z" />
    <glyph glyph-name="racute" unicode="&#x155;" horiz-adv-x="426" 
d="M245 764h90q9 0 12.5 -7.5t-1.5 -15.5l-98 -157q-10 -16 -23 -16h-68q-12 0 -13 10.5t5 18.5l75 152q8 15 21 15zM284 351q-87 0 -87 -126v-210q0 -6 -4.5 -10.5t-10.5 -4.5h-102q-15 0 -15 15v428q0 15 15 15h98q15 0 15 -15v-27h3q43 51 112 51q68 0 112 -38
q11 -10 5 -21l-37 -79q-7 -13 -23 -4q-43 26 -81 26z" />
    <glyph glyph-name="Rcommaaccent" unicode="&#x156;" horiz-adv-x="665" 
d="M550 293q-26 -22 -61 -37l148 -230q15 -26 -9 -26h-125q-21 0 -29 15l-134 221h-129v-221q0 -15 -15 -15h-113q-7 0 -11.5 4.5t-4.5 10.5v651q0 6 4.5 10.5t11.5 4.5h292q110 0 172 -46q79 -58 79 -175q0 -103 -76 -167zM363 559h-152v-201h140q62 0 88 17q41 26 41 83
q0 56 -38 82q-30 19 -79 19zM433 -169q1 -57 -40.5 -108t-98.5 -68q-15 -4 -22 6l-13 21q-8 12 4 21q53 35 53 63q0 13 -9.5 23t-21 16.5t-21 21.5t-9.5 38q0 35 22.5 56t59.5 21q46 0 70 -29.5t26 -81.5z" />
    <glyph glyph-name="rcommaaccent" unicode="&#x157;" horiz-adv-x="426" 
d="M259 -169q1 -57 -40.5 -108t-98.5 -68q-15 -4 -22 6l-13 21q-8 12 4 21q53 35 53 63q0 13 -9.5 23t-21 16.5t-21 21.5t-9.5 38q0 35 22.5 56t59.5 21q46 0 70 -29.5t26 -81.5zM284 351q-87 0 -87 -126v-210q0 -6 -4.5 -10.5t-10.5 -4.5h-102q-15 0 -15 15v428q0 15 15 15
h98q15 0 15 -15v-27h3q43 51 112 51q68 0 112 -38q11 -10 5 -21l-37 -79q-7 -13 -23 -4q-43 26 -81 26z" />
    <glyph glyph-name="Rcaron" unicode="&#x158;" horiz-adv-x="665" 
d="M550 293q-26 -22 -61 -37l148 -230q15 -26 -9 -26h-125q-21 0 -29 15l-134 221h-129v-221q0 -15 -15 -15h-113q-7 0 -11.5 4.5t-4.5 10.5v651q0 6 4.5 10.5t11.5 4.5h292q110 0 172 -46q79 -58 79 -175q0 -103 -76 -167zM363 559h-152v-201h140q62 0 88 17q41 26 41 83
q0 56 -38 82q-30 19 -79 19zM354 772h-46q-11 0 -21 12l-144 162q-7 8 -5 15t12 7h83q16 0 27 -14l71 -79l70 79q11 14 27 14h83q10 0 12 -7t-5 -15l-144 -162q-10 -12 -20 -12z" />
    <glyph glyph-name="rcaron" unicode="&#x159;" horiz-adv-x="426" 
d="M255 568h-46q-11 0 -21 12l-144 162q-7 8 -5 15t12 7h83q16 0 27 -14l71 -79l70 79q11 14 27 14h83q10 0 12 -7t-5 -15l-144 -162q-10 -12 -20 -12zM284 351q-87 0 -87 -126v-210q0 -6 -4.5 -10.5t-10.5 -4.5h-102q-15 0 -15 15v428q0 15 15 15h98q15 0 15 -15v-27h3
q43 51 112 51q68 0 112 -38q11 -10 5 -21l-37 -79q-7 -13 -23 -4q-43 26 -81 26z" />
    <glyph glyph-name="Sacute" unicode="&#x15a;" horiz-adv-x="579" 
d="M282 -10q-137 0 -244 64q-12 7 -6 19l46 97q7 14 19 6q98 -62 183 -62q51 0 78 20q29 21 29 58q0 51 -85 80q-16 6 -54 17.5t-69 23.5t-57 28q-85 56 -85 155q0 90 71 143q69 51 188 51q123 0 218 -52q13 -7 6 -19l-46 -97q-7 -12 -19 -5q-88 48 -167 48q-47 0 -74 -17
q-25 -18 -25 -46q0 -26 22 -42.5t65 -30.5q14 -4 46 -13t51.5 -15.5t46 -18t46.5 -25.5q78 -54 78 -153q0 -100 -75 -157q-72 -57 -187 -57zM290 968h90q9 0 12.5 -7.5t-1.5 -15.5l-98 -157q-10 -16 -23 -16h-68q-12 0 -13 10.5t5 18.5l75 152q7 15 21 15z" />
    <glyph glyph-name="sacute" unicode="&#x15b;" horiz-adv-x="430" 
d="M202 93q53 0 53 36q0 15 -10 23t-33 18q-11 5 -44.5 18t-51.5 22q-74 36 -74 120q0 64 48 100.5t135 36.5q92 0 155 -35q14 -7 6 -20l-36 -74q-6 -11 -18 -5q-53 29 -103 29q-47 0 -47 -32q0 -22 44 -39q91 -37 93 -38q75 -36 75 -116q0 -64 -51.5 -105.5t-137.5 -41.5
q-99 0 -165 38q-14 8 -7 19l37 77q6 12 19 6q64 -37 113 -37zM225 764h90q9 0 12.5 -7.5t-1.5 -15.5l-98 -157q-10 -16 -23 -16h-68q-12 0 -13 10.5t5 18.5l75 152q8 15 21 15z" />
    <glyph glyph-name="Scedilla" unicode="&#x15e;" horiz-adv-x="579" 
d="M401 -114q0 -54 -43.5 -77.5t-103.5 -23.5q-26 0 -45 4q-12 2 -12 12v40q0 12 12 12q3 0 16 -1.5t23 -1.5q66 0 66 40q0 32 -55 32q-16 0 -25 -1l6 71q-113 9 -202 62q-12 7 -6 19l46 97q7 14 19 6q98 -62 183 -62q51 0 78 20q29 21 29 58q0 51 -85 80q-16 6 -54 17.5
t-69 23.5t-57 28q-85 56 -85 155q0 90 71 143q69 51 188 51q123 0 218 -52q13 -7 6 -19l-46 -97q-7 -12 -19 -5q-88 48 -167 48q-47 0 -74 -17q-25 -18 -25 -46q0 -26 22 -42.5t65 -30.5q14 -4 46 -13t51.5 -15.5t46 -18t46.5 -25.5q78 -54 78 -153q0 -100 -75 -157
q-60 -48 -160 -56v-20q43 -4 67.5 -27.5t24.5 -57.5z" />
    <glyph glyph-name="scedilla" unicode="&#x15f;" horiz-adv-x="430" 
d="M323 -114q0 -54 -43.5 -77.5t-103.5 -23.5q-26 0 -45 4q-12 2 -12 12v40q0 12 12 12q3 0 16 -1.5t23 -1.5q66 0 66 40q0 32 -55 32q-16 0 -25 -1l6 71q-73 6 -122 36q-14 8 -7 19l37 77q6 12 19 6q64 -37 113 -37q53 0 53 36q0 15 -10 23t-33 18q-11 5 -44.5 18t-51.5 22
q-74 36 -74 120q0 64 48 100.5t135 36.5q92 0 155 -35q14 -7 6 -20l-36 -74q-6 -11 -18 -5q-53 29 -103 29q-47 0 -47 -32q0 -22 44 -39q91 -37 93 -38q75 -36 75 -116q0 -59 -44 -99t-119 -47v-20q43 -4 67.5 -27.5t24.5 -57.5z" />
    <glyph glyph-name="Scaron" unicode="&#x160;" horiz-adv-x="579" 
d="M282 -10q-137 0 -244 64q-12 7 -6 19l46 97q7 14 19 6q98 -62 183 -62q51 0 78 20q29 21 29 58q0 51 -85 80q-16 6 -54 17.5t-69 23.5t-57 28q-85 56 -85 155q0 90 71 143q69 51 188 51q123 0 218 -52q13 -7 6 -19l-46 -97q-7 -12 -19 -5q-88 48 -167 48q-47 0 -74 -17
q-25 -18 -25 -46q0 -26 22 -42.5t65 -30.5q14 -4 46 -13t51.5 -15.5t46 -18t46.5 -25.5q78 -54 78 -153q0 -100 -75 -157q-72 -57 -187 -57zM312 792h-46q-11 0 -21 12l-144 162q-7 8 -5 15t12 7h83q16 0 27 -14l71 -79l70 79q11 14 27 14h83q10 0 12 -7t-5 -15l-144 -162
q-10 -12 -20 -12z" />
    <glyph glyph-name="scaron" unicode="&#x161;" horiz-adv-x="444" 
d="M208 93q53 0 53 36q0 15 -10 23t-33 18q-11 5 -44.5 18t-51.5 22q-74 36 -74 120q0 64 48 100.5t135 36.5q92 0 155 -35q14 -7 6 -20l-36 -74q-6 -11 -18 -5q-53 29 -103 29q-47 0 -47 -32q0 -22 44 -39q91 -37 93 -38q75 -36 75 -116q0 -64 -51.5 -105.5t-137.5 -41.5
q-99 0 -165 38q-14 8 -7 19l37 77q6 12 19 6q64 -37 113 -37zM243 568h-46q-11 0 -21 12l-144 162q-7 8 -5 15t12 7h83q16 0 27 -14l71 -79l70 79q11 14 27 14h83q10 0 12 -7t-5 -15l-144 -162q-10 -12 -20 -12z" />
    <glyph glyph-name="Tcommaaccent" unicode="&#x162;" horiz-adv-x="599" 
d="M23 681h552q7 0 11.5 -4.5t4.5 -10.5v-98q0 -6 -4.5 -10.5t-11.5 -4.5h-204v-538q0 -6 -4.5 -10.5t-10.5 -4.5h-114q-6 0 -10.5 4.5t-4.5 10.5v538h-204q-6 0 -10.5 4.5t-4.5 10.5v98q0 6 4.5 10.5t10.5 4.5zM390 -169q1 -57 -40.5 -108t-98.5 -68q-15 -4 -22 6l-13 21
q-8 12 4 21q53 35 53 63q0 13 -9.5 23t-21 16.5t-21 21.5t-9.5 38q0 35 22.5 56t59.5 21q46 0 70 -29.5t26 -81.5z" />
    <glyph glyph-name="tcommaaccent" unicode="&#x163;" horiz-adv-x="393" 
d="M213 354v-174q0 -33 10 -52q12 -24 46 -24q33 0 65 25q16 12 21 -2l35 -74q6 -11 -6 -20q-61 -43 -150 -43q-80 0 -117 44q-36 45 -36 128v192h-50q-6 0 -10.5 4.5t-4.5 11.5v73q0 15 15 15h50v90q0 15 15 15h102q15 0 15 -15v-90h126q15 0 15 -15v-73q0 -16 -15 -16
h-126zM324 -169q1 -57 -40.5 -108t-98.5 -68q-15 -4 -22 6l-13 21q-8 12 4 21q53 35 53 63q0 13 -9.5 23t-21 16.5t-21 21.5t-9.5 38q0 35 22.5 56t59.5 21q46 0 70 -29.5t26 -81.5z" />
    <glyph glyph-name="Tcaron" unicode="&#x164;" horiz-adv-x="599" 
d="M23 681h552q7 0 11.5 -4.5t4.5 -10.5v-98q0 -6 -4.5 -10.5t-11.5 -4.5h-204v-538q0 -6 -4.5 -10.5t-10.5 -4.5h-114q-6 0 -10.5 4.5t-4.5 10.5v538h-204q-6 0 -10.5 4.5t-4.5 10.5v98q0 6 4.5 10.5t10.5 4.5zM322 772h-46q-11 0 -21 12l-144 162q-7 8 -5 15t12 7h83
q16 0 27 -14l71 -79l70 79q11 14 27 14h83q10 0 12 -7t-5 -15l-144 -162q-10 -12 -20 -12z" />
    <glyph glyph-name="tcaron" unicode="&#x165;" horiz-adv-x="509" 
d="M213 354v-174q0 -33 10 -52q12 -24 46 -24q33 0 65 25q16 12 21 -2l35 -74q6 -11 -6 -20q-61 -43 -150 -43q-80 0 -117 44q-36 45 -36 128v192h-50q-6 0 -10.5 4.5t-4.5 11.5v73q0 15 15 15h50v90q0 15 15 15h102q15 0 15 -15v-90h126q15 0 15 -15v-73q0 -16 -15 -16
h-126zM538 580q1 -57 -40.5 -108t-98.5 -68q-15 -4 -22 6l-13 21q-8 12 4 21q53 35 53 63q0 13 -9.5 23t-21 16.5t-21 21.5t-9.5 38q0 35 22.5 56t59.5 21q46 0 70 -29.5t26 -81.5z" />
    <glyph glyph-name="Umacron" unicode="&#x16a;" horiz-adv-x="724" 
d="M513 286v380q0 6 4.5 10.5t11.5 4.5h113q15 0 15 -15v-397q0 -117 -62 -188q-80 -91 -234 -91t-232 91q-63 72 -63 188v397q0 6 4.5 10.5t10.5 4.5h114q6 0 10.5 -4.5t4.5 -10.5v-380q0 -77 34 -117q39 -47 117 -47q80 0 119 47q33 41 33 117zM240 924h241q15 0 15 -15
v-77q0 -16 -15 -16h-241q-15 0 -15 16v77q0 15 15 15z" />
    <glyph glyph-name="umacron" unicode="&#x16b;" horiz-adv-x="567" 
d="M57 197v246q0 15 15 15h102q15 0 15 -15v-237q0 -37 13 -62q22 -42 81 -42q58 0 82 42q13 25 13 62v237q0 15 15 15h102q15 0 15 -15v-246q0 -84 -40 -135q-57 -72 -187 -72q-129 0 -186 72q-40 51 -40 135zM163 701h241q15 0 15 -15v-77q0 -16 -15 -16h-241
q-15 0 -15 16v77q0 15 15 15z" />
    <glyph glyph-name="Uring" unicode="&#x16e;" horiz-adv-x="724" 
d="M513 286v380q0 6 4.5 10.5t11.5 4.5h113q15 0 15 -15v-397q0 -117 -62 -188q-80 -91 -234 -91t-232 91q-63 72 -63 188v397q0 6 4.5 10.5t10.5 4.5h114q6 0 10.5 -4.5t4.5 -10.5v-380q0 -77 34 -117q39 -47 117 -47q80 0 119 47q33 41 33 117zM483 857q0 -49 -35.5 -84.5
t-85.5 -35.5q-51 0 -86.5 35t-35.5 85q0 52 35.5 87t86.5 35q50 0 85.5 -35.5t35.5 -86.5zM425 857q0 27 -18.5 46t-44.5 19q-27 0 -45.5 -18.5t-18.5 -46.5q0 -26 18.5 -44.5t45.5 -18.5q26 0 44.5 18.5t18.5 44.5z" />
    <glyph glyph-name="uring" unicode="&#x16f;" horiz-adv-x="567" 
d="M57 197v246q0 15 15 15h102q15 0 15 -15v-237q0 -37 13 -62q22 -42 81 -42q58 0 82 42q13 25 13 62v237q0 15 15 15h102q15 0 15 -15v-246q0 -84 -40 -135q-57 -72 -187 -72q-129 0 -186 72q-40 51 -40 135zM405 666q0 -49 -35.5 -84.5t-85.5 -35.5q-51 0 -86.5 35
t-35.5 85q0 52 35.5 87t86.5 35q50 0 85.5 -35.5t35.5 -86.5zM347 666q0 27 -18.5 46t-44.5 19q-27 0 -45.5 -18.5t-18.5 -46.5q0 -26 18.5 -44.5t45.5 -18.5q26 0 44.5 18.5t18.5 44.5z" />
    <glyph glyph-name="Uhungarumlaut" unicode="&#x170;" horiz-adv-x="724" 
d="M513 286v380q0 6 4.5 10.5t11.5 4.5h113q15 0 15 -15v-397q0 -117 -62 -188q-80 -91 -234 -91t-232 91q-63 72 -63 188v397q0 6 4.5 10.5t10.5 4.5h114q6 0 10.5 -4.5t4.5 -10.5v-380q0 -77 34 -117q39 -47 117 -47q80 0 119 47q33 41 33 117zM484 968h89q14 0 14 -10
q0 -6 -6 -13l-117 -161q-11 -12 -20 -12h-72q-13 0 -13 10q0 5 5 13l95 158q9 15 25 15zM294 968h89q14 0 14 -10q0 -5 -5 -13l-118 -161q-10 -12 -20 -12h-72q-12 0 -12 10q0 6 4 13l96 158q9 15 24 15z" />
    <glyph glyph-name="uhungarumlaut" unicode="&#x171;" horiz-adv-x="570" 
d="M57 197v246q0 15 15 15h102q15 0 15 -15v-237q0 -37 13 -62q22 -42 81 -42q58 0 82 42q13 25 13 62v237q0 15 15 15h102q15 0 15 -15v-246q0 -84 -40 -135q-57 -72 -187 -72q-129 0 -186 72q-40 51 -40 135zM410 763h89q14 0 14 -10q0 -5 -6 -13l-117 -161
q-10 -12 -20 -12h-72q-13 0 -13 10q0 5 5 13l95 158q9 15 25 15zM220 763h89q14 0 14 -10q0 -5 -5 -13l-118 -161q-10 -12 -20 -12h-72q-12 0 -12 10q0 6 4 13l96 158q9 15 24 15z" />
    <glyph glyph-name="Uogonek" unicode="&#x172;" horiz-adv-x="724" 
d="M257 -119q0 57 63 111q-123 10 -191 89q-63 72 -63 188v397q0 6 4.5 10.5t10.5 4.5h114q6 0 10.5 -4.5t4.5 -10.5v-380q0 -77 34 -117q39 -47 117 -47q80 0 119 47q33 41 33 117v380q0 6 4.5 10.5t11.5 4.5h113q15 0 15 -15v-397q0 -117 -62 -188q-69 -80 -199 -89
q-48 -38 -48 -74q0 -35 41 -35q16 0 32 4.5t21 4.5q9 0 9 -11v-53q0 -11 -9 -14q-37 -17 -80 -17q-45 0 -75 20t-30 64z" />
    <glyph glyph-name="uogonek" unicode="&#x173;" horiz-adv-x="567" 
d="M195 -119q0 57 62 110q-109 6 -160 71q-40 51 -40 135v246q0 15 15 15h102q15 0 15 -15v-237q0 -37 13 -62q22 -42 81 -42q58 0 82 42q13 25 13 62v237q0 15 15 15h102q15 0 15 -15v-246q0 -84 -40 -135q-44 -55 -133 -68q-51 -41 -51 -76t41 -35q16 0 32 4.5t21 4.5
q9 0 9 -11v-53q0 -11 -9 -14q-37 -17 -80 -17q-45 0 -75 20t-30 64z" />
    <glyph glyph-name="Wcircumflex" unicode="&#x174;" horiz-adv-x="1046" 
d="M835 248v418q0 6 4.5 10.5t10.5 4.5h114q6 0 10.5 -4.5t4.5 -10.5v-420q0 -121 -69 -187q-69 -68 -195 -68q-61 0 -110 21q-50 23 -82 67q-33 -45 -83 -67q-49 -21 -110 -21q-126 0 -195 68q-69 66 -69 187v420q0 6 4.5 10.5t10.5 4.5h114q6 0 10.5 -4.5t4.5 -10.5v-418
q0 -61 32 -93t88 -32q58 0 88 33q33 38 33 111v399q0 15 15 15h113q7 0 11.5 -4.5t4.5 -10.5v-399q0 -74 32 -111q30 -33 88 -33t89 32q31 33 31 93zM499 968h46q11 0 20 -11l144 -163q7 -8 5 -15t-12 -7h-83q-16 0 -27 15l-70 79l-71 -79q-11 -15 -27 -15h-83q-10 0 -12 7
t5 15l144 163q9 11 21 11z" />
    <glyph glyph-name="wcircumflex" unicode="&#x175;" horiz-adv-x="807" 
d="M750 443v-245q0 -85 -31 -134q-46 -74 -160 -74q-71 0 -116 33q-25 19 -39 39q-18 -25 -39 -40q-46 -32 -116 -32q-113 0 -161 73q-31 51 -31 135v245q0 15 15 15h102q15 0 15 -15v-241q0 -41 13 -67q16 -31 59 -31q49 0 67 43q10 23 10 58v238q0 15 15 15h102
q15 0 15 -15v-238q0 -35 10 -58q18 -43 68 -43q42 0 58 31q13 23 13 67v241q0 15 15 15h101q15 0 15 -15zM380 764h46q11 0 20 -11l144 -163q7 -8 5 -15t-12 -7h-83q-16 0 -27 15l-70 79l-71 -79q-11 -15 -27 -15h-83q-10 0 -12 7t5 15l144 163q9 11 21 11z" />
    <glyph glyph-name="Ycircumflex" unicode="&#x176;" horiz-adv-x="660" 
d="M329 426l158 240q9 15 26 15h131q12 0 14.5 -7.5t-4.5 -17.5l-253 -373v-268q0 -6 -4.5 -10.5t-10.5 -4.5h-114q-6 0 -10.5 4.5t-4.5 10.5v269l-251 372q-7 10 -4.5 17.5t14.5 7.5h131q17 0 25 -15zM307 968h46q11 0 20 -11l144 -163q7 -8 5 -15t-12 -7h-83q-16 0 -27 15
l-70 79l-71 -79q-11 -15 -27 -15h-83q-10 0 -12 7t5 15l144 163q9 11 21 11z" />
    <glyph glyph-name="ycircumflex" unicode="&#x177;" horiz-adv-x="535" 
d="M530 437l-174 -462q-35 -97 -92 -148q-78 -70 -202 -63q-12 0 -12 12v101q0 12 12 12q3 0 13 -1t18 -1q44 0 75 24q26 22 46 57l-209 469q-9 21 12 21h123q20 0 25 -16l117 -309l98 309q5 16 25 16h113q19 0 12 -21zM249 764h46q11 0 20 -11l144 -163q7 -8 5 -15t-12 -7
h-83q-16 0 -27 15l-70 79l-71 -79q-11 -15 -27 -15h-83q-10 0 -12 7t5 15l144 163q9 11 21 11z" />
    <glyph glyph-name="Ydieresis" unicode="&#x178;" horiz-adv-x="660" 
d="M329 426l158 240q9 15 26 15h131q12 0 14.5 -7.5t-4.5 -17.5l-253 -373v-268q0 -6 -4.5 -10.5t-10.5 -4.5h-114q-6 0 -10.5 4.5t-4.5 10.5v269l-251 372q-7 10 -4.5 17.5t14.5 7.5h131q17 0 25 -15zM214 784q-32 0 -54 22.5t-22 54.5t22 54t54 22t54 -22.5t22 -53.5
q0 -32 -22.5 -54.5t-53.5 -22.5zM446 784q-32 0 -54 22.5t-22 54.5t22 54t54 22q31 0 53 -22t22 -54t-22 -54.5t-53 -22.5z" />
    <glyph glyph-name="Zacute" unicode="&#x179;" horiz-adv-x="617" 
d="M12 22l342 531h-310q-6 0 -10.5 4.5t-4.5 10.5v98q0 6 4.5 10.5t10.5 4.5h533q15 0 15 -13q0 -4 -3 -9l-342 -532h336q16 0 16 -15v-97q0 -6 -4.5 -10.5t-11.5 -4.5h-559q-15 0 -15 13q0 5 3 9zM317 968h90q9 0 12.5 -7.5t-1.5 -15.5l-98 -157q-10 -16 -23 -16h-68
q-12 0 -13 10.5t5 18.5l75 152q8 15 21 15z" />
    <glyph glyph-name="zacute" unicode="&#x17a;" horiz-adv-x="446" 
d="M421 0h-400q-23 0 -9 20l216 323h-193q-7 0 -11.5 4.5t-4.5 10.5v85q0 15 16 15h388q9 0 12.5 -6t-2.5 -15l-214 -321h202q6 0 10.5 -4.5t4.5 -10.5v-86q0 -6 -4.5 -10.5t-10.5 -4.5zM234 764h90q9 0 12.5 -7.5t-1.5 -15.5l-98 -157q-10 -16 -23 -16h-68q-12 0 -13 10.5
t5 18.5l75 152q7 15 21 15z" />
    <glyph glyph-name="Zdotaccent" unicode="&#x17b;" horiz-adv-x="617" 
d="M12 22l342 531h-310q-6 0 -10.5 4.5t-4.5 10.5v98q0 6 4.5 10.5t10.5 4.5h533q15 0 15 -13q0 -4 -3 -9l-342 -532h336q16 0 16 -15v-97q0 -6 -4.5 -10.5t-11.5 -4.5h-559q-15 0 -15 13q0 5 3 9zM295 790q-32 0 -54 22t-22 54t22 54t54 22q31 0 53 -22t22 -54t-22 -54
t-53 -22z" />
    <glyph glyph-name="zdotaccent" unicode="&#x17c;" horiz-adv-x="446" 
d="M421 0h-400q-23 0 -9 20l216 323h-193q-7 0 -11.5 4.5t-4.5 10.5v85q0 15 16 15h388q9 0 12.5 -6t-2.5 -15l-214 -321h202q6 0 10.5 -4.5t4.5 -10.5v-86q0 -6 -4.5 -10.5t-10.5 -4.5zM221 585q-32 0 -54 22t-22 54t22 54t54 22q31 0 53 -22t22 -54t-22 -54t-53 -22z" />
    <glyph glyph-name="Zcaron" unicode="&#x17d;" horiz-adv-x="617" 
d="M12 22l342 531h-310q-6 0 -10.5 4.5t-4.5 10.5v98q0 6 4.5 10.5t10.5 4.5h533q15 0 15 -13q0 -4 -3 -9l-342 -532h336q16 0 16 -15v-97q0 -6 -4.5 -10.5t-11.5 -4.5h-559q-15 0 -15 13q0 5 3 9zM332 792h-46q-11 0 -21 12l-144 162q-7 8 -5 15t12 7h83q16 0 27 -14
l71 -79l70 79q11 14 27 14h83q10 0 12 -7t-5 -15l-144 -162q-10 -12 -20 -12z" />
    <glyph glyph-name="zcaron" unicode="&#x17e;" horiz-adv-x="446" 
d="M421 0h-400q-23 0 -9 20l216 323h-193q-7 0 -11.5 4.5t-4.5 10.5v85q0 15 16 15h388q9 0 12.5 -6t-2.5 -15l-214 -321h202q6 0 10.5 -4.5t4.5 -10.5v-86q0 -6 -4.5 -10.5t-10.5 -4.5zM247 568h-46q-11 0 -21 12l-144 162q-7 8 -5 15t12 7h83q16 0 27 -14l71 -79l70 79
q11 14 27 14h83q10 0 12 -7t-5 -15l-144 -162q-10 -12 -20 -12z" />
    <glyph glyph-name="florin" unicode="&#x192;" 
d="M171 458h83l10 58q14 71 51 117q48 56 126 56q82 0 141 -40q11 -6 6 -19l-33 -68q-6 -13 -22 -4q-39 25 -69 25q-34 0 -51 -22q-16 -20 -23 -58l-8 -45h113q16 0 16 -15v-71q0 -6 -4.5 -10.5t-11.5 -4.5h-131l-76 -428q-15 -81 -56 -122q-47 -49 -135 -49q-64 0 -109 29
q-13 7 -6 19l33 69q7 14 22 4q28 -16 56 -16q32 0 47 21q14 18 21 54l75 419h-65q-6 0 -10.5 4.5t-4.5 10.5v71q0 15 15 15z" />
    <glyph glyph-name="Scommaaccent" unicode="&#x218;" horiz-adv-x="579" 
d="M282 -10q-137 0 -244 64q-12 7 -6 19l46 97q7 14 19 6q98 -62 183 -62q51 0 78 20q29 21 29 58q0 51 -85 80q-16 6 -54 17.5t-69 23.5t-57 28q-85 56 -85 155q0 90 71 143q69 51 188 51q123 0 218 -52q13 -7 6 -19l-46 -97q-7 -12 -19 -5q-88 48 -167 48q-47 0 -74 -17
q-25 -18 -25 -46q0 -26 22 -42.5t65 -30.5q14 -4 46 -13t51.5 -15.5t46 -18t46.5 -25.5q78 -54 78 -153q0 -100 -75 -157q-72 -57 -187 -57zM390 -169q1 -57 -40.5 -108t-98.5 -68q-15 -4 -22 6l-13 21q-8 12 4 21q53 35 53 63q0 13 -9.5 23t-21 16.5t-21 21.5t-9.5 38
q0 35 22.5 56t59.5 21q46 0 70 -29.5t26 -81.5z" />
    <glyph glyph-name="scommaaccent" unicode="&#x219;" horiz-adv-x="430" 
d="M202 93q53 0 53 36q0 15 -10 23t-33 18q-11 5 -44.5 18t-51.5 22q-74 36 -74 120q0 64 48 100.5t135 36.5q92 0 155 -35q14 -7 6 -20l-36 -74q-6 -11 -18 -5q-53 29 -103 29q-47 0 -47 -32q0 -22 44 -39q91 -37 93 -38q75 -36 75 -116q0 -64 -51.5 -105.5t-137.5 -41.5
q-99 0 -165 38q-14 8 -7 19l37 77q6 12 19 6q64 -37 113 -37zM310 -169q1 -57 -40.5 -108t-98.5 -68q-15 -4 -22 6l-13 21q-8 12 4 21q53 35 53 63q0 13 -9.5 23t-21 16.5t-21 21.5t-9.5 38q0 35 22.5 56t59.5 21q46 0 70 -29.5t26 -81.5z" />
    <glyph glyph-name="uni021A" unicode="&#x21a;" horiz-adv-x="599" 
d="M23 681h552q7 0 11.5 -4.5t4.5 -10.5v-98q0 -6 -4.5 -10.5t-11.5 -4.5h-204v-538q0 -6 -4.5 -10.5t-10.5 -4.5h-114q-6 0 -10.5 4.5t-4.5 10.5v538h-204q-6 0 -10.5 4.5t-4.5 10.5v98q0 6 4.5 10.5t10.5 4.5zM390 -169q1 -57 -40.5 -108t-98.5 -68q-15 -4 -22 6l-13 21
q-8 12 4 21q53 35 53 63q0 13 -9.5 23t-21 16.5t-21 21.5t-9.5 38q0 35 22.5 56t59.5 21q46 0 70 -29.5t26 -81.5z" />
    <glyph glyph-name="uni021B" unicode="&#x21b;" horiz-adv-x="393" 
d="M213 354v-174q0 -33 10 -52q12 -24 46 -24q33 0 65 25q16 12 21 -2l35 -74q6 -11 -6 -20q-61 -43 -150 -43q-80 0 -117 44q-36 45 -36 128v192h-50q-6 0 -10.5 4.5t-4.5 11.5v73q0 15 15 15h50v90q0 15 15 15h102q15 0 15 -15v-90h126q15 0 15 -15v-73q0 -16 -15 -16
h-126zM324 -169q1 -57 -40.5 -108t-98.5 -68q-15 -4 -22 6l-13 21q-8 12 4 21q53 35 53 63q0 13 -9.5 23t-21 16.5t-21 21.5t-9.5 38q0 35 22.5 56t59.5 21q46 0 70 -29.5t26 -81.5z" />
    <glyph glyph-name="circumflex" unicode="&#x2c6;" horiz-adv-x="465" 
d="M210 764h46q11 0 20 -11l144 -163q7 -8 5 -15t-12 -7h-83q-16 0 -27 15l-70 79l-71 -79q-11 -15 -27 -15h-83q-10 0 -12 7t5 15l144 163q9 11 21 11z" />
    <glyph glyph-name="caron" unicode="&#x2c7;" horiz-adv-x="465" 
d="M256 568h-46q-11 0 -21 12l-144 162q-7 8 -5 15t12 7h83q16 0 27 -14l71 -79l70 79q11 14 27 14h83q10 0 12 -7t-5 -15l-144 -162q-10 -12 -20 -12z" />
    <glyph glyph-name="breve" unicode="&#x2d8;" horiz-adv-x="465" 
d="M232 665q60 0 69 58q2 16 17 16h47q18 0 18 -17q0 -63 -40 -107t-111 -44t-111 44t-40 107q0 17 18 17h47q14 0 17 -16q9 -58 69 -58z" />
    <glyph glyph-name="dotaccent" unicode="&#x2d9;" horiz-adv-x="465" 
d="M233 585q-32 0 -54 22t-22 54t22 54t54 22q31 0 53 -22t22 -54t-22 -54t-53 -22z" />
    <glyph glyph-name="ring" unicode="&#x2da;" horiz-adv-x="465" 
d="M354 666q0 -49 -35.5 -84.5t-85.5 -35.5q-51 0 -86.5 35t-35.5 85q0 52 35.5 87t86.5 35q50 0 85.5 -35.5t35.5 -86.5zM296 666q0 27 -18.5 46t-44.5 19q-27 0 -45.5 -18.5t-18.5 -46.5q0 -26 18.5 -44.5t45.5 -18.5q26 0 44.5 18.5t18.5 44.5z" />
    <glyph glyph-name="ogonek" unicode="&#x2db;" horiz-adv-x="465" 
d="M109 -119q0 39 29.5 76t69.5 60l62 -10q-70 -46 -70 -89q0 -35 41 -35q16 0 32 4.5t21 4.5q9 0 9 -11v-53q0 -11 -9 -14q-37 -17 -80 -17q-45 0 -75 20t-30 64z" />
    <glyph glyph-name="tilde" unicode="&#x2dc;" horiz-adv-x="465" 
d="M297 684q31 0 38 37q3 15 15 15h42q18 0 18 -16q0 -58 -26 -92.5t-75 -34.5q-42 0 -82 30q-36 27 -59 27q-32 0 -39 -36q-3 -16 -15 -16h-42q-18 0 -18 17q0 57 26.5 91.5t75.5 34.5q40 0 83 -31q36 -26 58 -26z" />
    <glyph glyph-name="hungarumlaut" unicode="&#x2dd;" horiz-adv-x="465" 
d="M338 764h89q14 0 14 -10q0 -6 -6 -13l-117 -161q-10 -12 -20 -12h-72q-13 0 -13 10q0 5 5 13l95 158q9 15 25 15zM148 764h89q14 0 14 -10q0 -5 -5 -13l-118 -161q-10 -12 -20 -12h-72q-12 0 -12 10q0 6 4 13l96 158q9 15 24 15z" />
    <glyph glyph-name="pi" unicode="&#x3c0;" horiz-adv-x="622" 
d="M58 458h506q15 0 15 -15v-85q0 -6 -4.5 -10.5t-10.5 -4.5h-62v-174q0 -80 42 -139q19 -30 -11 -30h-79q-22 0 -37 16q-45 48 -45 147v180h-123l-17 -181q-11 -102 -55 -146q-16 -16 -37 -16h-79q-32 0 -12 31q44 59 53 138l17 174h-61q-6 0 -10.5 4.5t-4.5 10.5v85
q0 15 15 15z" />
    <glyph glyph-name="afii10023" unicode="&#x401;" horiz-adv-x="618" 
d="M83 681h482q7 0 11.5 -4.5t4.5 -10.5v-98q0 -6 -4.5 -10.5t-11.5 -4.5h-354v-147h302q6 0 10.5 -4.5t4.5 -10.5v-97q0 -7 -4.5 -11.5t-10.5 -4.5h-302v-151h354q16 0 16 -15v-97q0 -6 -4.5 -10.5t-11.5 -4.5h-482q-7 0 -11.5 4.5t-4.5 10.5v651q0 6 4.5 10.5t11.5 4.5z
M209 784q-32 0 -54 22.5t-22 54.5t22 54t54 22q31 0 53.5 -22.5t22.5 -53.5q0 -32 -22.5 -54.5t-53.5 -22.5zM441 784q-32 0 -54 22.5t-22 54.5t22 54t54 22q31 0 53 -22t22 -54t-22 -54.5t-53 -22.5z" />
    <glyph glyph-name="afii10051" unicode="&#x402;" horiz-adv-x="765" 
d="M708 264v-17q0 -70 -24.5 -132t-74.5 -100q-19 -15 -47 -15h-86q-12 0 -13.5 7t6.5 14q106 87 106 209v17q0 55 -24 82q-24 30 -71 30q-59 0 -88 -46q-22 -34 -22 -80v-218q0 -6 -4.5 -10.5t-10.5 -4.5h-114q-6 0 -10.5 4.5t-4.5 10.5v538h-204q-15 0 -15 15v98
q0 15 15 15h552q15 0 15 -15v-98q0 -15 -15 -15h-204v-146q23 26 53 41q40 19 86 19q86 0 138 -44q61 -55 61 -159z" />
    <glyph glyph-name="afii10052" unicode="&#x403;" horiz-adv-x="542" 
d="M196 0h-113q-7 0 -11.5 4.5t-4.5 10.5v651q0 6 4.5 10.5t11.5 4.5h419q7 0 11.5 -4.5t4.5 -10.5v-98q0 -6 -4.5 -10.5t-11.5 -4.5h-291v-538q0 -15 -15 -15zM294 968h90q9 0 12.5 -7.5t-1.5 -15.5l-98 -157q-10 -16 -23 -16h-68q-12 0 -13 10.5t5 18.5l75 152q7 15 21 15
z" />
    <glyph glyph-name="afii10053" unicode="&#x404;" horiz-adv-x="649" 
d="M402 -10q-163 0 -260 92q-102 96 -102 259q0 143 101 244q107 105 264 105q114 0 206 -47q12 -7 7 -21l-46 -96q-7 -11 -20 -6q-91 40 -150 40q-73 0 -133 -50q-49 -42 -66 -105h316q6 0 10.5 -4.5t4.5 -10.5v-96q0 -6 -4.5 -10.5t-10.5 -4.5h-318q16 -68 71 -114
q55 -44 131 -44q80 0 155 40q13 6 18 -5l46 -98q6 -13 -7 -19q-96 -49 -213 -49z" />
    <glyph glyph-name="afii10054" unicode="&#x405;" horiz-adv-x="579" 
d="M282 -10q-137 0 -244 64q-12 7 -6 19l46 97q7 14 19 6q98 -62 183 -62q51 0 78 20q29 21 29 58q0 51 -85 80q-16 6 -54 17.5t-69 23.5t-57 28q-85 56 -85 155q0 90 71 143q69 51 188 51q123 0 218 -52q13 -7 6 -19l-46 -97q-7 -12 -19 -5q-88 48 -167 48q-47 0 -74 -17
q-25 -18 -25 -46q0 -26 22 -42.5t65 -30.5q14 -4 46 -13t51.5 -15.5t46 -18t46.5 -25.5q78 -54 78 -153q0 -100 -75 -157q-72 -57 -187 -57z" />
    <glyph glyph-name="afii10055" unicode="&#x406;" horiz-adv-x="279" 
d="M83 681h113q15 0 15 -15v-651q0 -15 -15 -15h-113q-7 0 -11.5 4.5t-4.5 10.5v651q0 6 4.5 10.5t11.5 4.5z" />
    <glyph glyph-name="afii10056" unicode="&#x407;" horiz-adv-x="279" 
d="M83 681h113q15 0 15 -15v-651q0 -15 -15 -15h-113q-7 0 -11.5 4.5t-4.5 10.5v651q0 6 4.5 10.5t11.5 4.5zM24 784q-32 0 -54 22.5t-22 54.5t22 54t54 22t54 -22.5t22 -53.5q0 -32 -22.5 -54.5t-53.5 -22.5zM256 784q-32 0 -54 22.5t-22 54.5t22 54t54 22q31 0 53 -22
t22 -54t-22 -54.5t-53 -22.5z" />
    <glyph glyph-name="afii10057" unicode="&#x408;" horiz-adv-x="533" 
d="M207 -10q-109 0 -191 67q-11 8 -3 21l53 90q8 12 20 2q60 -53 119 -53q55 0 84 28q34 34 34 115v406q0 6 4.5 10.5t10.5 4.5h114q6 0 10.5 -4.5t4.5 -10.5v-419q0 -137 -82 -203q-67 -54 -178 -54z" />
    <glyph glyph-name="afii10058" unicode="&#x409;" horiz-adv-x="1049" 
d="M133 681h493q6 0 10.5 -4.5t4.5 -10.5v-262h106q101 0 161 -28q99 -47 99 -172q0 -122 -99 -172q-60 -32 -147 -32h-249q-6 0 -10.5 4.5t-4.5 10.5v538h-235v-77q0 -165 -27 -278q-10 -49 -32 -102.5t-45 -79.5q-12 -16 -36 -16h-86q-13 0 -17 8t5 23q48 72 73 180
q21 101 21 265v190q0 6 4.5 10.5t10.5 4.5zM860 204q0 50 -46 71q-32 13 -78 13h-95v-171h106q47 0 74 15q39 21 39 72z" />
    <glyph glyph-name="afii10059" unicode="&#x40a;" horiz-adv-x="1072" 
d="M521 15v273h-310v-273q0 -15 -15 -15h-113q-7 0 -11.5 4.5t-4.5 10.5v651q0 6 4.5 10.5t11.5 4.5h113q15 0 15 -15v-263h310v263q0 6 4.5 10.5t10.5 4.5h114q6 0 10.5 -4.5t4.5 -10.5v-262h106q101 0 161 -28q99 -48 99 -172q0 -122 -99 -172q-60 -32 -147 -32h-249
q-6 0 -10.5 4.5t-4.5 10.5zM884 204q0 50 -47 71q-31 13 -77 13h-95v-171h106q47 0 74 15q39 21 39 72z" />
    <glyph glyph-name="afii10060" unicode="&#x40b;" horiz-adv-x="758" 
d="M226 553h-204q-15 0 -15 15v98q0 15 15 15h552q15 0 15 -15v-98q0 -15 -15 -15h-204v-146q23 27 52 41q38 19 84 19q85 0 135 -44q60 -52 60 -151v-257q0 -6 -4.5 -10.5t-10.5 -4.5h-102q-6 0 -10.5 4.5t-4.5 10.5v235q0 52 -23 79q-24 30 -69 30q-57 0 -86 -46
q-21 -35 -21 -80v-218q0 -6 -4.5 -10.5t-10.5 -4.5h-114q-6 0 -10.5 4.5t-4.5 10.5v538z" />
    <glyph glyph-name="afii10061" unicode="&#x40c;" horiz-adv-x="656" 
d="M492 681h128q11 0 14 -7.5t-4 -15.5l-251 -308l259 -324q8 -10 6 -18t-13 -8h-135q-18 0 -29 15l-206 263h-50v-263q0 -15 -15 -15h-113q-7 0 -11.5 4.5t-4.5 10.5v651q0 6 4.5 10.5t11.5 4.5h113q15 0 15 -15v-260h49l203 260q12 15 29 15zM343 968h90q9 0 12.5 -7.5
t-1.5 -15.5l-98 -157q-10 -16 -23 -16h-68q-12 0 -13 10.5t5 18.5l75 152q8 15 21 15z" />
    <glyph glyph-name="afii10062" unicode="&#x40e;" horiz-adv-x="623" 
d="M76 123h36q51 0 84 17q25 14 53 48l-245 472q-5 6 -2 13.5t13 7.5h127q17 0 26 -17l154 -329l138 329q7 17 25 17h120q11 0 14 -7.5t-2 -13.5l-205 -457q-37 -85 -92 -134q-76 -69 -192 -69h-52q-6 0 -10.5 4.5t-4.5 10.5v93q0 15 15 15zM312 876q60 0 69 58q2 16 17 16
h47q18 0 18 -17q0 -63 -40 -107t-111 -44t-111 44t-40 107q0 17 18 17h47q14 0 17 -16q9 -58 69 -58z" />
    <glyph glyph-name="afii10145" unicode="&#x40f;" horiz-adv-x="718" 
d="M521 681h114q6 0 10.5 -4.5t4.5 -10.5v-651q0 -6 -4.5 -10.5t-10.5 -4.5h-204v-213q0 -6 -4.5 -10.5t-11.5 -4.5h-113q-15 0 -15 15v213h-204q-7 0 -11.5 4.5t-4.5 10.5v651q0 6 4.5 10.5t11.5 4.5h113q15 0 15 -15v-538h295v538q0 6 4.5 10.5t10.5 4.5z" />
    <glyph glyph-name="afii10017" unicode="&#x410;" horiz-adv-x="640" 
d="M195 138l-41 -121q-6 -17 -25 -17h-112q-14 0 -14 12q0 2 2 10l233 646q4 16 24 16h119q20 0 24 -16l230 -646q2 -8 2 -10q0 -12 -14 -12h-115q-21 0 -25 17l-41 121h-247zM407 253l-87 256l-89 -256h176z" />
    <glyph glyph-name="afii10018" unicode="&#x411;" horiz-adv-x="619" 
d="M83 681h430q6 0 10.5 -4.5t4.5 -10.5v-98q0 -6 -4.5 -10.5t-10.5 -4.5h-302v-149h107q102 0 160 -28q99 -47 99 -172q0 -122 -98 -172q-61 -32 -148 -32h-248q-7 0 -11.5 4.5t-4.5 10.5v651q0 6 4.5 10.5t11.5 4.5zM430 204q0 50 -46 71q-32 13 -77 13h-96v-171h107
q47 0 73 15q39 21 39 72z" />
    <glyph glyph-name="afii10019" unicode="&#x412;" horiz-adv-x="619" 
d="M577 184q0 -89 -67 -136.5t-161 -47.5h-266q-7 0 -11.5 4.5t-4.5 10.5v651q0 6 4.5 10.5t11.5 4.5h206q106 0 166 -43q66 -49 66 -130q0 -106 -85 -145v-4q141 -33 141 -175zM376 483q0 44 -31 65q-23 16 -57 16h-77v-160h68q38 0 59 10q38 19 38 69zM430 203
q0 52 -47 73q-24 12 -85 12h-87v-171h107q42 0 64 10q48 21 48 76z" />
    <glyph glyph-name="afii10020" unicode="&#x413;" horiz-adv-x="542" 
d="M196 0h-113q-7 0 -11.5 4.5t-4.5 10.5v651q0 6 4.5 10.5t11.5 4.5h419q7 0 11.5 -4.5t4.5 -10.5v-98q0 -6 -4.5 -10.5t-11.5 -4.5h-291v-538q0 -15 -15 -15z" />
    <glyph glyph-name="afii10021" unicode="&#x414;" horiz-adv-x="860" 
d="M359 476q0 -121 -12 -192q-14 -89 -46 -156h248v425h-190v-77zM16 -215v327q0 16 16 16h123q37 64 50 157q10 66 10 191v190q0 15 15 15h448q15 0 15 -15v-538h135q15 0 15 -16v-327q0 -15 -15 -15h-113q-7 0 -11.5 4.5t-4.5 10.5v215h-539v-215q0 -15 -15 -15h-113
q-7 0 -11.5 4.5t-4.5 10.5z" />
    <glyph glyph-name="afii10022" unicode="&#x415;" horiz-adv-x="618" 
d="M83 681h482q7 0 11.5 -4.5t4.5 -10.5v-98q0 -6 -4.5 -10.5t-11.5 -4.5h-354v-147h302q6 0 10.5 -4.5t4.5 -10.5v-97q0 -7 -4.5 -11.5t-10.5 -4.5h-302v-151h354q16 0 16 -15v-97q0 -6 -4.5 -10.5t-11.5 -4.5h-482q-7 0 -11.5 4.5t-4.5 10.5v651q0 6 4.5 10.5t11.5 4.5z
" />
    <glyph glyph-name="afii10024" unicode="&#x416;" horiz-adv-x="1030" 
d="M395 406h48v260q0 6 4.5 10.5t10.5 4.5h114q6 0 10.5 -4.5t4.5 -10.5v-260h48l204 260q12 15 29 15h127q12 0 14.5 -7.5t-4.5 -15.5l-251 -308l259 -324q8 -10 6.5 -18t-13.5 -8h-134q-18 0 -29 15l-206 263h-50v-263q0 -6 -4.5 -10.5t-10.5 -4.5h-114q-6 0 -10.5 4.5
t-4.5 10.5v263h-50l-206 -263q-11 -15 -29 -15h-135q-8 0 -11 4t-2 9.5t6 12.5l260 324l-251 308q-7 8 -4.5 15.5t14.5 7.5h127q16 0 29 -15z" />
    <glyph glyph-name="afii10025" unicode="&#x417;" horiz-adv-x="522" 
d="M211 291h-82q-15 0 -15 15v81q0 7 4.5 11.5t10.5 4.5h71q56 0 86 17q40 25 40 74q0 35 -25 57q-27 20 -65 20q-64 0 -129 -44q-16 -12 -23 3l-38 77q-8 14 5 23q94 60 198 60q94 0 151 -54q54 -51 54 -125q0 -113 -99 -155q125 -46 125 -174q0 -91 -68 -144
q-64 -48 -164 -48q-117 0 -198 52q-13 9 -6 20l40 82q6 12 22 3q64 -44 129 -44q53 0 79 22q32 24 32 70q0 53 -47 79q-29 17 -88 17z" />
    <glyph glyph-name="afii10026" unicode="&#x418;" horiz-adv-x="737" 
d="M525 15v395l-314 -321v-74q0 -15 -15 -15h-113q-7 0 -11.5 4.5t-4.5 10.5v651q0 6 4.5 10.5t11.5 4.5h113q15 0 15 -15v-400l314 321v78q0 7 4.5 11.5t10.5 4.5h114q6 0 10.5 -4.5t4.5 -11.5v-650q0 -15 -15 -15h-114q-15 0 -15 15z" />
    <glyph glyph-name="afii10027" unicode="&#x419;" horiz-adv-x="737" 
d="M525 15v395l-314 -321v-74q0 -15 -15 -15h-113q-7 0 -11.5 4.5t-4.5 10.5v651q0 6 4.5 10.5t11.5 4.5h113q15 0 15 -15v-400l314 321v78q0 7 4.5 11.5t10.5 4.5h114q6 0 10.5 -4.5t4.5 -11.5v-650q0 -15 -15 -15h-114q-15 0 -15 15zM368 876q60 0 69 58q2 16 17 16h47
q18 0 18 -17q0 -63 -40 -107t-111 -44t-111 44t-40 107q0 17 18 17h47q14 0 17 -16q9 -58 69 -58z" />
    <glyph glyph-name="afii10028" unicode="&#x41a;" horiz-adv-x="655" 
d="M492 681h128q11 0 14 -7.5t-4 -15.5l-251 -308l259 -324q8 -10 6 -18t-13 -8h-135q-18 0 -29 15l-206 263h-50v-263q0 -15 -15 -15h-113q-7 0 -11.5 4.5t-4.5 10.5v651q0 6 4.5 10.5t11.5 4.5h113q15 0 15 -15v-260h49l203 260q12 15 29 15z" />
    <glyph glyph-name="afii10029" unicode="&#x41b;" horiz-adv-x="709" 
d="M158 16q-12 -16 -36 -16h-86q-13 0 -17 8t5 23q48 72 73 180q21 101 21 265v190q0 6 4.5 10.5t10.5 4.5h493q6 0 10.5 -4.5t4.5 -10.5v-651q0 -6 -4.5 -10.5t-10.5 -4.5h-114q-6 0 -10.5 4.5t-4.5 10.5v538h-235v-77q0 -165 -27 -278q-10 -49 -32 -102.5t-45 -79.5z" />
    <glyph glyph-name="afii10030" unicode="&#x41c;" horiz-adv-x="840" 
d="M772 666v-651q0 -6 -4.5 -10.5t-11.5 -4.5h-108q-7 0 -11.5 4.5t-4.5 10.5v416l-145 -253q-9 -16 -24 -16h-83q-15 0 -24 16l-149 253v-416q0 -6 -4.5 -10.5t-11.5 -4.5h-108q-7 0 -11.5 4.5t-4.5 10.5v651q0 6 4.5 10.5t11.5 4.5h114q19 0 28 -16l194 -337l195 337
q8 16 27 16h115q7 0 11.5 -4.5t4.5 -10.5z" />
    <glyph glyph-name="afii10031" unicode="&#x41d;" horiz-adv-x="733" 
d="M536 681h114q6 0 10.5 -4.5t4.5 -10.5v-651q0 -6 -4.5 -10.5t-10.5 -4.5h-114q-6 0 -10.5 4.5t-4.5 10.5v264h-310v-264q0 -15 -15 -15h-113q-7 0 -11.5 4.5t-4.5 10.5v651q0 6 4.5 10.5t11.5 4.5h113q15 0 15 -15v-260h310v260q0 6 4.5 10.5t10.5 4.5z" />
    <glyph glyph-name="afii10032" unicode="&#x41e;" horiz-adv-x="810" 
d="M769 339q0 -155 -104 -252t-260 -97t-260.5 97t-104.5 252q0 156 104.5 253.5t260.5 97.5q155 0 259.5 -98t104.5 -253zM616 339q0 92 -60 154t-151 62t-151.5 -62t-60.5 -154t60.5 -153.5t151.5 -61.5t151 61.5t60 153.5z" />
    <glyph glyph-name="afii10033" unicode="&#x41f;" horiz-adv-x="718" 
d="M635 0h-114q-6 0 -10.5 4.5t-4.5 10.5v538h-295v-538q0 -15 -15 -15h-113q-7 0 -11.5 4.5t-4.5 10.5v651q0 6 4.5 10.5t11.5 4.5h552q6 0 10.5 -4.5t4.5 -10.5v-651q0 -6 -4.5 -10.5t-10.5 -4.5z" />
    <glyph glyph-name="afii10034" unicode="&#x420;" horiz-adv-x="646" 
d="M466 443q0 64 -43 92q-31 20 -76 20h-136v-224h133q50 0 77 18q45 27 45 94zM83 681h283q101 0 163 -51q83 -68 83 -187q0 -123 -90 -192q-60 -46 -156 -46h-155v-190q0 -15 -15 -15h-113q-7 0 -11.5 4.5t-4.5 10.5v651q0 6 4.5 10.5t11.5 4.5z" />
    <glyph glyph-name="afii10035" unicode="&#x421;" horiz-adv-x="654" 
d="M402 -10q-165 0 -263.5 95t-98.5 256q0 149 105.5 249t259.5 100q114 0 206 -47q13 -8 7 -21l-46 -96q-6 -13 -20 -6q-80 40 -150 40q-87 0 -149 -63t-62 -156q0 -97 60.5 -158.5t151.5 -61.5q80 0 155 40q13 6 18 -5l46 -98q6 -13 -7 -19q-96 -49 -213 -49z" />
    <glyph glyph-name="afii10036" unicode="&#x422;" horiz-adv-x="599" 
d="M23 681h552q7 0 11.5 -4.5t4.5 -10.5v-98q0 -6 -4.5 -10.5t-11.5 -4.5h-204v-538q0 -6 -4.5 -10.5t-10.5 -4.5h-114q-6 0 -10.5 4.5t-4.5 10.5v538h-204q-6 0 -10.5 4.5t-4.5 10.5v98q0 6 4.5 10.5t10.5 4.5z" />
    <glyph glyph-name="afii10037" unicode="&#x423;" horiz-adv-x="621" 
d="M76 123h36q51 0 84 17q25 14 53 48l-245 472q-5 6 -2 13.5t13 7.5h127q17 0 26 -17l154 -329l138 329q7 17 25 17h120q11 0 14 -7.5t-2 -13.5l-205 -457q-37 -85 -92 -134q-76 -69 -192 -69h-52q-6 0 -10.5 4.5t-4.5 10.5v93q0 15 15 15z" />
    <glyph glyph-name="afii10038" unicode="&#x424;" horiz-adv-x="813" 
d="M478 220h26q48 0 77 20q45 32 45 100q0 69 -45 99q-31 21 -77 21h-26v-240zM334 220v240h-25q-46 0 -77 -21q-45 -29 -45 -99q0 -69 45 -100q29 -20 77 -20h25zM772 340q0 -130 -89 -198q-62 -48 -163 -48h-42v-79q0 -15 -15 -15h-113q-7 0 -11.5 4.5t-4.5 10.5v79h-41
q-100 0 -164 48q-89 70 -89 198q0 127 89 198q61 48 164 48h41v80q0 6 4.5 10.5t11.5 4.5h113q15 0 15 -15v-80h42q102 0 163 -48q89 -71 89 -198z" />
    <glyph glyph-name="afii10039" unicode="&#x425;" horiz-adv-x="701" 
d="M442 342l253 -318q8 -9 5 -16.5t-15 -7.5h-149q-15 0 -26 14l-159 217l-160 -217q-9 -14 -25 -14h-150q-12 0 -15 7.5t5 16.5l257 315l-252 317q-7 9 -4 17t15 8h150q15 0 25 -15l155 -210l150 210q12 15 27 15h151q12 0 15 -8t-5 -17z" />
    <glyph glyph-name="afii10040" unicode="&#x426;" horiz-adv-x="816" 
d="M83 0q-7 0 -11.5 4.5t-4.5 10.5v651q0 6 4.5 10.5t11.5 4.5h113q15 0 15 -15v-538h295v538q0 6 4.5 10.5t10.5 4.5h114q6 0 10.5 -4.5t4.5 -10.5v-538h135q6 0 10.5 -4.5t4.5 -11.5v-327q0 -6 -4.5 -10.5t-10.5 -4.5h-114q-6 0 -10.5 4.5t-4.5 10.5v215h-573z" />
    <glyph glyph-name="afii10041" unicode="&#x427;" horiz-adv-x="668" 
d="M54 466v200q0 6 4.5 10.5t10.5 4.5h114q6 0 10.5 -4.5t4.5 -10.5v-198q0 -61 25 -89t89 -28q62 0 144 26v289q0 6 4.5 10.5t11.5 4.5h113q15 0 15 -15v-651q0 -15 -15 -15h-113q-7 0 -11.5 4.5t-4.5 10.5v229q-80 -23 -154 -23q-135 0 -196 71q-52 60 -52 174z" />
    <glyph glyph-name="afii10042" unicode="&#x428;" horiz-adv-x="1092" 
d="M1024 666v-651q0 -6 -4.5 -10.5t-10.5 -4.5h-926q-7 0 -11.5 4.5t-4.5 10.5v651q0 6 4.5 10.5t11.5 4.5h113q15 0 15 -15v-538h263v538q0 6 4.5 10.5t10.5 4.5h114q6 0 10.5 -4.5t4.5 -10.5v-538h262v538q0 6 4.5 10.5t10.5 4.5h114q6 0 10.5 -4.5t4.5 -10.5z" />
    <glyph glyph-name="afii10043" unicode="&#x429;" horiz-adv-x="1191" 
d="M83 0q-7 0 -11.5 4.5t-4.5 10.5v651q0 6 4.5 10.5t11.5 4.5h113q15 0 15 -15v-538h263v538q0 6 4.5 10.5t10.5 4.5h114q6 0 10.5 -4.5t4.5 -10.5v-538h262v538q0 6 4.5 10.5t10.5 4.5h114q6 0 10.5 -4.5t4.5 -10.5v-538h135q6 0 10.5 -4.5t4.5 -11.5v-327
q0 -6 -4.5 -10.5t-10.5 -4.5h-114q-6 0 -10.5 4.5t-4.5 10.5v215h-947z" />
    <glyph glyph-name="afii10044" unicode="&#x42a;" horiz-adv-x="803" 
d="M515 0h-248q-15 0 -15 15v538h-209q-6 0 -10.5 4.5t-4.5 10.5v98q0 6 4.5 10.5t10.5 4.5h337q7 0 11.5 -4.5t4.5 -10.5v-262h106q102 0 160 -28q99 -47 99 -172q0 -122 -98 -172q-61 -32 -148 -32zM614 204q0 51 -46 71q-32 13 -77 13h-95v-171h106q47 0 73 15
q39 21 39 72z" />
    <glyph glyph-name="afii10045" unicode="&#x42b;" horiz-adv-x="898" 
d="M702 681h113q15 0 15 -15v-651q0 -15 -15 -15h-113q-7 0 -11.5 4.5t-4.5 10.5v651q0 6 4.5 10.5t11.5 4.5zM67 15v651q0 6 4.5 10.5t11.5 4.5h113q15 0 15 -15v-262h107q102 0 160 -28q99 -47 99 -172q0 -122 -98 -172q-61 -32 -148 -32h-248q-7 0 -11.5 4.5t-4.5 10.5z
M430 204q0 50 -46 71q-32 13 -77 13h-96v-171h107q47 0 73 15q39 21 39 72z" />
    <glyph glyph-name="afii10046" unicode="&#x42c;" horiz-adv-x="619" 
d="M67 15v651q0 6 4.5 10.5t11.5 4.5h113q15 0 15 -15v-262h107q102 0 160 -28q99 -47 99 -172q0 -122 -98 -172q-61 -32 -148 -32h-248q-7 0 -11.5 4.5t-4.5 10.5zM430 204q0 50 -46 71q-32 13 -77 13h-96v-171h107q47 0 73 15q39 21 39 72z" />
    <glyph glyph-name="afii10047" unicode="&#x42d;" horiz-adv-x="650" 
d="M247 -10q-118 0 -214 49q-13 6 -6 19l45 98q5 11 19 5q75 -40 156 -40q77 0 129 44q56 43 72 114h-318q-6 0 -10.5 4.5t-4.5 10.5v96q0 6 4.5 10.5t10.5 4.5h316q-16 63 -65 105q-62 50 -133 50q-60 0 -151 -40q-15 -6 -19 6l-46 96q-7 13 6 21q92 47 206 47
q157 0 264 -105q101 -101 101 -244q0 -163 -102 -259q-98 -92 -260 -92z" />
    <glyph glyph-name="afii10048" unicode="&#x42e;" horiz-adv-x="1113" 
d="M1072 340q0 -153 -106.5 -251t-257.5 -98q-134 0 -236 80.5t-123 207.5h-138v-264q0 -15 -15 -15h-113q-7 0 -11.5 4.5t-4.5 10.5v651q0 6 4.5 10.5t11.5 4.5h113q15 0 15 -15v-260h139q23 126 124 205.5t234 79.5q150 0 257 -99t107 -252zM919 340q0 92 -60 154t-151 62
t-151.5 -62t-60.5 -154t60.5 -153.5t151.5 -61.5t151 61.5t60 153.5z" />
    <glyph glyph-name="afii10049" unicode="&#x42f;" horiz-adv-x="665" 
d="M115 293q-76 64 -76 167q0 117 79 175q61 46 172 46h292q6 0 10.5 -4.5t4.5 -10.5v-651q0 -6 -4.5 -10.5t-10.5 -4.5h-114q-6 0 -10.5 4.5t-4.5 10.5v221h-128l-133 -221q-8 -15 -29 -15h-126q-13 0 -13 12q0 6 6 16l150 236q-40 10 -65 29zM453 559h-152q-49 0 -78 -19
q-38 -25 -38 -82q0 -56 40 -83q29 -17 78 -17h150v201z" />
    <glyph glyph-name="afii10065" unicode="&#x430;" horiz-adv-x="486" 
d="M229 365q-61 0 -125 -36q-16 -9 -22 5l-29 63q-5 12 6 20q79 50 186 50q98 0 145 -52q40 -45 40 -122v-278q0 -6 -4.5 -10.5t-10.5 -4.5h-88q-7 0 -11.5 4.5t-4.5 10.5v8h-4q-52 -33 -122 -33q-64 0 -106 37q-45 37 -45 104q0 78 83 116q62 27 181 36v10q0 35 -14 52
q-16 20 -55 20zM228 88q39 0 70 19v87q-138 -5 -138 -59q0 -23 19 -35t49 -12z" />
    <glyph glyph-name="afii10066" unicode="&#x431;" horiz-adv-x="571" 
d="M481 666q0 -79 -53 -124q-28 -24 -94 -50.5t-81 -34.5q-55 -30 -75 -75q70 35 150 35q97 0 155 -63q50 -55 50 -143q0 -97 -66 -158q-69 -63 -181 -63q-110 0 -173 63q-75 75 -75 224q0 165 114 243q32 22 89.5 44t82.5 41q36 27 36 61q0 6 4.5 10.5t10.5 4.5h91
q15 0 15 -15zM166 285v-30q3 -74 30 -114q29 -47 90 -47q56 0 87 34q30 28 30 83q0 48 -28 79q-33 36 -85 36q-72 0 -124 -41z" />
    <glyph glyph-name="afii10067" unicode="&#x432;" horiz-adv-x="509" 
d="M316 0h-236q-15 0 -15 15v428q0 15 15 15h196q73 0 112 -29q44 -32 44 -88q0 -70 -58 -97v-3q96 -21 96 -116q0 -62 -45.5 -93.5t-108.5 -31.5zM305 320q0 24 -20 37q-15 9 -37 9h-56v-90h50q26 0 38 5q25 13 25 39zM339 142q0 31 -31 44q-15 7 -57 7h-59v-102h72
q25 0 43 6q32 12 32 45z" />
    <glyph glyph-name="afii10068" unicode="&#x433;" horiz-adv-x="433" 
d="M181 0h-101q-15 0 -15 15v428q0 15 15 15h316q15 0 15 -15v-86q0 -15 -15 -15h-200v-327q0 -6 -4.5 -10.5t-10.5 -4.5z" />
    <glyph glyph-name="afii10069" unicode="&#x434;" horiz-adv-x="737" 
d="M584 443v-326h120q6 0 10.5 -4.5t4.5 -11.5v-253q0 -6 -4.5 -10.5t-10.5 -4.5h-100q-6 0 -10.5 4.5t-4.5 10.5v152h-434v-152q0 -15 -15 -15h-100q-15 0 -15 15v253q0 16 15 16h91q31 55 43 125q10 53 12 152v49q0 15 15 15h367q16 0 16 -15zM314 342q-3 -71 -16 -128
q-12 -51 -35 -97h189v225h-138z" />
    <glyph glyph-name="afii10070" unicode="&#x435;" horiz-adv-x="525" 
d="M176 276h187q-1 35 -22 60q-25 27 -68 27q-48 0 -72 -27q-20 -23 -25 -60zM296 95q57 0 111 31q17 9 23 -4l35 -65q5 -11 -7 -20q-29 -20 -76 -33.5t-96 -13.5q-115 0 -182 67q-67 65 -67 177q0 100 67 169q62 64 168 64q118 0 177 -80q44 -60 42 -183q0 -15 -15 -15
h-299q7 -38 30 -61q31 -33 89 -33z" />
    <glyph glyph-name="afii10072" unicode="&#x436;" horiz-adv-x="826" 
d="M677 458h117q11 0 13.5 -7.5t-6.5 -19.5l-163 -194l170 -210q8 -11 6 -19t-13 -8h-121q-18 0 -29 15l-125 159h-47v-159q0 -6 -4.5 -10.5t-10.5 -4.5h-102q-6 0 -10.5 4.5t-4.5 10.5v159h-47l-125 -159q-11 -15 -29 -15h-122q-10 0 -12 8t6 19l170 210l-163 194
q-9 12 -6.5 19.5t13.5 7.5h117q18 0 29 -15l121 -154h48v154q0 15 15 15h102q15 0 15 -15v-154h48l121 154q10 15 29 15z" />
    <glyph glyph-name="afii10073" unicode="&#x437;" horiz-adv-x="413" 
d="M191 -10q-92 0 -156 38q-5 2 -7 8.5t1 11.5l30 65q7 14 20 6q55 -32 101 -32q28 0 48 13q21 12 21 36q0 32 -41 44q-18 6 -55 6h-34q-15 0 -15 15v64q0 15 15 15h26q39 0 56 6q32 10 32 38q0 19 -16 30q-15 9 -36 9q-45 0 -97 -29q-12 -8 -19 6l-31 65q-6 13 7 20
q72 42 152 42q73 0 118 -38q44 -38 44 -91q1 -65 -60 -98q81 -33 81 -115q0 -60 -48 -97q-49 -38 -137 -38z" />
    <glyph glyph-name="afii10074" unicode="&#x438;" horiz-adv-x="597" 
d="M532 443v-428q0 -6 -4.5 -10.5t-10.5 -4.5h-102q-15 0 -15 15v235l-203 -181v-54q0 -6 -4.5 -10.5t-10.5 -4.5h-102q-15 0 -15 15v428q0 15 15 15h102q15 0 15 -15v-237l203 182v55q0 15 15 15h102q15 0 15 -15z" />
    <glyph glyph-name="afii10075" unicode="&#x439;" horiz-adv-x="597" 
d="M532 443v-428q0 -6 -4.5 -10.5t-10.5 -4.5h-102q-15 0 -15 15v235l-203 -181v-54q0 -6 -4.5 -10.5t-10.5 -4.5h-102q-15 0 -15 15v428q0 15 15 15h102q15 0 15 -15v-237l203 182v55q0 15 15 15h102q15 0 15 -15zM298 665q60 0 69 58q2 16 17 16h47q18 0 18 -17
q0 -63 -40 -107t-111 -44t-111 44t-40 107q0 17 18 17h47q14 0 17 -16q9 -58 69 -58z" />
    <glyph glyph-name="afii10076" unicode="&#x43a;" horiz-adv-x="544" 
d="M394 458h117q11 0 13.5 -8t-6.5 -19l-163 -194l171 -210q9 -11 6 -19t-13 -8h-122q-18 0 -28 15l-126 159h-47v-159q0 -6 -4.5 -10.5t-10.5 -4.5h-101q-15 0 -15 15v428q0 15 15 15h101q15 0 15 -15v-154h48l121 154q11 15 29 15z" />
    <glyph glyph-name="afii10077" unicode="&#x43b;" horiz-adv-x="575" 
d="M231 342q-5 -127 -23 -205q-20 -79 -53 -121q-14 -16 -36 -16h-83q-13 0 -16.5 8t4.5 23q36 58 55 127q21 85 21 231v54q0 6 4.5 10.5t10.5 4.5h380q15 0 15 -15v-428q0 -15 -15 -15h-101q-6 0 -10.5 4.5t-4.5 10.5v327h-148z" />
    <glyph glyph-name="afii10078" unicode="&#x43c;" horiz-adv-x="666" 
d="M363 74h-60q-17 0 -26 16l-83 140v-215q0 -6 -4.5 -10.5t-10.5 -4.5h-99q-15 0 -15 15v428q0 15 15 15h98q20 0 27 -15l128 -220l126 220q9 15 27 15h100q15 0 15 -15v-428q0 -6 -4.5 -10.5t-10.5 -4.5h-99q-6 0 -10.5 4.5t-4.5 10.5v215l-84 -140q-9 -16 -25 -16z" />
    <glyph glyph-name="afii10079" unicode="&#x43d;" horiz-adv-x="585" 
d="M405 458h100q15 0 15 -15v-428q0 -15 -15 -15h-100q-15 0 -15 15v159h-194v-159q0 -6 -4.5 -10.5t-10.5 -4.5h-101q-15 0 -15 15v428q0 15 15 15h101q15 0 15 -15v-154h194v154q0 15 15 15z" />
    <glyph glyph-name="afii10080" unicode="&#x43e;" horiz-adv-x="570" 
d="M167 228q0 -56 32 -91.5t85 -35.5t85 35.5t32 91.5t-32 91.5t-85 35.5t-85 -35.5t-32 -91.5zM37 228q0 109 70.5 174t176.5 65q107 0 177.5 -65t70.5 -174t-70.5 -173.5t-177.5 -64.5t-177 64.5t-70 173.5z" />
    <glyph glyph-name="afii10081" unicode="&#x43f;" horiz-adv-x="574" 
d="M80 458h414q15 0 15 -15v-428q0 -15 -15 -15h-100q-15 0 -15 15v327h-183v-327q0 -6 -4.5 -10.5t-10.5 -4.5h-101q-15 0 -15 15v428q0 15 15 15z" />
    <glyph glyph-name="afii10082" unicode="&#x440;" horiz-adv-x="549" 
d="M197 355v-248q24 -9 56 -9q58 0 91 29q36 33 36 101q0 57 -32 94q-34 37 -94 37q-34 0 -57 -4zM80 451q60 16 161 16q134 0 206 -72q64 -62 64 -167q0 -101 -54 -163q-67 -75 -190 -75q-41 0 -70 8v-217q0 -7 -4.5 -11.5t-10.5 -4.5h-102q-15 0 -15 16v652q0 13 15 18z
" />
    <glyph glyph-name="afii10083" unicode="&#x441;" horiz-adv-x="479" 
d="M295 101q50 0 99 28q15 9 22 -4l37 -72q6 -10 -6 -19q-60 -44 -155 -44q-125 0 -195 73q-60 65 -60 166q0 86 50 147q73 90 208 90q86 0 150 -45q12 -8 6 -20l-39 -73q-6 -13 -22 -4q-48 30 -95 30q-56 0 -91 -38q-32 -35 -32 -87q0 -56 33 -91q34 -37 90 -37z" />
    <glyph glyph-name="afii10084" unicode="&#x442;" horiz-adv-x="466" 
d="M25 458h416q15 0 15 -15v-86q0 -15 -15 -15h-142v-327q0 -6 -4.5 -10.5t-11.5 -4.5h-101q-6 0 -10.5 4.5t-4.5 10.5v327h-142q-16 0 -16 15v86q0 15 16 15z" />
    <glyph glyph-name="afii10085" unicode="&#x443;" horiz-adv-x="535" 
d="M530 437l-174 -462q-35 -97 -92 -148q-78 -70 -202 -63q-12 0 -12 12v101q0 12 12 12q3 0 13 -1t18 -1q44 0 75 24q26 22 46 57l-209 469q-9 21 12 21h123q20 0 25 -16l117 -309l98 309q5 16 25 16h113q19 0 12 -21z" />
    <glyph glyph-name="afii10086" unicode="&#x444;" horiz-adv-x="766" 
d="M494 359q-26 0 -46 -9v-243q20 -9 46 -9q48 0 74 29q29 30 29 101t-29 102q-28 29 -74 29zM272 98q27 0 45 9v243q-18 9 -45 9q-46 0 -74 -29q-29 -31 -29 -102t29 -101q26 -29 74 -29zM448 601v-142q24 8 60 8q112 0 171 -76q49 -60 49 -163t-49 -163q-59 -75 -171 -75
q-36 0 -60 8v-149q0 -15 -15 -15h-100q-16 0 -16 15v149q-24 -8 -60 -8q-111 0 -170 75q-50 61 -50 163q0 103 50 163q59 76 170 76q36 0 60 -8v142q0 16 16 16h100q6 0 10.5 -4.5t4.5 -11.5z" />
    <glyph glyph-name="afii10087" unicode="&#x445;" horiz-adv-x="533" 
d="M6 24l178 210l-168 200q-8 8 -5 16t15 8h127q13 0 25 -15l88 -118l90 118q10 15 26 15h122q12 0 14.5 -7.5t-4.5 -16.5l-169 -191l182 -219q8 -9 5 -16.5t-15 -7.5h-124q-15 0 -26 14l-101 128l-100 -128q-12 -14 -26 -14h-124q-12 0 -15 7.5t5 16.5z" />
    <glyph glyph-name="afii10088" unicode="&#x446;" horiz-adv-x="663" 
d="M65 15v428q0 15 15 15h101q15 0 15 -15v-326h182v326q0 15 15 15h101q15 0 15 -15v-326h120q16 0 16 -16v-253q0 -6 -4.5 -10.5t-11.5 -4.5h-99q-15 0 -15 15v152h-435q-15 0 -15 15z" />
    <glyph glyph-name="afii10089" unicode="&#x447;" horiz-adv-x="560" 
d="M495 443v-428q0 -6 -4.5 -10.5t-10.5 -4.5h-102q-15 0 -15 15v128q-54 -16 -107 -16q-102 0 -150 44q-51 46 -51 144v128q0 15 16 15h102q15 0 15 -15v-128q0 -42 20 -61q18 -18 62 -18q39 0 93 16v191q0 15 15 15h102q15 0 15 -15z" />
    <glyph glyph-name="afii10090" unicode="&#x448;" horiz-adv-x="864" 
d="M799 443v-428q0 -15 -15 -15h-704q-15 0 -15 15v428q0 15 15 15h101q15 0 15 -15v-326h171v326q0 15 15 15h101q15 0 15 -15v-326h170v326q0 15 15 15h101q15 0 15 -15z" />
    <glyph glyph-name="afii10091" unicode="&#x449;" horiz-adv-x="953" 
d="M805 0h-725q-15 0 -15 15v428q0 15 15 15h101q15 0 15 -15v-326h171v326q0 15 15 15h101q15 0 15 -15v-326h170v326q0 15 15 15h101q15 0 15 -15v-326h120q16 0 16 -16v-253q0 -6 -4.5 -10.5t-11.5 -4.5h-99q-15 0 -15 15v152z" />
    <glyph glyph-name="afii10092" unicode="&#x44a;" horiz-adv-x="645" 
d="M438 0h-221q-7 0 -11.5 4.5t-4.5 10.5v327h-168q-6 0 -10.5 4.5t-4.5 11.5v85q0 15 15 15h286q15 0 15 -15v-163h104q90 0 135 -48q33 -38 33 -93q0 -63 -41 -99q-43 -40 -127 -40zM476 139q0 21 -12 30q-16 15 -60 15h-70v-88h76q38 0 53 13q13 10 13 30z" />
    <glyph glyph-name="afii10093" unicode="&#x44b;" horiz-adv-x="729" 
d="M341 139q0 19 -12 30q-18 15 -60 15h-72v-88h78q38 0 53 13q13 10 13 30zM547 458h102q15 0 15 -15v-428q0 -6 -4.5 -10.5t-10.5 -4.5h-102q-7 0 -11.5 4.5t-4.5 10.5v428q0 15 16 15zM197 443v-163h106q90 0 135 -48q33 -38 33 -93q0 -61 -41 -99q-43 -40 -127 -40h-223
q-15 0 -15 15v428q0 15 15 15h102q15 0 15 -15z" />
    <glyph glyph-name="afii10094" unicode="&#x44c;" horiz-adv-x="510" 
d="M197 443v-163h106q90 0 135 -48q33 -38 33 -93q0 -61 -41 -99q-43 -40 -127 -40h-223q-15 0 -15 15v428q0 15 15 15h102q15 0 15 -15zM341 139q0 19 -12 30q-18 15 -60 15h-72v-88h78q38 0 53 13q13 10 13 30z" />
    <glyph glyph-name="afii10095" unicode="&#x44d;" horiz-adv-x="481" 
d="M300 187h-202q-6 0 -10.5 4.5t-4.5 10.5v55q0 7 4.5 11.5t10.5 4.5h199q-9 34 -36 56q-31 30 -86 30q-45 0 -99 -31q-12 -8 -20 5l-33 69q-5 12 6 20q67 44 155 44q135 0 208 -90q50 -61 50 -147q0 -101 -60 -166q-68 -73 -195 -73q-91 0 -158 44q-13 7 -6 19l34 71
q6 10 18 4q49 -32 102 -32q52 0 84 26q30 24 39 65z" />
    <glyph glyph-name="afii10096" unicode="&#x44e;" horiz-adv-x="831" 
d="M65 443q0 15 15 15h102q15 0 15 -15v-153h109q15 67 66 114q69 63 173 63q103 0 172 -63q76 -66 76 -176t-76 -176q-68 -62 -172 -62q-105 0 -173 62q-53 48 -68 120h-107v-157q0 -6 -4.5 -10.5t-10.5 -4.5h-102q-15 0 -15 15v428zM428 228q0 -58 34 -95q33 -36 83 -36
t83 36q34 37 34 95q0 57 -34 96q-33 35 -83 35t-83 -35q-34 -39 -34 -96z" />
    <glyph glyph-name="afii10097" unicode="&#x44f;" horiz-adv-x="486" 
d="M201 458h204q15 0 15 -15v-428q0 -6 -4.5 -10.5t-10.5 -4.5h-97q-7 0 -11.5 4.5t-4.5 10.5v133h-61l-82 -136q-8 -12 -24 -12h-100q-10 0 -12 7t4 15l101 154q-38 16 -60 40q-29 35 -29 90q0 92 72 130q41 22 100 22zM292 352h-76q-31 0 -44 -12q-13 -13 -13 -37t15 -37
q13 -12 43 -12h75v98z" />
    <glyph glyph-name="afii10071" unicode="&#x451;" horiz-adv-x="525" 
d="M176 276h187q-1 35 -22 60q-25 27 -68 27q-48 0 -72 -27q-20 -23 -25 -60zM296 95q57 0 111 31q17 9 23 -4l35 -65q5 -11 -7 -20q-29 -20 -76 -33.5t-96 -13.5q-115 0 -182 67q-67 65 -67 177q0 100 67 169q62 64 168 64q118 0 177 -80q44 -60 42 -183q0 -15 -15 -15
h-299q7 -38 30 -61q31 -33 89 -33zM146 584q-32 0 -54 22.5t-22 54.5t22 54t54 22t54 -22.5t22 -53.5q0 -32 -22.5 -54.5t-53.5 -22.5zM378 584q-32 0 -54 22.5t-22 54.5t22 54t54 22q31 0 53 -22t22 -54t-22 -54.5t-53 -22.5z" />
    <glyph glyph-name="afii10099" unicode="&#x452;" horiz-adv-x="576" 
d="M388 107v143q0 61 -23 86q-21 23 -60 23q-58 0 -86 -46q-21 -34 -21 -80v-218q0 -6 -4.5 -10.5t-10.5 -4.5h-102q-7 0 -11.5 4.5t-4.5 10.5v488h-59q-6 0 -10.5 4.5t-4.5 10.5v73q0 15 15 15h59v60q0 6 4.5 10.5t11.5 4.5h102q6 0 10.5 -4.5t4.5 -10.5v-60h118
q15 0 15 -15v-73q0 -6 -4.5 -10.5t-10.5 -4.5h-118v-96q16 20 44 38q44 22 91 22q86 0 135 -45q52 -47 52 -144v-192q0 -185 -112 -248q-16 -10 -26 1l-65 67q-12 12 2 21q38 28 53.5 64.5t15.5 115.5z" />
    <glyph glyph-name="afii10100" unicode="&#x453;" horiz-adv-x="434" 
d="M181 0h-101q-15 0 -15 15v428q0 15 15 15h316q15 0 15 -15v-86q0 -15 -15 -15h-200v-327q0 -6 -4.5 -10.5t-10.5 -4.5zM240 764h90q9 0 12.5 -7.5t-1.5 -15.5l-98 -157q-10 -16 -23 -16h-68q-12 0 -13 10.5t5 18.5l75 152q7 15 21 15z" />
    <glyph glyph-name="afii10101" unicode="&#x454;" horiz-adv-x="479" 
d="M381 187h-202q7 -40 39 -65q34 -26 84 -26q53 0 102 32q12 7 17 -4l35 -71q6 -12 -6 -19q-67 -44 -158 -44q-125 0 -195 73q-60 65 -60 166q0 86 50 147q73 90 208 90q88 0 155 -44q13 -8 6 -20l-34 -69q-7 -13 -18 -5q-56 31 -100 31q-52 0 -87 -30q-25 -21 -35 -56h199
q6 0 10.5 -4.5t4.5 -11.5v-55q0 -6 -4.5 -10.5t-10.5 -4.5z" />
    <glyph glyph-name="afii10102" unicode="&#x455;" horiz-adv-x="430" 
d="M202 93q53 0 53 36q0 15 -10 23t-33 18q-11 5 -44.5 18t-51.5 22q-74 36 -74 120q0 64 48 100.5t135 36.5q92 0 155 -35q14 -7 6 -20l-36 -74q-6 -11 -18 -5q-53 29 -103 29q-47 0 -47 -32q0 -22 44 -39q91 -37 93 -38q75 -36 75 -116q0 -64 -51.5 -105.5t-137.5 -41.5
q-99 0 -165 38q-14 8 -7 19l37 77q6 12 19 6q64 -37 113 -37z" />
    <glyph glyph-name="afii10103" unicode="&#x456;" horiz-adv-x="262" 
d="M65 443q0 15 15 15h102q15 0 15 -15v-428q0 -6 -4.5 -10.5t-10.5 -4.5h-102q-15 0 -15 15v428zM131 584q-32 0 -54 22t-22 54t22 54t54 22q31 0 53 -22t22 -54t-22 -54t-53 -22z" />
    <glyph glyph-name="afii10104" unicode="&#x457;" horiz-adv-x="262" 
d="M65 443q0 15 15 15h102q15 0 15 -15v-428q0 -6 -4.5 -10.5t-10.5 -4.5h-102q-15 0 -15 15v428zM15 584q-32 0 -54 22.5t-22 54.5t22 54t54 22q31 0 53.5 -22.5t22.5 -53.5q0 -32 -22.5 -54.5t-53.5 -22.5zM247 584q-32 0 -54 22.5t-22 54.5t22 54t54 22q31 0 53 -22
t22 -54t-22 -54.5t-53 -22.5z" />
    <glyph glyph-name="afii10105" unicode="&#x458;" horiz-adv-x="262" 
d="M206 660q0 -32 -22 -54t-54 -22t-54 22t-22 54t22 54t54 22t54 -22t22 -54zM64 37v406q0 6 4.5 10.5t11.5 4.5h102q6 0 10.5 -4.5t4.5 -10.5v-408q0 -207 -111 -271q-16 -8 -26 2l-70 70q-10 10 4 20q40 30 55 66t15 115z" />
    <glyph glyph-name="afii10106" unicode="&#x459;" horiz-adv-x="846" 
d="M403 342h-172q-5 -127 -23 -205q-20 -79 -53 -121q-14 -16 -36 -16h-83q-13 0 -16.5 8t4.5 23q36 58 55 127q21 85 21 231v54q0 6 4.5 10.5t10.5 4.5h405q15 0 15 -15v-163h104q90 0 135 -48q34 -37 34 -93q0 -61 -41 -99q-44 -40 -127 -40h-222q-6 0 -10.5 4.5
t-4.5 10.5v327zM678 139q0 19 -12 30q-18 15 -60 15h-71v-88h77q38 0 53 13q13 10 13 30z" />
    <glyph glyph-name="afii10107" unicode="&#x45a;" horiz-adv-x="832" 
d="M522 443v-163h103q90 0 135 -48q34 -37 34 -93q0 -61 -41 -99q-44 -40 -127 -40h-221q-15 0 -15 15v169h-193v-169q0 -6 -4.5 -10.5t-10.5 -4.5h-102q-15 0 -15 15v428q0 15 15 15h102q15 0 15 -15v-163h193v163q0 15 15 15h102q15 0 15 -15zM664 139q0 19 -12 30
q-18 15 -60 15h-70v-88h76q38 0 53 13q13 10 13 30z" />
    <glyph glyph-name="afii10108" unicode="&#x45b;" horiz-adv-x="576" 
d="M305 359q-59 0 -86 -46q-21 -32 -21 -80v-218q0 -6 -4.5 -10.5t-10.5 -4.5h-102q-7 0 -11.5 4.5t-4.5 10.5v488h-59q-6 0 -10.5 4.5t-4.5 10.5v73q0 15 15 15h59v60q0 6 4.5 10.5t11.5 4.5h102q6 0 10.5 -4.5t4.5 -10.5v-60h118q15 0 15 -15v-73q0 -6 -4.5 -10.5
t-10.5 -4.5h-118v-96q16 20 44 38q44 22 91 22q86 0 135 -45q52 -47 52 -144v-263q0 -6 -4.5 -10.5t-10.5 -4.5h-102q-6 0 -10.5 4.5t-4.5 10.5v235q0 61 -23 86q-21 23 -60 23z" />
    <glyph glyph-name="afii10109" unicode="&#x45c;" horiz-adv-x="546" 
d="M394 458h117q11 0 13.5 -8t-6.5 -19l-163 -194l171 -210q9 -11 6 -19t-13 -8h-122q-18 0 -28 15l-126 159h-47v-159q0 -6 -4.5 -10.5t-10.5 -4.5h-101q-15 0 -15 15v428q0 15 15 15h101q15 0 15 -15v-154h48l121 154q11 15 29 15zM299 764h90q9 0 12.5 -7.5t-1.5 -15.5
l-98 -157q-10 -16 -23 -16h-68q-12 0 -13 10.5t5 18.5l75 152q8 15 21 15z" />
    <glyph glyph-name="afii10110" unicode="&#x45e;" horiz-adv-x="534" 
d="M530 437l-174 -462q-35 -97 -92 -148q-78 -70 -202 -63q-12 0 -12 12v101q0 12 12 12q3 0 13 -1t18 -1q44 0 75 24q26 22 46 57l-209 469q-9 21 12 21h123q20 0 25 -16l117 -309l98 309q5 16 25 16h113q19 0 12 -21zM270 665q60 0 69 58q2 16 17 16h47q18 0 18 -17
q0 -63 -40 -107t-111 -44t-111 44t-40 107q0 17 18 17h47q14 0 17 -16q9 -58 69 -58z" />
    <glyph glyph-name="afii10193" unicode="&#x45f;" horiz-adv-x="575" 
d="M394 458h101q15 0 15 -15v-428q0 -6 -4.5 -10.5t-10.5 -4.5h-142v-152q0 -6 -4.5 -10.5t-10.5 -4.5h-100q-7 0 -11.5 4.5t-4.5 10.5v152h-142q-15 0 -15 15v428q0 15 15 15h102q15 0 15 -15v-326h182v326q0 15 15 15z" />
    <glyph glyph-name="afii10050" unicode="&#x490;" horiz-adv-x="542" 
d="M406 862h96q7 0 11.5 -4.5t4.5 -10.5v-279q0 -6 -4.5 -10.5t-11.5 -4.5h-291v-538q0 -15 -15 -15h-113q-7 0 -11.5 4.5t-4.5 10.5v651q0 6 4.5 10.5t11.5 4.5h308v166q0 6 4.5 10.5t10.5 4.5z" />
    <glyph glyph-name="afii10098" unicode="&#x491;" horiz-adv-x="434" 
d="M292 615q0 6 4.5 10.5t11.5 4.5h95q15 0 15 -15v-258q0 -15 -15 -15h-207v-327q0 -6 -4.5 -10.5t-10.5 -4.5h-101q-15 0 -15 15v428q0 15 15 15h212v157z" />
    <glyph glyph-name="endash" unicode="&#x2013;" horiz-adv-x="720" 
d="M612 187h-504q-6 0 -10.5 4.5t-4.5 10.5v99q0 6 4.5 10.5t10.5 4.5h504q6 0 10.5 -4.5t4.5 -10.5v-99q0 -6 -4.5 -10.5t-10.5 -4.5z" />
    <glyph glyph-name="emdash" unicode="&#x2014;" horiz-adv-x="1270" 
d="M1162 187h-1054q-6 0 -10.5 4.5t-4.5 10.5v99q0 6 4.5 10.5t10.5 4.5h1054q6 0 10.5 -4.5t4.5 -10.5v-99q0 -6 -4.5 -10.5t-10.5 -4.5z" />
    <glyph glyph-name="quoteleft" unicode="&#x2018;" horiz-adv-x="280" 
d="M51 518q-2 56 39.5 107.5t98.5 67.5q16 5 21 -6l14 -21q8 -12 -4 -20q-53 -35 -53 -64q0 -13 9.5 -23t21.5 -16t21.5 -21.5t9.5 -38.5q0 -34 -22.5 -55t-59.5 -21q-47 0 -71 29.5t-25 81.5z" />
    <glyph glyph-name="quoteright" unicode="&#x2019;" horiz-adv-x="280" 
d="M229 580q1 -57 -41 -108.5t-98 -67.5q-16 -3 -22 6l-13 21q-8 12 4 21q53 35 53 64q0 13 -9.5 23t-21 16t-21 21.5t-9.5 38.5q0 34 22.5 55t59.5 21q46 0 70 -29.5t26 -81.5z" />
    <glyph glyph-name="quotesinglbase" unicode="&#x201a;" horiz-adv-x="272" 
d="M225 32q1 -57 -41 -108.5t-98 -66.5q-15 -4 -22 5l-13 21q-8 12 4 21q53 35 53 64q0 13 -9.5 23t-21 16t-21 21.5t-9.5 38.5q0 34 22.5 55t59.5 21q46 0 70 -29.5t26 -81.5z" />
    <glyph glyph-name="quotedblleft" unicode="&#x201c;" horiz-adv-x="504" 
d="M276 518q-2 56 39.5 107.5t98.5 67.5q16 5 21 -6l14 -21q8 -12 -4 -20q-53 -35 -53 -64q0 -13 9.5 -23t21.5 -16t21.5 -21.5t9.5 -38.5q0 -34 -22.5 -55t-59.5 -21q-47 0 -71 29.5t-25 81.5zM51 518q-1 56 40.5 107.5t98.5 67.5q15 4 21 -6l14 -21q8 -12 -4 -20
q-53 -35 -53 -64q0 -13 9.5 -23t21 -16t21 -21.5t9.5 -38.5q0 -34 -22.5 -55t-59.5 -21q-47 0 -70.5 29.5t-25.5 81.5z" />
    <glyph glyph-name="quotedblright" unicode="&#x201d;" horiz-adv-x="504" 
d="M229 580q1 -57 -40.5 -108.5t-98.5 -67.5q-16 -3 -22 6l-13 21q-8 12 4 21q53 35 53 64q0 13 -9.5 23t-21 16t-21 21.5t-9.5 38.5q0 34 22.5 55t59.5 21q46 0 70 -29.5t26 -81.5zM453 580q1 -57 -40 -108.5t-98 -67.5q-16 -3 -22 6l-13 21q-9 13 4 21q1 1 7 5t8 5.5
t7.5 5.5t8 6.5l7 7t6.5 8t4.5 8t3.5 9t1 9.5q0 13 -9.5 23t-21.5 16t-21.5 21.5t-9.5 38.5q0 34 22.5 55t59.5 21q47 0 71 -29.5t25 -81.5z" />
    <glyph glyph-name="quotedblbase" unicode="&#x201e;" horiz-adv-x="496" 
d="M225 32q1 -57 -41 -108.5t-98 -66.5q-15 -4 -22 5l-13 21q-8 12 4 21q53 35 53 64q0 13 -9.5 23t-21 16t-21 21.5t-9.5 38.5q0 34 22.5 55t59.5 21q46 0 70 -29.5t26 -81.5zM449 32q1 -57 -40.5 -108.5t-97.5 -66.5q-15 -4 -22 5l-13 21q-9 13 4 21q41 29 49 47q4 9 4 17
q0 13 -9.5 23t-21.5 16t-21.5 21.5t-9.5 38.5q0 34 22.5 55t59.5 21q47 0 71 -29.5t25 -81.5z" />
    <glyph glyph-name="dagger" unicode="&#x2020;" horiz-adv-x="513" 
d="M257 -229q-28 0 -48 20t-20 48q0 19 27 509q-129 -20 -133 -20q-26 0 -44.5 19t-18.5 45t18.5 44.5t44.5 18.5q12 0 132 -20q-21 180 -21 193q0 26 18 44.5t45 18.5q26 0 44.5 -18.5t18.5 -44.5q0 -3 -21 -193q119 20 131 20q26 0 45 -18.5t19 -44.5t-19 -45t-45 -19
q-4 0 -132 20q26 -472 26 -509q0 -28 -19.5 -48t-47.5 -20z" />
    <glyph glyph-name="daggerdbl" unicode="&#x2021;" horiz-adv-x="512" 
d="M193 231l23 117q-129 -20 -133 -20q-26 0 -44.5 19t-18.5 45t18.5 44.5t44.5 18.5q12 0 132 -20q-21 180 -21 193q0 26 18 44.5t45 18.5q26 0 44.5 -18.5t18.5 -44.5q0 -3 -21 -193q119 20 131 20q26 0 45 -18.5t19 -44.5t-19 -45t-45 -19q-4 0 -132 20l23 -117l-23 -117
q128 20 132 20q26 0 45 -19t19 -45t-19 -44.5t-45 -18.5q-12 0 -131 20q21 -190 21 -193q0 -26 -18.5 -44.5t-44.5 -18.5q-27 0 -45 18.5t-18 44.5q0 13 21 193q-120 -20 -132 -20q-26 0 -44.5 18.5t-18.5 44.5t18.5 45t44.5 19q4 0 133 -20z" />
    <glyph glyph-name="bullet" unicode="&#x2022;" horiz-adv-x="510" 
d="M53 341q0 83 59.5 142.5t142.5 59.5t142.5 -59.5t59.5 -142.5t-59.5 -142.5t-142.5 -59.5t-142.5 59.5t-59.5 142.5z" />
    <glyph glyph-name="ellipsis" unicode="&#x2026;" horiz-adv-x="921" 
d="M875 70q0 -33 -23.5 -56t-56.5 -23t-56 23t-23 56q0 34 23 56.5t56 22.5t56.5 -23t23.5 -56zM540 70q0 -33 -23 -56t-56 -23t-56.5 23t-23.5 56t23.5 56t56.5 23t56 -22.5t23 -56.5zM205 70q0 -33 -23 -56t-56 -23t-56 23t-23 56q0 34 23 56.5t56 22.5t56 -22.5t23 -56.5
z" />
    <glyph glyph-name="perthousand" unicode="&#x2030;" horiz-adv-x="1057" 
d="M261 537q0 34 -24.5 58t-58.5 24t-58 -24t-24 -58t24 -58t58 -24t58.5 24t24.5 58zM331 537q0 -63 -45.5 -108t-107.5 -45q-63 0 -108 44.5t-45 108.5q0 63 45 108t108 45q62 0 107.5 -45t45.5 -108zM437 143q0 -34 24 -58t59 -24q34 0 58 24t24 58t-24 57.5t-58 23.5
q-35 0 -59 -23.5t-24 -57.5zM367 143q0 63 45.5 108t107.5 45q63 0 108 -45t45 -108t-45 -108t-108 -45t-108 45t-45 108zM796 143q0 -34 24 -58t59 -24q34 0 58 24t24 58t-24 57.5t-58 23.5q-35 0 -59 -23.5t-24 -57.5zM726 143q0 63 45 108t108 45q62 0 107.5 -45
t45.5 -108t-45.5 -108t-107.5 -45q-63 0 -108 44.5t-45 108.5zM99 19l416 649q9 13 22 13h51q9 0 12 -6.5t-2 -13.5l-416 -649q-8 -12 -22 -12h-51q-9 0 -12 6t2 13z" />
    <glyph glyph-name="guilsinglleft" unicode="&#x2039;" horiz-adv-x="376" 
d="M23 230q0 7 12 22l168 193q15 16 32 16h98q14 0 17.5 -9.5t-5.5 -20.5l-170 -201l170 -202q9 -12 5.5 -20.5t-17.5 -8.5h-98q-18 0 -32 15l-168 193q-12 14 -12 23z" />
    <glyph glyph-name="guilsinglright" unicode="&#x203a;" horiz-adv-x="377" 
d="M353 230q0 -7 -12 -23l-168 -193q-14 -15 -32 -15h-98q-15 0 -18.5 8.5t6.5 20.5l170 202l-170 201q-10 11 -6.5 20.5t18.5 9.5h98q17 0 32 -16l168 -193q12 -18 12 -22z" />
    <glyph glyph-name="fraction" unicode="&#x2044;" horiz-adv-x="409" 
d="M445 658l-329 -643q-7 -15 -23 -15h-113q-10 0 -14.5 7t0.5 15l330 644q8 15 22 15h113q11 0 15 -7.5t-1 -15.5z" />
    <glyph glyph-name="Euro" unicode="&#x20ac;" 
d="M-1 444h60q28 92 103 157q101 90 238 90q113 0 203 -48q5 -2 7 -8.5t-1 -11.5l-45 -97q-6 -12 -19 -6q-76 41 -148 41q-62 0 -114 -39q-41 -29 -66 -78h274q7 0 11.5 -4.5t4.5 -10.5v-43q0 -6 -4.5 -10.5t-11.5 -4.5h-299q-1 -10 -1 -30q0 -23 1 -34h247q16 0 16 -15v-43
q0 -6 -4.5 -10.5t-11.5 -4.5h-221q19 -45 59 -75q52 -38 121 -38q81 0 153 41q13 6 19 -6l44 -97q7 -12 -6 -20q-93 -49 -208 -49q-127 0 -218 63q-94 64 -125 181h-58q-7 0 -11.5 4.5t-4.5 10.5v43q0 15 16 15h46q-2 22 -2 34q0 10 2 30h-46q-7 0 -11.5 4.5t-4.5 10.5v43
q0 6 4.5 10.5t11.5 4.5z" />
    <glyph glyph-name="afii61352" unicode="&#x2116;" horiz-adv-x="1316" 
d="M660 0h-100q-16 0 -28 15l-327 426v-426q0 -6 -4.5 -10.5t-10.5 -4.5h-107q-7 0 -11.5 4.5t-4.5 10.5v651q0 6 4.5 10.5t11.5 4.5h100q15 0 27 -16l327 -426v427q0 6 4.5 10.5t10.5 4.5h108q6 0 10.5 -4.5t4.5 -10.5v-651q0 -6 -4.5 -10.5t-10.5 -4.5zM912 451
q0 -56 34 -95q34 -36 83 -36t83 36q34 39 34 95q0 57 -34 96q-33 35 -83 35t-83 -35q-34 -39 -34 -96zM781 451q0 109 75 176q71 63 173 63t173 -63q75 -67 75 -176q0 -108 -75 -175q-69 -63 -173 -63t-173 63q-75 67 -75 175zM804 117h450q6 0 10.5 -4.5t4.5 -11.5v-86
q0 -6 -4.5 -10.5t-10.5 -4.5h-450q-6 0 -10.5 4.5t-4.5 10.5v86q0 7 4.5 11.5t10.5 4.5z" />
    <glyph glyph-name="trademark" unicode="&#x2122;" horiz-adv-x="824" 
d="M48 713h276q6 0 10.5 -4.5t4.5 -10.5v-44q0 -6 -4.5 -10.5t-10.5 -4.5h-98v-269q0 -15 -15 -15h-50q-6 0 -10.5 4.5t-4.5 10.5v269h-98q-7 0 -11.5 4.5t-4.5 10.5v44q0 6 4.5 10.5t11.5 4.5zM566 533l96 164q8 16 27 16h44q7 0 11.5 -4.5t4.5 -10.5v-329q0 -6 -4.5 -10.5
t-11.5 -4.5h-48q-6 0 -10.5 4.5t-4.5 10.5v199l-72 -122q-9 -15 -23 -15h-20q-15 0 -24 15l-70 122v-199q0 -6 -4.5 -10.5t-10.5 -4.5h-48q-6 0 -10.5 4.5t-4.5 10.5v329q0 6 4.5 10.5t10.5 4.5h44q17 0 27 -16z" />
    <glyph glyph-name="Omega" unicode="&#x2126;" horiz-adv-x="748" 
d="M374 690q142 0 224 -75.5t82 -214.5q0 -98 -54 -188q-32 -49 -76 -101h113q16 0 16 -15v-81q0 -6 -4.5 -10.5t-11.5 -4.5h-225q-6 0 -10.5 4.5t-4.5 10.5v65q0 15 9 30.5t27 44t32 59.5q37 79 37 160q0 89 -40.5 137.5t-113.5 48.5t-113.5 -48.5t-40.5 -137.5
q0 -79 37 -160q14 -31 32 -59.5t27 -44t9 -30.5v-65q0 -6 -4.5 -10.5t-10.5 -4.5h-225q-15 0 -15 15v81q0 15 15 15h114q-43 49 -76 101q-55 89 -55 188q0 139 82 214.5t224 75.5z" />
    <glyph glyph-name="partialdiff" unicode="&#x2202;" horiz-adv-x="518" 
d="M350 289q-38 22 -85 22q-46 0 -76 -30t-30 -73q0 -47 25 -75q26 -31 74 -31q50 0 76 36q22 31 22 88q0 33 -6 63zM37 208q0 95 64 153q58 52 143 52q34 0 63 -12q-26 46 -67 88q-51 53 -140 118q-12 9 -2 21l64 66q10 10 25 1q110 -75 176 -159q117 -146 117 -310
q0 -105 -58 -168q-61 -68 -166 -68q-94 0 -155 56q-64 59 -64 162z" />
    <glyph glyph-name="Delta" unicode="&#x2206;" horiz-adv-x="630" 
d="M315 476l-122 -351h245zM579 0h-528q-16 0 -16 15v49q0 13 4 22l200 581q4 14 20 14h111q16 0 20 -14l201 -581q3 -11 3 -22v-49q0 -15 -15 -15z" />
    <glyph glyph-name="product" unicode="&#x220f;" horiz-adv-x="706" 
d="M623 -171h-114q-6 0 -10.5 4.5t-4.5 10.5v709h-283v-709q0 -15 -15 -15h-113q-7 0 -11.5 4.5t-4.5 10.5v822q0 6 4.5 10.5t11.5 4.5h540q6 0 10.5 -4.5t4.5 -10.5v-822q0 -6 -4.5 -10.5t-10.5 -4.5z" />
    <glyph glyph-name="summation" unicode="&#x2211;" horiz-adv-x="546" 
d="M488 0h-430q-16 0 -16 15v68q0 13 13 26l229 231l-229 230q-13 13 -13 27v69q0 6 4.5 10.5t11.5 4.5h430q6 0 10.5 -4.5t4.5 -10.5v-95q0 -15 -15 -15h-244l168 -170q11 -11 11 -28v-35q0 -17 -11 -28l-168 -170h244q6 0 10.5 -4.5t4.5 -10.5v-95q0 -6 -4.5 -10.5
t-10.5 -4.5z" />
    <glyph glyph-name="minus" unicode="&#x2212;" horiz-adv-x="541" 
d="M483 291h-425q-15 0 -15 15v94q0 6 4.5 10.5t10.5 4.5h425q6 0 10.5 -4.5t4.5 -10.5v-94q0 -15 -15 -15z" />
    <glyph glyph-name="radical" unicode="&#x221a;" horiz-adv-x="750" 
d="M744 691l-368 -693q-8 -15 -23 -15h-68q-11 0 -20 13l-89 152h-114q-6 0 -10.5 4.5t-4.5 10.5v100q0 6 4.5 10.5t10.5 4.5h167q17 0 28 -15l60 -102l284 540q7 15 23 15h107q11 0 14.5 -8t-1.5 -17z" />
    <glyph glyph-name="infinity" unicode="&#x221e;" horiz-adv-x="786" 
d="M39 269q0 90 52 147.5t144 57.5q91 0 158 -101q66 101 158 101q90 0 143 -56t53 -149t-53 -148.5t-143 -55.5q-96 0 -158 101q-63 -101 -158 -101q-89 0 -142.5 56t-53.5 148zM547 169q40 0 65.5 27.5t25.5 72.5q0 42 -23.5 71t-67.5 29q-66 0 -100 -100
q34 -100 100 -100zM148 269q0 -45 24.5 -72.5t65.5 -27.5q67 0 101 100q-34 100 -101 100q-42 0 -66 -28t-24 -72z" />
    <glyph glyph-name="integral" unicode="&#x222b;" horiz-adv-x="476" 
d="M426 548h-63q-53 0 -53 -54v-485q0 -85 -48 -134t-132 -49h-81q-6 0 -10.5 4.5t-4.5 10.5v98q0 6 4.5 10.5t10.5 4.5h65q52 0 52 55v485q0 85 48 134t132 49h80q6 0 10.5 -4.5t4.5 -10.5v-98q0 -7 -4.5 -11.5t-10.5 -4.5z" />
    <glyph glyph-name="approxequal" unicode="&#x2248;" horiz-adv-x="534" 
d="M34 170v68q0 18 13 28q55 44 121 44q41 0 105 -24.5t96 -24.5q49 0 108 40q7 6 14.5 2.5t7.5 -16.5v-68q0 -17 -12 -28q-57 -44 -124 -44q-41 0 -98.5 24.5t-91.5 24.5q-58 0 -116 -39q-7 -6 -15 -2.5t-8 15.5zM34 411v69q0 18 13 27q61 45 121 45q41 0 105 -25t96 -25
q47 0 108 40q7 6 14.5 2.5t7.5 -15.5v-69q0 -18 -12 -27q-58 -45 -124 -45q-41 0 -98.5 25t-91.5 25q-57 0 -116 -40q-7 -6 -15 -2.5t-8 15.5z" />
    <glyph glyph-name="notequal" unicode="&#x2260;" horiz-adv-x="577" 
d="M58 298h145l49 108h-194q-6 0 -10.5 4.5t-4.5 10.5v94q0 6 4.5 10.5t10.5 4.5h249l46 102q6 15 23 15h63q11 0 14.5 -7.5t-0.5 -15.5l-43 -94h108q7 0 11.5 -4.5t4.5 -10.5v-94q0 -6 -4.5 -10.5t-11.5 -4.5h-163l-48 -108h211q7 0 11.5 -4.5t4.5 -10.5v-94
q0 -6 -4.5 -10.5t-11.5 -4.5h-267l-43 -96q-7 -15 -22 -15h-64q-10 0 -14 6.5t0 15.5l40 89h-90q-6 0 -10.5 4.5t-4.5 10.5v94q0 6 4.5 10.5t10.5 4.5z" />
    <glyph glyph-name="lessequal" unicode="&#x2264;" horiz-adv-x="576" 
d="M65 124h445q7 0 11.5 -4.5t4.5 -10.5v-94q0 -6 -4.5 -10.5t-11.5 -4.5h-445q-6 0 -10.5 4.5t-4.5 10.5v94q0 6 4.5 10.5t10.5 4.5zM50 408v64q0 17 15 23l440 196q21 9 21 -12v-96q0 -19 -17 -25l-287 -118l287 -118q17 -7 17 -25v-97q0 -10 -7 -13t-14 2l-440 196
q-15 6 -15 23z" />
    <glyph glyph-name="greaterequal" unicode="&#x2265;" horiz-adv-x="576" 
d="M65 124h445q7 0 11.5 -4.5t4.5 -10.5v-94q0 -6 -4.5 -10.5t-11.5 -4.5h-445q-6 0 -10.5 4.5t-4.5 10.5v94q0 6 4.5 10.5t10.5 4.5zM526 472v-64q0 -16 -15 -23l-440 -196q-7 -5 -14 -2t-7 13v97q0 19 17 25l287 118l-287 118q-17 5 -17 25v96q0 21 21 12l440 -196
q15 -7 15 -23z" />
    <glyph glyph-name="lozenge" unicode="&#x25ca;" horiz-adv-x="622" 
d="M46 321v38q0 15 11 30l207 278q10 14 22 14h50q12 0 22 -14l207 -278q11 -15 11 -30v-38q0 -15 -11 -30l-207 -278q-11 -13 -22 -13h-50q-11 0 -22 13l-207 278q-11 15 -11 30zM445 340l-134 187l-135 -187l135 -188z" />
    <glyph glyph-name="A.2" unicode="&#xe000;" horiz-adv-x="693" 
d="M346 556q-57 0 -94 -36q-42 -44 -42 -120v-76h273v76q0 76 -41 120q-38 36 -96 36zM627 406v-391q0 -6 -4.5 -10.5t-10.5 -4.5h-114q-6 0 -10.5 4.5t-4.5 10.5v181h-273v-181q0 -6 -4.5 -10.5t-10.5 -4.5h-114q-6 0 -10.5 4.5t-4.5 10.5v391q0 64 25.5 123t74.5 100
q73 61 180 61q108 0 181 -61q50 -40 75 -99t25 -124z" />
    <glyph glyph-name="A.3" unicode="&#xe001;" horiz-adv-x="658" 
d="M323 564q-82 0 -189 -55q-17 -8 -23 4l-41 91q-5 12 6 20q43 27 111.5 46.5t147.5 19.5q135 0 201 -76q57 -66 57 -187v-412q0 -6 -4.5 -10.5t-10.5 -4.5h-103q-7 0 -11.5 4.5t-4.5 10.5v25h-5q-41 -27 -81.5 -38.5t-107.5 -11.5q-85 0 -144 44q-75 57 -75 152
q0 110 97 166q99 58 306 66v9q0 69 -31 103t-95 34zM201 193q0 -45 37 -66q32 -18 81 -18q70 0 130 44v154q-126 -8 -179 -30q-69 -31 -69 -84z" />
    <glyph glyph-name="A.calt" unicode="&#xe002;" horiz-adv-x="640" 
d="M195 138l-41 -121q-6 -17 -25 -17h-112q-14 0 -14 12q0 2 2 10l233 646q4 16 24 16h119q20 0 24 -16l230 -646q2 -8 2 -10q0 -12 -14 -12h-115q-21 0 -25 17l-41 121h-247zM407 253l-87 256l-89 -256h176z" />
    <glyph glyph-name="AE.3" unicode="&#xe003;" horiz-adv-x="1141" 
d="M318 109q87 0 166 68q-23 42 -31 113q-252 0 -252 -98q0 -42 32.5 -62.5t84.5 -20.5zM612 414h337q-8 67 -51.5 105.5t-113.5 38.5q-67 0 -112 -39t-60 -105zM329 689q164 0 215 -106q33 50 97 78.5t143 28.5q166 0 251 -113q65 -85 67 -219q0 -17 -2 -51q-1 -16 -18 -16
h-468q11 -82 67 -126q53 -44 132 -44q108 0 195 56q15 10 22 -4l43 -93q6 -14 -6 -20q-116 -67 -256 -70q-171 0 -266 95q-114 -95 -274 -95q-93 0 -159.5 52.5t-66.5 143.5q0 46 18 82.5t51.5 59.5t71 39t87 25t89 12.5t87.5 5.5q-2 88 -34.5 121t-92.5 33q-81 0 -188 -55
q-17 -8 -23 4l-41 91q-6 13 6 20q123 65 253 65z" />
    <glyph glyph-name="AE.calt" unicode="&#xe004;" horiz-adv-x="1018" 
d="M266 138l-93 -121q-13 -17 -33 -17h-129q-11 0 -14 8t5 18l500 639q13 16 32 16h432q15 0 15 -15v-98q0 -15 -15 -15h-304v-147h252q6 0 10.5 -4.5t4.5 -10.5v-97q0 -7 -4.5 -11.5t-10.5 -4.5h-252v-151h304q15 0 15 -15v-97q0 -15 -15 -15h-430q-18 0 -18 17v121h-252z
M354 253h164v216z" />
    <glyph glyph-name="AEsmall.3" unicode="&#xe005;" horiz-adv-x="920" 
d="M630 552q119 0 187 -72q78 -81 68 -238q-2 -16 -16 -16h-357q11 -47 38 -76q38 -39 103 -39q85 0 151 40q15 9 22 -4l37 -79q5 -14 -6 -20q-98 -56 -207 -56q-133 0 -210 75q-85 -75 -214 -75q-70 0 -120 38q-57 46 -57 125q0 97 94 141q73 35 219 37v14q0 44 -20 64
q-21 24 -66 24q-64 0 -143 -44q-17 -8 -23 4l-37 81q-5 12 6 20q90 56 208 56q66 0 105 -24q36 -20 56 -54q23 26 60 46q53 32 122 32zM263 105q65 0 126 41q-19 36 -23 80q-88 -2 -129 -15q-52 -17 -52 -51q0 -29 23 -42q20 -13 55 -13zM512 330h234q-5 47 -32 73
q-32 29 -82 29q-51 0 -84 -33q-27 -27 -36 -69z" />
    <glyph glyph-name="Aacute.2" unicode="&#xe006;" horiz-adv-x="693" 
d="M346 556q-57 0 -94 -36q-42 -44 -42 -120v-76h273v76q0 76 -41 120q-38 36 -96 36zM627 406v-391q0 -6 -4.5 -10.5t-10.5 -4.5h-114q-6 0 -10.5 4.5t-4.5 10.5v181h-273v-181q0 -6 -4.5 -10.5t-10.5 -4.5h-114q-6 0 -10.5 4.5t-4.5 10.5v391q0 64 25.5 123t74.5 100
q73 61 180 61q108 0 181 -61q50 -40 75 -99t25 -124zM350 968h90q9 0 12.5 -7.5t-1.5 -15.5l-98 -157q-10 -16 -23 -16h-68q-12 0 -13 10.5t5 18.5l75 152q7 15 21 15z" />
    <glyph glyph-name="Aacute.3" unicode="&#xe007;" horiz-adv-x="658" 
d="M323 564q-82 0 -189 -55q-17 -8 -23 4l-41 91q-5 12 6 20q43 27 111.5 46.5t147.5 19.5q135 0 201 -76q57 -66 57 -187v-412q0 -6 -4.5 -10.5t-10.5 -4.5h-103q-7 0 -11.5 4.5t-4.5 10.5v25h-5q-41 -27 -81.5 -38.5t-107.5 -11.5q-85 0 -144 44q-75 57 -75 152
q0 110 97 166q99 58 306 66v9q0 69 -31 103t-95 34zM201 193q0 -45 37 -66q32 -18 81 -18q70 0 130 44v154q-126 -8 -179 -30q-69 -31 -69 -84zM327 968h90q9 0 12.5 -7.5t-1.5 -15.5l-98 -157q-10 -16 -23 -16h-68q-12 0 -13 10.5t5 18.5l75 152q8 15 21 15z" />
    <glyph glyph-name="Aacute.calt" unicode="&#xe008;" horiz-adv-x="640" 
d="M195 138l-41 -121q-6 -17 -25 -17h-112q-14 0 -14 12q0 2 2 10l233 646q4 16 24 16h119q20 0 24 -16l230 -646q2 -8 2 -10q0 -12 -14 -12h-115q-21 0 -25 17l-41 121h-247zM407 253l-87 256l-89 -256h176zM313 968h90q9 0 12.5 -7.5t-1.5 -15.5l-98 -157q-10 -16 -23 -16
h-68q-12 0 -13 10.5t5 18.5l75 152q8 15 21 15z" />
    <glyph glyph-name="Abreve.2" unicode="&#xe009;" horiz-adv-x="693" 
d="M346 556q-57 0 -94 -36q-42 -44 -42 -120v-76h273v76q0 76 -41 120q-38 36 -96 36zM627 406v-391q0 -6 -4.5 -10.5t-10.5 -4.5h-114q-6 0 -10.5 4.5t-4.5 10.5v181h-273v-181q0 -6 -4.5 -10.5t-10.5 -4.5h-114q-6 0 -10.5 4.5t-4.5 10.5v391q0 64 25.5 123t74.5 100
q73 61 180 61q108 0 181 -61q50 -40 75 -99t25 -124zM346 876q60 0 69 58q2 16 17 16h47q18 0 18 -17q0 -63 -40 -107t-111 -44t-111 44t-40 107q0 17 18 17h47q14 0 17 -16q9 -58 69 -58z" />
    <glyph glyph-name="Abreve.3" unicode="&#xe00a;" horiz-adv-x="658" 
d="M323 564q-82 0 -189 -55q-17 -8 -23 4l-41 91q-5 12 6 20q43 27 111.5 46.5t147.5 19.5q135 0 201 -76q57 -66 57 -187v-412q0 -6 -4.5 -10.5t-10.5 -4.5h-103q-7 0 -11.5 4.5t-4.5 10.5v25h-5q-41 -27 -81.5 -38.5t-107.5 -11.5q-85 0 -144 44q-75 57 -75 152
q0 110 97 166q99 58 306 66v9q0 69 -31 103t-95 34zM201 193q0 -45 37 -66q32 -18 81 -18q70 0 130 44v154q-126 -8 -179 -30q-69 -31 -69 -84zM328 876q60 0 69 58q2 16 17 16h47q18 0 18 -17q0 -63 -40 -107t-111 -44t-111 44t-40 107q0 17 18 17h47q14 0 17 -16
q9 -58 69 -58z" />
    <glyph glyph-name="Abreve.calt" unicode="&#xe00b;" horiz-adv-x="640" 
d="M195 138l-41 -121q-6 -17 -25 -17h-112q-14 0 -14 12q0 2 2 10l233 646q4 16 24 16h119q20 0 24 -16l230 -646q2 -8 2 -10q0 -12 -14 -12h-115q-21 0 -25 17l-41 121h-247zM407 253l-87 256l-89 -256h176zM320 876q60 0 69 58q2 16 17 16h47q18 0 18 -17q0 -63 -40 -107
t-111 -44t-111 44t-40 107q0 17 18 17h47q14 0 17 -16q9 -58 69 -58z" />
    <glyph glyph-name="Acircumflex.2" unicode="&#xe00c;" horiz-adv-x="693" 
d="M346 556q-57 0 -94 -36q-42 -44 -42 -120v-76h273v76q0 76 -41 120q-38 36 -96 36zM627 406v-391q0 -6 -4.5 -10.5t-10.5 -4.5h-114q-6 0 -10.5 4.5t-4.5 10.5v181h-273v-181q0 -6 -4.5 -10.5t-10.5 -4.5h-114q-6 0 -10.5 4.5t-4.5 10.5v391q0 64 25.5 123t74.5 100
q73 61 180 61q108 0 181 -61q50 -40 75 -99t25 -124zM323 968h46q11 0 20 -11l144 -163q7 -8 5 -15t-12 -7h-83q-16 0 -27 15l-70 79l-71 -79q-11 -15 -27 -15h-83q-10 0 -12 7t5 15l144 163q9 11 21 11z" />
    <glyph glyph-name="Acircumflex.3" unicode="&#xe00d;" horiz-adv-x="658" 
d="M323 564q-82 0 -189 -55q-17 -8 -23 4l-41 91q-5 12 6 20q43 27 111.5 46.5t147.5 19.5q135 0 201 -76q57 -66 57 -187v-412q0 -6 -4.5 -10.5t-10.5 -4.5h-103q-7 0 -11.5 4.5t-4.5 10.5v25h-5q-41 -27 -81.5 -38.5t-107.5 -11.5q-85 0 -144 44q-75 57 -75 152
q0 110 97 166q99 58 306 66v9q0 69 -31 103t-95 34zM201 193q0 -45 37 -66q32 -18 81 -18q70 0 130 44v154q-126 -8 -179 -30q-69 -31 -69 -84zM313 968h46q11 0 20 -11l144 -163q7 -8 5 -15t-12 -7h-83q-16 0 -27 15l-70 79l-71 -79q-11 -15 -27 -15h-83q-10 0 -12 7t5 15
l144 163q9 11 21 11z" />
    <glyph glyph-name="Acircumflex.calt" unicode="&#xe00e;" horiz-adv-x="640" 
d="M195 138l-41 -121q-6 -17 -25 -17h-112q-14 0 -14 12q0 2 2 10l233 646q4 16 24 16h119q20 0 24 -16l230 -646q2 -8 2 -10q0 -12 -14 -12h-115q-21 0 -25 17l-41 121h-247zM407 253l-87 256l-89 -256h176zM285 968h46q11 0 20 -11l144 -163q7 -8 5 -15t-12 -7h-83
q-16 0 -27 15l-70 79l-71 -79q-11 -15 -27 -15h-83q-10 0 -12 7t5 15l144 163q9 11 21 11z" />
    <glyph glyph-name="Adieresis.2" unicode="&#xe00f;" horiz-adv-x="693" 
d="M346 556q-57 0 -94 -36q-42 -44 -42 -120v-76h273v76q0 76 -41 120q-38 36 -96 36zM627 406v-391q0 -6 -4.5 -10.5t-10.5 -4.5h-114q-6 0 -10.5 4.5t-4.5 10.5v181h-273v-181q0 -6 -4.5 -10.5t-10.5 -4.5h-114q-6 0 -10.5 4.5t-4.5 10.5v391q0 64 25.5 123t74.5 100
q73 61 180 61q108 0 181 -61q50 -40 75 -99t25 -124zM230 784q-32 0 -54 22.5t-22 54.5t22 54t54 22t54 -22.5t22 -53.5q0 -32 -22.5 -54.5t-53.5 -22.5zM462 784q-32 0 -54 22.5t-22 54.5t22 54t54 22q31 0 53 -22t22 -54t-22 -54.5t-53 -22.5z" />
    <glyph glyph-name="Adieresis.3" unicode="&#xe010;" horiz-adv-x="658" 
d="M323 564q-82 0 -189 -55q-17 -8 -23 4l-41 91q-5 12 6 20q43 27 111.5 46.5t147.5 19.5q135 0 201 -76q57 -66 57 -187v-412q0 -6 -4.5 -10.5t-10.5 -4.5h-103q-7 0 -11.5 4.5t-4.5 10.5v25h-5q-41 -27 -81.5 -38.5t-107.5 -11.5q-85 0 -144 44q-75 57 -75 152
q0 110 97 166q99 58 306 66v9q0 69 -31 103t-95 34zM201 193q0 -45 37 -66q32 -18 81 -18q70 0 130 44v154q-126 -8 -179 -30q-69 -31 -69 -84zM217 784q-32 0 -54 22.5t-22 54.5t22 54t54 22q31 0 53.5 -22.5t22.5 -53.5q0 -32 -22.5 -54.5t-53.5 -22.5zM449 784
q-32 0 -54 22.5t-22 54.5t22 54t54 22q31 0 53 -22t22 -54t-22 -54.5t-53 -22.5z" />
    <glyph glyph-name="Adieresis.calt" unicode="&#xe011;" horiz-adv-x="640" 
d="M195 138l-41 -121q-6 -17 -25 -17h-112q-14 0 -14 12q0 2 2 10l233 646q4 16 24 16h119q20 0 24 -16l230 -646q2 -8 2 -10q0 -12 -14 -12h-115q-21 0 -25 17l-41 121h-247zM407 253l-87 256l-89 -256h176zM204 784q-32 0 -54 22.5t-22 54.5t22 54t54 22t54 -22.5
t22 -53.5q0 -32 -22.5 -54.5t-53.5 -22.5zM436 784q-32 0 -54 22.5t-22 54.5t22 54t54 22q31 0 53 -22t22 -54t-22 -54.5t-53 -22.5z" />
    <glyph glyph-name="Agrave.2" unicode="&#xe012;" horiz-adv-x="693" 
d="M346 556q-57 0 -94 -36q-42 -44 -42 -120v-76h273v76q0 76 -41 120q-38 36 -96 36zM627 406v-391q0 -6 -4.5 -10.5t-10.5 -4.5h-114q-6 0 -10.5 4.5t-4.5 10.5v181h-273v-181q0 -6 -4.5 -10.5t-10.5 -4.5h-114q-6 0 -10.5 4.5t-4.5 10.5v391q0 64 25.5 123t74.5 100
q73 61 180 61q108 0 181 -61q50 -40 75 -99t25 -124zM251 968h91q14 0 21 -15l76 -154q12 -27 -9 -27h-69q-13 0 -23 16l-97 157q-6 8 -3 15.5t13 7.5z" />
    <glyph glyph-name="Agrave.3" unicode="&#xe013;" horiz-adv-x="658" 
d="M323 564q-82 0 -189 -55q-17 -8 -23 4l-41 91q-5 12 6 20q43 27 111.5 46.5t147.5 19.5q135 0 201 -76q57 -66 57 -187v-412q0 -6 -4.5 -10.5t-10.5 -4.5h-103q-7 0 -11.5 4.5t-4.5 10.5v25h-5q-41 -27 -81.5 -38.5t-107.5 -11.5q-85 0 -144 44q-75 57 -75 152
q0 110 97 166q99 58 306 66v9q0 69 -31 103t-95 34zM201 193q0 -45 37 -66q32 -18 81 -18q70 0 130 44v154q-126 -8 -179 -30q-69 -31 -69 -84zM232 968h91q13 0 21 -15l76 -154q12 -27 -9 -27h-69q-13 0 -23 16l-97 157q-6 8 -3 15.5t13 7.5z" />
    <glyph glyph-name="Agrave.calt" unicode="&#xe014;" horiz-adv-x="640" 
d="M195 138l-41 -121q-6 -17 -25 -17h-112q-14 0 -14 12q0 2 2 10l233 646q4 16 24 16h119q20 0 24 -16l230 -646q2 -8 2 -10q0 -12 -14 -12h-115q-21 0 -25 17l-41 121h-247zM407 253l-87 256l-89 -256h176zM212 968h91q13 0 21 -15l76 -154q12 -27 -9 -27h-69
q-13 0 -23 16l-97 157q-6 8 -3 15.5t13 7.5z" />
    <glyph glyph-name="Amacron.2" unicode="&#xe015;" horiz-adv-x="693" 
d="M346 556q-57 0 -94 -36q-42 -44 -42 -120v-76h273v76q0 76 -41 120q-38 36 -96 36zM627 406v-391q0 -6 -4.5 -10.5t-10.5 -4.5h-114q-6 0 -10.5 4.5t-4.5 10.5v181h-273v-181q0 -6 -4.5 -10.5t-10.5 -4.5h-114q-6 0 -10.5 4.5t-4.5 10.5v391q0 64 25.5 123t74.5 100
q73 61 180 61q108 0 181 -61q50 -40 75 -99t25 -124zM225 924h241q15 0 15 -15v-77q0 -16 -15 -16h-241q-15 0 -15 16v77q0 15 15 15z" />
    <glyph glyph-name="Amacron.3" unicode="&#xe016;" horiz-adv-x="658" 
d="M323 564q-82 0 -189 -55q-17 -8 -23 4l-41 91q-5 12 6 20q43 27 111.5 46.5t147.5 19.5q135 0 201 -76q57 -66 57 -187v-412q0 -6 -4.5 -10.5t-10.5 -4.5h-103q-7 0 -11.5 4.5t-4.5 10.5v25h-5q-41 -27 -81.5 -38.5t-107.5 -11.5q-85 0 -144 44q-75 57 -75 152
q0 110 97 166q99 58 306 66v9q0 69 -31 103t-95 34zM201 193q0 -45 37 -66q32 -18 81 -18q70 0 130 44v154q-126 -8 -179 -30q-69 -31 -69 -84zM214 924h241q15 0 15 -15v-77q0 -16 -15 -16h-241q-15 0 -15 16v77q0 15 15 15z" />
    <glyph glyph-name="Amacron.calt" unicode="&#xe017;" horiz-adv-x="640" 
d="M195 138l-41 -121q-6 -17 -25 -17h-112q-14 0 -14 12q0 2 2 10l233 646q4 16 24 16h119q20 0 24 -16l230 -646q2 -8 2 -10q0 -12 -14 -12h-115q-21 0 -25 17l-41 121h-247zM407 253l-87 256l-89 -256h176zM199 924h241q15 0 15 -15v-77q0 -16 -15 -16h-241q-15 0 -15 16
v77q0 15 15 15z" />
    <glyph glyph-name="Aogonek.2" unicode="&#xe018;" horiz-adv-x="693" 
d="M403 -119q0 35 24 68.5t59 56.5q-3 4 -3 9v181h-273v-181q0 -6 -4.5 -10.5t-10.5 -4.5h-114q-6 0 -10.5 4.5t-4.5 10.5v391q0 64 25.5 123t74.5 100q73 61 180 61q108 0 181 -61q50 -40 75 -99t25 -124v-391q0 -6 -4.5 -10.5t-10.5 -4.5h-59q-59 -42 -59 -82
q0 -35 41 -35q16 0 32 4.5t21 4.5q9 0 9 -11v-53q0 -11 -9 -14q-37 -17 -80 -17q-45 0 -75 20t-30 64zM346 556q-57 0 -94 -36q-42 -44 -42 -120v-76h273v76q0 76 -41 120q-38 36 -96 36z" />
    <glyph glyph-name="Aogonek.3" unicode="&#xe019;" horiz-adv-x="658" 
d="M372 -119q0 36 25.5 71t62.5 58q-1 1 -1 5v25h-5q-41 -27 -81.5 -38.5t-107.5 -11.5q-85 0 -144 44q-75 57 -75 152q0 110 97 166q99 58 306 66v9q0 69 -31 103t-95 34q-82 0 -189 -55q-17 -8 -23 4l-41 91q-5 12 6 20q43 27 111.5 46.5t147.5 19.5q135 0 201 -76
q57 -66 57 -187v-412q0 -6 -4.5 -10.5t-10.5 -4.5h-56q-59 -42 -59 -82q0 -35 41 -35q16 0 32 4.5t21 4.5q9 0 9 -11v-53q0 -11 -9 -14q-37 -17 -80 -17q-45 0 -75 20t-30 64zM201 193q0 -45 37 -66q32 -18 81 -18q70 0 130 44v154q-126 -8 -179 -30q-69 -31 -69 -84z" />
    <glyph glyph-name="Aogonek.calt" unicode="&#xe01a;" horiz-adv-x="640" 
d="M403 -119q0 35 24.5 69t59.5 57q-2 4 -4 10l-41 121h-247l-41 -121q-6 -17 -25 -17h-112q-14 0 -14 12q0 2 2 10l233 646q4 16 24 16h119q20 0 24 -16l230 -646q2 -8 2 -10q0 -12 -14 -12h-70q-59 -42 -59 -82q0 -35 41 -35q16 0 32 4.5t21 4.5q9 0 9 -11v-53
q0 -11 -9 -14q-37 -17 -80 -17q-45 0 -75 20t-30 64zM407 253l-87 256l-89 -256h176z" />
    <glyph glyph-name="Aring.2" unicode="&#xe01b;" horiz-adv-x="693" 
d="M346 556q-57 0 -94 -36q-42 -44 -42 -120v-76h273v76q0 76 -41 120q-38 36 -96 36zM627 406v-391q0 -6 -4.5 -10.5t-10.5 -4.5h-114q-6 0 -10.5 4.5t-4.5 10.5v181h-273v-181q0 -6 -4.5 -10.5t-10.5 -4.5h-114q-6 0 -10.5 4.5t-4.5 10.5v391q0 64 25.5 123t74.5 100
q73 61 180 61q108 0 181 -61q50 -40 75 -99t25 -124zM468 857q0 -49 -35.5 -84.5t-85.5 -35.5q-51 0 -86.5 35t-35.5 85q0 52 35.5 87t86.5 35q50 0 85.5 -35.5t35.5 -86.5zM410 857q0 27 -18.5 46t-44.5 19q-27 0 -45.5 -18.5t-18.5 -46.5q0 -26 18.5 -44.5t45.5 -18.5
q26 0 44.5 18.5t18.5 44.5z" />
    <glyph glyph-name="Aring.3" unicode="&#xe01c;" horiz-adv-x="658" 
d="M323 564q-82 0 -189 -55q-17 -8 -23 4l-41 91q-5 12 6 20q43 27 111.5 46.5t147.5 19.5q135 0 201 -76q57 -66 57 -187v-412q0 -6 -4.5 -10.5t-10.5 -4.5h-103q-7 0 -11.5 4.5t-4.5 10.5v25h-5q-41 -27 -81.5 -38.5t-107.5 -11.5q-85 0 -144 44q-75 57 -75 152
q0 110 97 166q99 58 306 66v9q0 69 -31 103t-95 34zM201 193q0 -45 37 -66q32 -18 81 -18q70 0 130 44v154q-126 -8 -179 -30q-69 -31 -69 -84zM455 857q0 -49 -35.5 -84.5t-85.5 -35.5q-51 0 -86.5 35t-35.5 85q0 52 35.5 87t86.5 35q50 0 85.5 -35.5t35.5 -86.5zM397 857
q0 27 -18.5 46t-44.5 19q-27 0 -45.5 -18.5t-18.5 -46.5q0 -26 18.5 -44.5t45.5 -18.5q26 0 44.5 18.5t18.5 44.5z" />
    <glyph glyph-name="Aring.calt" unicode="&#xe01d;" horiz-adv-x="640" 
d="M195 138l-41 -121q-6 -17 -25 -17h-112q-14 0 -14 12q0 2 2 10l233 646q4 16 24 16h119q20 0 24 -16l230 -646q2 -8 2 -10q0 -12 -14 -12h-115q-21 0 -25 17l-41 121h-247zM407 253l-87 256l-89 -256h176zM442 857q0 -49 -35.5 -84.5t-85.5 -35.5q-51 0 -86.5 35
t-35.5 85q0 52 35.5 87t86.5 35q50 0 85.5 -35.5t35.5 -86.5zM384 857q0 27 -18.5 46t-44.5 19q-27 0 -45.5 -18.5t-18.5 -46.5q0 -26 18.5 -44.5t45.5 -18.5q26 0 44.5 18.5t18.5 44.5z" />
    <glyph glyph-name="Asmall.2" unicode="&#xe01e;" horiz-adv-x="598" 
d="M298 428q-47 0 -75 -31q-26 -31 -26 -79v-54h204v54q0 48 -26 79q-28 31 -77 31zM533 323v-308q0 -15 -15 -15h-102q-6 0 -10.5 4.5t-4.5 10.5v135h-204v-135q0 -6 -4.5 -10.5t-10.5 -4.5h-102q-15 0 -15 15v308q0 99 64 163q66 66 169 66q105 0 171 -66q64 -64 64 -163z
" />
    <glyph glyph-name="Asmall.3" unicode="&#xe01f;" horiz-adv-x="560" 
d="M263 105q54 0 100 29v98q-86 -2 -127 -18q-51 -16 -51 -54q0 -30 24 -43q19 -12 54 -12zM496 338v-323q0 -6 -4.5 -10.5t-11.5 -4.5h-87q-6 0 -10.5 4.5t-4.5 10.5v15h-6q-62 -38 -146 -38q-69 0 -118 38q-59 46 -59 125q0 100 95 146q72 34 218 38v8q0 44 -20 64
q-21 24 -66 24q-64 0 -143 -44q-17 -8 -23 4l-37 81q-5 12 6 20q90 56 208 56q110 0 163 -63q46 -52 46 -151z" />
    <glyph glyph-name="Asmall.calt" unicode="&#xe020;" horiz-adv-x="533" 
d="M173 107l-32 -90q-4 -17 -25 -17h-100q-14 0 -14 12q0 2 2 10l193 507q4 16 24 16h98q18 0 24 -16l186 -507q2 -8 2 -10q0 -12 -14 -12h-99q-19 0 -25 17l-32 90h-188zM330 209l-62 172l-62 -172h124z" />
    <glyph glyph-name="Asmallacute" unicode="&#xe021;" horiz-adv-x="598" 
d="M298 428q-47 0 -75 -31q-26 -31 -26 -79v-43h204v43q0 48 -26 79q-28 31 -77 31zM533 323v-308q0 -15 -15 -15h-102q-6 0 -10.5 4.5t-4.5 10.5v146h-204v-146q0 -6 -4.5 -10.5t-10.5 -4.5h-102q-15 0 -15 15v308q0 99 64 163q66 66 169 66q105 0 171 -66q64 -64 64 -163z
M304 827h90q9 0 12.5 -7.5t-1.5 -15.5l-98 -157q-10 -16 -23 -16h-68q-12 0 -13 10.5t5 18.5l75 152q7 15 21 15z" />
    <glyph glyph-name="Asmallacute.2" unicode="&#xe022;" horiz-adv-x="598" 
d="M298 428q-47 0 -75 -31q-26 -31 -26 -79v-54h204v54q0 48 -26 79q-28 31 -77 31zM533 323v-308q0 -15 -15 -15h-102q-6 0 -10.5 4.5t-4.5 10.5v135h-204v-135q0 -6 -4.5 -10.5t-10.5 -4.5h-102q-15 0 -15 15v308q0 99 64 163q66 66 169 66q105 0 171 -66q64 -64 64 -163z
M312 827h90q9 0 12.5 -7.5t-1.5 -15.5l-98 -157q-10 -16 -23 -16h-68q-12 0 -13 10.5t5 18.5l75 152q7 15 21 15z" />
    <glyph glyph-name="Asmallacute.3" unicode="&#xe023;" horiz-adv-x="560" 
d="M263 105q54 0 100 29v98q-86 -2 -127 -18q-51 -16 -51 -54q0 -30 24 -43q19 -12 54 -12zM496 338v-323q0 -6 -4.5 -10.5t-11.5 -4.5h-87q-6 0 -10.5 4.5t-4.5 10.5v15h-6q-62 -38 -146 -38q-69 0 -118 38q-59 46 -59 125q0 100 95 146q72 34 218 38v8q0 44 -20 64
q-21 24 -66 24q-64 0 -143 -44q-17 -8 -23 4l-37 81q-5 12 6 20q90 56 208 56q110 0 163 -63q46 -52 46 -151zM284 827h90q9 0 12.5 -7.5t-1.5 -15.5l-98 -157q-10 -16 -23 -16h-68q-12 0 -13 10.5t5 18.5l75 152q7 15 21 15z" />
    <glyph glyph-name="Asmallacute.calt" unicode="&#xe024;" horiz-adv-x="533" 
d="M173 107l-32 -90q-4 -17 -25 -17h-100q-14 0 -14 12q0 2 2 10l193 507q4 16 24 16h98q18 0 24 -16l186 -507q2 -8 2 -10q0 -12 -14 -12h-99q-19 0 -25 17l-32 90h-188zM330 209l-62 172l-62 -172h124zM266 827h90q9 0 12.5 -7.5t-1.5 -15.5l-98 -157q-10 -16 -23 -16h-68
q-12 0 -13 10.5t5 18.5l75 152q7 15 21 15z" />
    <glyph glyph-name="Asmallbreve" unicode="&#xe025;" horiz-adv-x="598" 
d="M298 428q-47 0 -75 -31q-26 -31 -26 -79v-43h204v43q0 48 -26 79q-28 31 -77 31zM533 323v-308q0 -15 -15 -15h-102q-6 0 -10.5 4.5t-4.5 10.5v146h-204v-146q0 -6 -4.5 -10.5t-10.5 -4.5h-102q-15 0 -15 15v308q0 99 64 163q66 66 169 66q105 0 171 -66q64 -64 64 -163z
M297 725q60 0 69 58q2 16 17 16h47q18 0 18 -17q0 -63 -40 -107t-111 -44t-111 44t-40 107q0 17 18 17h47q14 0 17 -16q9 -58 69 -58z" />
    <glyph glyph-name="Asmallbreve.2" unicode="&#xe026;" horiz-adv-x="598" 
d="M298 428q-47 0 -75 -31q-26 -31 -26 -79v-54h204v54q0 48 -26 79q-28 31 -77 31zM533 323v-308q0 -15 -15 -15h-102q-6 0 -10.5 4.5t-4.5 10.5v135h-204v-135q0 -6 -4.5 -10.5t-10.5 -4.5h-102q-15 0 -15 15v308q0 99 64 163q66 66 169 66q105 0 171 -66q64 -64 64 -163z
M297 725q60 0 69 58q2 16 17 16h47q18 0 18 -17q0 -63 -40 -107t-111 -44t-111 44t-40 107q0 17 18 17h47q14 0 17 -16q9 -58 69 -58z" />
    <glyph glyph-name="Asmallbreve.3" unicode="&#xe027;" horiz-adv-x="560" 
d="M263 105q54 0 100 29v98q-86 -2 -127 -18q-51 -16 -51 -54q0 -30 24 -43q19 -12 54 -12zM496 338v-323q0 -6 -4.5 -10.5t-11.5 -4.5h-87q-6 0 -10.5 4.5t-4.5 10.5v15h-6q-62 -38 -146 -38q-69 0 -118 38q-59 46 -59 125q0 100 95 146q72 34 218 38v8q0 44 -20 64
q-21 24 -66 24q-64 0 -143 -44q-17 -8 -23 4l-37 81q-5 12 6 20q90 56 208 56q110 0 163 -63q46 -52 46 -151zM281 725q60 0 69 58q2 16 17 16h47q18 0 18 -17q0 -63 -40 -107t-111 -44t-111 44t-40 107q0 17 18 17h47q14 0 17 -16q9 -58 69 -58z" />
    <glyph glyph-name="Asmallbreve.calt" unicode="&#xe028;" horiz-adv-x="533" 
d="M173 107l-32 -90q-4 -17 -25 -17h-100q-14 0 -14 12q0 2 2 10l193 507q4 16 24 16h98q18 0 24 -16l186 -507q2 -8 2 -10q0 -12 -14 -12h-99q-19 0 -25 17l-32 90h-188zM330 209l-62 172l-62 -172h124zM266 725q60 0 69 58q2 16 17 16h47q18 0 18 -17q0 -63 -40 -107
t-111 -44t-111 44t-40 107q0 17 18 17h47q14 0 17 -16q9 -58 69 -58z" />
    <glyph glyph-name="Asmallcircumflex" unicode="&#xe029;" horiz-adv-x="598" 
d="M298 428q-47 0 -75 -31q-26 -31 -26 -79v-43h204v43q0 48 -26 79q-28 31 -77 31zM533 323v-308q0 -15 -15 -15h-102q-6 0 -10.5 4.5t-4.5 10.5v146h-204v-146q0 -6 -4.5 -10.5t-10.5 -4.5h-102q-15 0 -15 15v308q0 99 64 163q66 66 169 66q105 0 171 -66q64 -64 64 -163z
M276 826h46q11 0 20 -11l144 -163q7 -8 5 -15t-12 -7h-83q-16 0 -27 15l-70 79l-71 -79q-11 -15 -27 -15h-83q-10 0 -12 7t5 15l144 163q9 11 21 11z" />
    <glyph glyph-name="Asmallcircumflex.2" unicode="&#xe02a;" horiz-adv-x="598" 
d="M298 428q-47 0 -75 -31q-26 -31 -26 -79v-54h204v54q0 48 -26 79q-28 31 -77 31zM533 323v-308q0 -15 -15 -15h-102q-6 0 -10.5 4.5t-4.5 10.5v135h-204v-135q0 -6 -4.5 -10.5t-10.5 -4.5h-102q-15 0 -15 15v308q0 99 64 163q66 66 169 66q105 0 171 -66q64 -64 64 -163z
M276 826h46q11 0 20 -11l144 -163q7 -8 5 -15t-12 -7h-83q-16 0 -27 15l-70 79l-71 -79q-11 -15 -27 -15h-83q-10 0 -12 7t5 15l144 163q9 11 21 11z" />
    <glyph glyph-name="Asmallcircumflex.3" unicode="&#xe02b;" horiz-adv-x="560" 
d="M263 105q54 0 100 29v98q-86 -2 -127 -18q-51 -16 -51 -54q0 -30 24 -43q19 -12 54 -12zM496 338v-323q0 -6 -4.5 -10.5t-11.5 -4.5h-87q-6 0 -10.5 4.5t-4.5 10.5v15h-6q-62 -38 -146 -38q-69 0 -118 38q-59 46 -59 125q0 100 95 146q72 34 218 38v8q0 44 -20 64
q-21 24 -66 24q-64 0 -143 -44q-17 -8 -23 4l-37 81q-5 12 6 20q90 56 208 56q110 0 163 -63q46 -52 46 -151zM253 826h46q11 0 20 -11l144 -163q7 -8 5 -15t-12 -7h-83q-16 0 -27 15l-70 79l-71 -79q-11 -15 -27 -15h-83q-10 0 -12 7t5 15l144 163q9 11 21 11z" />
    <glyph glyph-name="Asmallcircumflex.calt" unicode="&#xe02c;" horiz-adv-x="533" 
d="M173 107l-32 -90q-4 -17 -25 -17h-100q-14 0 -14 12q0 2 2 10l193 507q4 16 24 16h98q18 0 24 -16l186 -507q2 -8 2 -10q0 -12 -14 -12h-99q-19 0 -25 17l-32 90h-188zM330 209l-62 172l-62 -172h124zM244 826h46q11 0 20 -11l144 -163q7 -8 5 -15t-12 -7h-83
q-16 0 -27 15l-70 79l-71 -79q-11 -15 -27 -15h-83q-10 0 -12 7t5 15l144 163q9 11 21 11z" />
    <glyph glyph-name="Asmalldieresis" unicode="&#xe02d;" horiz-adv-x="598" 
d="M298 428q-47 0 -75 -31q-26 -31 -26 -79v-43h204v43q0 48 -26 79q-28 31 -77 31zM533 323v-308q0 -15 -15 -15h-102q-6 0 -10.5 4.5t-4.5 10.5v146h-204v-146q0 -6 -4.5 -10.5t-10.5 -4.5h-102q-15 0 -15 15v308q0 99 64 163q66 66 169 66q105 0 171 -66q64 -64 64 -163z
M183 644q-32 0 -54 22.5t-22 54.5t22 54t54 22q31 0 53.5 -22.5t22.5 -53.5q0 -32 -22.5 -54.5t-53.5 -22.5zM415 644q-32 0 -54 22.5t-22 54.5t22 54t54 22q31 0 53 -22t22 -54t-22 -54.5t-53 -22.5z" />
    <glyph glyph-name="Asmalldieresis.2" unicode="&#xe02e;" horiz-adv-x="598" 
d="M298 428q-47 0 -75 -31q-26 -31 -26 -79v-54h204v54q0 48 -26 79q-28 31 -77 31zM533 323v-308q0 -15 -15 -15h-102q-6 0 -10.5 4.5t-4.5 10.5v135h-204v-135q0 -6 -4.5 -10.5t-10.5 -4.5h-102q-15 0 -15 15v308q0 99 64 163q66 66 169 66q105 0 171 -66q64 -64 64 -163z
M183 644q-32 0 -54 22.5t-22 54.5t22 54t54 22q31 0 53.5 -22.5t22.5 -53.5q0 -32 -22.5 -54.5t-53.5 -22.5zM415 644q-32 0 -54 22.5t-22 54.5t22 54t54 22q31 0 53 -22t22 -54t-22 -54.5t-53 -22.5z" />
    <glyph glyph-name="Asmalldieresis.3" unicode="&#xe02f;" horiz-adv-x="560" 
d="M263 105q54 0 100 29v98q-86 -2 -127 -18q-51 -16 -51 -54q0 -30 24 -43q19 -12 54 -12zM496 338v-323q0 -6 -4.5 -10.5t-11.5 -4.5h-87q-6 0 -10.5 4.5t-4.5 10.5v15h-6q-62 -38 -146 -38q-69 0 -118 38q-59 46 -59 125q0 100 95 146q72 34 218 38v8q0 44 -20 64
q-21 24 -66 24q-64 0 -143 -44q-17 -8 -23 4l-37 81q-5 12 6 20q90 56 208 56q110 0 163 -63q46 -52 46 -151zM158 644q-32 0 -54 22.5t-22 54.5t22 54t54 22t54 -22.5t22 -53.5q0 -32 -22.5 -54.5t-53.5 -22.5zM390 644q-32 0 -54 22.5t-22 54.5t22 54t54 22q31 0 53 -22
t22 -54t-22 -54.5t-53 -22.5z" />
    <glyph glyph-name="Asmalldieresis.calt" unicode="&#xe030;" horiz-adv-x="533" 
d="M173 107l-32 -90q-4 -17 -25 -17h-100q-14 0 -14 12q0 2 2 10l193 507q4 16 24 16h98q18 0 24 -16l186 -507q2 -8 2 -10q0 -12 -14 -12h-99q-19 0 -25 17l-32 90h-188zM330 209l-62 172l-62 -172h124zM152 644q-32 0 -54 22.5t-22 54.5t22 54t54 22t54 -22.5t22 -53.5
q0 -32 -22.5 -54.5t-53.5 -22.5zM384 644q-32 0 -54 22.5t-22 54.5t22 54t54 22q31 0 53 -22t22 -54t-22 -54.5t-53 -22.5z" />
    <glyph glyph-name="Asmallgrave" unicode="&#xe031;" horiz-adv-x="598" 
d="M298 428q-47 0 -75 -31q-26 -31 -26 -79v-43h204v43q0 48 -26 79q-28 31 -77 31zM533 323v-308q0 -15 -15 -15h-102q-6 0 -10.5 4.5t-4.5 10.5v146h-204v-146q0 -6 -4.5 -10.5t-10.5 -4.5h-102q-15 0 -15 15v308q0 99 64 163q66 66 169 66q105 0 171 -66q64 -64 64 -163z
M203 827h91q14 0 21 -15l76 -154q12 -27 -9 -27h-69q-13 0 -23 16l-97 157q-6 8 -3 15.5t13 7.5z" />
    <glyph glyph-name="Asmallgrave.2" unicode="&#xe032;" horiz-adv-x="598" 
d="M298 428q-47 0 -75 -31q-26 -31 -26 -79v-54h204v54q0 48 -26 79q-28 31 -77 31zM533 323v-308q0 -15 -15 -15h-102q-6 0 -10.5 4.5t-4.5 10.5v135h-204v-135q0 -6 -4.5 -10.5t-10.5 -4.5h-102q-15 0 -15 15v308q0 99 64 163q66 66 169 66q105 0 171 -66q64 -64 64 -163z
M204 827h91q13 0 21 -15l76 -154q12 -27 -9 -27h-69q-13 0 -23 16l-97 157q-6 8 -3 15.5t13 7.5z" />
    <glyph glyph-name="Asmallgrave.3" unicode="&#xe033;" horiz-adv-x="560" 
d="M263 105q54 0 100 29v98q-86 -2 -127 -18q-51 -16 -51 -54q0 -30 24 -43q19 -12 54 -12zM496 338v-323q0 -6 -4.5 -10.5t-11.5 -4.5h-87q-6 0 -10.5 4.5t-4.5 10.5v15h-6q-62 -38 -146 -38q-69 0 -118 38q-59 46 -59 125q0 100 95 146q72 34 218 38v8q0 44 -20 64
q-21 24 -66 24q-64 0 -143 -44q-17 -8 -23 4l-37 81q-5 12 6 20q90 56 208 56q110 0 163 -63q46 -52 46 -151zM182 827h91q13 0 21 -15l76 -154q12 -27 -9 -27h-69q-13 0 -23 16l-97 157q-6 8 -3 15.5t13 7.5z" />
    <glyph glyph-name="Asmallgrave.calt" unicode="&#xe034;" horiz-adv-x="533" 
d="M173 107l-32 -90q-4 -17 -25 -17h-100q-14 0 -14 12q0 2 2 10l193 507q4 16 24 16h98q18 0 24 -16l186 -507q2 -8 2 -10q0 -12 -14 -12h-99q-19 0 -25 17l-32 90h-188zM330 209l-62 172l-62 -172h124zM172 827h91q13 0 21 -15l76 -154q12 -27 -9 -27h-69q-13 0 -23 16
l-97 157q-6 8 -3 15.5t13 7.5z" />
    <glyph glyph-name="Asmallmacron" unicode="&#xe035;" horiz-adv-x="598" 
d="M298 428q-47 0 -75 -31q-26 -31 -26 -79v-43h204v43q0 48 -26 79q-28 31 -77 31zM533 323v-308q0 -15 -15 -15h-102q-6 0 -10.5 4.5t-4.5 10.5v146h-204v-146q0 -6 -4.5 -10.5t-10.5 -4.5h-102q-15 0 -15 15v308q0 99 64 163q66 66 169 66q105 0 171 -66q64 -64 64 -163z
M178 761h241q15 0 15 -15v-77q0 -16 -15 -16h-241q-15 0 -15 16v77q0 15 15 15z" />
    <glyph glyph-name="Asmallmacron.2" unicode="&#xe036;" horiz-adv-x="598" 
d="M298 428q-47 0 -75 -31q-26 -31 -26 -79v-54h204v54q0 48 -26 79q-28 31 -77 31zM533 323v-308q0 -15 -15 -15h-102q-6 0 -10.5 4.5t-4.5 10.5v135h-204v-135q0 -6 -4.5 -10.5t-10.5 -4.5h-102q-15 0 -15 15v308q0 99 64 163q66 66 169 66q105 0 171 -66q64 -64 64 -163z
M178 761h241q15 0 15 -15v-77q0 -16 -15 -16h-241q-15 0 -15 16v77q0 15 15 15z" />
    <glyph glyph-name="Asmallmacron.3" unicode="&#xe037;" horiz-adv-x="560" 
d="M263 105q54 0 100 29v98q-86 -2 -127 -18q-51 -16 -51 -54q0 -30 24 -43q19 -12 54 -12zM496 338v-323q0 -6 -4.5 -10.5t-11.5 -4.5h-87q-6 0 -10.5 4.5t-4.5 10.5v15h-6q-62 -38 -146 -38q-69 0 -118 38q-59 46 -59 125q0 100 95 146q72 34 218 38v8q0 44 -20 64
q-21 24 -66 24q-64 0 -143 -44q-17 -8 -23 4l-37 81q-5 12 6 20q90 56 208 56q110 0 163 -63q46 -52 46 -151zM155 761h241q15 0 15 -15v-77q0 -16 -15 -16h-241q-15 0 -15 16v77q0 15 15 15z" />
    <glyph glyph-name="Asmallmacron.calt" unicode="&#xe038;" horiz-adv-x="533" 
d="M173 107l-32 -90q-4 -17 -25 -17h-100q-14 0 -14 12q0 2 2 10l193 507q4 16 24 16h98q18 0 24 -16l186 -507q2 -8 2 -10q0 -12 -14 -12h-99q-19 0 -25 17l-32 90h-188zM330 209l-62 172l-62 -172h124zM146 761h241q15 0 15 -15v-77q0 -16 -15 -16h-241q-15 0 -15 16v77
q0 15 15 15z" />
    <glyph glyph-name="Asmallogonek" unicode="&#xe039;" horiz-adv-x="598" 
d="M317 -119q0 36 24.5 70t60.5 57q-1 2 -1 7v146h-204v-146q0 -6 -4.5 -10.5t-10.5 -4.5h-102q-15 0 -15 15v308q0 99 64 163q66 66 169 66q105 0 171 -66q64 -64 64 -163v-308q0 -15 -15 -15h-51q-59 -42 -59 -82q0 -35 41 -35q16 0 32 4.5t21 4.5q9 0 9 -11v-53
q0 -11 -9 -14q-37 -17 -80 -17q-45 0 -75 20t-30 64zM298 428q-47 0 -75 -31q-26 -31 -26 -79v-43h204v43q0 48 -26 79q-28 31 -77 31z" />
    <glyph glyph-name="Asmallogonek.2" unicode="&#xe03a;" horiz-adv-x="598" 
d="M317 -119q0 36 24.5 70t60.5 57q-1 2 -1 7v135h-204v-135q0 -6 -4.5 -10.5t-10.5 -4.5h-102q-15 0 -15 15v308q0 99 64 163q66 66 169 66q105 0 171 -66q64 -64 64 -163v-308q0 -15 -15 -15h-51q-59 -42 -59 -82q0 -35 41 -35q16 0 32 4.5t21 4.5q9 0 9 -11v-53
q0 -11 -9 -14q-37 -17 -80 -17q-45 0 -75 20t-30 64zM298 428q-47 0 -75 -31q-26 -31 -26 -79v-54h204v54q0 48 -26 79q-28 31 -77 31z" />
    <glyph glyph-name="Asmallogonek.3" unicode="&#xe03b;" horiz-adv-x="560" 
d="M289 -119q0 36 26 71.5t63 58.5v4v15h-6q-62 -38 -146 -38q-69 0 -118 38q-59 46 -59 125q0 100 95 146q72 34 218 38v8q0 44 -20 64q-21 24 -66 24q-64 0 -143 -44q-17 -8 -23 4l-37 81q-5 12 6 20q90 56 208 56q110 0 163 -63q46 -52 46 -151v-323q0 -6 -4.5 -10.5
t-11.5 -4.5h-41q-59 -42 -59 -82q0 -35 41 -35q16 0 32 4.5t21 4.5q9 0 9 -11v-53q0 -11 -9 -14q-37 -17 -80 -17q-45 0 -75 20t-30 64zM263 105q54 0 100 29v98q-86 -2 -127 -18q-51 -16 -51 -54q0 -30 24 -43q19 -12 54 -12z" />
    <glyph glyph-name="Asmallogonek.calt" unicode="&#xe03c;" horiz-adv-x="533" 
d="M313 -119q0 69 84 127q-2 2 -4 9l-32 90h-188l-32 -90q-4 -17 -25 -17h-100q-14 0 -14 12q0 2 2 10l193 507q4 16 24 16h98q18 0 24 -16l186 -507q2 -8 2 -10q0 -12 -14 -12h-54q-59 -42 -59 -82q0 -35 41 -35q16 0 32 4.5t21 4.5q9 0 9 -11v-53q0 -11 -9 -14
q-37 -17 -80 -17q-45 0 -75 20t-30 64zM330 209l-62 172l-62 -172h124z" />
    <glyph glyph-name="Asmallring" unicode="&#xe03d;" horiz-adv-x="598" 
d="M298 428q-47 0 -75 -31q-26 -31 -26 -79v-43h204v43q0 48 -26 79q-28 31 -77 31zM533 323v-308q0 -15 -15 -15h-102q-6 0 -10.5 4.5t-4.5 10.5v146h-204v-146q0 -6 -4.5 -10.5t-10.5 -4.5h-102q-15 0 -15 15v308q0 99 64 163q66 66 169 66q105 0 171 -66q64 -64 64 -163z
M421 726q0 -49 -35.5 -84.5t-85.5 -35.5q-51 0 -86.5 35t-35.5 85q0 52 35.5 87t86.5 35q50 0 85.5 -35.5t35.5 -86.5zM363 726q0 27 -18.5 46t-44.5 19q-27 0 -45.5 -18.5t-18.5 -46.5q0 -26 18.5 -44.5t45.5 -18.5q26 0 44.5 18.5t18.5 44.5z" />
    <glyph glyph-name="Asmallring.2" unicode="&#xe03e;" horiz-adv-x="598" 
d="M298 428q-47 0 -75 -31q-26 -31 -26 -79v-54h204v54q0 48 -26 79q-28 31 -77 31zM533 323v-308q0 -15 -15 -15h-102q-6 0 -10.5 4.5t-4.5 10.5v135h-204v-135q0 -6 -4.5 -10.5t-10.5 -4.5h-102q-15 0 -15 15v308q0 99 64 163q66 66 169 66q105 0 171 -66q64 -64 64 -163z
M421 726q0 -49 -35.5 -84.5t-85.5 -35.5q-51 0 -86.5 35t-35.5 85q0 52 35.5 87t86.5 35q50 0 85.5 -35.5t35.5 -86.5zM363 726q0 27 -18.5 46t-44.5 19q-27 0 -45.5 -18.5t-18.5 -46.5q0 -26 18.5 -44.5t45.5 -18.5q26 0 44.5 18.5t18.5 44.5z" />
    <glyph glyph-name="Asmallring.3" unicode="&#xe03f;" horiz-adv-x="560" 
d="M263 105q54 0 100 29v98q-86 -2 -127 -18q-51 -16 -51 -54q0 -30 24 -43q19 -12 54 -12zM496 338v-323q0 -6 -4.5 -10.5t-11.5 -4.5h-87q-6 0 -10.5 4.5t-4.5 10.5v15h-6q-62 -38 -146 -38q-69 0 -118 38q-59 46 -59 125q0 100 95 146q72 34 218 38v8q0 44 -20 64
q-21 24 -66 24q-64 0 -143 -44q-17 -8 -23 4l-37 81q-5 12 6 20q90 56 208 56q110 0 163 -63q46 -52 46 -151zM399 726q0 -49 -35.5 -84.5t-85.5 -35.5q-51 0 -86.5 35t-35.5 85q0 52 35.5 87t86.5 35q50 0 85.5 -35.5t35.5 -86.5zM341 726q0 27 -18.5 46t-44.5 19
q-27 0 -45.5 -18.5t-18.5 -46.5q0 -26 18.5 -44.5t45.5 -18.5q26 0 44.5 18.5t18.5 44.5z" />
    <glyph glyph-name="Asmallring.calt" unicode="&#xe040;" horiz-adv-x="533" 
d="M173 107l-32 -90q-4 -17 -25 -17h-100q-14 0 -14 12q0 2 2 10l193 507q4 16 24 16h98q18 0 24 -16l186 -507q2 -8 2 -10q0 -12 -14 -12h-99q-19 0 -25 17l-32 90h-188zM330 209l-62 172l-62 -172h124zM389 726q0 -49 -35.5 -84.5t-85.5 -35.5q-51 0 -86.5 35t-35.5 85
q0 52 35.5 87t86.5 35q50 0 85.5 -35.5t35.5 -86.5zM331 726q0 27 -18.5 46t-44.5 19q-27 0 -45.5 -18.5t-18.5 -46.5q0 -26 18.5 -44.5t45.5 -18.5q26 0 44.5 18.5t18.5 44.5z" />
    <glyph glyph-name="Asmalltilde" unicode="&#xe041;" horiz-adv-x="598" 
d="M298 428q-47 0 -75 -31q-26 -31 -26 -79v-43h204v43q0 48 -26 79q-28 31 -77 31zM533 323v-308q0 -15 -15 -15h-102q-6 0 -10.5 4.5t-4.5 10.5v146h-204v-146q0 -6 -4.5 -10.5t-10.5 -4.5h-102q-15 0 -15 15v308q0 99 64 163q66 66 169 66q105 0 171 -66q64 -64 64 -163z
M364 744q31 0 38 37q3 15 15 15h42q18 0 18 -16q0 -58 -26 -92.5t-75 -34.5q-42 0 -82 30q-36 27 -59 27q-32 0 -39 -36q-3 -16 -15 -16h-42q-18 0 -18 17q0 57 26.5 91.5t75.5 34.5q40 0 83 -31q36 -26 58 -26z" />
    <glyph glyph-name="Asmalltilde.2" unicode="&#xe042;" horiz-adv-x="598" 
d="M298 428q-47 0 -75 -31q-26 -31 -26 -79v-54h204v54q0 48 -26 79q-28 31 -77 31zM533 323v-308q0 -15 -15 -15h-102q-6 0 -10.5 4.5t-4.5 10.5v135h-204v-135q0 -6 -4.5 -10.5t-10.5 -4.5h-102q-15 0 -15 15v308q0 99 64 163q66 66 169 66q105 0 171 -66q64 -64 64 -163z
M364 744q31 0 38 37q3 15 15 15h42q18 0 18 -16q0 -58 -26 -92.5t-75 -34.5q-42 0 -82 30q-36 27 -59 27q-32 0 -39 -36q-3 -16 -15 -16h-42q-18 0 -18 17q0 57 26.5 91.5t75.5 34.5q40 0 83 -31q36 -26 58 -26z" />
    <glyph glyph-name="Asmalltilde.3" unicode="&#xe043;" horiz-adv-x="560" 
d="M263 105q54 0 100 29v98q-86 -2 -127 -18q-51 -16 -51 -54q0 -30 24 -43q19 -12 54 -12zM496 338v-323q0 -6 -4.5 -10.5t-11.5 -4.5h-87q-6 0 -10.5 4.5t-4.5 10.5v15h-6q-62 -38 -146 -38q-69 0 -118 38q-59 46 -59 125q0 100 95 146q72 34 218 38v8q0 44 -20 64
q-21 24 -66 24q-64 0 -143 -44q-17 -8 -23 4l-37 81q-5 12 6 20q90 56 208 56q110 0 163 -63q46 -52 46 -151zM340 744q31 0 38 37q3 15 15 15h42q18 0 18 -16q0 -58 -26 -92.5t-75 -34.5q-42 0 -82 30q-36 27 -59 27q-32 0 -39 -36q-3 -16 -15 -16h-42q-18 0 -18 17
q0 57 26.5 91.5t75.5 34.5q40 0 83 -31q36 -26 58 -26z" />
    <glyph glyph-name="Asmalltilde.calt" unicode="&#xe044;" horiz-adv-x="533" 
d="M173 107l-32 -90q-4 -17 -25 -17h-100q-14 0 -14 12q0 2 2 10l193 507q4 16 24 16h98q18 0 24 -16l186 -507q2 -8 2 -10q0 -12 -14 -12h-99q-19 0 -25 17l-32 90h-188zM330 209l-62 172l-62 -172h124zM332 744q31 0 38 37q3 15 15 15h42q18 0 18 -16q0 -58 -26 -92.5
t-75 -34.5q-42 0 -82 30q-36 27 -59 27q-32 0 -39 -36q-3 -16 -15 -16h-42q-18 0 -18 17q0 57 26.5 91.5t75.5 34.5q40 0 83 -31q36 -26 58 -26z" />
    <glyph glyph-name="Atilde.2" unicode="&#xe045;" horiz-adv-x="693" 
d="M346 556q-57 0 -94 -36q-42 -44 -42 -120v-76h273v76q0 76 -41 120q-38 36 -96 36zM627 406v-391q0 -6 -4.5 -10.5t-10.5 -4.5h-114q-6 0 -10.5 4.5t-4.5 10.5v181h-273v-181q0 -6 -4.5 -10.5t-10.5 -4.5h-114q-6 0 -10.5 4.5t-4.5 10.5v391q0 64 25.5 123t74.5 100
q73 61 180 61q108 0 181 -61q50 -40 75 -99t25 -124zM411 892q31 0 38 37q3 15 15 15h42q18 0 18 -16q0 -58 -26 -92.5t-75 -34.5q-42 0 -82 30q-36 27 -59 27q-32 0 -39 -36q-3 -16 -15 -16h-42q-18 0 -18 17q0 57 26.5 91.5t75.5 34.5q40 0 83 -31q36 -26 58 -26z" />
    <glyph glyph-name="Atilde.3" unicode="&#xe046;" horiz-adv-x="658" 
d="M323 564q-82 0 -189 -55q-17 -8 -23 4l-41 91q-5 12 6 20q43 27 111.5 46.5t147.5 19.5q135 0 201 -76q57 -66 57 -187v-412q0 -6 -4.5 -10.5t-10.5 -4.5h-103q-7 0 -11.5 4.5t-4.5 10.5v25h-5q-41 -27 -81.5 -38.5t-107.5 -11.5q-85 0 -144 44q-75 57 -75 152
q0 110 97 166q99 58 306 66v9q0 69 -31 103t-95 34zM201 193q0 -45 37 -66q32 -18 81 -18q70 0 130 44v154q-126 -8 -179 -30q-69 -31 -69 -84zM388 893q31 0 38 37q3 15 15 15h42q18 0 18 -16q0 -58 -26 -92.5t-75 -34.5q-42 0 -82 30q-36 27 -59 27q-32 0 -39 -36
q-3 -16 -15 -16h-42q-18 0 -18 17q0 57 26.5 91.5t75.5 34.5q40 0 83 -31q36 -26 58 -26z" />
    <glyph glyph-name="Atilde.calt" unicode="&#xe047;" horiz-adv-x="640" 
d="M195 138l-41 -121q-6 -17 -25 -17h-112q-14 0 -14 12q0 2 2 10l233 646q4 16 24 16h119q20 0 24 -16l230 -646q2 -8 2 -10q0 -12 -14 -12h-115q-21 0 -25 17l-41 121h-247zM407 253l-87 256l-89 -256h176zM385 893q31 0 38 37q3 15 15 15h42q18 0 18 -16q0 -58 -26 -92.5
t-75 -34.5q-42 0 -82 30q-36 27 -59 27q-32 0 -39 -36q-3 -16 -15 -16h-42q-18 0 -18 17q0 57 26.5 91.5t75.5 34.5q40 0 83 -31q36 -26 58 -26z" />
    <glyph glyph-name="B.2" unicode="&#xe048;" horiz-adv-x="665" 
d="M623 184q0 -89 -67 -136.5t-161 -47.5h-312q-7 0 -11.5 4.5t-4.5 10.5v651q0 6 4.5 10.5t11.5 4.5h252q107 0 166 -43q66 -48 66 -130q0 -106 -85 -145v-4q141 -33 141 -175zM422 483q0 44 -31 65q-23 16 -57 16h-123v-160h114q38 0 59 10q38 19 38 69zM476 203
q0 52 -47 73q-24 12 -85 12h-133v-171h153q42 0 64 10q48 21 48 76z" />
    <glyph glyph-name="Bsmall.2" unicode="&#xe049;" horiz-adv-x="567" 
d="M350 0h-270q-15 0 -15 15v514q0 15 15 15h222q85 0 132 -35q53 -39 53 -104q0 -85 -69 -116v-3q114 -26 114 -138q0 -73 -53.5 -110.5t-128.5 -37.5zM356 380q0 29 -24 45q-17 10 -44 10h-91v-108h84q32 0 46 6q29 15 29 47zM397 168q0 37 -38 54q-17 8 -68 8h-94v-123
h110q31 0 52 7q38 16 38 54z" />
    <glyph glyph-name="C.2" unicode="&#xe04a;" horiz-adv-x="695" 
d="M666 513q0 -57 -36 -95t-101 -46q-15 -2 -19 8l-34 68q-6 12 8 18q38 10 38 40q0 24 -27 40q-26 17 -78 17q-108 0 -173 -73q-53 -61 -53 -149q0 -101 61 -160q63 -60 164 -60q92 0 178 44q14 8 19 -5l45 -95q6 -13 -6 -20q-101 -55 -232 -55q-179 0 -281 97
q-99 94 -99 254q0 139 91 235q109 114 283 114q129 0 198 -58q54 -47 54 -119z" />
    <glyph glyph-name="Cacute.2" unicode="&#xe04b;" horiz-adv-x="695" 
d="M666 513q0 -57 -36 -95t-101 -46q-15 -2 -19 8l-34 68q-6 12 8 18q38 10 38 40q0 24 -27 40q-26 17 -78 17q-108 0 -173 -73q-53 -61 -53 -149q0 -101 61 -160q63 -60 164 -60q92 0 178 44q14 8 19 -5l45 -95q6 -13 -6 -20q-101 -55 -232 -55q-179 0 -281 97
q-99 94 -99 254q0 139 91 235q109 114 283 114q129 0 198 -58q54 -47 54 -119zM402 968h90q9 0 12.5 -7.5t-1.5 -15.5l-98 -157q-10 -16 -23 -16h-68q-12 0 -13 10.5t5 18.5l75 152q7 15 21 15z" />
    <glyph glyph-name="Ccaron.2" unicode="&#xe04c;" horiz-adv-x="695" 
d="M666 513q0 -57 -36 -95t-101 -46q-15 -2 -19 8l-34 68q-6 12 8 18q38 10 38 40q0 24 -27 40q-26 17 -78 17q-108 0 -173 -73q-53 -61 -53 -149q0 -101 61 -160q63 -60 164 -60q92 0 178 44q14 8 19 -5l45 -95q6 -13 -6 -20q-101 -55 -232 -55q-179 0 -281 97
q-99 94 -99 254q0 139 91 235q109 114 283 114q129 0 198 -58q54 -47 54 -119zM416 772h-46q-11 0 -21 12l-144 162q-7 8 -5 15t12 7h83q16 0 27 -14l71 -79l70 79q11 14 27 14h83q10 0 12 -7t-5 -15l-144 -162q-10 -12 -20 -12z" />
    <glyph glyph-name="Ccedilla.2" unicode="&#xe04d;" horiz-adv-x="695" 
d="M539 -114q0 -54 -43.5 -77.5t-103.5 -23.5q-26 0 -45 4q-12 2 -12 12v40q0 12 12 12q3 0 16 -1.5t23 -1.5q66 0 66 40q0 32 -55 32q-16 0 -25 -1l5 71q-151 11 -238 95q-99 94 -99 254q0 139 91 235q109 114 283 114q129 0 198 -58q54 -47 54 -119q0 -57 -36 -95
t-101 -46q-15 -2 -19 8l-34 68q-6 12 8 18q38 10 38 40q0 24 -27 40q-26 17 -78 17q-108 0 -173 -73q-53 -61 -53 -149q0 -101 61 -160q63 -60 164 -60q92 0 178 44q14 8 19 -5l45 -95q6 -13 -6 -20q-86 -49 -205 -54v-20q43 -4 67.5 -27.5t24.5 -57.5z" />
    </font>
</defs>
</svg>
